<?xml version="1.0" standalone="no"?>
<!DOCTYPE svg PUBLIC "-//W3C//DTD SVG 1.1//EN" "http://www.w3.org/Graphics/SVG/1.1/DTD/svg11.dtd" >
<svg xmlns="http://www.w3.org/2000/svg" xmlns:xlink="http://www.w3.org/1999/xlink" version="1.1">
<metadata>
Created by FontForge 20170731 at Thu Jun 22 14:52:30 2017
 By Aleksey,,,
Copyright (c) 2017 by Olivier Gourvat. All rights reserved.
</metadata>
<defs>
<font id="RivalSans-Regular" horiz-adv-x="600" >
  <font-face 
    font-family="Rival Sans"
    font-weight="400"
    font-stretch="normal"
    units-per-em="1000"
    panose-1="2 11 5 3 5 3 0 0 0 3"
    ascent="750"
    descent="-250"
    x-height="486"
    cap-height="710"
    bbox="-114 -328 1481 945"
    underline-thickness="50"
    underline-position="-200"
    unicode-range="U+0020-2122"
  />
<missing-glyph horiz-adv-x="679" 
d="M90 710h500v-710h-500v710zM279 249h44l-4 31q-4 36 32 64l54 38q24 17 38 43t14 51q0 51 -35 81.5t-92 30.5q-48 0 -101 -28l8 -40q49 26 89 26q37 0 58.5 -19t21.5 -51t-40 -63l-50 -38q-52 -36 -40 -107zM299 122q16 0 27 11t11 27q0 15 -11 26t-27 11t-27 -11
t-11 -26q0 -16 11 -27t27 -11z" />
    <glyph glyph-name="f_f" unicode="ff" horiz-adv-x="662" 
d="M616 643q-97 0 -97 -93v-64h139v-72h-139v-414h-92v414h-231v-414h-93v414h-83v72h83v75q0 74 50.5 116.5t130.5 42.5q69 0 106 -22l-14 -73q-39 18 -82 18q-98 0 -98 -93v-64h231v75q0 74 50 116.5t131 42.5q59 0 97 -15l-12 -73q-31 11 -77 11z" />
    <glyph glyph-name="f_f_i" unicode="ffi" horiz-adv-x="919" 
d="M715 486l113 10v-496h-93v414h-216v-414h-92v414h-231v-414h-93v414h-83v72h83v75q0 74 50.5 116.5t130.5 42.5q69 0 106 -22l-14 -73q-39 18 -82 18q-98 0 -98 -93v-64h231v75q0 73 55.5 116t142.5 43q84 0 147 -28l-11 -75q-60 26 -129 26q-46 0 -79.5 -23t-33.5 -78
v-56h196z" />
    <glyph glyph-name="f_f_l" unicode="ffl" horiz-adv-x="933" 
d="M427 561q0 74 50 116.5t131 42.5q59 0 97 -15l-12 -73q-31 11 -77 11q-97 0 -97 -93v-64h141v-72h-141v-414h-92v414h-231v-414h-93v414h-83v72h83v75q0 74 50.5 116.5t130.5 42.5q69 0 106 -22l-14 -73q-39 18 -82 18q-98 0 -98 -93v-64h231v75zM760 700l93 20v-720h-93
v700z" />
    <glyph glyph-name="fi" unicode="fi" horiz-adv-x="583" 
d="M391 486l113 10v-496h-92v414h-216v-414h-93v414h-83v72h83v75q0 73 56 116t142 43q85 0 148 -28l-11 -75q-60 26 -129 26q-46 0 -79.5 -22.5t-33.5 -78.5v-56h195z" />
    <glyph glyph-name="fl" unicode="fl" horiz-adv-x="612" 
d="M103 561q0 74 50.5 116.5t130.5 42.5q46 0 85 -12l-12 -76q-31 11 -65 11q-96 0 -96 -93v-64h140v-72h-140v-414h-93v414h-83v72h83v75zM439 700l93 20v-720h-93v700z" />
    <glyph glyph-name=".notdef" horiz-adv-x="679" 
d="M90 710h500v-710h-500v710zM279 249h44l-4 31q-4 36 32 64l54 38q24 17 38 43t14 51q0 51 -35 81.5t-92 30.5q-48 0 -101 -28l8 -40q49 26 89 26q37 0 58.5 -19t21.5 -51t-40 -63l-50 -38q-52 -36 -40 -107zM299 122q16 0 27 11t11 27q0 15 -11 26t-27 11t-27 -11
t-11 -26q0 -16 11 -27t27 -11z" />
    <glyph glyph-name=".null" horiz-adv-x="0" 
 />
    <glyph glyph-name="nonmarkingreturn" horiz-adv-x="333" 
 />
    <glyph glyph-name="space" unicode=" " horiz-adv-x="237" 
 />
    <glyph glyph-name="space" unicode="&#xa0;" horiz-adv-x="237" 
 />
    <glyph glyph-name="exclam" unicode="!" horiz-adv-x="266" 
d="M102 194l-19 488v28h101v-28l-19 -488h-63zM132 -10q-27 0 -46.5 19.5t-19.5 47.5q0 26 19.5 45.5t46.5 19.5q28 0 47.5 -19.5t19.5 -45.5q0 -29 -19.5 -48t-47.5 -19z" />
    <glyph glyph-name="quotedbl" unicode="&#x22;" horiz-adv-x="385" 
d="M83 380l-22 237v93h96v-93l-22 -237h-52zM250 380l-22 237v93h96v-93l-22 -237h-52z" />
    <glyph glyph-name="numbersign" unicode="#" horiz-adv-x="691" 
d="M658 439h-126l-32 -153h111v-70h-126l-46 -216h-70l45 216l-194 -1l-46 -215h-70l45 215h-116v71h131l32 152h-116v71h131l43 201h70l-42 -201h194l43 201h70l-42 -201h111v-70zM429 286l32 153l-194 -1l-32 -152h194z" />
    <glyph glyph-name="dollar" unicode="$" horiz-adv-x="517" 
d="M485 209q-1 -82 -50 -129.5t-137 -57.5v-118h-70v115q-111 5 -183 51l14 81q35 -24 86.5 -40t101.5 -16q67 0 104.5 29t37.5 78q0 72 -83 104l-117 46q-144 57 -144 173q0 71 49.5 113.5t133.5 51.5v99h70v-97q79 -3 146 -31l-14 -75q-69 30 -148 30q-63 0 -102 -23.5
t-39 -66.5q0 -61 82 -93l118 -46q68 -27 105.5 -73t38.5 -105z" />
    <glyph glyph-name="percent" unicode="%" horiz-adv-x="829" 
d="M188 -6l392 721l55 -29l-392 -720zM199 303q-76 0 -121.5 53.5t-45.5 140.5q0 88 45.5 141.5t121.5 53.5q74 0 119 -53.5t45 -141.5q0 -87 -45 -140.5t-119 -53.5zM198 371q39 0 63 35t24 92q0 56 -24 91t-63 35q-40 0 -64.5 -35t-24.5 -91q0 -57 24.5 -92t64.5 -35z
M634 -6q-76 0 -121.5 53.5t-45.5 140.5q0 88 45.5 141.5t121.5 53.5q74 0 119 -53.5t45 -141.5q0 -87 -45 -140.5t-119 -53.5zM633 62q40 0 64 35t24 92q0 56 -24 91t-64 35t-64.5 -35t-24.5 -91q0 -57 24.5 -92t64.5 -35z" />
    <glyph glyph-name="ampersand" unicode="&#x26;" horiz-adv-x="685" 
d="M546 159l117 -150v-9h-104l-70 86q-95 -96 -229 -96q-99 0 -161.5 49t-62.5 139q0 149 185 234l4 2l-10 12q-61 76 -61 146q0 66 48 106.5t128 40.5t126.5 -40.5t46.5 -106.5q0 -55 -34 -101.5t-95 -76.5l-7 -4l122 -157q28 52 51 125h92v-9q-38 -116 -86 -190zM328 641
q-34 0 -56.5 -19t-22.5 -48q0 -8 2 -17t5 -16.5t8.5 -16.5t9.5 -15t11 -15t10 -12.5t10 -11.5t7 -9l3 -3q53 28 73.5 53t20.5 53q0 34 -22 55.5t-59 21.5zM269 71q95 0 167 82l-157 194q-146 -69 -146 -164q0 -53 39 -82.5t97 -29.5z" />
    <glyph glyph-name="quotesingle" unicode="'" horiz-adv-x="218" 
d="M83 380l-22 237v93h96v-93l-22 -237h-52z" />
    <glyph glyph-name="parenleft" unicode="(" horiz-adv-x="280" 
d="M192 -212q-69 101 -106.5 222t-37.5 245q0 123 37.5 244t106.5 221l72 -18q-65 -90 -100.5 -206.5t-35.5 -241.5q0 -126 36 -242.5t100 -205.5z" />
    <glyph glyph-name="parenright" unicode=")" horiz-adv-x="280" 
d="M88 -212l-72 18q64 88 99.5 205t35.5 243q0 125 -35.5 241.5t-99.5 206.5l72 18q69 -100 106.5 -221t37.5 -244q0 -124 -37.5 -245t-106.5 -222z" />
    <glyph glyph-name="asterisk" unicode="*" horiz-adv-x="454" 
d="M416 540l-143 -33l91 -115l-51 -38l-85 124l-87 -124l-51 38l91 115l-143 33l17 62l145 -43l-5 151h65l-6 -151l145 43z" />
    <glyph glyph-name="plus" unicode="+" 
d="M541 276v-71h-205v-205h-71v205h-206v71h206v205h71v-205h205z" />
    <glyph glyph-name="comma" unicode="," horiz-adv-x="246" 
d="M120 132q29 0 50 -23t21 -73q0 -54 -27 -113.5t-87 -100.5l-32 40q35 26 55.5 64t22.5 77q-27 -2 -48 16t-21 47q0 27 18.5 46.5t47.5 19.5z" />
    <glyph glyph-name="hyphen" unicode="-" horiz-adv-x="410" 
d="M66 288h279v-71h-279v71z" />
    <glyph glyph-name="period" unicode="." horiz-adv-x="236" 
d="M118 -10q-28 0 -47.5 19.5t-19.5 47.5q0 26 20 45.5t47 19.5t47 -19.5t20 -45.5q0 -28 -19.5 -47.5t-47.5 -19.5z" />
    <glyph glyph-name="slash" unicode="/" horiz-adv-x="429" 
d="M341 743l63 -27l-316 -794l-63 27z" />
    <glyph glyph-name="zero" unicode="0" horiz-adv-x="599" 
d="M299 -10q-115 0 -179.5 93t-64.5 259q0 167 64.5 261t179.5 94t180 -94t65 -261q0 -166 -65 -259t-180 -93zM299 67q71 0 110 72t39 203q0 132 -39.5 205.5t-109.5 73.5t-109.5 -73.5t-39.5 -205.5q0 -131 39 -203t110 -72z" />
    <glyph glyph-name="one" unicode="1" horiz-adv-x="391" 
d="M254 687h45v-687h-93v569l-174 -77l-15 77z" />
    <glyph glyph-name="two" unicode="2" horiz-adv-x="551" 
d="M156 77h350v-77h-450l-19 75l226 219q52 50 73.5 74t40 59t18.5 72q0 54 -41.5 87.5t-104.5 33.5q-88 0 -186 -42l-13 73q89 46 208 46q102 0 167.5 -54.5t65.5 -142.5q0 -66 -41 -124.5t-135 -147.5z" />
    <glyph glyph-name="three" unicode="3" horiz-adv-x="542" 
d="M344 360q77 -14 113 -63t36 -108q0 -85 -72 -142t-189 -57q-112 0 -198 39l14 76q77 -38 176 -38q79 0 126 37t47 91t-42 83.5t-112 29.5h-82v80h66q70 0 106 38t36 87q0 48 -37.5 77.5t-103.5 29.5q-79 0 -158 -33l-13 74q86 36 183 36q103 0 164 -47.5t61 -123.5
q0 -59 -33 -102.5t-88 -63.5z" />
    <glyph glyph-name="four" unicode="4" horiz-adv-x="565" 
d="M535 243v-77h-112v-166h-93v166h-293l-21 67l326 453h81v-443h112zM114 243h216v301z" />
    <glyph glyph-name="five" unicode="5" horiz-adv-x="570" 
d="M304 423q101 0 162.5 -57t61.5 -150q0 -102 -74 -164t-194 -62q-121 0 -211 51l18 78q77 -52 185 -52q81 0 130.5 40t49.5 108q0 59 -40 96t-108 37q-106 0 -175 -36l-49 44l39 331h384v-76h-308l-25 -208q64 20 154 20z" />
    <glyph glyph-name="six" unicode="6" horiz-adv-x="573" 
d="M311 423q110 0 168.5 -60t58.5 -155q0 -99 -63 -158.5t-170 -59.5q-120 0 -186.5 77.5t-66.5 216.5q0 177 106.5 284.5t289.5 128.5l10 -76q-119 -12 -197 -75t-102 -158q70 35 152 35zM305 67q65 0 101.5 39t36.5 103q0 66 -39 103t-118 37q-76 0 -139 -41
q-1 -10 -1 -28q0 -104 42.5 -158.5t116.5 -54.5z" />
    <glyph glyph-name="seven" unicode="7" horiz-adv-x="522" 
d="M494 687l10 -54l-318 -633h-98l312 611h-375v76h469z" />
    <glyph glyph-name="eight" unicode="8" horiz-adv-x="592" 
d="M416 341q56 -25 89.5 -68t33.5 -99q0 -81 -68 -132.5t-178 -51.5t-175.5 53t-65.5 139q0 48 32 93.5t87 73.5q-46 24 -72.5 65.5t-26.5 88.5q0 87 62.5 140.5t164.5 53.5t163 -52t61 -136q0 -56 -28.5 -101t-78.5 -67zM296 620q-58 0 -93.5 -31t-35.5 -83q0 -74 87 -109
l77 -26q45 20 71 55.5t26 78.5q0 52 -36 83.5t-96 31.5zM297 67q67 0 107 29t40 76q0 38 -25.5 69t-68.5 44l-94 32q-50 -21 -79.5 -58.5t-29.5 -79.5q0 -51 40.5 -81.5t109.5 -30.5z" />
    <glyph glyph-name="nine" unicode="9" horiz-adv-x="573" 
d="M268 697q121 0 187.5 -77.5t66.5 -216.5q0 -177 -106.5 -284.5t-289.5 -128.5l-11 76q120 13 198 76t102 158q-68 -36 -153 -36q-109 0 -167.5 60.5t-58.5 154.5q0 99 62.5 158.5t169.5 59.5zM131 478q0 -65 39 -102.5t117 -37.5q77 0 140 41q1 10 1 28
q0 104 -42.5 158.5t-116.5 54.5q-65 0 -101.5 -39t-36.5 -103z" />
    <glyph glyph-name="colon" unicode=":" horiz-adv-x="265" 
d="M132 364q-27 0 -46.5 19.5t-19.5 47.5q0 26 19.5 45.5t46.5 19.5q28 0 47.5 -19t19.5 -46q0 -28 -19.5 -47.5t-47.5 -19.5zM132 -10q-27 0 -46.5 19.5t-19.5 47.5q0 26 19.5 45.5t46.5 19.5q28 0 47.5 -19.5t19.5 -45.5q0 -29 -19.5 -48t-47.5 -19z" />
    <glyph glyph-name="semicolon" unicode=";" horiz-adv-x="276" 
d="M134 364q-27 0 -46.5 19.5t-19.5 47.5q0 26 19.5 45.5t46.5 19.5q28 0 47.5 -19t19.5 -46q0 -28 -19.5 -47.5t-47.5 -19.5zM138 132q29 0 50 -23t21 -73q0 -54 -27 -113.5t-87 -100.5l-32 40q35 26 55.5 64t22.5 77q-27 -2 -48 16t-21 47q0 27 18.5 46.5t47.5 19.5z" />
    <glyph glyph-name="less" unicode="&#x3c;" 
d="M538 520v-87l-400 -169l400 -169v-88l-487 214v86z" />
    <glyph glyph-name="equal" unicode="=" 
d="M59 379h482v-71h-482v71zM59 192h482v-72h-482v72z" />
    <glyph glyph-name="greater" unicode="&#x3e;" 
d="M62 520l487 -213v-86l-487 -214v88l400 169l-400 169v87z" />
    <glyph glyph-name="question" unicode="?" horiz-adv-x="434" 
d="M114 194l-6 33q-10 63 8 101t57 67l76 57q58 44 58 89q0 46 -31.5 72.5t-84.5 26.5q-72 0 -141 -43l-15 77q81 46 165 46q91 0 147 -48.5t56 -128.5q0 -40 -23 -81.5t-61 -69.5l-82 -57q-56 -42 -49 -92l5 -49h-79zM151 -10q-28 0 -47.5 19.5t-19.5 47.5q0 26 20 45.5
t47 19.5t47 -19.5t20 -45.5q0 -28 -19.5 -47.5t-47.5 -19.5z" />
    <glyph glyph-name="at" unicode="@" horiz-adv-x="920" 
d="M479 698q175 0 282.5 -106t107.5 -280q0 -119 -54 -191.5t-144 -72.5q-109 0 -129 92q-65 -44 -133 -44q-54 0 -91 34.5t-37 85.5q0 54 43.5 85.5t120.5 31.5q47 0 92 -10v9q0 100 -94 100q-72 0 -122 -41l-11 66q24 17 65.5 29t82.5 12q77 0 120.5 -44.5t43.5 -121.5
v-149q2 -36 17.5 -56.5t41.5 -20.5q55 0 88.5 56t33.5 148q0 147 -89.5 237t-235.5 90q-164 0 -264.5 -102.5t-100.5 -269.5q0 -154 98 -250t248 -96q99 0 177 31l11 -61q-88 -31 -192 -31q-179 0 -293.5 113t-114.5 294q0 195 119 314t313 119zM369 217q0 -27 16.5 -42
t45.5 -15q54 0 106 38v64q-37 9 -83 9q-85 0 -85 -54z" />
    <glyph glyph-name="A" unicode="A" horiz-adv-x="659" 
d="M543 0l-72 204h-283l-72 -204h-100l264 710h99l264 -710h-100zM217 285h225l-112 318z" />
    <glyph glyph-name="B" unicode="B" horiz-adv-x="633" 
d="M439 370q65 -10 107 -60t42 -116q0 -77 -57.5 -135.5t-164.5 -58.5h-274v710h246q102 0 156.5 -55.5t54.5 -128.5q0 -51 -28 -96t-82 -60zM451 514q0 49 -31 81.5t-105 32.5h-125v-227h125q74 0 105 32.5t31 80.5zM344 82q76 0 111.5 36t35.5 86q0 51 -35.5 85.5
t-111.5 34.5h-154v-242h154z" />
    <glyph glyph-name="B" unicode="&#xe000;" horiz-adv-x="633" 
d="M439 370q65 -10 107 -60t42 -116q0 -77 -57.5 -135.5t-164.5 -58.5h-274v710h246q102 0 156.5 -55.5t54.5 -128.5q0 -51 -28 -96t-82 -60zM451 514q0 49 -31 81.5t-105 32.5h-125v-227h125q74 0 105 32.5t31 80.5zM344 82q76 0 111.5 36t35.5 86q0 51 -35.5 85.5
t-111.5 34.5h-154v-242h154z" />
    <glyph glyph-name="C" unicode="C" horiz-adv-x="612" 
d="M396 -10q-158 0 -253 100t-95 265t95 265t253 100q105 0 186 -37l-14 -77q-83 32 -152 32q-121 0 -195.5 -78t-74.5 -205t74.5 -205t195.5 -78q74 0 152 31l14 -76q-81 -37 -186 -37z" />
    <glyph glyph-name="D" unicode="D" horiz-adv-x="686" 
d="M312 710q156 0 240 -95.5t84 -258.5q0 -164 -84 -260t-240 -96h-220v710h220zM312 82q111 0 168.5 73.5t57.5 200.5q0 126 -57.5 199t-168.5 73h-127v-546h127z" />
    <glyph glyph-name="E" unicode="E" horiz-adv-x="581" 
d="M185 82h358v-82h-451v710h446l-14 -82h-339v-244h262v-80h-262v-222z" />
    <glyph glyph-name="E" unicode="&#xe001;" horiz-adv-x="581" 
d="M185 82h358v-82h-451v710h446l-14 -82h-339v-244h262v-80h-262v-222z" />
    <glyph glyph-name="F" unicode="F" horiz-adv-x="557" 
d="M531 628h-345v-235h270v-82h-270v-311h-94v710h453z" />
    <glyph glyph-name="G" unicode="G" horiz-adv-x="682" 
d="M365 364h263v-301q-35 -33 -102 -53t-144 -20q-150 0 -242 101.5t-92 267.5q0 163 93.5 262t245.5 99q53 0 110.5 -14t96.5 -36l-15 -84q-34 22 -85 36t-101 14q-110 0 -176.5 -75.5t-66.5 -201.5q0 -129 68.5 -207t180.5 -78q78 0 131 25v183l-179 7z" />
    <glyph glyph-name="H" unicode="H" horiz-adv-x="709" 
d="M524 710h93v-710h-93v327h-339v-327h-93v710h93v-297h339v297z" />
    <glyph glyph-name="I" unicode="I" horiz-adv-x="277" 
d="M92 0v710h93v-710h-93z" />
    <glyph glyph-name="J" unicode="J" horiz-adv-x="296" 
d="M-47 -212l-15 82q76 0 124.5 56t48.5 145v639h93v-639q0 -125 -69.5 -204t-181.5 -79z" />
    <glyph glyph-name="K" unicode="K" horiz-adv-x="627" 
d="M360 423l266 -414v-9h-104l-220 351l-117 -143v-208h-93v710h93v-374l295 374h108v-9z" />
    <glyph glyph-name="L" unicode="L" horiz-adv-x="525" 
d="M185 82h328v-82h-421v710h93v-628z" />
    <glyph glyph-name="M" unicode="M" horiz-adv-x="853" 
d="M774 0h-94l-17 569l-184 -563h-105l-184 566l-17 -572h-93l25 710h138l184 -582l183 582h139z" />
    <glyph glyph-name="N" unicode="N" horiz-adv-x="713" 
d="M528 710h94v-710h-105l-332 550v-550h-93v710h105l331 -551v551z" />
    <glyph glyph-name="O" unicode="O" horiz-adv-x="739" 
d="M369 -10q-145 0 -232.5 100.5t-87.5 265.5q0 164 88 264t233 100t232.5 -100t87.5 -264q0 -165 -88 -265.5t-233 -100.5zM369 72q101 0 162 78t61 206t-61 205t-161 77q-101 0 -162 -77.5t-61 -204.5q0 -128 61 -206t161 -78z" />
    <glyph glyph-name="P" unicode="P" horiz-adv-x="606" 
d="M346 710q103 0 166.5 -62.5t63.5 -163.5q0 -102 -63.5 -164t-166.5 -62h-161v-258h-93v710h254zM330 339q65 0 106.5 40t41.5 105q0 64 -41.5 104t-106.5 40h-145v-289h145z" />
    <glyph glyph-name="Q" unicode="Q" horiz-adv-x="739" 
d="M690 356q0 -118 -46.5 -205t-129.5 -129l85 -157l-89 -39l-72 171q-31 -7 -69 -7q-145 0 -232.5 100.5t-87.5 265.5q0 164 88 264t233 100t232.5 -100t87.5 -264zM147 356q0 -128 61 -206t161 -78q101 0 162 78t61 206t-61 205t-161 77q-101 0 -162 -77.5t-61 -204.5z
" />
    <glyph glyph-name="R" unicode="R" horiz-adv-x="635" 
d="M383 281l234 -272v-9h-111l-234 279h-87v-279h-93v710h254q103 0 166.5 -59t63.5 -156q0 -88 -52 -145.5t-141 -68.5zM185 628v-271h145q65 0 106.5 37.5t41.5 98.5q0 60 -41.5 97.5t-106.5 37.5h-145z" />
    <glyph glyph-name="S" unicode="S" horiz-adv-x="555" 
d="M267 -10q-133 0 -224 55l15 87q91 -60 208 -60q73 0 114.5 31.5t41.5 84.5q0 78 -91 113l-130 50q-150 60 -150 185q0 89 66 136.5t178 47.5q104 0 186 -35l-14 -80q-77 33 -163 33q-69 0 -112 -26t-43 -74q0 -67 90 -99l130 -51q148 -59 151 -192q-1 -102 -66.5 -154
t-186.5 -52z" />
    <glyph glyph-name="S" unicode="&#xe002;" horiz-adv-x="555" 
d="M267 -10q-133 0 -224 55l15 87q91 -60 208 -60q73 0 114.5 31.5t41.5 84.5q0 78 -91 113l-130 50q-150 60 -150 185q0 89 66 136.5t178 47.5q104 0 186 -35l-14 -80q-77 33 -163 33q-69 0 -112 -26t-43 -74q0 -67 90 -99l130 -51q148 -59 151 -192q-1 -102 -66.5 -154
t-186.5 -52z" />
    <glyph glyph-name="T" unicode="T" horiz-adv-x="579" 
d="M567 710v-82h-230v-628h-94v628h-231v82h555z" />
    <glyph glyph-name="U" unicode="U" horiz-adv-x="700" 
d="M351 -10q-129 0 -197.5 64.5t-68.5 213.5v442h93v-441q0 -197 173 -197q171 0 171 197v441h94v-442q0 -149 -68 -213.5t-197 -64.5z" />
    <glyph glyph-name="V" unicode="V" horiz-adv-x="649" 
d="M532 710h100l-256 -710h-103l-255 710h100l207 -610z" />
    <glyph glyph-name="W" unicode="W" horiz-adv-x="887" 
d="M768 710h92l-177 -710h-106l-133 526l-134 -526h-106l-178 710h94l138 -588l150 582h71l150 -586z" />
    <glyph glyph-name="X" unicode="X" horiz-adv-x="593" 
d="M353 371l229 -362v-9h-107l-178 290l-179 -290h-107v9l230 362l-210 330v9h106l160 -259l159 259h106v-9z" />
    <glyph glyph-name="Y" unicode="Y" horiz-adv-x="635" 
d="M612 710v-9l-247 -407v-294h-94v292l-248 409v9h105l189 -326l189 326h106z" />
    <glyph glyph-name="Z" unicode="Z" horiz-adv-x="580" 
d="M152 82h391v-82h-501l-12 71l385 557h-365v82h479l12 -69z" />
    <glyph glyph-name="bracketleft" unicode="[" horiz-adv-x="337" 
d="M172 641v-774h144l-10 -69h-216v912h216l10 -69h-144z" />
    <glyph glyph-name="backslash" unicode="\" horiz-adv-x="429" 
d="M88 743l316 -794l-63 -27l-316 794z" />
    <glyph glyph-name="bracketright" unicode="]" horiz-adv-x="337" 
d="M32 710h216v-912h-216l-10 69h144v774h-144z" />
    <glyph glyph-name="asciicircum" unicode="^" 
d="M504 323h-98l-106 287l-106 -287h-98l158 387h92z" />
    <glyph glyph-name="underscore" unicode="_" horiz-adv-x="511" 
d="M0 -64h511v-63h-511v63z" />
    <glyph glyph-name="grave" unicode="`" horiz-adv-x="442" 
d="M211 733l154 -143l-36 -43l-176 122z" />
    <glyph glyph-name="a" unicode="a" horiz-adv-x="530" 
d="M259 496q93 0 146 -57.5t53 -152.5v-286h-80l-11 59q-34 -30 -85.5 -49.5t-94.5 -19.5q-64 0 -108.5 42t-44.5 106q0 68 52.5 106.5t142.5 38.5q80 0 137 -15v24q0 57 -33 92.5t-96 35.5q-89 0 -153 -44l-13 71q71 49 188 49zM130 138q0 -33 24 -53.5t64 -20.5
q33 0 74.5 15t73.5 39v81q-45 14 -131 14q-51 0 -78 -20t-27 -55z" />
    <glyph glyph-name="b" unicode="b" horiz-adv-x="564" 
d="M328 496q89 0 140 -67t51 -186q-4 -118 -70 -185.5t-177 -67.5q-95 0 -195 45v665l92 20v-283q64 59 159 59zM257 67q78 0 122 49t44 136q0 79 -32 123t-89 44q-73 0 -133 -60v-273q44 -19 88 -19z" />
    <glyph glyph-name="b" unicode="&#xe003;" horiz-adv-x="564" 
d="M328 496q89 0 140 -67t51 -186q-4 -118 -70 -185.5t-177 -67.5q-95 0 -195 45v665l92 20v-283q64 59 159 59zM257 67q78 0 122 49t44 136q0 79 -32 123t-89 44q-73 0 -133 -60v-273q44 -19 88 -19z" />
    <glyph glyph-name="c" unicode="c" horiz-adv-x="470" 
d="M288 -10q-111 0 -177.5 69t-66.5 183q0 113 65 183.5t164 70.5q50 0 96 -15t71 -40l-43 -61q-42 39 -122 39q-61 0 -98 -48t-37 -126q0 -82 42 -130t117 -48q31 0 68 8t57 20l13 -71q-54 -34 -149 -34z" />
    <glyph glyph-name="d" unicode="d" horiz-adv-x="560" 
d="M390 700l93 20v-720h-81l-10 51q-61 -61 -149 -61q-90 0 -144 66.5t-54 180.5q0 120 62.5 189.5t167.5 69.5q70 0 115 -24v228zM141 238q0 -81 34.5 -126t93.5 -45q63 0 121 58v272q-43 22 -108 22q-66 0 -103.5 -48t-37.5 -133z" />
    <glyph glyph-name="e" unicode="e" horiz-adv-x="505" 
d="M470 249l-14 -21h-315q11 -162 157 -162q76 0 123 28l14 -69q-57 -35 -151 -35q-111 0 -175 67t-64 186q0 118 61 185.5t168 67.5q93 0 144.5 -65t51.5 -182zM268 421q-50 0 -83 -32.5t-42 -90.5h230q-11 123 -105 123z" />
    <glyph glyph-name="f" unicode="f" horiz-adv-x="347" 
d="M294 643q-98 0 -98 -93v-64h141v-72h-141v-414h-93v414h-83v72h83v75q0 74 50.5 116.5t130.5 42.5q76 0 106 -22l-13 -75q-42 20 -83 20z" />
    <glyph glyph-name="g" unicode="g" horiz-adv-x="517" 
d="M357 58q69 -10 106 -44t37 -84q0 -69 -66 -106.5t-185 -37.5q-115 0 -179 35t-64 104q0 38 24.5 67t62.5 45q-26 27 -24 70l65 67q-81 49 -81 145q0 77 56.5 127t147.5 50q49 0 88 -15q57 64 122 79l29 -84q-42 -5 -88 -33q53 -50 53 -124q0 -77 -56.5 -126.5
t-147.5 -49.5q-35 0 -60 7l-33 -42q0 -22 42 -28zM254 427q-51 0 -80.5 -29.5t-29.5 -78.5q0 -48 31.5 -78t82.5 -30t81.5 29.5t30.5 77.5q0 49 -32 79t-84 30zM262 -141q66 0 106.5 17.5t40.5 45.5q0 47 -78 55l-157 22q-8 1 -22 5q-57 -20 -57 -65q0 -80 167 -80z" />
    <glyph glyph-name="h" unicode="h" horiz-adv-x="562" 
d="M340 496q65 0 107 -46t42 -140v-310h-93v291q0 71 -21.5 99.5t-60.5 28.5q-67 0 -144 -54v-365h-92v700l92 20v-286q89 62 170 62z" />
    <glyph glyph-name="i" unicode="i" horiz-adv-x="253" 
d="M127 599q-26 0 -44 17.5t-18 43.5q0 24 18 42t44 18t44.5 -18t18.5 -42q0 -25 -18.5 -43t-44.5 -18zM80 0v476l93 20v-496h-93z" />
    <glyph glyph-name="j" unicode="j" horiz-adv-x="259" 
d="M132 599q-26 0 -44 18t-18 43q0 24 18.5 42t43.5 18q26 0 44.5 -18t18.5 -42q0 -25 -18.5 -43t-44.5 -18zM-33 -212l-14 76q131 0 133 169v443l92 20v-464q0 -110 -58 -177t-153 -67z" />
    <glyph glyph-name="k" unicode="k" horiz-adv-x="493" 
d="M265 272l232 -263v-9h-106l-221 249v-249h-92v700l92 20v-437l175 203h105v-9z" />
    <glyph glyph-name="l" unicode="l" horiz-adv-x="253" 
d="M80 0v700l93 20v-720h-93z" />
    <glyph glyph-name="m" unicode="m" horiz-adv-x="843" 
d="M621 496q65 0 107 -46t42 -140v-310h-93v291q0 71 -21 99.5t-60 28.5q-59 0 -130 -58q4 -20 4 -51v-310h-92v291q0 71 -21.5 99.5t-60.5 28.5q-61 0 -126 -55v-364h-92v487l80 9l10 -62q80 62 153 62q88 0 127 -76q88 76 173 76z" />
    <glyph glyph-name="n" unicode="n" horiz-adv-x="562" 
d="M340 496q65 0 107 -46t42 -140v-310h-93v291q0 71 -21.5 99.5t-60.5 28.5q-67 0 -144 -54v-365h-92v487l80 9l10 -63q88 63 172 63z" />
    <glyph glyph-name="o" unicode="o" horiz-adv-x="567" 
d="M284 -10q-108 0 -174 69.5t-66 182.5q0 115 65.5 184.5t172.5 69.5q109 0 175 -69.5t66 -184.5q0 -113 -66 -182.5t-173 -69.5zM284 67q64 0 103.5 48t39.5 127q0 80 -40 128.5t-105 48.5q-64 0 -103 -48.5t-39 -128.5q0 -76 41 -125.5t103 -49.5z" />
    <glyph glyph-name="p" unicode="p" horiz-adv-x="559" 
d="M318 496q89 0 143 -66.5t54 -180.5q0 -120 -62 -189.5t-167 -69.5q-69 0 -116 24v-216h-92v688h80l10 -52q60 62 150 62zM279 67q65 0 102.5 48t37.5 133q0 81 -34.5 126t-93.5 45q-62 0 -121 -59v-271q43 -22 109 -22z" />
    <glyph glyph-name="q" unicode="q" horiz-adv-x="565" 
d="M291 496q96 0 197 -45v-653h-93v250q-63 -58 -155 -58t-143.5 66.5t-51.5 186.5q5 118 70.5 185.5t175.5 67.5zM263 67q71 0 132 59v274q-43 19 -91 19q-76 0 -119.5 -49.5t-43.5 -138.5q0 -77 32 -120.5t90 -43.5z" />
    <glyph glyph-name="r" unicode="r" horiz-adv-x="399" 
d="M313 496q43 0 75 -28l-15 -79l-4 -1q-25 18 -71 18q-71 0 -128 -77v-329h-92v487l80 9l12 -100q63 100 143 100z" />
    <glyph glyph-name="s" unicode="s" horiz-adv-x="451" 
d="M220 -10q-109 0 -180 41l13 72q81 -38 171 -38q96 0 96 57q0 23 -15.5 36t-47.5 26l-101 42q-106 44 -106 137q0 65 47.5 99t137.5 34q89 0 154 -27l-12 -75q-61 27 -141 27q-90 0 -90 -59q0 -22 11.5 -33.5t39.5 -24.5l107 -46q111 -46 111 -136q0 -63 -50.5 -97.5
t-144.5 -34.5z" />
    <glyph glyph-name="s" unicode="&#xe004;" horiz-adv-x="451" 
d="M220 -10q-109 0 -180 41l13 72q81 -38 171 -38q96 0 96 57q0 23 -15.5 36t-47.5 26l-101 42q-106 44 -106 137q0 65 47.5 99t137.5 34q89 0 154 -27l-12 -75q-61 27 -141 27q-90 0 -90 -59q0 -22 11.5 -33.5t39.5 -24.5l107 -46q111 -46 111 -136q0 -63 -50.5 -97.5
t-144.5 -34.5z" />
    <glyph glyph-name="t" unicode="t" horiz-adv-x="370" 
d="M339 80l14 -73q-43 -17 -111 -17t-105.5 40.5t-37.5 136.5v247h-78v72h81l21 127h69v-127h151v-72h-151v-235q0 -62 18 -87t56 -25q45 0 73 13z" />
    <glyph glyph-name="u" unicode="u" horiz-adv-x="562" 
d="M391 486h93v-486h-80l-11 52q-86 -62 -171 -62q-65 0 -107 46t-42 140v310h92v-291q0 -71 21.5 -99.5t61.5 -28.5q64 0 143 54v365z" />
    <glyph glyph-name="v" unicode="v" horiz-adv-x="515" 
d="M400 486h103l-198 -486h-95l-198 486h103l143 -388z" />
    <glyph glyph-name="w" unicode="w" horiz-adv-x="732" 
d="M618 486h96l-144 -486h-105l-99 333l-98 -333h-105l-145 486h97l104 -377l108 368h79l107 -367z" />
    <glyph glyph-name="x" unicode="x" horiz-adv-x="487" 
d="M301 249l168 -241v-8h-101l-125 186l-125 -186h-101v8l169 241l-160 229v8h104l113 -174l114 174h103v-8z" />
    <glyph glyph-name="y" unicode="y" horiz-adv-x="510" 
d="M394 486h101v-8l-264 -680h-97l73 189l-191 491v8h103l137 -391z" />
    <glyph glyph-name="y" unicode="&#xe006;" horiz-adv-x="510" 
d="M394 486h101v-8l-264 -680h-97l73 189l-191 491v8h103l137 -391z" />
    <glyph glyph-name="z" unicode="z" horiz-adv-x="485" 
d="M152 77h296v-77h-404l-12 68l283 341h-265v77h381l12 -67z" />
    <glyph glyph-name="braceleft" unicode="{" horiz-adv-x="320" 
d="M252 641q-70 0 -70 -109q0 -32 7 -76q10 -77 10 -97q0 -84 -59 -105q59 -21 59 -106q0 -18 -10 -96q-7 -44 -7 -77q0 -107 70 -107h40v-69h-44q-148 0 -148 172q0 36 8.5 93.5t8.5 79.5q0 38 -14 56.5t-46 22.5l-42 5v53l42 3q60 4 60 81q0 22 -8.5 78.5t-8.5 92.5
q0 174 148 174h44v-69h-40z" />
    <glyph glyph-name="bar" unicode="|" horiz-adv-x="242" 
d="M90 710h62v-886h-62v886z" />
    <glyph glyph-name="braceright" unicode="}" horiz-adv-x="320" 
d="M264 284l42 -3v-53l-42 -5q-32 -4 -46 -22.5t-14 -56.5q0 -22 8.5 -79.5t8.5 -93.5q0 -172 -148 -172h-44v69h39q71 0 71 107q0 33 -7 77q-10 78 -10 96q0 86 58 106q-58 20 -58 105q0 19 10 97q7 44 7 76q0 109 -71 109h-39v69h44q148 0 148 -174q0 -36 -8.5 -92.5
t-8.5 -78.5q0 -77 60 -81z" />
    <glyph glyph-name="asciitilde" unicode="~" 
d="M52 209q-2 71 30.5 114t90.5 43q21 0 43.5 -6.5t39.5 -14t58 -27.5q86 -42 121 -42q51 0 52 84h63q3 -75 -27.5 -117t-88.5 -42q-44 0 -144 48q-4 2 -14.5 7.5t-15 7.5t-13.5 6.5t-13.5 6t-12.5 5t-13 4.5t-11.5 3t-12 2.5t-11.5 0.5q-56 0 -57 -83h-64z" />
    <glyph glyph-name="exclamdown" unicode="&#xa1;" horiz-adv-x="253" 
d="M192 451q0 -26 -19.5 -45.5t-47.5 -19.5q-27 0 -46.5 19.5t-19.5 45.5q0 28 19.5 47.5t46.5 19.5q29 0 48 -19t19 -48zM95 314h63l19 -488v-28h-101v28z" />
    <glyph glyph-name="cent" unicode="&#xa2;" horiz-adv-x="485" 
d="M426 95l13 -71q-46 -28 -127 -33v-99h-60v100q-95 12 -150.5 79t-55.5 171q0 106 58 175.5t148 77.5v97h60v-98q87 -11 130 -53l-43 -61q-32 28 -87 36v-349q74 4 114 28zM142 245q0 -67 28.5 -112t81.5 -60v344q-50 -10 -80 -56t-30 -116z" />
    <glyph glyph-name="sterling" unicode="&#xa3;" horiz-adv-x="542" 
d="M190 77h315v-77h-473v77h65q56 73 56 164q0 23 -3 47h-80v53h72q-22 114 -22 157q0 87 59.5 143.5t163.5 56.5q67 0 139 -29l-13 -71q-54 23 -114 23q-62 0 -102.5 -35.5t-40.5 -89.5q0 -41 22 -155h182v-53h-174q3 -24 3 -49q0 -91 -55 -162z" />
    <glyph glyph-name="currency" unicode="&#xa4;" horiz-adv-x="559" 
d="M468 358q0 -59 -34 -109l62 -62l-47 -46l-62 61q-49 -33 -108 -33t-108 33l-61 -61l-47 46l62 62q-35 48 -35 109q0 60 35 108l-62 61l47 46l61 -61q49 34 108 34t109 -34l61 61l47 -46l-62 -61q34 -49 34 -108zM171 358q0 -46 32 -81t76 -35t76.5 35t32.5 81
q0 45 -32.5 79.5t-76.5 34.5t-76 -34.5t-32 -79.5z" />
    <glyph glyph-name="yen" unicode="&#xa5;" horiz-adv-x="590" 
d="M564 678l-223 -368v-60h116v-51h-116v-50h116v-51h-116v-98h-92v98h-117v51h117v50h-117v51h117v59l-223 369v9h103l166 -290l165 290h104v-9z" />
    <glyph glyph-name="brokenbar" unicode="&#xa6;" horiz-adv-x="248" 
d="M93 710h62v-359h-62v359zM93 183h62v-359h-62v359z" />
    <glyph glyph-name="section" unicode="&#xa7;" horiz-adv-x="514" 
d="M249 -10q-77 0 -142 29l12 67q53 -23 118 -23q48 0 75 16t27 45q0 43 -53 61l-140 46q-113 36 -113 133q0 90 87 123q-36 35 -36 90q0 67 49 105t132 38q77 0 142 -29l-12 -67q-55 23 -119 23q-47 0 -74 -16t-27 -45q0 -22 15 -38.5t38 -23.5l158 -51q95 -39 95 -128
t-87 -123q36 -35 36 -89q0 -67 -49 -105t-132 -38zM324 264q65 22 67 75q0 37 -55 60l-153 49q-60 -26 -60 -78q0 -37 55 -59z" />
    <glyph glyph-name="dieresis" unicode="&#xa8;" horiz-adv-x="502" 
d="M163 568q-24 0 -41 16t-16 40q1 23 17.5 39t39.5 16q24 0 40.5 -16t16.5 -39q0 -24 -16.5 -40t-40.5 -16zM338 568q-24 0 -41 16.5t-17 40.5q1 22 18 38t40 16t40 -16t17 -38q0 -24 -16.5 -40.5t-40.5 -16.5z" />
    <glyph glyph-name="copyright" unicode="&#xa9;" horiz-adv-x="810" 
d="M406 -5q-148 0 -253 104.5t-105 253.5q0 148 105 252.5t253 104.5t252.5 -104.5t104.5 -252.5t-104.5 -253t-252.5 -105zM406 45q127 0 216.5 90t89.5 218q0 127 -89.5 217t-216.5 90q-128 0 -218 -90t-90 -217q0 -128 90 -218t218 -90zM416 148q-90 0 -143 54.5
t-53 146.5t53 146.5t143 54.5q57 0 99 -17l-9 -55q-31 14 -83 14q-57 0 -93 -39t-36 -104q0 -64 36 -102.5t93 -38.5q52 0 83 13l10 -55q-43 -18 -100 -18z" />
    <glyph glyph-name="ordfeminine" unicode="&#xaa;" horiz-adv-x="482" 
d="M245 710q77 0 120 -46.5t43 -124.5v-226h-72l-8 52q-27 -27 -66.5 -43.5t-75.5 -16.5q-53 0 -88 33.5t-35 84.5q0 54 44.5 86t117.5 32q52 0 101 -14v17q0 46 -26 73t-75 27q-71 0 -121 -33l-11 60q59 39 152 39zM146 425q0 -26 20 -42.5t51 -16.5q57 0 109 44v65
q-39 12 -94 12q-41 0 -63.5 -16.5t-22.5 -45.5zM67 185v58h341v-57z" />
    <glyph glyph-name="guillemotleft" unicode="&#xab;" horiz-adv-x="494" 
d="M261 415l-139 -170l140 -172l-76 -22l-144 169v49l142 168zM308 245l140 -172l-76 -22l-144 169v49l142 168l77 -22z" />
    <glyph glyph-name="logicalnot" unicode="&#xac;" 
d="M55 369h482v-258h-68v190h-414v68z" />
    <glyph glyph-name="uni00AD" unicode="&#xad;" horiz-adv-x="410" 
d="M66 288h279v-71h-279v71z" />
    <glyph glyph-name="registered" unicode="&#xae;" horiz-adv-x="810" 
d="M406 710q148 0 252.5 -104.5t104.5 -252.5t-104.5 -253t-252.5 -105t-253 104.5t-105 253.5q0 148 105 252.5t253 104.5zM406 45q127 0 216.5 90t89.5 218q0 127 -89.5 217t-216.5 90q-128 0 -218 -90t-90 -217q0 -128 90 -218t218 -90zM549 431q0 -44 -22.5 -74
t-62.5 -40l95 -151v-7h-76l-93 153h-50v-153h-71v391h155q57 0 91 -33t34 -86zM340 495v-134h72q29 0 46.5 18.5t17.5 48.5q0 28 -17.5 47.5t-46.5 19.5h-72z" />
    <glyph glyph-name="macron" unicode="&#xaf;" horiz-adv-x="497" 
d="M120 596v68h257v-68h-257z" />
    <glyph glyph-name="degree" unicode="&#xb0;" horiz-adv-x="381" 
d="M191 395q-65 0 -105.5 41t-40.5 108t40.5 108t105.5 41t105 -41t40 -108t-40 -108t-105 -41zM191 448q39 0 63 26.5t24 69.5t-24.5 69t-62.5 26q-40 0 -64 -26t-24 -69t24.5 -69.5t63.5 -26.5z" />
    <glyph glyph-name="plusminus" unicode="&#xb1;" 
d="M336 336h207v-71h-207v-147h-71v147h-208v71h208v146h71v-146zM59 0v70h482v-70h-482z" />
    <glyph glyph-name="uni00B2" unicode="&#xb2;" horiz-adv-x="348" 
d="M131 530h182v-60h-273l-10 42l159 170q40 41 40 82q0 29 -21.5 46t-56.5 17q-53 0 -105 -22l-12 56q56 27 130 27q65 0 103 -32.5t38 -86.5q0 -58 -80 -141z" />
    <glyph glyph-name="uni00B3" unicode="&#xb3;" horiz-adv-x="345" 
d="M219 686q38 -4 63.5 -32.5t25.5 -68.5q0 -53 -44 -87t-115 -34q-74 0 -122 23l10 57q40 -20 103 -20q39 0 66 19t27 50q0 29 -24.5 45.5t-63.5 16.5h-30v50h30q33 0 52.5 16.5t19.5 44.5t-19.5 44.5t-51.5 16.5q-48 0 -92 -14l-10 55q44 20 117 20q59 0 95.5 -29
t36.5 -78q0 -35 -21 -61t-53 -34z" />
    <glyph glyph-name="acute" unicode="&#xb4;" horiz-adv-x="442" 
d="M307 733l58 -64l-176 -122l-36 43z" />
    <glyph glyph-name="uni00B5" unicode="&#xb5;" horiz-adv-x="567" 
d="M78 -188v674h92v-291q0 -71 21.5 -99.5t61.5 -28.5q67 0 143 54v365h93v-486h-81l-9 52q-85 -62 -169 -62q-34 0 -63 13v-191h-89z" />
    <glyph glyph-name="paragraph" unicode="&#xb6;" horiz-adv-x="598" 
d="M503 710v-710h-71v286h-65v-286h-70v286h-55q-87 0 -149 62.5t-62 149.5q0 88 61.5 150t149.5 62h261z" />
    <glyph glyph-name="periodcentered" unicode="&#xb7;" horiz-adv-x="255" 
d="M127 209q-27 0 -46.5 19.5t-19.5 47.5q0 26 19.5 45.5t46.5 19.5t47 -19.5t20 -45.5q0 -28 -19.5 -47.5t-47.5 -19.5z" />
    <glyph glyph-name="cedilla" unicode="&#xb8;" horiz-adv-x="444" 
d="M213 -200q-53 0 -82 17l22 54q23 -11 48 -11q31 0 31 20q0 13 -10.5 20.5t-40.5 18.5l-3 16l51 78h39l-24 -56q69 -23 69 -74q0 -37 -27.5 -60t-72.5 -23z" />
    <glyph glyph-name="uni00B9" unicode="&#xb9;" horiz-adv-x="259" 
d="M167 883h34v-413h-73v323l-98 -39l-10 60z" />
    <glyph glyph-name="ordmasculine" unicode="&#xba;" horiz-adv-x="520" 
d="M260 305q-87 0 -140 54.5t-53 143.5q0 93 53 150t140 57t140 -57t53 -150q0 -89 -53 -143.5t-140 -54.5zM260 372q49 0 78.5 36t29.5 95q0 63 -29.5 101.5t-78.5 38.5t-79 -38.5t-30 -101.5q1 -59 31 -95t78 -36zM67 243h386v-57l-386 -1v58z" />
    <glyph glyph-name="guillemotright" unicode="&#xbb;" horiz-adv-x="495" 
d="M267 269v-49l-144 -169l-76 22l139 172l-138 170l77 22zM310 437l142 -168v-49l-143 -169l-77 22l140 172l-139 170z" />
    <glyph glyph-name="onequarter" unicode="&#xbc;" horiz-adv-x="814" 
d="M469 697l50 -23l-308 -708l-50 23zM209 274h-73v323l-98 -39l-10 60l147 69h34v-413zM779 161v-62h-60v-99h-74v99h-181l-14 45l207 269h62v-252h60zM527 161h118v155z" />
    <glyph glyph-name="onehalf" unicode="&#xbd;" horiz-adv-x="800" 
d="M469 697l50 -23l-308 -708l-50 23zM209 274h-73v323l-98 -39l-10 60l147 69h34v-413zM576 60h182v-60h-273l-10 42l159 170q40 43 40 82q0 29 -21.5 46.5t-56.5 17.5q-55 0 -105 -23l-12 56q56 27 130 27q65 0 103 -32t38 -86q0 -59 -80 -141z" />
    <glyph glyph-name="threequarters" unicode="&#xbe;" horiz-adv-x="923" 
d="M582 697l50 -23l-308 -708l-50 23zM315 389q0 -53 -44 -87t-115 -34q-70 0 -122 23l10 57q40 -20 103 -20q39 0 66 19.5t27 49.5q0 29 -24.5 45.5t-63.5 16.5h-30v50h30q33 0 52.5 17t19.5 44q0 28 -19.5 45t-51.5 17q-39 0 -92 -14l-10 55q47 19 117 19q59 0 95.5 -29
t36.5 -78q0 -36 -21.5 -62t-54.5 -33q38 -3 64.5 -31.5t26.5 -69.5zM892 161v-62h-60v-99h-74v99h-181l-14 45l207 269h62v-252h60zM640 161h118v155z" />
    <glyph glyph-name="questiondown" unicode="&#xbf;" horiz-adv-x="427" 
d="M280 518q28 0 47.5 -19.5t19.5 -47.5q0 -26 -20 -45.5t-47 -19.5t-47 19.5t-20 45.5q0 28 19.5 47.5t47.5 19.5zM317 314l6 -33q10 -63 -8 -101t-57 -67l-76 -57q-58 -44 -58 -89q0 -46 31.5 -72.5t84.5 -26.5q72 0 141 43l15 -77q-80 -46 -165 -46q-91 0 -147 48.5
t-56 128.5q0 40 23 81.5t61 69.5l82 57q56 42 49 92l-5 49h79z" />
    <glyph glyph-name="Agrave" unicode="&#xc0;" horiz-adv-x="659" 
d="M390 810l-29 -48l-167 81l46 71zM543 0l-72 204h-283l-72 -204h-100l264 710h99l264 -710h-100zM217 285h225l-112 318z" />
    <glyph glyph-name="Aacute" unicode="&#xc1;" horiz-adv-x="659" 
d="M441 840l-167 -80l-29 48l150 103zM543 0l-72 204h-283l-72 -204h-100l264 710h99l264 -710h-100zM217 285h225l-112 318z" />
    <glyph glyph-name="Acircumflex" unicode="&#xc2;" horiz-adv-x="659" 
d="M330 825l-121 -68l-39 42l137 107h46l137 -107l-39 -42zM543 0l-72 204h-283l-72 -204h-100l264 710h99l264 -710h-100zM217 285h225l-112 318z" />
    <glyph glyph-name="Atilde" unicode="&#xc3;" horiz-adv-x="659" 
d="M274 807q-29 0 -29 -44h-55q0 113 76 113q27 0 63 -21t52 -21q32 0 32 44h54q0 -113 -77 -113q-29 0 -65.5 21t-50.5 21zM543 0l-72 204h-283l-72 -204h-100l264 710h99l264 -710h-100zM217 285h225l-112 318z" />
    <glyph glyph-name="Adieresis" unicode="&#xc4;" horiz-adv-x="659" 
d="M242 770q-24 0 -41 16.5t-16 40.5q1 22 17.5 38t39.5 16q24 0 40 -16t17 -38q0 -25 -16.5 -41t-40.5 -16zM417 770q-24 0 -41 16.5t-17 40.5q1 22 18 38t40 16t40 -16t17 -38q0 -24 -16.5 -40.5t-40.5 -16.5zM543 0l-72 204h-283l-72 -204h-100l264 710h99l264 -710h-100
zM217 285h225l-112 318z" />
    <glyph glyph-name="Aring" unicode="&#xc5;" horiz-adv-x="659" 
d="M330 752q-42 0 -71 27.5t-29 68.5q0 39 29 68t71 29q41 0 70 -29t29 -68q0 -41 -28.5 -68.5t-70.5 -27.5zM330 899q-22 0 -37 -14.5t-15 -36.5q0 -23 15 -37t37 -14q21 0 36.5 15t15.5 36t-15.5 36t-36.5 15zM543 0l-72 204h-283l-72 -204h-100l264 710h99l264 -710h-100
zM217 285h225l-112 318z" />
    <glyph glyph-name="AE" unicode="&#xc6;" horiz-adv-x="854" 
d="M515 82h301v-82h-395v197h-230l-81 -197h-101l303 710h499l-14 -82h-282v-244h206v-80h-206v-222zM223 275h198v353h-53z" />
    <glyph glyph-name="Ccedilla" unicode="&#xc7;" horiz-adv-x="612" 
d="M582 27q-77 -35 -178 -37l-15 -35q63 -22 63 -72q0 -37 -27.5 -60t-73.5 -23q-52 0 -81 17l22 54q23 -11 48 -11q31 0 31 20q0 13 -10.5 20.5t-40.5 18.5l-3 16l25 58q-135 17 -214.5 114.5t-79.5 247.5q0 165 95 265t253 100q105 0 186 -37l-14 -77q-83 32 -152 32
q-121 0 -195.5 -78t-74.5 -205t74.5 -205t195.5 -78q74 0 152 31z" />
    <glyph glyph-name="Egrave" unicode="&#xc8;" horiz-adv-x="581" 
d="M387 810l-29 -48l-167 81l46 71zM185 82h358v-82h-451v710h446l-14 -82h-339v-244h262v-80h-262v-222z" />
    <glyph glyph-name="Eacute" unicode="&#xc9;" horiz-adv-x="581" 
d="M415 840l-167 -80l-29 48l150 103zM185 82h358v-82h-451v710h446l-14 -82h-339v-244h262v-80h-262v-222z" />
    <glyph glyph-name="Ecircumflex" unicode="&#xca;" horiz-adv-x="581" 
d="M303 825l-121 -68l-39 42l137 107h46l137 -107l-39 -42zM185 82h358v-82h-451v710h446l-14 -82h-339v-244h262v-80h-262v-222z" />
    <glyph glyph-name="Edieresis" unicode="&#xcb;" horiz-adv-x="581" 
d="M216 770q-24 0 -41 16.5t-16 40.5q1 22 17.5 38t39.5 16q24 0 40 -16t17 -38q0 -25 -16.5 -41t-40.5 -16zM391 770q-24 0 -41 16.5t-17 40.5q1 22 18 38t40 16t40 -16t17 -38q0 -24 -16.5 -40.5t-40.5 -16.5zM185 82h358v-82h-451v710h446l-14 -82h-339v-244h262v-80
h-262v-222z" />
    <glyph glyph-name="Igrave" unicode="&#xcc;" horiz-adv-x="277" 
d="M192 762l-167 81l46 71l150 -104zM92 0v710h93v-710h-93z" />
    <glyph glyph-name="Iacute" unicode="&#xcd;" horiz-adv-x="277" 
d="M83 760l-29 48l150 103l46 -71zM92 0v710h93v-710h-93z" />
    <glyph glyph-name="Icircumflex" unicode="&#xce;" horiz-adv-x="277" 
d="M17 757l-39 42l137 107h46l137 -107l-39 -42l-121 68zM92 0v710h93v-710h-93z" />
    <glyph glyph-name="Idieresis" unicode="&#xcf;" horiz-adv-x="277" 
d="M50 770q-24 0 -41 16.5t-16 40.5q1 22 17.5 38t39.5 16q24 0 40 -16t17 -38q0 -25 -16.5 -41t-40.5 -16zM225 770q-24 0 -41 16.5t-17 40.5q1 22 18 38t40 16t40 -16t17 -38q0 -24 -16.5 -40.5t-40.5 -16.5zM92 0v710h93v-710h-93z" />
    <glyph glyph-name="Eth" unicode="&#xd0;" horiz-adv-x="697" 
d="M323 710q156 0 240 -95.5t84 -258.5q0 -164 -84 -260t-240 -96h-220v327h-84v81h84v302h220zM323 82q111 0 168.5 73.5t57.5 200.5q0 126 -57.5 199t-168.5 73h-127v-220h187v-81h-187v-245h127z" />
    <glyph glyph-name="Ntilde" unicode="&#xd1;" horiz-adv-x="713" 
d="M302 807q-29 0 -29 -44h-55q0 113 76 113q27 0 63 -21t52 -21q32 0 32 44h54q0 -113 -77 -113q-29 0 -65.5 21t-50.5 21zM528 710h94v-710h-105l-332 550v-550h-93v710h105l331 -551v551z" />
    <glyph glyph-name="Ograve" unicode="&#xd2;" horiz-adv-x="739" 
d="M424 762l-167 81l46 71l150 -104zM369 -10q-145 0 -232.5 100.5t-87.5 265.5q0 164 88 264t233 100t232.5 -100t87.5 -264q0 -165 -88 -265.5t-233 -100.5zM369 72q101 0 162 78t61 206t-61 205t-161 77q-101 0 -162 -77.5t-61 -204.5q0 -128 61 -206t161 -78z" />
    <glyph glyph-name="Oacute" unicode="&#xd3;" horiz-adv-x="739" 
d="M315 760l-29 48l150 103l46 -71zM369 -10q-145 0 -232.5 100.5t-87.5 265.5q0 164 88 264t233 100t232.5 -100t87.5 -264q0 -165 -88 -265.5t-233 -100.5zM369 72q101 0 162 78t61 206t-61 205t-161 77q-101 0 -162 -77.5t-61 -204.5q0 -128 61 -206t161 -78z" />
    <glyph glyph-name="Ocircumflex" unicode="&#xd4;" horiz-adv-x="739" 
d="M249 757l-39 42l137 107h46l137 -107l-39 -42l-121 68zM369 -10q-145 0 -232.5 100.5t-87.5 265.5q0 164 88 264t233 100t232.5 -100t87.5 -264q0 -165 -88 -265.5t-233 -100.5zM369 72q101 0 162 78t61 206t-61 205t-161 77q-101 0 -162 -77.5t-61 -204.5
q0 -128 61 -206t161 -78z" />
    <glyph glyph-name="Otilde" unicode="&#xd5;" horiz-adv-x="739" 
d="M231 763q0 113 76 113q27 0 63 -21t52 -21q32 0 32 44h54q0 -113 -77 -113q-29 0 -65.5 21t-50.5 21q-29 0 -29 -44h-55zM369 -10q-145 0 -232.5 100.5t-87.5 265.5q0 164 88 264t233 100t232.5 -100t87.5 -264q0 -165 -88 -265.5t-233 -100.5zM369 72q101 0 162 78
t61 206t-61 205t-161 77q-101 0 -162 -77.5t-61 -204.5q0 -128 61 -206t161 -78z" />
    <glyph glyph-name="Odieresis" unicode="&#xd6;" horiz-adv-x="739" 
d="M283 770q-24 0 -41 16.5t-16 40.5q1 22 17.5 38t39.5 16q24 0 40 -16t17 -38q0 -25 -16.5 -41t-40.5 -16zM458 770q-24 0 -41 16.5t-17 40.5q1 22 18 38t40 16t40 -16t17 -38q0 -24 -16.5 -40.5t-40.5 -16.5zM369 -10q-145 0 -232.5 100.5t-87.5 265.5q0 164 88 264
t233 100t232.5 -100t87.5 -264q0 -165 -88 -265.5t-233 -100.5zM369 72q101 0 162 78t61 206t-61 205t-161 77q-101 0 -162 -77.5t-61 -204.5q0 -128 61 -206t161 -78z" />
    <glyph glyph-name="multiply" unicode="&#xd7;" 
d="M531 421l-180 -180l180 -180l-51 -51l-179 180l-180 -180l-52 51l180 180l-180 180l52 51l180 -179l179 179z" />
    <glyph glyph-name="Oslash" unicode="&#xd8;" horiz-adv-x="739" 
d="M598 624q92 -100 92 -268q0 -165 -88 -265.5t-233 -100.5q-94 0 -168 45l-43 -64l-65 44l48 71q-92 100 -92 270q0 164 88 264t233 100q94 0 167 -45l44 65l66 -44zM147 356q0 -115 48 -189l293 435q-52 36 -118 36q-101 0 -162 -77.5t-61 -204.5zM369 72q101 0 162 78
t61 206q0 113 -48 187l-293 -435q52 -36 118 -36z" />
    <glyph glyph-name="Ugrave" unicode="&#xd9;" horiz-adv-x="700" 
d="M405 762l-167 81l46 71l150 -104zM351 -10q-129 0 -197.5 64.5t-68.5 213.5v442h93v-441q0 -197 173 -197q171 0 171 197v441h94v-442q0 -149 -68 -213.5t-197 -64.5z" />
    <glyph glyph-name="Uacute" unicode="&#xda;" horiz-adv-x="700" 
d="M296 760l-29 48l150 103l46 -71zM351 -10q-129 0 -197.5 64.5t-68.5 213.5v442h93v-441q0 -197 173 -197q171 0 171 197v441h94v-442q0 -149 -68 -213.5t-197 -64.5z" />
    <glyph glyph-name="Ucircumflex" unicode="&#xdb;" horiz-adv-x="700" 
d="M230 757l-39 42l137 107h46l137 -107l-39 -42l-121 68zM351 -10q-129 0 -197.5 64.5t-68.5 213.5v442h93v-441q0 -197 173 -197q171 0 171 197v441h94v-442q0 -149 -68 -213.5t-197 -64.5z" />
    <glyph glyph-name="Udieresis" unicode="&#xdc;" horiz-adv-x="700" 
d="M263 770q-24 0 -41 16.5t-16 40.5q1 22 17.5 38t39.5 16q24 0 40 -16t17 -38q0 -25 -16.5 -41t-40.5 -16zM438 770q-24 0 -41 16.5t-17 40.5q1 22 18 38t40 16t40 -16t17 -38q0 -24 -16.5 -40.5t-40.5 -16.5zM351 -10q-129 0 -197.5 64.5t-68.5 213.5v442h93v-441
q0 -197 173 -197q171 0 171 197v441h94v-442q0 -149 -68 -213.5t-197 -64.5z" />
    <glyph glyph-name="Yacute" unicode="&#xdd;" horiz-adv-x="635" 
d="M429 840l-167 -80l-29 48l150 103zM612 710v-9l-247 -407v-294h-94v292l-248 409v9h105l189 -326l189 326h106z" />
    <glyph glyph-name="Thorn" unicode="&#xde;" horiz-adv-x="610" 
d="M341 581q102 0 164 -62t62 -164t-61.5 -164t-164.5 -62h-156v-129h-93v710h93v-129h156zM325 211q69 0 106.5 39t37.5 105t-37.5 105t-106.5 39h-140v-288h140z" />
    <glyph glyph-name="germandbls" unicode="&#xdf;" horiz-adv-x="589" 
d="M392 -10q-69 0 -129 33l16 77q47 -37 108 -37q37 0 58 21.5t21 53.5q0 37 -30.5 69.5t-66.5 53t-66.5 47.5t-30.5 54q0 21 22 54t44 72t22 74q0 37 -20.5 59t-59.5 22q-110 0 -110 -146v-497h-92v513q0 95 53 151t149 56q79 0 127.5 -42.5t48.5 -104.5q0 -33 -14 -67.5
t-30.5 -57t-30.5 -44t-14 -31.5q0 -12 30.5 -35t67 -47.5t67 -65t30.5 -83.5q0 -65 -47.5 -108.5t-122.5 -43.5z" />
    <glyph glyph-name="agrave" unicode="&#xe0;" horiz-adv-x="530" 
d="M365 590l-36 -43l-176 122l58 64zM259 496q93 0 146 -57.5t53 -152.5v-286h-80l-11 59q-34 -30 -85.5 -49.5t-94.5 -19.5q-64 0 -108.5 42t-44.5 106q0 68 52.5 106.5t142.5 38.5q80 0 137 -15v24q0 57 -33 92.5t-96 35.5q-89 0 -153 -44l-13 71q71 49 188 49zM130 138
q0 -33 24 -53.5t64 -20.5q33 0 74.5 15t73.5 39v81q-45 14 -131 14q-51 0 -78 -20t-27 -55z" />
    <glyph glyph-name="aacute" unicode="&#xe1;" horiz-adv-x="530" 
d="M365 669l-176 -122l-36 43l154 143zM259 496q93 0 146 -57.5t53 -152.5v-286h-80l-11 59q-34 -30 -85.5 -49.5t-94.5 -19.5q-64 0 -108.5 42t-44.5 106q0 68 52.5 106.5t142.5 38.5q80 0 137 -15v24q0 57 -33 92.5t-96 35.5q-89 0 -153 -44l-13 71q71 49 188 49zM130 138
q0 -33 24 -53.5t64 -20.5q33 0 74.5 15t73.5 39v81q-45 14 -131 14q-51 0 -78 -20t-27 -55z" />
    <glyph glyph-name="acircumflex" unicode="&#xe2;" horiz-adv-x="530" 
d="M260 643l-121 -94l-39 42l137 140h46l137 -140l-39 -42zM259 496q93 0 146 -57.5t53 -152.5v-286h-80l-11 59q-34 -30 -85.5 -49.5t-94.5 -19.5q-64 0 -108.5 42t-44.5 106q0 68 52.5 106.5t142.5 38.5q80 0 137 -15v24q0 57 -33 92.5t-96 35.5q-89 0 -153 -44l-13 71
q71 49 188 49zM130 138q0 -33 24 -53.5t64 -20.5q33 0 74.5 15t73.5 39v81q-45 14 -131 14q-51 0 -78 -20t-27 -55z" />
    <glyph glyph-name="atilde" unicode="&#xe3;" horiz-adv-x="530" 
d="M205 618q-29 0 -29 -44h-55q0 113 76 113q27 0 63 -21t52 -21q32 0 32 44h54q0 -113 -77 -113q-29 0 -65.5 21t-50.5 21zM259 496q93 0 146 -57.5t53 -152.5v-286h-80l-11 59q-34 -30 -85.5 -49.5t-94.5 -19.5q-64 0 -108.5 42t-44.5 106q0 68 52.5 106.5t142.5 38.5
q80 0 137 -15v24q0 57 -33 92.5t-96 35.5q-89 0 -153 -44l-13 71q71 49 188 49zM130 138q0 -33 24 -53.5t64 -20.5q33 0 74.5 15t73.5 39v81q-45 14 -131 14q-51 0 -78 -20t-27 -55z" />
    <glyph glyph-name="adieresis" unicode="&#xe4;" horiz-adv-x="530" 
d="M173 568q-24 0 -41 16t-16 40q1 23 17.5 39t39.5 16q24 0 40.5 -16t16.5 -39q0 -24 -16.5 -40t-40.5 -16zM348 568q-24 0 -41 16.5t-17 40.5q1 22 18 38t40 16t40 -16t17 -38q0 -24 -16.5 -40.5t-40.5 -16.5zM259 496q93 0 146 -57.5t53 -152.5v-286h-80l-11 59
q-34 -30 -85.5 -49.5t-94.5 -19.5q-64 0 -108.5 42t-44.5 106q0 68 52.5 106.5t142.5 38.5q80 0 137 -15v24q0 57 -33 92.5t-96 35.5q-89 0 -153 -44l-13 71q71 49 188 49zM130 138q0 -33 24 -53.5t64 -20.5q33 0 74.5 15t73.5 39v81q-45 14 -131 14q-51 0 -78 -20t-27 -55z
" />
    <glyph glyph-name="aring" unicode="&#xe5;" horiz-adv-x="530" 
d="M260 552q-42 0 -71 28t-29 69q0 39 29 68t71 29q41 0 70 -29t29 -68q0 -41 -29 -69t-70 -28zM260 700q-22 0 -37 -15t-15 -36q0 -23 15 -37t37 -14q21 0 36.5 15t15.5 36t-15.5 36t-36.5 15zM259 496q93 0 146 -57.5t53 -152.5v-286h-80l-11 59q-34 -30 -85.5 -49.5
t-94.5 -19.5q-64 0 -108.5 42t-44.5 106q0 68 52.5 106.5t142.5 38.5q80 0 137 -15v24q0 57 -33 92.5t-96 35.5q-89 0 -153 -44l-13 71q71 49 188 49zM130 138q0 -33 24 -53.5t64 -20.5q33 0 74.5 15t73.5 39v81q-45 14 -131 14q-51 0 -78 -20t-27 -55z" />
    <glyph glyph-name="ae" unicode="&#xe6;" horiz-adv-x="822" 
d="M787 249l-13 -21h-315q11 -162 156 -162q78 0 123 28l15 -69q-58 -35 -151 -35q-136 0 -195 99q-80 -99 -203 -99q-68 0 -119 42t-51 106q0 68 53 107t144 39q67 0 135 -16v24q0 57 -33 92.5t-95 35.5q-90 0 -154 -44l-13 71q73 49 189 49q106 0 161 -77q57 77 170 77
q94 0 145 -65t51 -182zM586 421q-50 0 -83 -32.5t-42 -91.5h229q-5 65 -30.5 94.5t-73.5 29.5zM223 64q47 0 90.5 25.5t69.5 59.5q-7 20 -10 48q-50 16 -138 16q-51 0 -78 -20t-27 -55q0 -32 26 -53t67 -21z" />
    <glyph glyph-name="ccedilla" unicode="&#xe7;" horiz-adv-x="470" 
d="M288 -10h-13l-15 -35q63 -22 63 -72q0 -37 -27.5 -60t-73.5 -23q-52 0 -81 17l22 54q23 -11 48 -11q31 0 31 20q0 13 -10.5 20.5t-40.5 18.5l-3 16l28 64q-80 20 -126 84.5t-46 158.5q0 113 65 183.5t164 70.5q50 0 96 -15t71 -40l-43 -61q-42 39 -122 39q-61 0 -98 -48
t-37 -126q0 -82 42 -130t117 -48q31 0 68 8t57 20l13 -71q-54 -34 -149 -34z" />
    <glyph glyph-name="egrave" unicode="&#xe8;" horiz-adv-x="505" 
d="M371 590l-36 -43l-176 122l58 64zM470 249l-14 -21h-315q11 -162 157 -162q76 0 123 28l14 -69q-57 -35 -151 -35q-111 0 -175 67t-64 186q0 118 61 185.5t168 67.5q93 0 144.5 -65t51.5 -182zM268 421q-50 0 -83 -32.5t-42 -90.5h230q-11 123 -105 123z" />
    <glyph glyph-name="eacute" unicode="&#xe9;" horiz-adv-x="505" 
d="M373 669l-176 -122l-36 43l154 143zM470 249l-14 -21h-315q11 -162 157 -162q76 0 123 28l14 -69q-57 -35 -151 -35q-111 0 -175 67t-64 186q0 118 61 185.5t168 67.5q93 0 144.5 -65t51.5 -182zM268 421q-50 0 -83 -32.5t-42 -90.5h230q-11 123 -105 123z" />
    <glyph glyph-name="ecircumflex" unicode="&#xea;" horiz-adv-x="505" 
d="M268 643l-121 -94l-39 42l137 140h46l137 -140l-39 -42zM470 249l-14 -21h-315q11 -162 157 -162q76 0 123 28l14 -69q-57 -35 -151 -35q-111 0 -175 67t-64 186q0 118 61 185.5t168 67.5q93 0 144.5 -65t51.5 -182zM268 421q-50 0 -83 -32.5t-42 -90.5h230
q-11 123 -105 123z" />
    <glyph glyph-name="edieresis" unicode="&#xeb;" horiz-adv-x="505" 
d="M180 568q-24 0 -41 16t-16 40q1 23 17.5 39t39.5 16q24 0 40.5 -16t16.5 -39q0 -24 -16.5 -40t-40.5 -16zM355 568q-24 0 -41 16.5t-17 40.5q1 22 18 38t40 16t40 -16t17 -38q0 -24 -16.5 -40.5t-40.5 -16.5zM470 249l-14 -21h-315q11 -162 157 -162q76 0 123 28l14 -69
q-57 -35 -151 -35q-111 0 -175 67t-64 186q0 118 61 185.5t168 67.5q93 0 144.5 -65t51.5 -182zM268 421q-50 0 -83 -32.5t-42 -90.5h230q-11 123 -105 123z" />
    <glyph glyph-name="igrave" unicode="&#xec;" horiz-adv-x="253" 
d="M74 733l154 -143l-36 -43l-176 122zM80 0v476l93 20v-496h-93z" />
    <glyph glyph-name="iacute" unicode="&#xed;" horiz-adv-x="253" 
d="M52 547l-36 43l154 143l58 -64zM80 0v476l93 20v-496h-93z" />
    <glyph glyph-name="icircumflex" unicode="&#xee;" horiz-adv-x="253" 
d="M2 549l-39 42l137 140h46l137 -140l-39 -42l-121 94zM80 0v476l93 20v-496h-93z" />
    <glyph glyph-name="idieresis" unicode="&#xef;" horiz-adv-x="253" 
d="M35 568q-24 0 -41 16t-16 40q1 23 17.5 39t39.5 16q24 0 40.5 -16t16.5 -39q0 -24 -16.5 -40t-40.5 -16zM210 568q-24 0 -41 16.5t-17 40.5q1 22 18 38t40 16t40 -16t17 -38q0 -24 -16.5 -40.5t-40.5 -16.5zM80 0v476l93 20v-496h-93z" />
    <glyph glyph-name="eth" unicode="&#xf0;" horiz-adv-x="568" 
d="M383 590q139 -152 139 -350q0 -112 -66 -181t-173 -69q-108 0 -173.5 68.5t-65.5 181.5q0 112 64.5 181t170.5 69q49 0 89 -17q-28 46 -71 86l-119 -43l-18 48l91 33q-33 26 -84 58l48 65q63 -32 127 -90l123 45l18 -48zM284 65q65 0 104 44.5t39 118.5q0 84 -41.5 136.5
t-105.5 52.5q-71 0 -106 -57t-35 -132q0 -73 42.5 -118t102.5 -45z" />
    <glyph glyph-name="ntilde" unicode="&#xf1;" horiz-adv-x="562" 
d="M219 618q-29 0 -29 -44h-55q0 113 76 113q27 0 63 -21t52 -21q32 0 32 44h54q0 -113 -77 -113q-29 0 -65.5 21t-50.5 21zM340 496q65 0 107 -46t42 -140v-310h-93v291q0 71 -21.5 99.5t-60.5 28.5q-67 0 -144 -54v-365h-92v487l80 9l10 -63q88 63 172 63z" />
    <glyph glyph-name="ograve" unicode="&#xf2;" horiz-adv-x="567" 
d="M235 733l154 -143l-36 -43l-176 122zM284 -10q-108 0 -174 69.5t-66 182.5q0 115 65.5 184.5t172.5 69.5q109 0 175 -69.5t66 -184.5q0 -113 -66 -182.5t-173 -69.5zM284 67q64 0 103.5 48t39.5 127q0 80 -40 128.5t-105 48.5q-64 0 -103 -48.5t-39 -128.5
q0 -76 41 -125.5t103 -49.5z" />
    <glyph glyph-name="oacute" unicode="&#xf3;" horiz-adv-x="567" 
d="M213 547l-36 43l154 143l58 -64zM284 -10q-108 0 -174 69.5t-66 182.5q0 115 65.5 184.5t172.5 69.5q109 0 175 -69.5t66 -184.5q0 -113 -66 -182.5t-173 -69.5zM284 67q64 0 103.5 48t39.5 127q0 80 -40 128.5t-105 48.5q-64 0 -103 -48.5t-39 -128.5q0 -76 41 -125.5
t103 -49.5z" />
    <glyph glyph-name="ocircumflex" unicode="&#xf4;" horiz-adv-x="567" 
d="M163 549l-39 42l137 140h46l137 -140l-39 -42l-121 94zM284 -10q-108 0 -174 69.5t-66 182.5q0 115 65.5 184.5t172.5 69.5q109 0 175 -69.5t66 -184.5q0 -113 -66 -182.5t-173 -69.5zM284 67q64 0 103.5 48t39.5 127q0 80 -40 128.5t-105 48.5q-64 0 -103 -48.5
t-39 -128.5q0 -76 41 -125.5t103 -49.5z" />
    <glyph glyph-name="otilde" unicode="&#xf5;" horiz-adv-x="567" 
d="M145 574q0 113 76 113q27 0 63 -21t52 -21q32 0 32 44h54q0 -113 -77 -113q-29 0 -65.5 21t-50.5 21q-29 0 -29 -44h-55zM284 -10q-108 0 -174 69.5t-66 182.5q0 115 65.5 184.5t172.5 69.5q109 0 175 -69.5t66 -184.5q0 -113 -66 -182.5t-173 -69.5zM284 67
q64 0 103.5 48t39.5 127q0 80 -40 128.5t-105 48.5q-64 0 -103 -48.5t-39 -128.5q0 -76 41 -125.5t103 -49.5z" />
    <glyph glyph-name="odieresis" unicode="&#xf6;" horiz-adv-x="567" 
d="M197 568q-24 0 -41 16t-16 40q1 23 17.5 39t39.5 16q24 0 40.5 -16t16.5 -39q0 -24 -16.5 -40t-40.5 -16zM372 568q-24 0 -41 16.5t-17 40.5q1 22 18 38t40 16t40 -16t17 -38q0 -24 -16.5 -40.5t-40.5 -16.5zM284 -10q-108 0 -174 69.5t-66 182.5q0 115 65.5 184.5
t172.5 69.5q109 0 175 -69.5t66 -184.5q0 -113 -66 -182.5t-173 -69.5zM284 67q64 0 103.5 48t39.5 127q0 80 -40 128.5t-105 48.5q-64 0 -103 -48.5t-39 -128.5q0 -76 41 -125.5t103 -49.5z" />
    <glyph glyph-name="divide" unicode="&#xf7;" 
d="M300 309q-26 0 -45 19t-19 46q0 26 19 44.5t45 18.5q28 0 47 -18.5t19 -44.5q0 -27 -19 -46t-47 -19zM59 179v69h482v-69h-482zM300 -10q-26 0 -45 19t-19 46q0 26 19 44.5t45 18.5q28 0 47 -18.5t19 -44.5q0 -27 -19 -46t-47 -19z" />
    <glyph glyph-name="oslash" unicode="&#xf8;" horiz-adv-x="567" 
d="M451 432q72 -70 72 -190q0 -113 -66 -182.5t-173 -69.5q-62 0 -114 25l-34 -50l-55 37l35 52q-72 69 -72 188q0 115 65.5 184.5t172.5 69.5q63 0 115 -25l33 49l56 -37zM140 242q0 -62 29 -109l181 269q-29 17 -68 17q-64 0 -103 -48.5t-39 -128.5zM284 67q64 0 103.5 48
t39.5 127q0 67 -28 112l-182 -269q30 -18 67 -18z" />
    <glyph glyph-name="ugrave" unicode="&#xf9;" horiz-adv-x="562" 
d="M394 590l-36 -43l-176 122l58 64zM391 486h93v-486h-80l-11 52q-86 -62 -171 -62q-65 0 -107 46t-42 140v310h92v-291q0 -71 21.5 -99.5t61.5 -28.5q64 0 143 54v365z" />
    <glyph glyph-name="uacute" unicode="&#xfa;" horiz-adv-x="562" 
d="M394 669l-176 -122l-36 43l154 143zM391 486h93v-486h-80l-11 52q-86 -62 -171 -62q-65 0 -107 46t-42 140v310h92v-291q0 -71 21.5 -99.5t61.5 -28.5q64 0 143 54v365z" />
    <glyph glyph-name="ucircumflex" unicode="&#xfb;" horiz-adv-x="562" 
d="M289 643l-121 -94l-39 42l137 140h46l137 -140l-39 -42zM391 486h93v-486h-80l-11 52q-86 -62 -171 -62q-65 0 -107 46t-42 140v310h92v-291q0 -71 21.5 -99.5t61.5 -28.5q64 0 143 54v365z" />
    <glyph glyph-name="udieresis" unicode="&#xfc;" horiz-adv-x="562" 
d="M201 568q-24 0 -41 16t-16 40q1 23 17.5 39t39.5 16q24 0 40.5 -16t16.5 -39q0 -24 -16.5 -40t-40.5 -16zM376 568q-24 0 -41 16.5t-17 40.5q1 22 18 38t40 16t40 -16t17 -38q0 -24 -16.5 -40.5t-40.5 -16.5zM391 486h93v-486h-80l-11 52q-86 -62 -171 -62q-65 0 -107 46
t-42 140v310h92v-291q0 -71 21.5 -99.5t61.5 -28.5q64 0 143 54v365z" />
    <glyph glyph-name="yacute" unicode="&#xfd;" horiz-adv-x="510" 
d="M362 669l-176 -122l-36 43l154 143zM394 486h101v-8l-264 -680h-97l73 189l-191 491v8h103l137 -391z" />
    <glyph glyph-name="thorn" unicode="&#xfe;" horiz-adv-x="565" 
d="M329 496q89 0 140 -67t51 -186q-4 -118 -70 -185.5t-176 -67.5q-48 0 -104 14v-206h-92v902l92 20v-283q64 59 159 59zM258 67q79 0 123 49t44 136q0 78 -32.5 122.5t-88.5 44.5q-72 0 -134 -60v-273q44 -19 88 -19z" />
    <glyph glyph-name="ydieresis" unicode="&#xff;" horiz-adv-x="510" 
d="M169 568q-24 0 -41 16t-16 40q1 23 17.5 39t39.5 16q24 0 40.5 -16t16.5 -39q0 -24 -16.5 -40t-40.5 -16zM344 568q-24 0 -41 16.5t-17 40.5q1 22 18 38t40 16t40 -16t17 -38q0 -24 -16.5 -40.5t-40.5 -16.5zM394 486h101v-8l-264 -680h-97l73 189l-191 491v8h103
l137 -391z" />
    <glyph glyph-name="OE" unicode="&#x152;" horiz-adv-x="929" 
d="M535 82h356v-82h-485q-169 0 -262.5 90.5t-93.5 265.5t93.5 264.5t262.5 89.5h480l-14 -82h-337v-244h261v-80h-261v-222zM406 82l35 -1v546l-35 1q-118 2 -185.5 -68t-67.5 -204t66.5 -203t186.5 -71z" />
    <glyph glyph-name="oe" unicode="&#x153;" horiz-adv-x="876" 
d="M841 249l-13 -21h-315q11 -162 156 -162q78 0 123 28l15 -69q-58 -35 -152 -35q-128 0 -188 90q-63 -90 -184 -90q-108 0 -173.5 69.5t-65.5 182.5q0 115 65.5 184.5t173.5 69.5q121 0 183 -89q59 89 179 89q93 0 144.5 -65t51.5 -182zM639 421q-50 0 -83 -32.5
t-41 -91.5h229q-5 65 -30.5 94.5t-74.5 29.5zM283 67q64 0 101 48t37 127q0 81 -37.5 129t-102.5 48q-64 0 -103 -48.5t-39 -128.5q0 -76 41 -125.5t103 -49.5z" />
    <glyph glyph-name="Ydieresis" unicode="&#x178;" horiz-adv-x="635" 
d="M230 770q-24 0 -41 16.5t-16 40.5q1 22 17.5 38t39.5 16q24 0 40 -16t17 -38q0 -25 -16.5 -41t-40.5 -16zM405 770q-24 0 -41 16.5t-17 40.5q1 22 18 38t40 16t40 -16t17 -38q0 -24 -16.5 -40.5t-40.5 -16.5zM612 710v-9l-247 -407v-294h-94v292l-248 409v9h105l189 -326
l189 326h106z" />
    <glyph glyph-name="tilde" unicode="&#x2dc;" horiz-adv-x="507" 
d="M115 574q0 113 76 113q27 0 63 -21t52 -21q32 0 32 44h54q0 -113 -77 -113q-29 0 -65.5 21t-50.5 21q-29 0 -29 -44h-55z" />
    <glyph glyph-name="endash" unicode="&#x2013;" horiz-adv-x="639" 
d="M66 288h507v-71h-507v71z" />
    <glyph glyph-name="emdash" unicode="&#x2014;" horiz-adv-x="839" 
d="M66 288h708v-71h-708v71z" />
    <glyph glyph-name="quoteleft" unicode="&#x2018;" horiz-adv-x="241" 
d="M116 547q27 2 48 -16t21 -47q0 -27 -18.5 -46.5t-47.5 -19.5t-50 23t-21 73q0 54 27 113.5t87 100.5l32 -40q-35 -26 -55.5 -64t-22.5 -77z" />
    <glyph glyph-name="quoteright" unicode="&#x2019;" horiz-adv-x="238" 
d="M125 737q29 0 50 -23t21 -73q0 -54 -27 -113.5t-87 -100.5l-32 40q35 26 55.5 64t22.5 77q-27 -2 -48 16t-21 47q0 27 18.5 46.5t47.5 19.5z" />
    <glyph glyph-name="quotedblleft" unicode="&#x201c;" horiz-adv-x="426" 
d="M194 688q-35 -26 -55.5 -64t-22.5 -77q27 2 48 -16t21 -47q0 -27 -18.5 -46.5t-47.5 -19.5t-50 23t-21 73q0 54 27 113.5t87 100.5zM301 547q27 2 48 -16t21 -47q0 -27 -18.5 -46.5t-47.5 -19.5t-50 23t-21 73q0 54 27 113.5t87 100.5l32 -40q-35 -26 -55.5 -64
t-22.5 -77z" />
    <glyph glyph-name="quotedblright" unicode="&#x201d;" horiz-adv-x="426" 
d="M125 737q29 0 50 -23t21 -73q0 -54 -27 -113.5t-87 -100.5l-32 40q35 26 55.5 64t22.5 77q-27 -2 -48 16t-21 47q0 27 18.5 46.5t47.5 19.5zM313 737q29 0 50 -23t21 -73q0 -54 -27 -113.5t-87 -100.5l-32 40q35 26 55.5 64t22.5 77q-27 -2 -48 16t-21 47q0 27 18.5 46.5
t47.5 19.5z" />
    <glyph glyph-name="quotedblbase" unicode="&#x201e;" horiz-adv-x="427" 
d="M120 132q29 0 50 -23t21 -73q0 -54 -27 -113.5t-87 -100.5l-32 40q35 26 55.5 64t22.5 77q-27 -2 -48 16t-21 47q0 27 18.5 46.5t47.5 19.5zM301 132q29 0 50 -23t21 -73q0 -54 -27 -113.5t-87 -100.5l-32 40q35 26 55.5 64t22.5 77q-27 -2 -48 16t-21 47q0 27 18.5 46.5
t47.5 19.5z" />
    <glyph glyph-name="bullet" unicode="&#x2022;" horiz-adv-x="412" 
d="M206 113q-55 0 -93 38t-38 93q0 54 38 92t93 38t93 -38t38 -92q0 -55 -38 -93t-93 -38z" />
    <glyph glyph-name="ellipsis" unicode="&#x2026;" horiz-adv-x="898" 
d="M118 -10q-28 0 -47.5 19.5t-19.5 47.5q0 26 20 45.5t47 19.5t47 -19.5t20 -45.5q0 -28 -19.5 -47.5t-47.5 -19.5zM449 -10q-28 0 -47 19.5t-19 47.5q0 26 19.5 45.5t46.5 19.5t47 -19.5t20 -45.5q0 -28 -19.5 -47.5t-47.5 -19.5zM780 -10q-27 0 -46.5 19.5t-19.5 47.5
q0 26 19.5 45t46.5 19q28 0 47.5 -19t19.5 -45q0 -28 -19.5 -47.5t-47.5 -19.5z" />
    <glyph glyph-name="guilsinglleft" unicode="&#x2039;" horiz-adv-x="308" 
d="M122 245l140 -172l-76 -22l-144 169v49l142 168l77 -22z" />
    <glyph glyph-name="guilsinglright" unicode="&#x203a;" horiz-adv-x="309" 
d="M125 437l142 -168v-49l-144 -169l-76 22l139 172l-138 170z" />
    <glyph glyph-name="Euro" unicode="&#x20ac;" horiz-adv-x="650" 
d="M591 100l26 -71q-69 -39 -165 -39q-131 0 -212.5 71.5t-102.5 196.5h-106l25 51h75q-1 11 -1 35q0 25 1 37h-100l25 51h81q22 123 102.5 194.5t202.5 71.5q97 0 167 -31l-34 -67q-52 20 -123 20q-84 0 -141 -50t-77 -138h248l-25 -51h-230q-2 -24 -2 -37q0 -24 1 -35h207
l-24 -51h-175q19 -90 78 -140t152 -50q72 0 127 32z" />
    <glyph glyph-name="trademark" unicode="&#x2122;" horiz-adv-x="831" 
d="M31 656v54h271v-54h-100v-337h-71v337h-100zM757 319h-68l-9 279l-100 -275h-61l-100 277l-9 -281h-67l13 391h82l112 -309l111 309h82z" />
    <glyph glyph-name="Q.alt" horiz-adv-x="739" 
d="M447 -2q36 -60 90 -80.5t128 -23.5v-3l-18 -74q-217 0 -285 173q-142 3 -227.5 103t-85.5 263q0 164 88 264t233 100t232.5 -100t87.5 -264q0 -141 -65.5 -236.5t-177.5 -121.5zM147 356q0 -128 61 -206t161 -78q101 0 162 78t61 206t-61 205t-161 77q-101 0 -162 -77.5
t-61 -204.5z" />
    <glyph glyph-name="A.c2sc" horiz-adv-x="586" 
d="M471 0l-58 160h-239l-58 -160h-97l224 584h100l224 -584h-96zM202 238h183l-91 253z" />
    <glyph glyph-name="Aacute.c2sc" horiz-adv-x="586" 
d="M396 691l-151 -69l-27 40l131 96zM471 0l-58 160h-239l-58 -160h-97l224 584h100l224 -584h-96zM202 238h183l-91 253z" />
    <glyph glyph-name="Acircumflex.c2sc" horiz-adv-x="586" 
d="M293 680l-106 -58l-35 39l120 91h43l120 -91l-36 -39zM471 0l-58 160h-239l-58 -160h-97l224 584h100l224 -584h-96zM202 238h183l-91 253z" />
    <glyph glyph-name="Adieresis.c2sc" horiz-adv-x="586" 
d="M214 634q-21 0 -36 15t-14 36q0 19 15 33.5t35 14.5q22 0 36.5 -14t15.5 -34q1 -22 -14 -36.5t-38 -14.5zM372 634q-21 0 -37 15t-15 36q1 19 16 33.5t36 14.5t36 -14t15 -34q0 -22 -15 -36.5t-36 -14.5zM471 0l-58 160h-239l-58 -160h-97l224 584h100l224 -584h-96z
M202 238h183l-91 253z" />
    <glyph glyph-name="Agrave.c2sc" horiz-adv-x="586" 
d="M352 664l-27 -40l-151 69l47 67zM471 0l-58 160h-239l-58 -160h-97l224 584h100l224 -584h-96zM202 238h183l-91 253z" />
    <glyph glyph-name="Aring.c2sc" horiz-adv-x="586" 
d="M293 620q-36 0 -61 23t-25 57q0 32 25 55.5t61 23.5t61.5 -23.5t25.5 -55.5q0 -34 -25.5 -57t-61.5 -23zM293 741q-18 0 -30.5 -12t-12.5 -29q0 -19 12.5 -30.5t30.5 -11.5t31 12.5t13 29.5t-13 29t-31 12zM471 0l-58 160h-239l-58 -160h-97l224 584h100l224 -584h-96z
M202 238h183l-91 253z" />
    <glyph glyph-name="Atilde.c2sc" horiz-adv-x="586" 
d="M245 664q-26 0 -26 -34h-48q0 96 67 96q24 0 55.5 -16.5t45.5 -16.5q27 0 27 35h48q0 -97 -69 -97q-25 0 -56.5 16.5t-43.5 16.5zM471 0l-58 160h-239l-58 -160h-97l224 584h100l224 -584h-96zM202 238h183l-91 253z" />
    <glyph glyph-name="AE.c2sc" horiz-adv-x="764" 
d="M463 81h261v-81h-352v156h-196l-67 -156h-98l261 584h448l-14 -80h-243v-179h179v-78h-179v-166zM208 230h164v277h-44z" />
    <glyph glyph-name="B.c2sc" horiz-adv-x="565" 
d="M392 304q58 -7 94 -48t36 -95q0 -65 -50.5 -113t-143.5 -48h-244v584h219q89 0 137 -45.5t48 -106.5q0 -42 -24 -78.5t-72 -49.5zM393 418q0 38 -26.5 62t-86.5 24h-102v-171h105q58 0 84 24t26 61zM306 81q61 0 91 26t30 65t-29.5 64.5t-90.5 25.5h-129v-181h128z" />
    <glyph glyph-name="C.c2sc" horiz-adv-x="543" 
d="M348 -8q-136 0 -219 82.5t-83 217.5q0 136 82.5 218t219.5 82q94 0 162 -29l-13 -75q-67 25 -131 25q-101 0 -163 -60t-62 -161t62 -160.5t163 -59.5q71 0 130 24l14 -75q-72 -29 -162 -29z" />
    <glyph glyph-name="Ccedilla.c2sc" horiz-adv-x="543" 
d="M510 21q-69 -27 -154 -29l-14 -30q57 -18 57 -60q0 -31 -24.5 -49t-64.5 -18q-48 0 -73 16l18 42q20 -8 42 -8q28 0 28 17q0 11 -9.5 17.5t-34.5 15.5l-3 12l23 48q-117 14 -186 94t-69 203q0 136 82.5 218t219.5 82q94 0 162 -29l-13 -75q-67 25 -131 25
q-101 0 -163 -60t-62 -161t62 -160.5t163 -59.5q71 0 130 24z" />
    <glyph glyph-name="D.c2sc" horiz-adv-x="608" 
d="M275 584q136 0 210 -78.5t74 -212.5q0 -135 -74 -214t-210 -79h-191v584h191zM275 81q93 0 141 56t48 156q0 99 -48 155t-141 56h-99v-423h99z" />
    <glyph glyph-name="Eth.c2sc" horiz-adv-x="617" 
d="M284 584q137 0 211 -78.5t74 -212.5q0 -135 -74 -214t-211 -79h-191v262h-69v76h69v246h191zM284 81q93 0 141.5 56t48.5 156q0 99 -48.5 155t-141.5 56h-99v-166h151v-76h-151v-181h99z" />
    <glyph glyph-name="E.c2sc" horiz-adv-x="519" 
d="M176 81h304v-81h-396v584h391l-14 -80h-285v-179h221v-78h-221v-166z" />
    <glyph glyph-name="Eacute.c2sc" horiz-adv-x="519" 
d="M367 691l-151 -69l-27 40l131 96zM176 81h304v-81h-396v584h391l-14 -80h-285v-179h221v-78h-221v-166z" />
    <glyph glyph-name="Ecircumflex.c2sc" horiz-adv-x="519" 
d="M269 680l-106 -58l-36 39l120 91h43l120 -91l-36 -39zM176 81h304v-81h-396v584h391l-14 -80h-285v-179h221v-78h-221v-166z" />
    <glyph glyph-name="Edieresis.c2sc" horiz-adv-x="519" 
d="M189 634q-21 0 -36.5 15t-14.5 36q1 19 16 33.5t35 14.5q22 0 36.5 -14t14.5 -34q1 -22 -13.5 -36.5t-37.5 -14.5zM346 634q-21 0 -36 15t-15 36q1 20 16 34t35 14q22 0 37 -14t15 -34q0 -22 -15 -36.5t-37 -14.5zM176 81h304v-81h-396v584h391l-14 -80h-285v-179h221
v-78h-221v-166z" />
    <glyph glyph-name="Egrave.c2sc" horiz-adv-x="519" 
d="M344 664l-27 -40l-151 69l47 67zM176 81h304v-81h-396v584h391l-14 -80h-285v-179h221v-78h-221v-166z" />
    <glyph glyph-name="F.c2sc" horiz-adv-x="497" 
d="M466 504h-290v-177h228v-80h-228v-247h-92v584h395z" />
    <glyph glyph-name="G.c2sc" horiz-adv-x="602" 
d="M324 302h227v-247q-30 -29 -88 -46t-124 -17q-132 0 -212.5 83t-80.5 220q0 134 81 215.5t214 81.5q105 0 179 -38l-14 -80q-64 37 -156 37q-94 0 -150 -58.5t-56 -157.5q0 -101 56.5 -161.5t149.5 -60.5q60 0 106 18v138l-145 5z" />
    <glyph glyph-name="H.c2sc" horiz-adv-x="628" 
d="M452 584h92v-584h-92v260h-276v-260h-92v584h92v-241h276v241z" />
    <glyph glyph-name="I.c2sc" horiz-adv-x="260" 
d="M84 0v584h92v-584h-92z" />
    <glyph glyph-name="Iacute.c2sc" horiz-adv-x="259" 
d="M80 622l-27 40l131 96l47 -67zM84 0v584h91v-584h-91z" />
    <glyph glyph-name="Icircumflex.c2sc" horiz-adv-x="260" 
d="M24 622l-36 39l120 91h43l120 -91l-36 -39l-105 58zM84 0v584h92v-584h-92z" />
    <glyph glyph-name="Idieresis.c2sc" horiz-adv-x="260" 
d="M51 634q-21 0 -36.5 15t-14.5 36q1 19 16 33.5t35 14.5q21 0 35.5 -14t15.5 -34q1 -22 -14 -36.5t-37 -14.5zM208 634q-21 0 -36.5 15t-14.5 36q1 20 15.5 34t35.5 14q22 0 36.5 -14t14.5 -34q0 -22 -14.5 -36.5t-36.5 -14.5zM84 0v584h92v-584h-92z" />
    <glyph glyph-name="Igrave.c2sc" horiz-adv-x="259" 
d="M178 624l-151 69l47 67l131 -96zM84 0v584h91v-584h-91z" />
    <glyph glyph-name="J.c2sc" horiz-adv-x="283" 
d="M-30 -172l-15 80q67 1 110 43.5t43 113.5v519h91v-519q0 -105 -63.5 -170t-165.5 -67z" />
    <glyph glyph-name="K.c2sc" horiz-adv-x="563" 
d="M332 351l221 -342v-9h-102l-177 283l-98 -115v-168h-92v584h92v-294l244 294h104v-9z" />
    <glyph glyph-name="L.c2sc" horiz-adv-x="471" 
d="M176 81h278v-81h-370v584h92v-503z" />
    <glyph glyph-name="M.c2sc" horiz-adv-x="761" 
d="M687 0h-90l-15 447l-152 -442h-99l-152 442l-15 -447h-90l22 584h128l157 -463l156 463h129z" />
    <glyph glyph-name="N.c2sc" horiz-adv-x="630" 
d="M455 584h92v-584h-100l-271 423v-423h-92v584h101l270 -430v430z" />
    <glyph glyph-name="Ntilde.c2sc" horiz-adv-x="630" 
d="M268 664q-26 0 -26 -34h-48q0 96 67 96q24 0 55 -16.5t45 -16.5q28 0 28 35h48q0 -97 -69 -97q-25 0 -56.5 16.5t-43.5 16.5zM455 584h92v-584h-100l-271 423v-423h-92v584h101l270 -430v430z" />
    <glyph glyph-name="O.c2sc" horiz-adv-x="650" 
d="M324 -8q-125 0 -201 82.5t-76 218.5q0 135 76 217t202 82t202 -82t76 -217q0 -136 -76 -218.5t-203 -82.5zM324 72q87 0 135.5 58.5t48.5 162.5q0 103 -48.5 161t-134.5 58t-134.5 -58t-48.5 -161q0 -104 48.5 -162.5t133.5 -58.5z" />
    <glyph glyph-name="Oacute.c2sc" horiz-adv-x="650" 
d="M274 622l-26 40l131 96l47 -67zM324 -8q-125 0 -201 82.5t-76 218.5q0 135 76 217t202 82t202 -82t76 -217q0 -136 -76 -218.5t-203 -82.5zM324 72q87 0 135.5 58.5t48.5 162.5q0 103 -48.5 161t-134.5 58t-134.5 -58t-48.5 -161q0 -104 48.5 -162.5t133.5 -58.5z" />
    <glyph glyph-name="Ocircumflex.c2sc" horiz-adv-x="650" 
d="M220 622l-36 39l120 91h43l120 -91l-36 -39l-106 58zM324 -8q-125 0 -201 82.5t-76 218.5q0 135 76 217t202 82t202 -82t76 -217q0 -136 -76 -218.5t-203 -82.5zM324 72q87 0 135.5 58.5t48.5 162.5q0 103 -48.5 161t-134.5 58t-134.5 -58t-48.5 -161q0 -104 48.5 -162.5
t133.5 -58.5z" />
    <glyph glyph-name="Odieresis.c2sc" horiz-adv-x="650" 
d="M247 634q-21 0 -37 15t-15 36q1 19 16 33.5t36 14.5t35.5 -14t15.5 -34q1 -21 -14.5 -36t-36.5 -15zM404 634q-21 0 -37 15t-15 36q1 20 16 34t36 14t36 -14t15 -34q0 -22 -15 -36.5t-36 -14.5zM324 -8q-125 0 -201 82.5t-76 218.5q0 135 76 217t202 82t202 -82t76 -217
q0 -136 -76 -218.5t-203 -82.5zM324 72q87 0 135.5 58.5t48.5 162.5q0 103 -48.5 161t-134.5 58t-134.5 -58t-48.5 -161q0 -104 48.5 -162.5t133.5 -58.5z" />
    <glyph glyph-name="Ograve.c2sc" horiz-adv-x="650" 
d="M376 624l-151 69l47 67l131 -96zM324 -8q-125 0 -201 82.5t-76 218.5q0 135 76 217t202 82t202 -82t76 -217q0 -136 -76 -218.5t-203 -82.5zM324 72q87 0 135.5 58.5t48.5 162.5q0 103 -48.5 161t-134.5 58t-134.5 -58t-48.5 -161q0 -104 48.5 -162.5t133.5 -58.5z" />
    <glyph glyph-name="Oslash.c2sc" horiz-adv-x="650" 
d="M525 512q78 -83 78 -219t-76 -218.5t-203 -82.5q-80 0 -141 35l-38 -53l-58 39l40 57q-80 83 -80 223q0 135 76 217t202 82q81 0 145 -36l39 55l59 -39zM142 293q0 -92 38 -148l241 342q-41 25 -96 25q-86 0 -134.5 -58t-48.5 -161zM324 72q87 0 135.5 58.5t48.5 162.5
q0 89 -36 144l-241 -341q39 -24 93 -24z" />
    <glyph glyph-name="Otilde.c2sc" horiz-adv-x="650" 
d="M203 630q0 96 68 96q24 0 55 -16.5t45 -16.5q27 0 27 35h48q0 -97 -68 -97q-25 0 -57 16.5t-44 16.5q-25 0 -25 -34h-49zM324 -8q-125 0 -201 82.5t-76 218.5q0 135 76 217t202 82t202 -82t76 -217q0 -136 -76 -218.5t-203 -82.5zM324 72q87 0 135.5 58.5t48.5 162.5
q0 103 -48.5 161t-134.5 58t-134.5 -58t-48.5 -161q0 -104 48.5 -162.5t133.5 -58.5z" />
    <glyph glyph-name="OE.c2sc" horiz-adv-x="819" 
d="M478 81h300v-81h-421q-147 0 -228.5 74.5t-81.5 218.5t81.5 217.5t228.5 73.5h417l-13 -80h-283v-179h219v-78h-219v-166zM357 77l30 -1v431h-30q-99 2 -155 -53t-56 -161t55.5 -160t155.5 -56z" />
    <glyph glyph-name="P.c2sc" horiz-adv-x="540" 
d="M310 584q90 0 144.5 -51.5t54.5 -135.5t-54.5 -135.5t-144.5 -51.5h-134v-210h-92v584h226zM295 287q53 0 86 30t33 79t-33 78.5t-86 29.5h-119v-217h119z" />
    <glyph glyph-name="Thorn.c2sc" horiz-adv-x="545" 
d="M307 478q90 0 143 -51t53 -135t-53 -135.5t-143 -51.5h-131v-105h-92v584h92v-106h131zM291 185q56 0 86.5 29t30.5 78t-30.5 78t-86.5 29h-115v-214h115z" />
    <glyph glyph-name="Q.c2sc" horiz-adv-x="650" 
d="M603 293q0 -97 -39.5 -168t-111.5 -105l76 -123l-88 -41l-60 141q-30 -5 -56 -5q-125 0 -201 82.5t-76 218.5q0 135 76 217t202 82t202 -82t76 -217zM142 313q0 -109 54 -175t135 -66q83 0 130 57t47 143q0 108 -53.5 174.5t-135.5 66.5q-80 0 -128.5 -55t-48.5 -145z
" />
    <glyph glyph-name="R.c2sc" horiz-adv-x="565" 
d="M349 230l193 -221v-9h-106l-193 227h-67v-227h-92v584h226q90 0 144.5 -49t54.5 -129q0 -71 -43 -118t-117 -58zM176 504v-205h119q53 0 86 27.5t33 74.5q0 46 -33 74.5t-86 28.5h-119z" />
    <glyph glyph-name="S.c2sc" horiz-adv-x="497" 
d="M239 -8q-115 0 -197 48l14 82q83 -51 181 -51q61 0 95 23t34 62q0 56 -76 84l-109 42q-129 50 -129 153q0 77 57.5 117t155.5 40q95 0 165 -30l-13 -78q-64 29 -142 29q-58 0 -93 -19.5t-35 -55.5q0 -49 73 -74l110 -42q128 -50 131 -160q-1 -82 -59 -126t-163 -44z" />
    <glyph glyph-name="T.c2sc" horiz-adv-x="518" 
d="M501 584v-80h-197v-504h-91v504h-196v80h484z" />
    <glyph glyph-name="U.c2sc" horiz-adv-x="620" 
d="M310 -8q-113 0 -172.5 53t-59.5 176v363h92v-362q0 -150 140 -150t140 150v362h92v-363q0 -123 -59.5 -176t-172.5 -53z" />
    <glyph glyph-name="Uacute.c2sc" horiz-adv-x="620" 
d="M259 622l-27 40l131 96l47 -67zM310 -8q-113 0 -172.5 53t-59.5 176v363h92v-362q0 -150 140 -150t140 150v362h92v-363q0 -123 -59.5 -176t-172.5 -53z" />
    <glyph glyph-name="Ucircumflex.c2sc" horiz-adv-x="620" 
d="M204 622l-36 39l120 91h44l119 -91l-35 -39l-106 58zM310 -8q-113 0 -172.5 53t-59.5 176v363h92v-362q0 -150 140 -150t140 150v362h92v-363q0 -123 -59.5 -176t-172.5 -53z" />
    <glyph glyph-name="Udieresis.c2sc" horiz-adv-x="620" 
d="M232 634q-21 0 -37 15t-15 36q1 19 16 33.5t36 14.5t35 -14t15 -34q1 -22 -14 -36.5t-36 -14.5zM389 634q-22 0 -37.5 15t-14.5 36q1 20 16 34t36 14t35.5 -14t14.5 -34q0 -22 -14.5 -36.5t-35.5 -14.5zM310 -8q-113 0 -172.5 53t-59.5 176v363h92v-362q0 -150 140 -150
t140 150v362h92v-363q0 -123 -59.5 -176t-172.5 -53z" />
    <glyph glyph-name="Ugrave.c2sc" horiz-adv-x="620" 
d="M361 624l-151 69l47 67l130 -96zM310 -8q-113 0 -172.5 53t-59.5 176v363h92v-362q0 -150 140 -150t140 150v362h92v-363q0 -123 -59.5 -176t-172.5 -53z" />
    <glyph glyph-name="V.c2sc" horiz-adv-x="572" 
d="M456 584h97l-217 -584h-100l-216 584h97l170 -492z" />
    <glyph glyph-name="W.c2sc" horiz-adv-x="780" 
d="M661 584h91l-153 -584h-98l-111 419l-111 -419h-98l-154 584h91l114 -462l123 457h68l123 -463z" />
    <glyph glyph-name="X.c2sc" horiz-adv-x="530" 
d="M320 305l194 -296v-9h-104l-145 230l-145 -230h-104v9l194 296l-178 270v9h103l130 -204l130 204h103v-9z" />
    <glyph glyph-name="Y.c2sc" horiz-adv-x="565" 
d="M540 584v-9l-212 -338v-237h-91v236l-213 339v9h103l155 -262l155 262h103z" />
    <glyph glyph-name="Yacute.c2sc" horiz-adv-x="565" 
d="M382 691l-152 -69l-26 40l131 96zM540 584v-9l-212 -338v-237h-91v236l-213 339v9h103l155 -262l155 262h103z" />
    <glyph glyph-name="Ydieresis.c2sc" horiz-adv-x="565" 
d="M203 634q-21 0 -36.5 15t-15.5 36q1 19 16.5 33.5t35.5 14.5q21 0 36 -14t15 -34q1 -21 -14.5 -36t-36.5 -15zM360 634q-21 0 -36.5 15t-14.5 36q0 20 15 34t36 14q22 0 37 -14t15 -34q0 -22 -15 -36.5t-37 -14.5zM540 584v-9l-212 -338v-237h-91v236l-213 339v9h103
l155 -262l155 262h103z" />
    <glyph glyph-name="Z.c2sc" horiz-adv-x="519" 
d="M159 81h321v-81h-436l-12 62l318 442h-300v80h418l11 -61z" />
    <glyph glyph-name="Q.alt.c2sc" horiz-adv-x="650" 
d="M403 2q47 -75 176 -79v-3l-15 -72q-88 0 -152.5 36.5t-93.5 107.5q-122 2 -196.5 84.5t-74.5 216.5q0 135 76 217t202 82t202 -82t76 -217q0 -113 -53.5 -190.5t-146.5 -100.5zM142 313q0 -109 54 -175t135 -66q83 0 130 57t47 143q0 108 -53.5 174.5t-135.5 66.5
q-80 0 -128.5 -55t-48.5 -145z" />
    <glyph glyph-name="dotlessi" horiz-adv-x="253" 
d="M80 0v476l93 20v-496h-93z" />
    <glyph glyph-name="i.loclTRK" horiz-adv-x="253" 
d="M124 569q-24 0 -41.5 16.5t-16.5 40.5q1 22 17.5 38.5t40.5 16.5q23 0 40 -16.5t17 -38.5q0 -24 -16.5 -40.5t-40.5 -16.5zM80 0v476l93 20v-496h-93z" />
    <glyph glyph-name="ldot" horiz-adv-x="362" 
d="M80 0v700l93 20v-720h-93zM307 241q-27 0 -46.5 19.5t-19.5 47.5q0 26 19.5 45.5t46.5 19.5t47 -19.5t20 -45.5q0 -28 -19.5 -47.5t-47.5 -19.5z" />
    <glyph glyph-name="a.alt" horiz-adv-x="560" 
d="M390 486h93v-486h-81l-10 51q-61 -61 -149 -61q-89 0 -143.5 69.5t-54.5 183.5q0 115 54.5 184t143.5 69q86 0 147 -59v49zM141 243q0 -82 35 -129t93 -47q63 0 121 58v236q-58 58 -121 58q-58 0 -93 -47t-35 -129z" />
    <glyph glyph-name="aacute.alt" horiz-adv-x="560" 
d="M376 669l-176 -122l-36 43l154 143zM390 486h93v-486h-81l-10 51q-61 -61 -149 -61q-89 0 -143.5 69.5t-54.5 183.5q0 115 54.5 184t143.5 69q86 0 147 -59v49zM141 243q0 -82 35 -129t93 -47q63 0 121 58v236q-58 58 -121 58q-58 0 -93 -47t-35 -129z" />
    <glyph glyph-name="acircumflex.alt" horiz-adv-x="560" 
d="M271 643l-121 -94l-39 42l137 140h46l137 -140l-39 -42zM390 486h93v-486h-81l-10 51q-61 -61 -149 -61q-89 0 -143.5 69.5t-54.5 183.5q0 115 54.5 184t143.5 69q86 0 147 -59v49zM141 243q0 -82 35 -129t93 -47q63 0 121 58v236q-58 58 -121 58q-58 0 -93 -47t-35 -129
z" />
    <glyph glyph-name="adieresis.alt" horiz-adv-x="560" 
d="M183 568q-24 0 -41 16t-16 40q1 23 17.5 39t39.5 16q24 0 40.5 -16t16.5 -39q0 -24 -16.5 -40t-40.5 -16zM358 568q-24 0 -41 16.5t-17 40.5q1 22 18 38t40 16t40 -16t17 -38q0 -24 -16.5 -40.5t-40.5 -16.5zM390 486h93v-486h-81l-10 51q-61 -61 -149 -61
q-89 0 -143.5 69.5t-54.5 183.5q0 115 54.5 184t143.5 69q86 0 147 -59v49zM141 243q0 -82 35 -129t93 -47q63 0 121 58v236q-58 58 -121 58q-58 0 -93 -47t-35 -129z" />
    <glyph glyph-name="agrave.alt" horiz-adv-x="560" 
d="M376 590l-36 -43l-176 122l58 64zM390 486h93v-486h-81l-10 51q-61 -61 -149 -61q-89 0 -143.5 69.5t-54.5 183.5q0 115 54.5 184t143.5 69q86 0 147 -59v49zM141 243q0 -82 35 -129t93 -47q63 0 121 58v236q-58 58 -121 58q-58 0 -93 -47t-35 -129z" />
    <glyph glyph-name="aring.alt" horiz-adv-x="560" 
d="M271 552q-42 0 -71 28t-29 69q0 39 29 68t71 29q41 0 70 -29t29 -68q0 -41 -29 -69t-70 -28zM271 700q-22 0 -37 -15t-15 -36q0 -23 15 -37t37 -14q21 0 36.5 15t15.5 36t-15.5 36t-36.5 15zM390 486h93v-486h-81l-10 51q-61 -61 -149 -61q-89 0 -143.5 69.5t-54.5 183.5
q0 115 54.5 184t143.5 69q86 0 147 -59v49zM141 243q0 -82 35 -129t93 -47q63 0 121 58v236q-58 58 -121 58q-58 0 -93 -47t-35 -129z" />
    <glyph glyph-name="atilde.alt" horiz-adv-x="560" 
d="M215 618q-29 0 -29 -44h-55q0 113 76 113q27 0 63 -21t52 -21q32 0 32 44h54q0 -113 -77 -113q-29 0 -65.5 21t-50.5 21zM390 486h93v-486h-81l-10 51q-61 -61 -149 -61q-89 0 -143.5 69.5t-54.5 183.5q0 115 54.5 184t143.5 69q86 0 147 -59v49zM141 243q0 -82 35 -129
t93 -47q63 0 121 58v236q-58 58 -121 58q-58 0 -93 -47t-35 -129z" />
    <glyph glyph-name="g.alt" horiz-adv-x="560" 
d="M390 486h93v-458q0 -117 -64 -179.5t-180 -62.5q-83 0 -157 32l18 74q63 -30 137 -30q76 0 114.5 42.5t38.5 113.5v31q-61 -59 -147 -59q-89 0 -143.5 69.5t-54.5 183.5q0 115 54.5 184t143.5 69q86 0 147 -59v49zM269 67q63 0 121 58v236q-58 58 -121 58q-58 0 -93 -47
t-35 -129t35 -129t93 -47z" />
    <glyph glyph-name="l.alt" horiz-adv-x="269" 
d="M185 -10q-56 0 -82 30t-26 101v579l93 20v-607q0 -46 38 -46q12 0 27 4l12 -75q-35 -6 -62 -6z" />
    <glyph glyph-name="ldot.alt" horiz-adv-x="362" 
d="M185 -10q-56 0 -82 30t-26 101v579l93 20v-607q0 -46 38 -46q12 0 27 4l12 -75q-35 -6 -62 -6zM304 241q-27 0 -46.5 19.5t-19.5 47.5q0 26 19.5 45.5t46.5 19.5q28 0 47.5 -19.5t19.5 -45.5q0 -28 -19.5 -47.5t-47.5 -19.5z" />
    <glyph glyph-name="y.alt" horiz-adv-x="510" 
d="M394 486h101v-8l-218 -566q-47 -124 -151 -124q-59 0 -100 21l13 72q40 -19 72 -17q49 3 77 71l19 52l-191 491v8h103l140 -395z" />
    <glyph glyph-name="yacute.alt" horiz-adv-x="510" 
d="M362 669l-176 -122l-36 43l154 143zM394 486h101v-8l-218 -566q-47 -124 -151 -124q-59 0 -100 21l13 72q40 -19 72 -17q49 3 77 71l19 52l-191 491v8h103l140 -395z" />
    <glyph glyph-name="ydieresis.alt" horiz-adv-x="510" 
d="M169 568q-24 0 -41 16t-16 40q1 23 17.5 39t39.5 16q24 0 40.5 -16t16.5 -39q0 -24 -16.5 -40t-40.5 -16zM344 568q-24 0 -41 16.5t-17 40.5q1 22 18 38t40 16t40 -16t17 -38q0 -24 -16.5 -40.5t-40.5 -16.5zM394 486h101v-8l-218 -566q-47 -124 -151 -124q-59 0 -100 21
l13 72q40 -19 72 -17q49 3 77 71l19 52l-191 491v8h103l140 -395z" />
    <glyph glyph-name="germandbls.calt" horiz-adv-x="686" 
d="M450 409q89 -21 142 -78t53 -140q0 -89 -60 -145t-158 -56q-95 0 -166 34l14 82q21 -15 62 -25.5t78 -10.5q66 0 99 35t33 85q0 61 -50.5 104t-136.5 59l-6 57l116 215q-49 13 -110 13q-93 0 -140.5 -49t-47.5 -136v-453h-94v469q0 115 74 183t206 68q147 0 231 -35v-23z
" />
    <glyph glyph-name="f_b" horiz-adv-x="926" 
d="M103 561q0 74 50.5 116.5t130.5 42.5q46 0 85 -12l-12 -76q-31 11 -65 11q-96 0 -96 -93v-64h140v-72h-140v-414h-93v414h-83v72h83v75zM690 496q90 0 141 -67t51 -186q-5 -119 -70.5 -186t-176.5 -67q-95 0 -196 45v665l93 20v-282q63 58 158 58zM619 67q79 0 123 49
t44 136q0 78 -32.5 122.5t-88.5 44.5q-74 0 -133 -59v-274q43 -19 87 -19z" />
    <glyph glyph-name="f_f_b" horiz-adv-x="1249" 
d="M427 561q0 74 50 116.5t131 42.5q59 0 97 -15l-12 -73q-31 11 -77 11q-97 0 -97 -93v-64h139v-72h-139v-414h-92v414h-231v-414h-93v414h-83v72h83v75q0 74 50.5 116.5t130.5 42.5q69 0 106 -22l-14 -73q-39 18 -82 18q-98 0 -98 -93v-64h231v75zM1013 496q90 0 141 -67
t51 -186q-4 -118 -70 -185.5t-177 -67.5q-95 0 -196 45v665l93 20v-283q61 59 158 59zM943 67q78 0 122 49t44 136q0 79 -32 123t-89 44q-71 0 -133 -59v-274q44 -19 88 -19z" />
    <glyph glyph-name="f_f_h" horiz-adv-x="1246" 
d="M427 561q0 74 50 116.5t131 42.5q59 0 97 -15l-12 -73q-31 11 -77 11q-97 0 -97 -93v-64h139v-72h-139v-414h-92v414h-231v-414h-93v414h-83v72h83v75q0 74 50.5 116.5t130.5 42.5q69 0 106 -22l-14 -73q-39 18 -82 18q-98 0 -98 -93v-64h231v75zM1024 496q65 0 107 -46
t42 -140v-310h-92v291q0 71 -21.5 99.5t-61.5 28.5q-66 0 -143 -54v-365h-93v700l93 20v-286q89 62 169 62z" />
    <glyph glyph-name="f_f_j" horiz-adv-x="919" 
d="M726 486l114 10v-464q0 -110 -58.5 -177t-153.5 -67l-14 76q131 0 133 169v381h-216v-414h-93v414h-231v-414h-92v414h-83v72h83v75q0 74 50.5 116.5t130.5 42.5q68 0 105 -22l-13 -73q-40 18 -83 18q-98 0 -98 -93v-64h231v75q0 73 56 116t143 43q84 0 147 -28l-11 -75
q-60 26 -129 26q-46 0 -79.5 -22.5t-33.5 -78.5v-56h195z" />
    <glyph glyph-name="f_f_k" horiz-adv-x="1178" 
d="M427 561q0 74 50 116.5t131 42.5q59 0 97 -15l-12 -73q-31 11 -77 11q-97 0 -97 -93v-64h139v-72h-139v-414h-92v414h-231v-414h-93v414h-83v72h83v75q0 74 50.5 116.5t130.5 42.5q69 0 106 -22l-14 -73q-39 18 -82 18q-98 0 -98 -93v-64h231v75zM950 272l232 -263v-9
h-106l-221 248v-248h-93v700l93 20v-436l175 202h104v-9z" />
    <glyph glyph-name="f_h" horiz-adv-x="923" 
d="M103 561q0 74 50.5 116.5t130.5 42.5q46 0 85 -12l-12 -76q-31 11 -65 11q-96 0 -96 -93v-64h140v-72h-140v-414h-93v414h-83v72h83v75zM701 496q65 0 107 -46t42 -140v-310h-93v291q0 71 -21.5 99.5t-60.5 28.5q-68 0 -143 -53v-366h-93v700l93 20v-285q89 61 169 61z
" />
    <glyph glyph-name="f_j" horiz-adv-x="583" 
d="M391 486l113 10v-464q0 -110 -58 -177t-153 -67l-14 76q131 0 133 169v381h-216v-414h-93v414h-83v72h83v75q0 73 56 116t142 43q85 0 148 -28l-11 -75q-60 26 -129 26q-46 0 -79.5 -22.5t-33.5 -78.5v-56h195z" />
    <glyph glyph-name="f_k" horiz-adv-x="854" 
d="M103 561q0 74 50.5 116.5t130.5 42.5q46 0 85 -12l-12 -76q-31 11 -65 11q-96 0 -96 -93v-64h140v-72h-140v-414h-93v414h-83v72h83v75zM626 271l232 -262v-9h-106l-220 248v-248h-93v700l93 20v-435l174 201h105v-9z" />
    <glyph glyph-name="f_f_l.alt" horiz-adv-x="951" 
d="M427 561q0 74 50 116.5t131 42.5q59 0 97 -15l-12 -73q-31 11 -77 11q-97 0 -97 -93v-64h139v-72h-139v-414h-92v414h-231v-414h-93v414h-83v72h83v75q0 74 50.5 116.5t130.5 42.5q69 0 106 -22l-14 -73q-39 18 -82 18q-98 0 -98 -93v-64h231v75zM917 71l12 -75
q-35 -6 -62 -6q-55 0 -81 30t-26 101v579l92 20v-607q0 -46 38 -46q12 0 27 4z" />
    <glyph glyph-name="fl.alt" horiz-adv-x="630" 
d="M103 561q0 74 50.5 116.5t130.5 42.5q46 0 85 -12l-12 -76q-31 11 -65 11q-96 0 -96 -93v-64h140v-72h-140v-414h-93v414h-83v72h83v75zM596 71l12 -75q-36 -6 -63 -6q-55 0 -81 30t-26 101v579l93 20v-607q0 -46 38 -46q12 0 27 4z" />
    <glyph glyph-name="n_d.alt" horiz-adv-x="874" 
d="M718 842l77 12v-539h-67l-7 42q-51 -49 -118 -49q-65 0 -106 50.5t-41 134.5q0 90 48.5 142t130.5 52q46 0 83 -18v173zM155 584v-269h-76v365l67 7l7 -53q69 53 130 53q52 0 83 -36.5t31 -110.5v-225h-77v217q0 91 -66 91q-46 0 -99 -39zM535 494q0 -57 26.5 -90
t68.5 -33q47 0 88 41v194q-35 17 -73 17q-51 0 -80.5 -34t-29.5 -95zM78 198v54h717v-53z" />
    <glyph glyph-name="r_d.alt" horiz-adv-x="759" 
d="M602 845l77 11v-538h-67l-7 42q-52 -50 -117 -50t-106.5 50.5t-41.5 134.5q0 90 48.5 142.5t130.5 52.5q46 0 83 -19v174zM155 568v-250h-77v364l69 5l8 -73v-1q46 77 104 77q31 0 54 -18l-12 -71l-3 -1q-18 15 -57 15q-49 0 -86 -47zM419 497q0 -57 27 -90t68 -33
q48 0 88 40v195q-35 17 -73 17q-50 0 -80 -34t-30 -95zM78 198v54h601v-53z" />
    <glyph glyph-name="s_t.alt" horiz-adv-x="706" 
d="M446 445v185h-54v57h56l24 97h52v-97h109v-57h-109v-174q0 -77 51 -77q29 0 55 10l11 -59q-34 -14 -84 -14q-111 0 -111 129zM199 375q77 0 77 45q0 26 -41 41l-74 28q-83 30 -83 101q0 51 39 78t104 27q69 0 116 -22l-11 -56q-43 18 -98 18q-72 0 -72 -44q0 -28 38 -43
l80 -30q81 -31 81 -98q0 -51 -41 -77.5t-109 -26.5q-82 0 -136 32l10 55q58 -28 120 -28zM69 198v54h564v-53z" />
    <glyph glyph-name="t_h.alt" horiz-adv-x="747" 
d="M559 695q51 0 82 -36.5t31 -110.5v-225h-77v217q0 91 -66 91q-48 0 -98 -39v-269h-77v527l77 12v-219q68 52 128 52zM111 445v185h-56v57h58l22 97h52v-97h111v-57h-111v-174q0 -77 52 -77q27 0 55 10l11 -59q-34 -14 -85 -14q-109 0 -109 129zM66 198v54h606v-53z" />
    <glyph glyph-name="a.smcp" horiz-adv-x="586" 
d="M471 0l-58 160h-239l-58 -160h-97l224 584h100l224 -584h-96zM202 238h183l-91 253z" />
    <glyph glyph-name="aacute.smcp" horiz-adv-x="586" 
d="M396 691l-151 -69l-27 40l131 96zM471 0l-58 160h-239l-58 -160h-97l224 584h100l224 -584h-96zM202 238h183l-91 253z" />
    <glyph glyph-name="acircumflex.smcp" horiz-adv-x="586" 
d="M293 680l-106 -58l-35 39l120 91h43l120 -91l-36 -39zM471 0l-58 160h-239l-58 -160h-97l224 584h100l224 -584h-96zM202 238h183l-91 253z" />
    <glyph glyph-name="adieresis.smcp" horiz-adv-x="586" 
d="M214 634q-21 0 -36 15t-14 36q0 19 15 33.5t35 14.5q22 0 36.5 -14t15.5 -34q1 -22 -14 -36.5t-38 -14.5zM372 634q-21 0 -37 15t-15 36q1 19 16 33.5t36 14.5t36 -14t15 -34q0 -22 -15 -36.5t-36 -14.5zM471 0l-58 160h-239l-58 -160h-97l224 584h100l224 -584h-96z
M202 238h183l-91 253z" />
    <glyph glyph-name="agrave.smcp" horiz-adv-x="586" 
d="M352 664l-27 -40l-151 69l47 67zM471 0l-58 160h-239l-58 -160h-97l224 584h100l224 -584h-96zM202 238h183l-91 253z" />
    <glyph glyph-name="q.alt.smcp" horiz-adv-x="650" 
d="M403 2q47 -75 176 -79v-3l-15 -72q-88 0 -152.5 36.5t-93.5 107.5q-122 2 -196.5 84.5t-74.5 216.5q0 135 76 217t202 82t202 -82t76 -217q0 -113 -53.5 -190.5t-146.5 -100.5zM142 313q0 -109 54 -175t135 -66q83 0 130 57t47 143q0 108 -53.5 174.5t-135.5 66.5
q-80 0 -128.5 -55t-48.5 -145z" />
    <glyph glyph-name="aring.smcp" horiz-adv-x="586" 
d="M293 620q-36 0 -61 23t-25 57q0 32 25 55.5t61 23.5t61.5 -23.5t25.5 -55.5q0 -34 -25.5 -57t-61.5 -23zM293 741q-18 0 -30.5 -12t-12.5 -29q0 -19 12.5 -30.5t30.5 -11.5t31 12.5t13 29.5t-13 29t-31 12zM471 0l-58 160h-239l-58 -160h-97l224 584h100l224 -584h-96z
M202 238h183l-91 253z" />
    <glyph glyph-name="atilde.smcp" horiz-adv-x="586" 
d="M245 664q-26 0 -26 -34h-48q0 96 67 96q24 0 55.5 -16.5t45.5 -16.5q27 0 27 35h48q0 -97 -69 -97q-25 0 -56.5 16.5t-43.5 16.5zM471 0l-58 160h-239l-58 -160h-97l224 584h100l224 -584h-96zM202 238h183l-91 253z" />
    <glyph glyph-name="ae.smcp" horiz-adv-x="764" 
d="M463 81h261v-81h-352v156h-196l-67 -156h-98l261 584h448l-14 -80h-243v-179h179v-78h-179v-166zM208 230h164v277h-44z" />
    <glyph glyph-name="b.smcp" horiz-adv-x="565" 
d="M392 304q58 -7 94 -48t36 -95q0 -65 -50.5 -113t-143.5 -48h-244v584h219q89 0 137 -45.5t48 -106.5q0 -42 -24 -78.5t-72 -49.5zM393 418q0 38 -26.5 62t-86.5 24h-102v-171h105q58 0 84 24t26 61zM306 81q61 0 91 26t30 65t-29.5 64.5t-90.5 25.5h-129v-181h128z" />
    <glyph glyph-name="c.smcp" horiz-adv-x="543" 
d="M348 -8q-136 0 -219 82.5t-83 217.5q0 136 82.5 218t219.5 82q94 0 162 -29l-13 -75q-67 25 -131 25q-101 0 -163 -60t-62 -161t62 -160.5t163 -59.5q71 0 130 24l14 -75q-72 -29 -162 -29z" />
    <glyph glyph-name="ccedilla.smcp" horiz-adv-x="543" 
d="M510 21q-69 -27 -154 -29l-14 -30q57 -18 57 -60q0 -31 -24.5 -49t-64.5 -18q-48 0 -73 16l18 42q20 -8 42 -8q28 0 28 17q0 11 -9.5 17.5t-34.5 15.5l-3 12l23 48q-117 14 -186 94t-69 203q0 136 82.5 218t219.5 82q94 0 162 -29l-13 -75q-67 25 -131 25
q-101 0 -163 -60t-62 -161t62 -160.5t163 -59.5q71 0 130 24z" />
    <glyph glyph-name="d.smcp" horiz-adv-x="608" 
d="M275 584q136 0 210 -78.5t74 -212.5q0 -135 -74 -214t-210 -79h-191v584h191zM275 81q93 0 141 56t48 156q0 99 -48 155t-141 56h-99v-423h99z" />
    <glyph glyph-name="eth.smcp" horiz-adv-x="617" 
d="M284 584q137 0 211 -78.5t74 -212.5q0 -135 -74 -214t-211 -79h-191v262h-69v76h69v246h191zM284 81q93 0 141.5 56t48.5 156q0 99 -48.5 155t-141.5 56h-99v-166h151v-76h-151v-181h99z" />
    <glyph glyph-name="e.smcp" horiz-adv-x="519" 
d="M176 81h304v-81h-396v584h391l-14 -80h-285v-179h221v-78h-221v-166z" />
    <glyph glyph-name="eacute.smcp" horiz-adv-x="519" 
d="M367 691l-151 -69l-27 40l131 96zM176 81h304v-81h-396v584h391l-14 -80h-285v-179h221v-78h-221v-166z" />
    <glyph glyph-name="ecircumflex.smcp" horiz-adv-x="519" 
d="M269 680l-106 -58l-36 39l120 91h43l120 -91l-36 -39zM176 81h304v-81h-396v584h391l-14 -80h-285v-179h221v-78h-221v-166z" />
    <glyph glyph-name="edieresis.smcp" horiz-adv-x="519" 
d="M189 634q-21 0 -36.5 15t-14.5 36q1 19 16 33.5t35 14.5q22 0 36.5 -14t14.5 -34q1 -22 -13.5 -36.5t-37.5 -14.5zM346 634q-21 0 -36 15t-15 36q1 20 16 34t35 14q22 0 37 -14t15 -34q0 -22 -15 -36.5t-37 -14.5zM176 81h304v-81h-396v584h391l-14 -80h-285v-179h221
v-78h-221v-166z" />
    <glyph glyph-name="egrave.smcp" horiz-adv-x="519" 
d="M344 664l-27 -40l-151 69l47 67zM176 81h304v-81h-396v584h391l-14 -80h-285v-179h221v-78h-221v-166z" />
    <glyph glyph-name="f.smcp" horiz-adv-x="497" 
d="M466 504h-290v-177h228v-80h-228v-247h-92v584h395z" />
    <glyph glyph-name="f_b.smcp" horiz-adv-x="1039" 
d="M84 0v584h395l-13 -80h-290v-177h228v-80h-228v-247h-92zM866 304q58 -7 94 -48t36 -95q0 -65 -50.5 -113t-143.5 -48h-244v584h219q89 0 137 -45.5t48 -106.5q0 -42 -24 -78.5t-72 -49.5zM867 418q0 38 -26.5 62t-86.5 24h-102v-171h105q58 0 84 24t26 61zM780 81
q61 0 91 26t30 65t-29.5 64.5t-90.5 25.5h-129v-181h128z" />
    <glyph glyph-name="f_f.smcp" horiz-adv-x="955" 
d="M84 0v584h395l-13 -80h-290v-177h228v-80h-228v-247h-92zM924 504h-290v-177h228v-80h-228v-247h-92v584h395z" />
    <glyph glyph-name="f_f_b.smcp" horiz-adv-x="1498" 
d="M84 0v584h395l-13 -80h-290v-177h228v-80h-228v-247h-92zM542 0v584h395l-13 -80h-290v-177h228v-80h-228v-247h-92zM1325 304q58 -7 94 -48t36 -95q0 -65 -50.5 -113t-143.5 -48h-244v584h219q89 0 137 -45.5t48 -106.5q0 -42 -24 -78.5t-72 -49.5zM1326 418
q0 38 -26.5 62t-86.5 24h-102v-171h105q58 0 84 24t26 61zM1239 81q61 0 91 26t30 65t-29.5 64.5t-90.5 25.5h-129v-181h128z" />
    <glyph glyph-name="f_f_h.smcp" horiz-adv-x="1560" 
d="M84 0v584h395l-13 -80h-290v-177h228v-80h-228v-247h-92zM542 0v584h395l-13 -80h-290v-177h228v-80h-228v-247h-92zM1384 584h92v-584h-92v260h-276v-260h-92v584h92v-241h276v241z" />
    <glyph glyph-name="f_f_i.smcp" horiz-adv-x="1190" 
d="M84 0v584h395l-13 -80h-290v-177h228v-80h-228v-247h-92zM542 0v584h395l-13 -80h-290v-177h228v-80h-228v-247h-92zM1014 584h92v-584h-92v584z" />
    <glyph glyph-name="f_f_j.smcp" horiz-adv-x="1285" 
d="M84 0v584h395l-13 -80h-290v-177h228v-80h-228v-247h-92zM542 0v584h395l-13 -80h-290v-177h228v-80h-228v-247h-92zM1110 584h91v-519q0 -105 -63.5 -170t-165.5 -67l-15 80q67 1 110 43.5t43 113.5v519z" />
    <glyph glyph-name="f_f_k.smcp" horiz-adv-x="1491" 
d="M84 0v584h395l-13 -80h-290v-177h228v-80h-228v-247h-92zM542 0v584h395l-13 -80h-290v-177h228v-80h-228v-247h-92zM1260 351l221 -342v-9h-102l-177 283l-98 -115v-168h-92v584h92v-294l244 294h104v-9z" />
    <glyph glyph-name="f_f_l.smcp" horiz-adv-x="1402" 
d="M84 0v584h395l-13 -80h-290v-177h228v-80h-228v-247h-92zM542 0v584h395l-13 -80h-290v-177h228v-80h-228v-247h-92zM1107 81h278v-81h-370v584h92v-503z" />
    <glyph glyph-name="f_h.smcp" horiz-adv-x="1101" 
d="M84 0v584h395l-13 -80h-290v-177h228v-80h-228v-247h-92zM926 584h92v-584h-92v260h-276v-260h-92v584h92v-241h276v241z" />
    <glyph glyph-name="f_j.smcp" horiz-adv-x="826" 
d="M84 0v584h395l-13 -80h-290v-177h228v-80h-228v-247h-92zM652 584h91v-519q0 -105 -63.5 -170t-165.5 -67l-15 80q67 1 110 43.5t43 113.5v519z" />
    <glyph glyph-name="f_k.smcp" horiz-adv-x="1033" 
d="M84 0v584h395l-13 -80h-290v-177h228v-80h-228v-247h-92zM802 351l221 -342v-9h-102l-177 283l-98 -115v-168h-92v584h92v-294l244 294h104v-9z" />
    <glyph glyph-name="fi.smcp" horiz-adv-x="731" 
d="M84 0v584h395l-13 -80h-290v-177h228v-80h-228v-247h-92zM556 584h92v-584h-92v584z" />
    <glyph glyph-name="fl.smcp" horiz-adv-x="943" 
d="M84 0v584h395l-13 -80h-290v-177h228v-80h-228v-247h-92zM649 81h278v-81h-370v584h92v-503z" />
    <glyph glyph-name="g.smcp" horiz-adv-x="602" 
d="M324 302h227v-247q-30 -29 -88 -46t-124 -17q-132 0 -212.5 83t-80.5 220q0 134 81 215.5t214 81.5q105 0 179 -38l-14 -80q-64 37 -156 37q-94 0 -150 -58.5t-56 -157.5q0 -101 56.5 -161.5t149.5 -60.5q60 0 106 18v138l-145 5z" />
    <glyph glyph-name="h.smcp" horiz-adv-x="628" 
d="M452 584h92v-584h-92v260h-276v-260h-92v584h92v-241h276v241z" />
    <glyph glyph-name="i.smcp" horiz-adv-x="260" 
d="M84 0v584h92v-584h-92z" />
    <glyph glyph-name="iacute.smcp" horiz-adv-x="259" 
d="M80 622l-27 40l131 96l47 -67zM84 0v584h91v-584h-91z" />
    <glyph glyph-name="icircumflex.smcp" horiz-adv-x="260" 
d="M24 622l-36 39l120 91h43l120 -91l-36 -39l-105 58zM84 0v584h92v-584h-92z" />
    <glyph glyph-name="idieresis.smcp" horiz-adv-x="260" 
d="M51 634q-21 0 -36.5 15t-14.5 36q1 19 16 33.5t35 14.5q21 0 35.5 -14t15.5 -34q1 -22 -14 -36.5t-37 -14.5zM208 634q-21 0 -36.5 15t-14.5 36q1 20 15.5 34t35.5 14q22 0 36.5 -14t14.5 -34q0 -22 -14.5 -36.5t-36.5 -14.5zM84 0v584h92v-584h-92z" />
    <glyph glyph-name="i.loclTRK.smcp" horiz-adv-x="260" 
d="M130 634q-21 0 -37 15t-15 36q1 20 16 34t36 14t36 -14t15 -34q0 -22 -15 -36.5t-36 -14.5zM84 0v584h92v-584h-92z" />
    <glyph glyph-name="igrave.smcp" horiz-adv-x="259" 
d="M178 624l-151 69l47 67l131 -96zM84 0v584h91v-584h-91z" />
    <glyph glyph-name="j.smcp" horiz-adv-x="283" 
d="M-30 -172l-15 80q67 1 110 43.5t43 113.5v519h91v-519q0 -105 -63.5 -170t-165.5 -67z" />
    <glyph glyph-name="k.smcp" horiz-adv-x="563" 
d="M332 351l221 -342v-9h-102l-177 283l-98 -115v-168h-92v584h92v-294l244 294h104v-9z" />
    <glyph glyph-name="l.smcp" horiz-adv-x="471" 
d="M176 81h278v-81h-370v584h92v-503z" />
    <glyph glyph-name="m.smcp" horiz-adv-x="761" 
d="M687 0h-90l-15 447l-152 -442h-99l-152 442l-15 -447h-90l22 584h128l157 -463l156 463h129z" />
    <glyph glyph-name="n.smcp" horiz-adv-x="630" 
d="M455 584h92v-584h-100l-271 423v-423h-92v584h101l270 -430v430z" />
    <glyph glyph-name="ntilde.smcp" horiz-adv-x="630" 
d="M268 664q-26 0 -26 -34h-48q0 96 67 96q24 0 55 -16.5t45 -16.5q28 0 28 35h48q0 -97 -69 -97q-25 0 -56.5 16.5t-43.5 16.5zM455 584h92v-584h-100l-271 423v-423h-92v584h101l270 -430v430z" />
    <glyph glyph-name="o.smcp" horiz-adv-x="650" 
d="M324 -8q-125 0 -201 82.5t-76 218.5q0 135 76 217t202 82t202 -82t76 -217q0 -136 -76 -218.5t-203 -82.5zM324 72q87 0 135.5 58.5t48.5 162.5q0 103 -48.5 161t-134.5 58t-134.5 -58t-48.5 -161q0 -104 48.5 -162.5t133.5 -58.5z" />
    <glyph glyph-name="oacute.smcp" horiz-adv-x="650" 
d="M274 622l-26 40l131 96l47 -67zM324 -8q-125 0 -201 82.5t-76 218.5q0 135 76 217t202 82t202 -82t76 -217q0 -136 -76 -218.5t-203 -82.5zM324 72q87 0 135.5 58.5t48.5 162.5q0 103 -48.5 161t-134.5 58t-134.5 -58t-48.5 -161q0 -104 48.5 -162.5t133.5 -58.5z" />
    <glyph glyph-name="ocircumflex.smcp" horiz-adv-x="650" 
d="M220 622l-36 39l120 91h43l120 -91l-36 -39l-106 58zM324 -8q-125 0 -201 82.5t-76 218.5q0 135 76 217t202 82t202 -82t76 -217q0 -136 -76 -218.5t-203 -82.5zM324 72q87 0 135.5 58.5t48.5 162.5q0 103 -48.5 161t-134.5 58t-134.5 -58t-48.5 -161q0 -104 48.5 -162.5
t133.5 -58.5z" />
    <glyph glyph-name="odieresis.smcp" horiz-adv-x="650" 
d="M247 634q-21 0 -37 15t-15 36q1 19 16 33.5t36 14.5t35.5 -14t15.5 -34q1 -21 -14.5 -36t-36.5 -15zM404 634q-21 0 -37 15t-15 36q1 20 16 34t36 14t36 -14t15 -34q0 -22 -15 -36.5t-36 -14.5zM324 -8q-125 0 -201 82.5t-76 218.5q0 135 76 217t202 82t202 -82t76 -217
q0 -136 -76 -218.5t-203 -82.5zM324 72q87 0 135.5 58.5t48.5 162.5q0 103 -48.5 161t-134.5 58t-134.5 -58t-48.5 -161q0 -104 48.5 -162.5t133.5 -58.5z" />
    <glyph glyph-name="ograve.smcp" horiz-adv-x="650" 
d="M376 624l-151 69l47 67l131 -96zM324 -8q-125 0 -201 82.5t-76 218.5q0 135 76 217t202 82t202 -82t76 -217q0 -136 -76 -218.5t-203 -82.5zM324 72q87 0 135.5 58.5t48.5 162.5q0 103 -48.5 161t-134.5 58t-134.5 -58t-48.5 -161q0 -104 48.5 -162.5t133.5 -58.5z" />
    <glyph glyph-name="oslash.smcp" horiz-adv-x="650" 
d="M525 512q78 -83 78 -219t-76 -218.5t-203 -82.5q-80 0 -141 35l-38 -53l-58 39l40 57q-80 83 -80 223q0 135 76 217t202 82q81 0 145 -36l39 55l59 -39zM142 293q0 -92 38 -148l241 342q-41 25 -96 25q-86 0 -134.5 -58t-48.5 -161zM324 72q87 0 135.5 58.5t48.5 162.5
q0 89 -36 144l-241 -341q39 -24 93 -24z" />
    <glyph glyph-name="otilde.smcp" horiz-adv-x="650" 
d="M203 630q0 96 68 96q24 0 55 -16.5t45 -16.5q27 0 27 35h48q0 -97 -68 -97q-25 0 -57 16.5t-44 16.5q-25 0 -25 -34h-49zM324 -8q-125 0 -201 82.5t-76 218.5q0 135 76 217t202 82t202 -82t76 -217q0 -136 -76 -218.5t-203 -82.5zM324 72q87 0 135.5 58.5t48.5 162.5
q0 103 -48.5 161t-134.5 58t-134.5 -58t-48.5 -161q0 -104 48.5 -162.5t133.5 -58.5z" />
    <glyph glyph-name="oe.smcp" horiz-adv-x="819" 
d="M478 81h300v-81h-421q-147 0 -228.5 74.5t-81.5 218.5t81.5 217.5t228.5 73.5h417l-13 -80h-283v-179h219v-78h-219v-166zM357 77l30 -1v431h-30q-99 2 -155 -53t-56 -161t55.5 -160t155.5 -56z" />
    <glyph glyph-name="p.smcp" horiz-adv-x="540" 
d="M310 584q90 0 144.5 -51.5t54.5 -135.5t-54.5 -135.5t-144.5 -51.5h-134v-210h-92v584h226zM295 287q53 0 86 30t33 79t-33 78.5t-86 29.5h-119v-217h119z" />
    <glyph glyph-name="thorn.smcp" horiz-adv-x="545" 
d="M307 478q90 0 143 -51t53 -135t-53 -135.5t-143 -51.5h-131v-105h-92v584h92v-106h131zM291 185q56 0 86.5 29t30.5 78t-30.5 78t-86.5 29h-115v-214h115z" />
    <glyph glyph-name="q.smcp" horiz-adv-x="650" 
d="M603 293q0 -97 -39.5 -168t-111.5 -105l76 -123l-88 -41l-60 141q-30 -5 -56 -5q-125 0 -201 82.5t-76 218.5q0 135 76 217t202 82t202 -82t76 -217zM142 313q0 -109 54 -175t135 -66q83 0 130 57t47 143q0 108 -53.5 174.5t-135.5 66.5q-80 0 -128.5 -55t-48.5 -145z
" />
    <glyph glyph-name="r.smcp" horiz-adv-x="565" 
d="M349 230l193 -221v-9h-106l-193 227h-67v-227h-92v584h226q90 0 144.5 -49t54.5 -129q0 -71 -43 -118t-117 -58zM176 504v-205h119q53 0 86 27.5t33 74.5q0 46 -33 74.5t-86 28.5h-119z" />
    <glyph glyph-name="s.smcp" horiz-adv-x="497" 
d="M239 -8q-115 0 -197 48l14 82q83 -51 181 -51q61 0 95 23t34 62q0 56 -76 84l-109 42q-129 50 -129 153q0 77 57.5 117t155.5 40q95 0 165 -30l-13 -78q-64 29 -142 29q-58 0 -93 -19.5t-35 -55.5q0 -49 73 -74l110 -42q128 -50 131 -160q-1 -82 -59 -126t-163 -44z" />
    <glyph glyph-name="germandbls.smcp" horiz-adv-x="606" 
d="M409 335q75 -17 119 -63.5t44 -113.5q0 -74 -52.5 -120t-138.5 -46q-79 0 -140 26l13 76q40 -27 114 -27q55 0 82.5 26.5t27.5 64.5q0 45 -42 79t-115 46l-6 51l95 167q-41 12 -88 12q-75 0 -113.5 -37.5t-38.5 -105.5v-370h-92v385q0 96 64.5 152t178.5 56
q126 0 202 -35v-19z" />
    <glyph glyph-name="t.smcp" horiz-adv-x="518" 
d="M501 584v-80h-197v-504h-91v504h-196v80h484z" />
    <glyph glyph-name="u.smcp" horiz-adv-x="620" 
d="M310 -8q-113 0 -172.5 53t-59.5 176v363h92v-362q0 -150 140 -150t140 150v362h92v-363q0 -123 -59.5 -176t-172.5 -53z" />
    <glyph glyph-name="uacute.smcp" horiz-adv-x="620" 
d="M259 622l-27 40l131 96l47 -67zM310 -8q-113 0 -172.5 53t-59.5 176v363h92v-362q0 -150 140 -150t140 150v362h92v-363q0 -123 -59.5 -176t-172.5 -53z" />
    <glyph glyph-name="ucircumflex.smcp" horiz-adv-x="620" 
d="M204 622l-36 39l120 91h44l119 -91l-35 -39l-106 58zM310 -8q-113 0 -172.5 53t-59.5 176v363h92v-362q0 -150 140 -150t140 150v362h92v-363q0 -123 -59.5 -176t-172.5 -53z" />
    <glyph glyph-name="udieresis.smcp" horiz-adv-x="620" 
d="M232 634q-21 0 -37 15t-15 36q1 19 16 33.5t36 14.5t35 -14t15 -34q1 -22 -14 -36.5t-36 -14.5zM389 634q-22 0 -37.5 15t-14.5 36q1 20 16 34t36 14t35.5 -14t14.5 -34q0 -22 -14.5 -36.5t-35.5 -14.5zM310 -8q-113 0 -172.5 53t-59.5 176v363h92v-362q0 -150 140 -150
t140 150v362h92v-363q0 -123 -59.5 -176t-172.5 -53z" />
    <glyph glyph-name="ugrave.smcp" horiz-adv-x="620" 
d="M361 624l-151 69l47 67l130 -96zM310 -8q-113 0 -172.5 53t-59.5 176v363h92v-362q0 -150 140 -150t140 150v362h92v-363q0 -123 -59.5 -176t-172.5 -53z" />
    <glyph glyph-name="v.smcp" horiz-adv-x="572" 
d="M456 584h97l-217 -584h-100l-216 584h97l170 -492z" />
    <glyph glyph-name="w.smcp" horiz-adv-x="780" 
d="M661 584h91l-153 -584h-98l-111 419l-111 -419h-98l-154 584h91l114 -462l123 457h68l123 -463z" />
    <glyph glyph-name="x.smcp" horiz-adv-x="530" 
d="M320 305l194 -296v-9h-104l-145 230l-145 -230h-104v9l194 296l-178 270v9h103l130 -204l130 204h103v-9z" />
    <glyph glyph-name="y.smcp" horiz-adv-x="565" 
d="M540 584v-9l-212 -338v-237h-91v236l-213 339v9h103l155 -262l155 262h103z" />
    <glyph glyph-name="yacute.smcp" horiz-adv-x="565" 
d="M382 691l-152 -69l-26 40l131 96zM540 584v-9l-212 -338v-237h-91v236l-213 339v9h103l155 -262l155 262h103z" />
    <glyph glyph-name="ydieresis.smcp" horiz-adv-x="565" 
d="M203 634q-21 0 -36.5 15t-15.5 36q1 19 16.5 33.5t35.5 14.5q21 0 36 -14t15 -34q1 -21 -14.5 -36t-36.5 -15zM360 634q-21 0 -36.5 15t-14.5 36q0 20 15 34t36 14q22 0 37 -14t15 -34q0 -22 -15 -36.5t-37 -14.5zM540 584v-9l-212 -338v-237h-91v236l-213 339v9h103
l155 -262l155 262h103z" />
    <glyph glyph-name="z.smcp" horiz-adv-x="519" 
d="M159 81h321v-81h-436l-12 62l318 442h-300v80h418l11 -61z" />
    <glyph glyph-name="uni24EA" horiz-adv-x="830" 
d="M415 -15q-154 1 -262 110t-108 262t108.5 262t261.5 109t261.5 -109t108.5 -262t-108.5 -263t-261.5 -109zM415 32q133 -1 228 95t95 229q0 135 -94 230t-229 95q-134 0 -229 -95.5t-95 -229.5q0 -133 95 -228t229 -96zM414 152q-71 0 -111 55.5t-40 156.5
q0 100 40 156.5t111 56.5q72 0 112.5 -56.5t40.5 -156.5q0 -101 -40.5 -156.5t-112.5 -55.5zM414 212q37 0 57.5 39t20.5 113t-20.5 113t-57.5 39q-75 0 -75 -152t75 -152z" />
    <glyph glyph-name="uni2460" horiz-adv-x="830" 
d="M415 728q153 0 261.5 -109t108.5 -262t-108.5 -263t-261.5 -109q-154 1 -262 110t-108 262t108.5 262t261.5 109zM415 32q133 -1 228 95t95 229q0 135 -94 230t-229 95q-134 0 -229 -95.5t-95 -229.5q0 -133 95 -228t229 -96zM288 500l146 71h34v-413h-73v319l-97 -40z
" />
    <glyph glyph-name="uni2461" horiz-adv-x="830" 
d="M415 728q153 0 261.5 -109t108.5 -262t-108.5 -263t-261.5 -109q-154 1 -262 110t-108 262t108.5 262t261.5 109zM415 32q133 -1 228 95t95 229q0 135 -94 230t-229 95q-134 0 -229 -95.5t-95 -229.5q0 -133 95 -228t229 -96zM469 317l-94 -99h182v-60h-273l-11 42
l160 170q40 43 40 82q0 29 -21.5 46.5t-56.5 17.5q-55 0 -105 -23l-12 56q56 27 129 27q65 0 103 -32t38 -86q0 -60 -79 -141z" />
    <glyph glyph-name="uni2462" horiz-adv-x="830" 
d="M415 728q153 0 261.5 -109t108.5 -262t-108.5 -263t-261.5 -109q-154 1 -262 110t-108 262t108.5 262t261.5 109zM415 32q133 -1 228 95t95 229q0 135 -94 230t-229 95q-134 0 -229 -95.5t-95 -229.5q0 -133 95 -228t229 -96zM465 374q38 -2 64.5 -31t26.5 -70
q0 -53 -44.5 -87t-115.5 -34q-69 0 -121 23l10 57q40 -20 103 -20q39 0 65.5 19.5t26.5 49.5q0 29 -24 45.5t-63 16.5h-30v50h30q32 0 52 17t20 44q0 28 -20 45t-52 17q-38 0 -91 -14l-10 55q48 19 116 19q59 0 96 -29t37 -78q0 -36 -21.5 -62t-54.5 -33z" />
    <glyph glyph-name="uni2463" horiz-adv-x="830" 
d="M415 728q153 0 261.5 -109t108.5 -262t-108.5 -263t-261.5 -109q-154 1 -262 110t-108 262t108.5 262t261.5 109zM415 32q133 -1 228 95t95 229q0 135 -94 230t-229 95q-134 0 -229 -95.5t-95 -229.5q0 -133 95 -228t229 -96zM485 571v-251h60v-63h-60v-99h-74v99h-182
l-14 45l207 269h63zM293 320h118v154z" />
    <glyph glyph-name="uni2464" horiz-adv-x="830" 
d="M415 728q153 0 261.5 -109t108.5 -262t-108.5 -263t-261.5 -109q-154 1 -262 110t-108 262t108.5 262t261.5 109zM415 32q133 -1 228 95t95 229q0 135 -94 230t-229 95q-134 0 -229 -95.5t-95 -229.5q0 -133 95 -228t229 -96zM430 410q60 0 96 -34.5t36 -87.5
q0 -61 -45.5 -98.5t-120.5 -37.5q-61 0 -127 27l11 60q39 -26 109 -26q47 0 72.5 19.5t25.5 53.5q0 31 -21 51t-61 20q-48 0 -96 -21l-34 25l21 210h237v-61h-178l-12 -113q48 13 87 13z" />
    <glyph glyph-name="uni2465" horiz-adv-x="830" 
d="M415 728q153 0 261.5 -109t108.5 -262t-108.5 -263t-261.5 -109q-154 1 -262 110t-108 262t108.5 262t261.5 109zM415 32q133 -1 228 95t95 229q0 135 -94 230t-229 95q-134 0 -229 -95.5t-95 -229.5q0 -133 95 -228t229 -96zM413 413q58 0 95 -35t37 -93
q0 -60 -40 -96.5t-104 -36.5q-73 0 -111.5 48t-38.5 126q0 98 61 166t176 84l10 -57q-136 -23 -164 -121q33 15 79 15zM400 212q32 0 53 21.5t21 55.5q0 33 -21 51t-58 18q-33 0 -71 -15q-4 -13 -4 -27q0 -44 21.5 -74t58.5 -30z" />
    <glyph glyph-name="uni2466" horiz-adv-x="830" 
d="M415 728q153 0 261.5 -109t108.5 -262t-108.5 -263t-261.5 -109q-154 1 -262 110t-108 262t108.5 262t261.5 109zM415 32q133 -1 228 95t95 229q0 135 -94 230t-229 95q-134 0 -229 -95.5t-95 -229.5q0 -133 95 -228t229 -96zM272 571h278l10 -36l-191 -377h-82l186 352
h-201v61z" />
    <glyph glyph-name="uni2467" horiz-adv-x="830" 
d="M415 728q153 0 261.5 -109t108.5 -262t-108.5 -263t-261.5 -109q-154 1 -262 110t-108 262t108.5 262t261.5 109zM415 32q133 -1 228 95t95 229q0 135 -94 230t-229 95q-134 0 -229 -95.5t-95 -229.5q0 -133 95 -228t229 -96zM497 367q70 -31 70 -103q0 -50 -41.5 -81
t-110.5 -31q-70 0 -111.5 31.5t-41.5 80.5q0 61 69 102q-27 13 -43 41t-16 60q0 48 40 78.5t105 30.5t103.5 -30.5t38.5 -79.5q0 -61 -62 -99zM417 516q-33 0 -52.5 -15.5t-19.5 -39.5q0 -41 41 -55l54 -19q46 27 46 69q0 27 -18.5 43.5t-50.5 16.5zM416 212q37 0 58 16.5
t21 43.5q0 39 -44 51l-58 21q-58 -24 -58 -68q0 -29 21 -46.5t60 -17.5z" />
    <glyph glyph-name="uni2468" horiz-adv-x="830" 
d="M415 728q153 0 261.5 -109t108.5 -262t-108.5 -263t-261.5 -109q-154 1 -262 110t-108 262t108.5 262t261.5 109zM415 32q133 -1 228 95t95 229q0 135 -94 230t-229 95q-134 0 -229 -95.5t-95 -229.5q0 -133 95 -228t229 -96zM423 576q72 0 111 -48.5t39 -125.5
q0 -98 -61 -165.5t-176 -84.5l-10 57q135 24 164 121q-38 -15 -80 -15q-58 0 -94.5 35t-36.5 93q0 60 40 96.5t104 36.5zM350 440q0 -33 21 -51t57 -18q34 0 72 15q4 12 4 27q0 44 -21 73.5t-59 29.5q-32 0 -53 -21.5t-21 -54.5z" />
    <glyph glyph-name="zero.lf" horiz-adv-x="599" 
d="M299 -10q-115 0 -179.5 93t-64.5 259q0 167 64.5 261t179.5 94t180 -94t65 -261q0 -166 -65 -259t-180 -93zM299 67q71 0 110 72t39 203q0 132 -39.5 205.5t-109.5 73.5t-109.5 -73.5t-39.5 -205.5q0 -131 39 -203t110 -72z" />
    <glyph glyph-name="one.lf" horiz-adv-x="391" 
d="M254 687h45v-687h-93v569l-174 -77l-15 77z" />
    <glyph glyph-name="two.lf" horiz-adv-x="551" 
d="M156 77h350v-77h-450l-19 75l226 219q52 50 73.5 74t40 59t18.5 72q0 54 -41.5 87.5t-104.5 33.5q-88 0 -186 -42l-13 73q89 46 208 46q102 0 167.5 -54.5t65.5 -142.5q0 -66 -41 -124.5t-135 -147.5z" />
    <glyph glyph-name="three.lf" horiz-adv-x="542" 
d="M344 360q77 -14 113 -63t36 -108q0 -85 -72 -142t-189 -57q-112 0 -198 39l14 76q77 -38 176 -38q79 0 126 37t47 91t-42 83.5t-112 29.5h-82v80h66q70 0 106 38t36 87q0 48 -37.5 77.5t-103.5 29.5q-79 0 -158 -33l-13 74q86 36 183 36q103 0 164 -47.5t61 -123.5
q0 -59 -33 -102.5t-88 -63.5z" />
    <glyph glyph-name="four.lf" horiz-adv-x="565" 
d="M535 243v-77h-112v-166h-93v166h-293l-21 67l326 453h81v-443h112zM114 243h216v301z" />
    <glyph glyph-name="five.lf" horiz-adv-x="570" 
d="M304 423q101 0 162.5 -57t61.5 -150q0 -102 -74 -164t-194 -62q-121 0 -211 51l18 78q77 -52 185 -52q81 0 130.5 40t49.5 108q0 59 -40 96t-108 37q-106 0 -175 -36l-49 44l39 331h384v-76h-308l-25 -208q64 20 154 20z" />
    <glyph glyph-name="six.lf" horiz-adv-x="573" 
d="M311 423q110 0 168.5 -60t58.5 -155q0 -99 -63 -158.5t-170 -59.5q-120 0 -186.5 77.5t-66.5 216.5q0 177 106.5 284.5t289.5 128.5l10 -76q-119 -12 -197 -75t-102 -158q70 35 152 35zM305 67q65 0 101.5 39t36.5 103q0 66 -39 103t-118 37q-76 0 -139 -41
q-1 -10 -1 -28q0 -104 42.5 -158.5t116.5 -54.5z" />
    <glyph glyph-name="seven.lf" horiz-adv-x="522" 
d="M494 687l10 -54l-318 -633h-98l312 611h-375v76h469z" />
    <glyph glyph-name="eight.lf" horiz-adv-x="592" 
d="M416 341q56 -25 89.5 -68t33.5 -99q0 -81 -68 -132.5t-178 -51.5t-175.5 53t-65.5 139q0 48 32 93.5t87 73.5q-46 24 -72.5 65.5t-26.5 88.5q0 87 62.5 140.5t164.5 53.5t163 -52t61 -136q0 -56 -28.5 -101t-78.5 -67zM296 620q-58 0 -93.5 -31t-35.5 -83q0 -74 87 -109
l77 -26q45 20 71 55.5t26 78.5q0 52 -36 83.5t-96 31.5zM297 67q67 0 107 29t40 76q0 38 -25.5 69t-68.5 44l-94 32q-50 -21 -79.5 -58.5t-29.5 -79.5q0 -51 40.5 -81.5t109.5 -30.5z" />
    <glyph glyph-name="nine.lf" horiz-adv-x="573" 
d="M268 697q121 0 187.5 -77.5t66.5 -216.5q0 -177 -106.5 -284.5t-289.5 -128.5l-11 76q120 13 198 76t102 158q-68 -36 -153 -36q-109 0 -167.5 60.5t-58.5 154.5q0 99 62.5 158.5t169.5 59.5zM131 478q0 -65 39 -102.5t117 -37.5q77 0 140 41q1 10 1 28
q0 104 -42.5 158.5t-116.5 54.5q-65 0 -101.5 -39t-36.5 -103z" />
    <glyph glyph-name="zero.lf.zero" horiz-adv-x="599" 
d="M299 697q115 0 180 -94t65 -261q0 -166 -65 -259t-180 -93t-179.5 93t-64.5 259q0 167 64.5 261t179.5 94zM299 621q-70 0 -109.5 -73.5t-39.5 -205.5q0 -92 19 -153l216 393q-36 39 -86 39zM299 67q71 0 110 72t39 203q0 104 -24 171l-219 -398q37 -48 94 -48z" />
    <glyph glyph-name="zero.osf" horiz-adv-x="578" 
d="M287 -10q-106 0 -172.5 71t-66.5 186q0 116 66.5 187.5t172.5 71.5q107 0 175.5 -72t68.5 -187t-68.5 -186t-175.5 -71zM287 67q64 0 106 50t42 130q0 81 -42 131.5t-106 50.5q-63 0 -103.5 -50.5t-40.5 -131.5q0 -80 40.5 -130t103.5 -50z" />
    <glyph glyph-name="one.osf" horiz-adv-x="474" 
d="M307 75h144v-75h-382v75h146v308l-164 -71l-14 73l225 111h45v-421z" />
    <glyph glyph-name="two.osf" horiz-adv-x="504" 
d="M177 76h286v-76h-401l-26 63l225 175q83 63 83 114q0 36 -31 57t-86 21q-86 0 -163 -29l-13 73q33 13 87.5 22.5t99.5 9.5q97 0 149.5 -44.5t52.5 -108.5q0 -44 -27.5 -81.5t-86.5 -83.5z" />
    <glyph glyph-name="three.osf" horiz-adv-x="505" 
d="M313 180q67 -12 108.5 -57.5t41.5 -105.5q0 -74 -53.5 -126.5t-144.5 -77.5t-211 -25l-13 74q148 0 237 40t89 118q0 47 -43 77.5t-111 30.5h-71v80h56q63 0 102.5 34t39.5 91q0 43 -40 69.5t-105 26.5q-74 0 -155 -24l-12 70q86 31 178 31q101 0 165 -44.5t64 -116.5
q0 -55 -33.5 -100t-88.5 -65z" />
    <glyph glyph-name="four.osf" horiz-adv-x="595" 
d="M571 76v-76h-144v-202h-93v202h-293l-21 67l326 429h81v-420h144zM120 76h214v278z" />
    <glyph glyph-name="five.osf" horiz-adv-x="534" 
d="M272 261q103 0 165 -57t62 -147q0 -125 -121.5 -197t-319.5 -72l-14 75q97 0 176.5 20t131.5 64.5t52 108.5q0 57 -41 91t-118 34q-89 0 -154 -37l-50 44l57 308h374v-77h-299l-35 -181q64 23 134 23z" />
    <glyph glyph-name="six.osf" horiz-adv-x="568" 
d="M308 423q110 0 168.5 -60t58.5 -155q0 -99 -63 -158.5t-170 -59.5q-120 0 -186.5 77.5t-66.5 216.5q0 180 108 297t288 137l10 -76q-117 -12 -196.5 -83.5t-103.5 -171.5q70 36 153 36zM302 67q65 0 101.5 39t36.5 103q0 66 -39 103t-118 37q-76 0 -139 -41
q-1 -10 -1 -28q0 -104 42.5 -158.5t116.5 -54.5z" />
    <glyph glyph-name="seven.osf" horiz-adv-x="509" 
d="M485 496l11 -54l-318 -644h-98l312 621h-375v77h468z" />
    <glyph glyph-name="eight.osf" horiz-adv-x="586" 
d="M414 351q122 -57 122 -171q0 -84 -68 -137t-178 -53t-175.5 54.5t-65.5 144.5q0 49 32 95.5t86 74.5q-45 25 -71.5 68t-26.5 92q0 90 62.5 145.5t164.5 55.5q101 0 162.5 -54t61.5 -141q0 -58 -28.5 -104.5t-77.5 -69.5zM293 643q-58 0 -93.5 -33.5t-35.5 -87.5
q0 -77 87 -113l77 -27q45 20 71 57.5t26 81.5q0 54 -36.5 88t-95.5 34zM294 67q66 0 106.5 31t40.5 79q0 39 -25.5 71.5t-68.5 45.5l-95 33q-49 -22 -78.5 -61t-29.5 -81q0 -52 41 -85t109 -33z" />
    <glyph glyph-name="nine.osf" horiz-adv-x="559" 
d="M261 506q121 0 187.5 -77.5t66.5 -216.5q0 -179 -107.5 -291.5t-288.5 -132.5l-11 76q120 13 198 80t102 165q-72 -36 -153 -36q-109 0 -167.5 60.5t-58.5 154.5q0 99 62.5 158.5t169.5 59.5zM124 286q0 -65 39 -102t117 -37q79 0 140 40q1 11 1 28q0 104 -42.5 159
t-116.5 55q-65 0 -101.5 -39t-36.5 -104z" />
    <glyph glyph-name="zero.osf.zero" horiz-adv-x="578" 
d="M287 506q107 0 175.5 -72t68.5 -187t-68.5 -186t-175.5 -71q-106 0 -172.5 71t-66.5 186q0 116 66.5 187.5t172.5 71.5zM287 429q-63 0 -103.5 -50.5t-40.5 -131.5q0 -82 43 -133l166 299q-32 16 -65 16zM287 67q64 0 106 50t42 130q0 73 -34 121l-161 -293q22 -8 47 -8z
" />
    <glyph glyph-name="zero.tf" 
d="M300 -10q-115 0 -180 93t-65 259q0 167 65 261t180 94t180 -94t65 -261q0 -166 -65 -259t-180 -93zM300 67q71 0 110 72t39 203q0 132 -39.5 205.5t-109.5 73.5t-109.5 -73.5t-39.5 -205.5q0 -131 39 -203t110 -72z" />
    <glyph glyph-name="one.tf" 
d="M381 76h133v-76h-365v76h139v493l-174 -77l-14 77l236 118h45v-611z" />
    <glyph glyph-name="two.tf" 
d="M180 77h350v-77h-450l-18 75l225 219q52 50 73.5 74t40 59t18.5 72q0 54 -41.5 87.5t-104.5 33.5q-87 0 -185 -42l-14 73q90 46 208 46q102 0 167.5 -54.5t65.5 -142.5q0 -66 -41 -124.5t-135 -147.5z" />
    <glyph glyph-name="three.tf" 
d="M374 360q77 -14 112.5 -63t35.5 -108q0 -85 -71.5 -142t-185.5 -57q-53 0 -112.5 12t-89.5 27l15 76q23 -14 76 -26t101 -12q77 0 124 37t47 91t-41.5 83.5t-112.5 29.5h-82v80h67q70 0 105.5 38t35.5 87q0 48 -37.5 77.5t-103.5 29.5q-79 0 -158 -33l-12 74
q84 36 182 36q104 0 164.5 -47.5t60.5 -123.5q0 -59 -32.5 -102.5t-87.5 -63.5z" />
    <glyph glyph-name="four.tf" 
d="M553 243v-77h-113v-166h-92v166h-293l-22 67l326 453h81v-443h113zM131 243h217v302z" />
    <glyph glyph-name="five.tf" 
d="M319 423q101 0 162.5 -57t61.5 -150q0 -102 -74 -164t-194 -62q-121 0 -211 51l18 78q77 -52 185 -52q81 0 130.5 40t49.5 108q0 59 -40 96t-108 37q-106 0 -175 -36l-49 44l39 331h384v-76h-308l-25 -208q66 20 154 20z" />
    <glyph glyph-name="six.tf" 
d="M324 423q110 0 168.5 -60t58.5 -155q0 -99 -63 -158.5t-170 -59.5q-120 0 -186.5 77.5t-66.5 216.5q0 177 106.5 284.5t289.5 128.5l11 -76q-119 -13 -197.5 -76t-102.5 -158q72 36 152 36zM318 67q65 0 101.5 39t36.5 103q0 65 -39 102.5t-117 37.5q-77 0 -140 -41
q-1 -10 -1 -28q0 -104 42.5 -158.5t116.5 -54.5z" />
    <glyph glyph-name="seven.tf" 
d="M533 687l10 -54l-318 -633h-98l312 611h-375v76h469z" />
    <glyph glyph-name="eight.tf" 
d="M419 341q57 -25 90.5 -68t33.5 -99q0 -81 -68 -132.5t-178 -51.5t-175.5 53t-65.5 139q0 48 32 93.5t87 73.5q-46 24 -72.5 65.5t-26.5 88.5q0 87 62.5 140.5t164.5 53.5t163 -52t61 -136q0 -56 -29 -101t-79 -67zM300 620q-58 0 -93.5 -31t-35.5 -83q0 -74 87 -109
l76 -26q45 20 71.5 55.5t26.5 78.5q0 52 -36 83.5t-96 31.5zM301 67q67 0 107 29t40 76q0 38 -25.5 69t-68.5 44l-94 32q-50 -21 -79.5 -58.5t-29.5 -79.5q0 -51 40.5 -81.5t109.5 -30.5z" />
    <glyph glyph-name="nine.tf" 
d="M282 697q120 0 186.5 -77.5t66.5 -216.5q0 -177 -106.5 -284.5t-289.5 -128.5l-11 76q119 13 197.5 76t102.5 158q-72 -36 -152 -36q-110 0 -168.5 60t-58.5 155q0 99 63 158.5t170 59.5zM144 478q0 -65 39 -102.5t117 -37.5q77 0 140 41q1 10 1 28q0 104 -42.5 158.5
t-116.5 54.5q-65 0 -101.5 -39t-36.5 -103z" />
    <glyph glyph-name="zero.tf.zero" 
d="M300 697q115 0 180 -94t65 -261q0 -166 -65 -259t-180 -93t-179.5 93t-64.5 259q0 167 64.5 261t179.5 94zM300 621q-70 0 -109.5 -73.5t-39.5 -205.5q0 -92 19 -153l216 393q-36 39 -86 39zM300 67q71 0 110 72t39 203q0 102 -25 172l-219 -398q37 -49 95 -49z" />
    <glyph glyph-name="zero.tosf" 
d="M298 -10q-106 0 -172.5 71t-66.5 186q0 116 66.5 187.5t172.5 71.5q108 0 176 -71.5t68 -187.5q0 -115 -68 -186t-176 -71zM298 67q64 0 106 50t42 130q0 81 -42 131.5t-106 50.5q-62 0 -102.5 -50.5t-40.5 -131.5q0 -80 40.5 -130t102.5 -50z" />
    <glyph glyph-name="one.tosf" 
d="M370 75h144v-75h-382v75h146v308l-165 -71l-13 73l225 111h45v-421z" />
    <glyph glyph-name="two.tosf" 
d="M225 76h286v-76h-400l-27 63l226 175q83 63 83 114q0 36 -31 57t-86 21q-86 0 -163 -29l-14 73q33 13 87.5 22.5t99.5 9.5q97 0 150 -44.5t53 -108.5q0 -44 -27.5 -81.5t-87.5 -83.5z" />
    <glyph glyph-name="three.tosf" 
d="M361 180q67 -12 108.5 -57.5t41.5 -105.5q0 -74 -53.5 -126.5t-144.5 -77.5t-211 -25l-13 74q148 0 237 40t89 118q0 47 -43 77.5t-111 30.5h-71v80h56q63 0 102.5 34t39.5 91q0 43 -40 69.5t-105 26.5q-74 0 -155 -24l-12 70q86 31 178 31q101 0 165 -44.5t64 -116.5
q0 -55 -33.5 -100t-88.5 -65z" />
    <glyph glyph-name="four.tosf" 
d="M574 76v-76h-144v-202h-93v202h-293l-21 67l326 429h81v-420h144zM123 76h214v278z" />
    <glyph glyph-name="five.tosf" 
d="M304 261q103 0 165 -57t62 -147q0 -125 -121.5 -197t-319.5 -72l-13 75q97 0 176 20t131 64.5t52 108.5q0 57 -40.5 91t-118.5 34q-87 0 -154 -37l-49 44l57 308h374v-77h-303l-34 -181q66 23 136 23z" />
    <glyph glyph-name="six.tosf" 
d="M324 423q110 0 168.5 -60t58.5 -155q0 -99 -63 -158.5t-170 -59.5q-120 0 -186.5 77.5t-66.5 216.5q0 180 108 297t288 137l11 -76q-118 -12 -197.5 -83.5t-103.5 -171.5q74 36 153 36zM318 67q65 0 101.5 39t36.5 103q0 65 -39 102.5t-117 37.5q-77 0 -140 -41
q-1 -10 -1 -28q0 -104 42.5 -158.5t116.5 -54.5z" />
    <glyph glyph-name="seven.tosf" 
d="M532 496l10 -54l-318 -644h-98l312 621h-375v77h469z" />
    <glyph glyph-name="eight.tosf" 
d="M421 351q122 -57 122 -171q0 -84 -68 -137t-178 -53t-175.5 54.5t-65.5 144.5q0 49 32 95.5t86 74.5q-45 25 -71.5 68t-26.5 92q0 90 62.5 145.5t164.5 55.5q101 0 162.5 -54t61.5 -141q0 -58 -28.5 -104.5t-77.5 -69.5zM300 643q-58 0 -93.5 -33.5t-35.5 -87.5
q0 -77 87 -113l77 -27q45 20 71 57.5t26 81.5q0 54 -36.5 88t-95.5 34zM301 67q66 0 106.5 31t40.5 79q0 39 -25.5 71.5t-68.5 45.5l-95 33q-49 -22 -78.5 -61t-29.5 -81q0 -52 41 -85t109 -33z" />
    <glyph glyph-name="nine.tosf" 
d="M282 506q120 0 186.5 -77.5t66.5 -216.5q0 -179 -107.5 -291.5t-288.5 -132.5l-11 76q120 13 198.5 80t102.5 165q-72 -36 -153 -36q-110 0 -168.5 60t-58.5 155q0 99 63 158.5t170 59.5zM144 286q0 -65 39 -102t117 -37q79 0 140 40q1 11 1 28q0 104 -42.5 159
t-116.5 55q-65 0 -101.5 -39t-36.5 -104z" />
    <glyph glyph-name="zero.tosf.zero" 
d="M298 506q107 0 175.5 -72t68.5 -187t-68.5 -186t-175.5 -71q-106 0 -172.5 71t-66.5 186q0 116 66.5 187.5t172.5 71.5zM298 429q-63 0 -103.5 -50.5t-40.5 -131.5q0 -84 43 -133l166 299q-32 16 -65 16zM298 67q64 0 106 50t42 130q0 73 -34 121l-161 -293q22 -8 47 -8z
" />
    <glyph glyph-name="zero.zero" horiz-adv-x="599" 
d="M299 697q115 0 180 -94t65 -261q0 -166 -65 -259t-180 -93t-179.5 93t-64.5 259q0 167 64.5 261t179.5 94zM299 621q-70 0 -109.5 -73.5t-39.5 -205.5q0 -92 19 -153l216 393q-36 39 -86 39zM299 67q71 0 110 72t39 203q0 104 -24 171l-219 -398q37 -48 94 -48z" />
    <glyph glyph-name="zero.subs" horiz-adv-x="381" 
d="M189 -208q-71 0 -110.5 55.5t-39.5 156.5q0 100 39.5 156.5t110.5 56.5q72 0 112.5 -56.5t40.5 -156.5q0 -101 -40.5 -156.5t-112.5 -55.5zM189 -148q78 0 78 152t-78 152q-75 0 -75 -152t75 -152z" />
    <glyph glyph-name="one.subs" horiz-adv-x="259" 
d="M167 211h34v-413h-73v323l-98 -39l-10 60z" />
    <glyph glyph-name="two.subs" horiz-adv-x="348" 
d="M131 -142h182v-60h-273l-10 42l159 170q40 43 40 82q0 29 -21.5 46.5t-56.5 17.5q-55 0 -105 -23l-12 56q56 27 130 27q65 0 103 -32t38 -86q0 -59 -80 -141z" />
    <glyph glyph-name="three.subs" horiz-adv-x="345" 
d="M219 14q38 -4 63.5 -32.5t25.5 -68.5q0 -53 -44 -87t-115 -34q-70 0 -122 23l10 57q40 -20 103 -20q39 0 66 19.5t27 49.5q0 29 -24.5 45.5t-63.5 16.5h-30v50h30q33 0 52.5 17t19.5 44q0 28 -19.5 45t-51.5 17q-39 0 -92 -14l-10 55q47 19 117 19q59 0 95.5 -29
t36.5 -78q0 -35 -21 -61t-53 -34z" />
    <glyph glyph-name="four.subs" horiz-adv-x="374" 
d="M347 -41v-62h-60v-99h-74v99h-181l-14 45l207 269h62v-252h60zM95 -41h118v155z" />
    <glyph glyph-name="five.subs" horiz-adv-x="360" 
d="M197 49q60 0 96 -34t36 -88q0 -61 -45.5 -98t-121.5 -37q-60 0 -126 27l11 60q39 -27 109 -27q47 0 72 19.5t25 53.5q0 31 -21 51t-60 20q-45 0 -96 -20l-34 24l21 211h236v-61h-177l-12 -114q48 13 87 13z" />
    <glyph glyph-name="six.subs" horiz-adv-x="359" 
d="M197 53q59 0 96.5 -37t37.5 -93q0 -58 -40.5 -94.5t-103.5 -36.5q-73 0 -111.5 48t-38.5 126q0 98 61 165.5t176 84.5l10 -57q-137 -23 -164 -121q34 15 77 15zM186 -148q31 0 52.5 21.5t21.5 53.5t-21.5 52t-57.5 20q-30 0 -71 -16q-4 -13 -4 -30q0 -42 21.5 -71.5
t58.5 -29.5z" />
    <glyph glyph-name="seven.subs" horiz-adv-x="334" 
d="M306 211l9 -36l-191 -377h-82l186 352h-201v61h279z" />
    <glyph glyph-name="eight.subs" horiz-adv-x="380" 
d="M272 6q33 -13 52 -41t19 -61q0 -49 -41.5 -80.5t-110.5 -31.5q-71 0 -112 31.5t-41 80.5q0 62 68 102q-26 12 -42 40.5t-16 60.5q0 48 40 78.5t104 30.5q66 0 104 -30.5t38 -79.5q0 -60 -62 -100zM192 156q-33 0 -52.5 -15.5t-19.5 -40.5q0 -40 41 -54l54 -19
q46 25 46 69q0 27 -18.5 43.5t-50.5 16.5zM191 -148q37 0 58.5 16.5t21.5 43.5q0 39 -45 51l-58 21q-58 -24 -58 -68q0 -29 21 -46.5t60 -17.5z" />
    <glyph glyph-name="nine.subs" horiz-adv-x="359" 
d="M172 216q73 0 111.5 -48t38.5 -126q0 -98 -61 -166t-176 -84l-10 57q138 23 164 121q-33 -15 -77 -15q-59 0 -96.5 37t-37.5 93q0 58 40.5 94.5t103.5 36.5zM99 81q0 -32 21.5 -52t57.5 -20q30 0 71 16q4 13 4 29q0 43 -21.5 72.5t-58.5 29.5q-32 0 -53 -21.5t-21 -53.5z
" />
    <glyph glyph-name="zero.dnom" horiz-adv-x="381" 
d="M189 -6q-71 0 -110.5 55.5t-39.5 156.5q0 100 39.5 156.5t110.5 56.5q72 0 112.5 -56.5t40.5 -156.5q0 -101 -40.5 -156.5t-112.5 -55.5zM189 54q78 0 78 152t-78 152q-75 0 -75 -152t75 -152z" />
    <glyph glyph-name="one.dnom" horiz-adv-x="259" 
d="M167 413h34v-413h-73v323l-98 -39l-10 60z" />
    <glyph glyph-name="two.dnom" horiz-adv-x="348" 
d="M131 60h182v-60h-273l-10 42l159 170q40 43 40 82q0 29 -21.5 46.5t-56.5 17.5q-55 0 -105 -23l-12 56q56 27 130 27q65 0 103 -32t38 -86q0 -59 -80 -141z" />
    <glyph glyph-name="three.dnom" horiz-adv-x="345" 
d="M217 216q38 -3 64.5 -31.5t26.5 -69.5q0 -53 -44 -87t-115 -34q-70 0 -122 23l10 57q40 -20 103 -20q39 0 66 19.5t27 49.5q0 29 -24.5 45.5t-63.5 16.5h-30v50h30q33 0 52.5 17t19.5 44q0 28 -19.5 45t-51.5 17q-39 0 -92 -14l-10 55q48 19 117 19q59 0 95.5 -29
t36.5 -78q0 -36 -21.5 -62t-54.5 -33z" />
    <glyph glyph-name="four.dnom" horiz-adv-x="374" 
d="M347 161v-62h-60v-99h-74v99h-181l-14 45l207 269h62v-252h60zM95 161h118v155z" />
    <glyph glyph-name="five.dnom" horiz-adv-x="360" 
d="M197 251q60 0 96 -34t36 -88q0 -61 -45.5 -98t-121.5 -37q-60 0 -126 27l11 60q39 -27 109 -27q47 0 72 19.5t25 53.5q0 31 -21 51.5t-60 20.5q-42 0 -96 -21l-34 24l21 211h236v-61h-177l-12 -114q42 13 87 13z" />
    <glyph glyph-name="six.dnom" horiz-adv-x="359" 
d="M197 255q59 0 96.5 -37t37.5 -93q0 -58 -40.5 -94.5t-103.5 -36.5q-73 0 -111.5 48t-38.5 126q0 98 61 165.5t176 84.5l10 -57q-136 -23 -164 -121q33 15 77 15zM186 54q31 0 52.5 22t21.5 54q0 31 -21.5 51t-57.5 20q-30 0 -71 -16q-4 -13 -4 -29q0 -43 21.5 -72.5
t58.5 -29.5z" />
    <glyph glyph-name="seven.dnom" horiz-adv-x="334" 
d="M306 413l9 -36l-191 -377h-82l186 352h-201v61h279z" />
    <glyph glyph-name="eight.dnom" horiz-adv-x="380" 
d="M272 208q33 -13 52 -41t19 -61q0 -49 -41.5 -80.5t-110.5 -31.5q-71 0 -112 31.5t-41 80.5q0 62 68 102q-26 12 -42 40.5t-16 60.5q0 48 40 78.5t104 30.5q66 0 104 -30.5t38 -79.5q0 -60 -62 -100zM192 358q-33 0 -52.5 -15.5t-19.5 -40.5q0 -40 41 -54l54 -19
q46 25 46 69q0 27 -18.5 43.5t-50.5 16.5zM191 54q37 0 58.5 16.5t21.5 43.5q0 39 -45 51l-58 21q-58 -24 -58 -68q0 -29 21 -46.5t60 -17.5z" />
    <glyph glyph-name="nine.dnom" horiz-adv-x="359" 
d="M172 418q73 0 111.5 -48t38.5 -126q0 -98 -61 -165.5t-176 -84.5l-10 57q136 23 164 121q-35 -15 -77 -15q-59 0 -96.5 37t-37.5 93q0 58 40.5 94.5t103.5 36.5zM99 283q0 -32 21.5 -51.5t57.5 -19.5q34 0 71 16q4 12 4 28q0 43 -21.5 72.5t-58.5 29.5q-32 0 -53 -21.5
t-21 -53.5z" />
    <glyph glyph-name="zero.numr" horiz-adv-x="381" 
d="M189 268q-71 0 -110.5 55.5t-39.5 156.5q0 100 39.5 156.5t110.5 56.5q72 0 112.5 -56.5t40.5 -156.5q0 -101 -40.5 -156.5t-112.5 -55.5zM189 328q78 0 78 152t-78 152q-75 0 -75 -152t75 -152z" />
    <glyph glyph-name="one.numr" horiz-adv-x="259" 
d="M167 687h34v-413h-73v323l-98 -39l-10 60z" />
    <glyph glyph-name="two.numr" horiz-adv-x="348" 
d="M130 334h183v-60h-273l-10 43l159 170q40 41 40 81q0 30 -21 47t-57 17q-55 0 -105 -23l-12 56q56 27 130 27q65 0 103 -32t38 -86q0 -59 -80 -141z" />
    <glyph glyph-name="three.numr" horiz-adv-x="345" 
d="M217 490q38 -3 64.5 -31.5t26.5 -69.5q0 -53 -44 -87t-115 -34q-70 0 -122 23l10 57q40 -20 103 -20q39 0 66 19.5t27 49.5q0 29 -24.5 45.5t-63.5 16.5h-30v50h30q33 0 52.5 17t19.5 44q0 28 -19.5 45t-51.5 17q-39 0 -92 -14l-10 55q48 19 117 19q59 0 95.5 -29
t36.5 -78q0 -36 -21.5 -62t-54.5 -33z" />
    <glyph glyph-name="four.numr" horiz-adv-x="374" 
d="M347 435v-62h-60v-99h-74v99h-181l-14 45l207 269h62v-252h60zM95 435h118v155z" />
    <glyph glyph-name="five.numr" horiz-adv-x="360" 
d="M197 526q60 0 96 -34.5t36 -88.5q0 -61 -45.5 -98t-121.5 -37q-60 0 -126 27l11 60q39 -27 109 -27q47 0 72 19.5t25 53.5q0 31 -21 51.5t-60 20.5q-42 0 -96 -21l-34 24l21 211h236v-61h-177l-12 -113q48 13 87 13z" />
    <glyph glyph-name="six.numr" horiz-adv-x="359" 
d="M196 529q59 0 96.5 -37t37.5 -93q0 -58 -40.5 -94.5t-103.5 -36.5q-72 0 -111 48.5t-39 125.5q0 98 61 166t176 84l10 -57q-136 -23 -164 -121q35 15 77 15zM185 328q31 0 52.5 22t21.5 54t-21.5 51.5t-57.5 19.5q-30 0 -71 -16q-4 -13 -4 -29q0 -43 21.5 -72.5
t58.5 -29.5z" />
    <glyph glyph-name="seven.numr" horiz-adv-x="334" 
d="M306 687l9 -36l-191 -377h-82l186 352h-201v61h279z" />
    <glyph glyph-name="eight.numr" horiz-adv-x="380" 
d="M272 482q33 -13 52 -41t19 -61q0 -49 -41.5 -80.5t-110.5 -31.5q-71 0 -112 31.5t-41 80.5q0 62 68 102q-26 12 -42 40.5t-16 60.5q0 48 40 78.5t104 30.5q66 0 104 -30.5t38 -79.5q0 -60 -62 -100zM192 632q-33 0 -52.5 -15.5t-19.5 -39.5q0 -41 41 -55l54 -19
q46 25 46 69q0 27 -18.5 43.5t-50.5 16.5zM191 328q37 0 58.5 16.5t21.5 43.5q0 39 -45 51l-58 21q-58 -24 -58 -68q0 -29 21 -46.5t60 -17.5z" />
    <glyph glyph-name="nine.numr" horiz-adv-x="359" 
d="M173 692q72 0 111 -48.5t39 -125.5q0 -98 -61 -165.5t-176 -84.5l-10 57q135 24 164 121q-35 -15 -77 -15q-59 0 -96.5 37t-37.5 93q0 58 40.5 94.5t103.5 36.5zM100 557q0 -32 21.5 -51.5t57.5 -19.5q34 0 71 16q4 12 4 28q0 43 -21.5 72.5t-58.5 29.5q-32 0 -53 -21.5
t-21 -53.5z" />
    <glyph glyph-name="uni2070" horiz-adv-x="381" 
d="M189 464q-71 0 -110.5 55.5t-39.5 156.5q0 100 40 156.5t110 56.5q72 0 112.5 -56.5t40.5 -156.5q0 -101 -40.5 -156.5t-112.5 -55.5zM189 524q78 0 78 152q0 151 -78 151q-75 0 -75 -151q0 -152 75 -152z" />
    <glyph glyph-name="uni2074" horiz-adv-x="374" 
d="M347 631v-62h-60v-99h-74v99h-181l-14 44l207 269h62v-251h60zM96 631h117v154z" />
    <glyph glyph-name="uni2075" horiz-adv-x="360" 
d="M197 721q60 0 96 -34t36 -88q0 -61 -45.5 -98t-121.5 -37q-63 0 -126 26l11 60q40 -26 109 -26q47 0 72 19.5t25 53.5q0 31 -21 51t-60 20q-45 0 -96 -20l-34 24l21 211h236v-62h-177l-12 -113q48 13 87 13z" />
    <glyph glyph-name="uni2076" horiz-adv-x="359" 
d="M197 725q59 0 96.5 -37t37.5 -93q0 -59 -40 -95t-104 -36q-73 0 -111.5 48t-38.5 126q0 98 61 165.5t176 84.5l10 -58q-136 -22 -164 -121q35 16 77 16zM186 524q32 0 53 21.5t21 53.5t-21.5 51.5t-57.5 19.5q-34 0 -71 -16q-4 -12 -4 -29q0 -42 21.5 -71.5t58.5 -29.5z
" />
    <glyph glyph-name="uni2077" horiz-adv-x="334" 
d="M306 883l9 -36l-191 -377h-82l185 351h-200v62h279z" />
    <glyph glyph-name="uni2078" horiz-adv-x="380" 
d="M272 678q33 -13 52 -41t19 -62q0 -49 -41.5 -80t-110.5 -31q-71 0 -112 31.5t-41 80.5q0 61 68 101q-26 13 -42 41.5t-16 59.5q0 48 40 79t104 31q66 0 104 -30.5t38 -80.5q0 -61 -62 -99zM192 828q-32 0 -52 -16t-20 -40q0 -41 41 -55l54 -19q46 27 46 70
q0 27 -18.5 43.5t-50.5 16.5zM191 523q38 0 59 16.5t21 44.5q0 38 -45 51l-59 20q-57 -22 -57 -68q0 -28 21 -46t60 -18z" />
    <glyph glyph-name="uni2079" horiz-adv-x="359" 
d="M172 888q73 0 111.5 -48.5t38.5 -126.5q0 -98 -61 -165.5t-176 -83.5l-10 57q138 23 164 121q-33 -15 -77 -15q-59 0 -96.5 37t-37.5 93q0 58 40.5 94.5t103.5 36.5zM99 752q0 -31 21.5 -51t57.5 -20q30 0 71 16q4 12 4 29q0 42 -21.5 71.5t-58.5 29.5q-32 0 -53 -21.5
t-21 -53.5z" />
    <glyph glyph-name="fraction" horiz-adv-x="132" 
d="M-114 -11l308 708l50 -23l-308 -708z" />
    <glyph glyph-name="zero.subs.zero" horiz-adv-x="381" 
d="M189 217q72 0 112.5 -56.5t40.5 -156.5q0 -101 -40.5 -156.5t-112.5 -55.5q-71 0 -110.5 55.5t-39.5 156.5q0 100 39.5 156.5t110.5 56.5zM189 156q-75 0 -75 -152q0 -55 10 -88l107 223q-17 17 -42 17zM189 -148q78 0 78 152q0 48 -9 82l-105 -221q14 -13 36 -13z" />
    <glyph glyph-name="zero.dnom.zero" horiz-adv-x="381" 
d="M189 419q72 0 112.5 -56.5t40.5 -156.5q0 -101 -40.5 -156.5t-112.5 -55.5q-71 0 -110.5 55.5t-39.5 156.5q0 100 39.5 156.5t110.5 56.5zM189 358q-75 0 -75 -152q0 -55 10 -88l107 223q-17 17 -42 17zM189 54q78 0 78 152q0 47 -9 82l-105 -221q14 -13 36 -13z" />
    <glyph glyph-name="zero.numr.zero" horiz-adv-x="381" 
d="M189 693q72 0 112.5 -56.5t40.5 -156.5q0 -101 -40.5 -156.5t-112.5 -55.5q-71 0 -110.5 55.5t-39.5 156.5q0 100 39.5 156.5t110.5 56.5zM189 632q-75 0 -75 -152q0 -55 10 -88l107 223q-17 17 -42 17zM189 328q78 0 78 152q0 48 -9 82l-105 -221q14 -13 36 -13z" />
    <glyph glyph-name="uni2070.zero" horiz-adv-x="381" 
d="M189 889q72 0 112.5 -56.5t40.5 -156.5q0 -101 -40.5 -156.5t-112.5 -55.5q-71 0 -110.5 55.5t-39.5 156.5q0 100 40 156.5t110 56.5zM189 827q-75 0 -75 -151q0 -56 10 -89l107 223q-17 17 -42 17zM189 524q78 0 78 152q0 50 -9 81l-105 -220q14 -13 36 -13z" />
    <glyph glyph-name="periodcentered.case" horiz-adv-x="267" 
d="M133 288q-28 0 -47 19.5t-19 47.5q0 26 19.5 45.5t46.5 19.5t47 -19.5t20 -45.5q0 -28 -19.5 -47.5t-47.5 -19.5z" />
    <glyph glyph-name="bullet.case" horiz-adv-x="410" 
d="M205 224q-55 0 -93 38t-38 93q0 54 38 92t93 38t93 -38t38 -92q0 -55 -38 -93t-93 -38z" />
    <glyph glyph-name="colon.case" horiz-adv-x="275" 
d="M137 479q-27 0 -46.5 19.5t-19.5 47.5q0 26 19.5 45.5t46.5 19.5q28 0 48 -19.5t20 -45.5q0 -28 -19.5 -47.5t-48.5 -19.5zM137 105q-27 0 -46.5 19t-19.5 47q0 26 19.5 45.5t46.5 19.5q28 0 48 -19.5t20 -45.5q0 -28 -19.5 -47t-48.5 -19z" />
    <glyph glyph-name="exclamdown.case" horiz-adv-x="273" 
d="M202 653q0 -26 -19.5 -45.5t-47.5 -19.5q-27 0 -46.5 19.5t-19.5 45.5q0 28 19.5 47.5t46.5 19.5q29 0 48 -19t19 -48zM105 516h63l19 -488v-28h-101v28z" />
    <glyph glyph-name="questiondown.case" horiz-adv-x="435" 
d="M283 720q28 0 47.5 -19.5t19.5 -47.5q0 -26 -20 -45.5t-47 -19.5t-47 19.5t-20 45.5q0 28 19.5 47.5t47.5 19.5zM320 516l6 -33q10 -63 -8 -101t-57 -67l-76 -57q-58 -44 -58 -89q0 -46 31.5 -72.5t84.5 -26.5q72 0 141 43l15 -77q-81 -46 -165 -46q-91 0 -147 48.5
t-56 128.5q0 40 23 81.5t61 69.5l82 57q56 42 49 92l-5 49h79z" />
    <glyph glyph-name="uni207D" horiz-adv-x="194" 
d="M121 344q-36 52 -59.5 126.5t-23.5 152.5q0 79 23 153t60 126l51 -9q-73 -115 -74 -270q-1 -152 74 -270z" />
    <glyph glyph-name="uni207E" horiz-adv-x="194" 
d="M73 344l-51 9q74 116 74 270q0 153 -74 270l51 9q37 -52 60 -126.5t23 -152.5t-23.5 -152.5t-59.5 -126.5z" />
    <glyph glyph-name="braceleft.case" horiz-adv-x="330" 
d="M258 744q-71 0 -71 -109q0 -35 7 -77q10 -80 10 -98q0 -85 -58 -105q58 -20 58 -106q0 -19 -10 -96q-7 -44 -7 -79q0 -108 71 -108h39v-69h-43q-148 0 -148 173q0 36 8.5 94.5t8.5 80.5q0 38 -14 56.5t-46 22.5l-43 5v53l43 3q60 4 60 81q0 22 -8.5 80t-8.5 93
q0 174 148 174h43v-69h-39z" />
    <glyph glyph-name="braceright.case" horiz-adv-x="330" 
d="M267 385l43 -3v-53l-43 -5q-32 -4 -46 -22.5t-14 -56.5q0 -22 8.5 -80.5t8.5 -94.5q0 -173 -148 -173h-43v69h39q71 0 71 108q0 35 -7 79q-10 78 -10 96q0 86 58 106q-58 20 -58 105q0 18 10 98q7 42 7 77q0 109 -71 109h-39v69h43q148 0 148 -174q0 -35 -8.5 -93
t-8.5 -80q0 -77 60 -81z" />
    <glyph glyph-name="bracketleft.case" horiz-adv-x="344" 
d="M175 748v-777h144l-10 -69h-216v915h216l10 -69h-144z" />
    <glyph glyph-name="bracketright.case" horiz-adv-x="344" 
d="M36 817h216v-915h-216l-10 69h143v777h-143z" />
    <glyph glyph-name="parenleft.case" horiz-adv-x="283" 
d="M194 -111q-69 101 -106.5 222t-37.5 245q0 123 37.5 244t106.5 221l72 -18q-65 -90 -100.5 -206.5t-35.5 -241.5q0 -126 36 -242.5t100 -205.5z" />
    <glyph glyph-name="parenright.case" horiz-adv-x="283" 
d="M89 -112l-72 18q64 89 100 205.5t36 242.5q0 125 -35.5 241.5t-100.5 206.5l72 18q69 -100 106.5 -221t37.5 -244q0 -124 -37.5 -245t-106.5 -222z" />
    <glyph glyph-name="emdash.case" horiz-adv-x="847" 
d="M69 390h709v-70h-709v70z" />
    <glyph glyph-name="endash.case" horiz-adv-x="647" 
d="M69 390h508v-70h-508v70z" />
    <glyph glyph-name="hyphen.case" horiz-adv-x="418" 
d="M69 390h279v-70h-279v70z" />
    <glyph glyph-name="guillemotleft.case" horiz-adv-x="518" 
d="M269 526l-139 -170l140 -172l-77 -22l-143 169v49l142 168zM316 356l139 -172l-76 -22l-144 169v49l142 168l77 -22z" />
    <glyph glyph-name="guillemotright.case" horiz-adv-x="518" 
d="M282 380v-49l-143 -169l-77 22l140 172l-139 170l77 22zM326 548l142 -168v-49l-144 -169l-76 22l140 172l-139 170z" />
    <glyph glyph-name="guilsinglleft.case" horiz-adv-x="332" 
d="M130 356l140 -172l-77 -22l-143 169v49l142 168l77 -22z" />
    <glyph glyph-name="guilsinglright.case" horiz-adv-x="332" 
d="M140 548l142 -168v-49l-143 -169l-77 22l140 172l-139 170z" />
    <glyph glyph-name="colonsuperior" horiz-adv-x="183" 
d="M92 684q-19 0 -31.5 12t-12.5 30t12.5 29.5t31.5 11.5q18 0 30.5 -11.5t12.5 -29.5t-12.5 -30t-30.5 -12zM92 464q-19 0 -31.5 11.5t-12.5 30.5q0 17 12.5 29t31.5 12q18 0 30.5 -12t12.5 -29q0 -18 -12.5 -30t-30.5 -12z" />
    <glyph glyph-name="commasuperior" horiz-adv-x="178" 
d="M90 554q45 0 45 -57q0 -31 -26.5 -68.5t-72.5 -67.5l-20 25q53 42 65 85q-34 7 -34 41q0 18 12.5 30t30.5 12z" />
    <glyph glyph-name="hyphensuperior" horiz-adv-x="291" 
d="M49 643h193v-52h-193v52z" />
    <glyph glyph-name="periodsuperior" horiz-adv-x="160" 
d="M81 464q-19 0 -31.5 11.5t-12.5 30.5q0 17 12.5 29t31.5 12q18 0 30.5 -12t12.5 -29q0 -18 -12.5 -30t-30.5 -12z" />
    <glyph glyph-name="semicolonsuperior" horiz-adv-x="191" 
d="M98 684q-19 0 -31.5 12t-12.5 30t12.5 29.5t31.5 11.5q18 0 30.5 -11.5t12.5 -29.5t-12.5 -30t-30.5 -12zM95 554q45 0 45 -56q0 -31 -26 -68.5t-73 -68.5l-20 25q51 40 65 85q-34 9 -34 41q0 18 12.5 30t30.5 12z" />
    <glyph glyph-name="colon.dnom" horiz-adv-x="183" 
d="M92 215q-19 0 -31.5 11.5t-12.5 30.5q0 17 12.5 29t31.5 12q18 0 30.5 -12t12.5 -29q0 -18 -12.5 -30t-30.5 -12zM92 -6q-19 0 -31.5 11.5t-12.5 30.5q0 18 12.5 29.5t31.5 11.5q18 0 30.5 -11.5t12.5 -29.5t-12.5 -30t-30.5 -12z" />
    <glyph glyph-name="comma.dnom" horiz-adv-x="178" 
d="M90 84q45 0 45 -56q0 -31 -26 -68.5t-73 -68.5l-20 25q51 40 65 85q-34 9 -34 41q0 18 12.5 30t30.5 12z" />
    <glyph glyph-name="hyphen.dnom" horiz-adv-x="291" 
d="M49 174h193v-52h-193v52z" />
    <glyph glyph-name="parenleft.dnom" horiz-adv-x="194" 
d="M121 -126q-36 52 -59.5 127t-23.5 153q0 79 23 152.5t60 125.5l51 -9q-73 -115 -74 -269q-1 -151 74 -271z" />
    <glyph glyph-name="parenright.dnom" horiz-adv-x="194" 
d="M73 -126l-51 9q74 117 74 271q0 152 -74 269l51 9q37 -52 60 -126t23 -152t-23.5 -153t-59.5 -127z" />
    <glyph glyph-name="period.dnom" horiz-adv-x="160" 
d="M81 -6q-19 0 -31.5 11.5t-12.5 30.5q0 18 12.5 29.5t31.5 11.5q18 0 30.5 -11.5t12.5 -29.5t-12.5 -30t-30.5 -12z" />
    <glyph glyph-name="semicolon.dnom" horiz-adv-x="191" 
d="M97 215q-18 0 -31 12t-13 30q0 17 13 29t31 12t31 -12t13 -29q0 -18 -13 -30t-31 -12zM94 84q45 0 45 -56q0 -31 -26 -68.5t-73 -68.5l-20 25q51 40 65 85q-34 9 -34 41q0 18 12.5 30t30.5 12z" />
    <glyph glyph-name="colon.numr" horiz-adv-x="183" 
d="M92 489q-19 0 -31.5 11.5t-12.5 30.5q0 18 12.5 29.5t31.5 11.5q18 0 30.5 -11.5t12.5 -29.5t-12.5 -30t-30.5 -12zM92 268q-19 0 -31.5 11.5t-12.5 30.5q0 18 12.5 29.5t31.5 11.5q18 0 30.5 -11.5t12.5 -29.5t-12.5 -30t-30.5 -12z" />
    <glyph glyph-name="comma.numr" horiz-adv-x="178" 
d="M90 358q45 0 45 -56q0 -31 -26 -68.5t-73 -68.5l-20 26q53 40 65 85q-15 3 -24.5 14t-9.5 26q0 18 12.5 30t30.5 12z" />
    <glyph glyph-name="hyphen.numr" horiz-adv-x="291" 
d="M49 448h193v-52h-193v52z" />
    <glyph glyph-name="parenleft.numr" horiz-adv-x="194" 
d="M121 148q-36 52 -59.5 127t-23.5 153q0 79 23 152.5t60 125.5l51 -9q-73 -115 -74 -269q-1 -151 74 -271z" />
    <glyph glyph-name="parenright.numr" horiz-adv-x="194" 
d="M73 148l-51 9q74 117 74 271q0 152 -74 269l51 9q37 -52 60 -126t23 -152t-23.5 -153t-59.5 -127z" />
    <glyph glyph-name="period.numr" horiz-adv-x="160" 
d="M81 268q-19 0 -31.5 11.5t-12.5 30.5q0 18 12.5 29.5t31.5 11.5q18 0 30.5 -11.5t12.5 -29.5t-12.5 -30t-30.5 -12z" />
    <glyph glyph-name="semicolon.numr" horiz-adv-x="191" 
d="M99 489q-19 0 -31.5 11.5t-12.5 30.5q0 18 12.5 29.5t31.5 11.5q18 0 30.5 -11.5t12.5 -29.5t-12.5 -30t-30.5 -12zM96 358q45 0 45 -56q0 -31 -26 -68.5t-73 -68.5l-20 25q51 40 65 85q-34 9 -34 41q0 18 12.5 30t30.5 12z" />
    <glyph glyph-name="colon.subs" horiz-adv-x="183" 
d="M92 12q-19 0 -31.5 12t-12.5 31q0 17 12.5 29t31.5 12q18 0 30.5 -12t12.5 -29q0 -19 -12.5 -31t-30.5 -12zM92 -208q-19 0 -31.5 11.5t-12.5 30.5q0 18 12.5 29.5t31.5 11.5q18 0 30.5 -11.5t12.5 -29.5t-12.5 -30t-30.5 -12z" />
    <glyph glyph-name="comma.subs" horiz-adv-x="178" 
d="M90 -118q45 0 45 -56q0 -31 -26 -68.5t-73 -68.5l-20 25q51 40 65 85q-34 9 -34 41q0 18 12.5 30t30.5 12z" />
    <glyph glyph-name="hyphen.subs" horiz-adv-x="291" 
d="M49 -28h193v-53h-193v53z" />
    <glyph glyph-name="parenleft.subs" horiz-adv-x="194" 
d="M121 -328q-36 52 -59.5 127t-23.5 153q0 79 23 152.5t60 125.5l51 -9q-73 -115 -74 -270q-1 -150 74 -270z" />
    <glyph glyph-name="parenright.subs" horiz-adv-x="194" 
d="M73 -328l-51 9q74 117 74 270t-74 270l51 9q37 -52 60 -126t23 -152t-23.5 -153t-59.5 -127z" />
    <glyph glyph-name="period.subs" horiz-adv-x="160" 
d="M81 -208q-19 0 -31.5 11.5t-12.5 30.5q0 18 12.5 29.5t31.5 11.5q18 0 30.5 -11.5t12.5 -29.5t-12.5 -30t-30.5 -12z" />
    <glyph glyph-name="semicolon.subs" horiz-adv-x="191" 
d="M98 12q-19 0 -31.5 12t-12.5 31q0 17 12.5 29t31.5 12q18 0 30.5 -12t12.5 -29q0 -19 -12.5 -31t-30.5 -12zM95 -118q45 0 45 -56q0 -31 -26 -68.5t-73 -68.5l-20 25q51 40 65 85q-34 9 -34 41q0 18 12.5 30t30.5 12z" />
    <glyph glyph-name="cent.case" horiz-adv-x="484" 
d="M426 205l13 -71q-46 -30 -129 -33v-99h-60v101q-94 12 -149 79t-55 170q0 106 57.5 175t146.5 78v105h60v-106q87 -10 132 -53l-43 -61q-28 27 -89 37v-350q77 4 116 28zM142 355q0 -67 28 -111.5t80 -59.5v342q-50 -11 -79 -56.5t-29 -114.5z" />
    <glyph glyph-name="uni207C" horiz-adv-x="401" 
d="M49 710h304v-50h-304v50zM49 587h304v-49h-304v49z" />
    <glyph glyph-name="uni207A" horiz-adv-x="362" 
d="M333 640v-49h-127v-123h-50v123h-127v49h127v125h50v-125h127z" />
    <glyph glyph-name="arrowup" horiz-adv-x="529" 
d="M484 429v-13h-185v-535h-66v534h-188v13l221 219z" />
    <glyph glyph-name="uni2197" horiz-adv-x="686" 
d="M303 526l311 -1v-308l-9 -10l-131 131l-378 -378l-46 47l376 377l-132 132z" />
    <glyph glyph-name="arrowright" horiz-adv-x="877" 
d="M606 469l218 -218l-219 -220h-13v186h-533v67h534v185h13z" />
    <glyph glyph-name="uni2198" horiz-adv-x="688" 
d="M607 293l10 -10l-1 -310h-308l-9 9l129 131l-377 378l47 46l377 -377z" />
    <glyph glyph-name="arrowdown" horiz-adv-x="529" 
d="M297 99h187v-13l-220 -220l-218 218v14h184v534h67v-533z" />
    <glyph glyph-name="uni2199" horiz-adv-x="686" 
d="M635 488l-377 -378l133 -132l-9 -10l-311 1v309l10 9l130 -130l378 378z" />
    <glyph glyph-name="arrowleft" horiz-adv-x="877" 
d="M819 285v-67h-533v-187h-13l-220 220l218 218h14v-184h534z" />
    <glyph glyph-name="uni2196" horiz-adv-x="690" 
d="M639 3l-47 -46l-378 377l-132 -133l-10 9l1 311h309l9 -9l-130 -131z" />
    <glyph glyph-name="triagup" horiz-adv-x="674" 
d="M28 112l309 535l310 -536z" />
    <glyph glyph-name="uni25B6" horiz-adv-x="664" 
d="M83 673l535 -309l-536 -311z" />
    <glyph glyph-name="triagdn" horiz-adv-x="668" 
d="M25 646l619 1l-310 -536z" />
    <glyph glyph-name="uni25C0" horiz-adv-x="664" 
d="M581 673l1 -620l-536 311z" />
    <glyph glyph-name="uni2605" horiz-adv-x="806" 
d="M548 250l90 -275l-235 170l-234 -170l89 275l-234 171h290l89 276l90 -276h290z" />
    <glyph glyph-name="uni2611" horiz-adv-x="674" 
d="M702 703l-88 -154v-549h-554v554h452l107 193zM547 67v364l-189 -331l-175 245l68 62l101 -142l123 222h-348v-420h420z" />
    <glyph glyph-name="uni261C" horiz-adv-x="1049" 
d="M194 393l78 -4q-18 -20 -18 -39q0 -10 6 -24q-16 -8 -26.5 -24.5t-10.5 -34.5q0 -17 11 -28q-25 -23 -25 -49q0 -42 49.5 -66t96.5 -24q52 0 71 29l212 49q23 7 41.5 -3.5t36.5 -25t37 -14.5q62 191 -2 386l-28 -11v-39l-224 82q-16 7 -40.5 -2.5t-40.5 -31.5l-261 8
q-124 7 -124 -65q0 -12 4.5 -21t15 -15.5t20 -10.5t27 -7.5t29 -5.5t33.5 -4.5t32 -4.5zM782 124h157q62 183 0 407h-157q36 -63 35 -202.5t-35 -204.5zM433 173q40 5 40 56q29 6 40.5 19t19.5 43q65 -1 130 25l-8 17l-9 -2q-40 -9 -67 -9q-53 0 -90 43l45 56l-11 15
l-55 -42q-44 -38 -75 -38q-16 0 -31 8t-15 22q0 8 8.5 16.5t32.5 32t48 53.5q17 24 33 34t39 1l218 -87q16 -25 17.5 -61.5t-10.5 -70.5t-38.5 -61.5t-61.5 -36.5l-200 -50v17zM176 424q-107 10 -107 36q0 7 1.5 12.5t5.5 9.5t7.5 7t10 4.5t11.5 2.5t13 1h13h14.5h13.5
l245 -7q-4 -10 -10 -19t-17 -18t-17 -13.5t-21 -15t-19 -12.5q-24 0 -78 5.5t-66 6.5zM391 332q18 0 39 7t23 7q16 0 33 -17.5t17 -32.5q0 -16 -12 -26t-29 -10q-12 0 -51.5 14.5t-58.5 23.5q-64 26 -64 55q0 16 16 25q37 -46 87 -46zM284 298q5 0 15.5 -4.5t11.5 -4.5
q51 -29 107 -46q1 0 8 -2.5t11 -5.5t4 -7q0 -32 -31 -32q-43 0 -107 25q-17 6 -30.5 19.5t-13.5 30.5q0 10 7.5 18.5t17.5 8.5zM260 214q6 0 28 -11l27 -12l27 -10q6 -1 21.5 -5t23.5 -6q18 -2 18 -16q0 -31 -51 -31q-29 0 -70 18t-41 44q0 6 6 17.5t11 11.5z" />
    <glyph glyph-name="uni261E" horiz-adv-x="1049" 
d="M856 393q10 2 32 4.5t33.5 4.5t29 5.5t27 7.5t20 10.5t15 15.5t4.5 21q0 72 -124 65l-261 -8q-16 22 -40.5 31.5t-40.5 2.5l-224 -82v39l-28 11q-64 -195 -2 -386q19 0 37 14.5t36.5 25t41.5 3.5l212 -49q19 -29 71 -29q47 0 96.5 24t49.5 66q0 26 -25 49q11 11 11 28
q0 18 -10.5 34.5t-26.5 24.5q6 14 6 24q0 19 -18 39zM268 124q-34 65 -35 204.5t35 202.5h-157q-62 -224 0 -407h157zM617 173v-17l-200 50q-35 9 -61.5 36.5t-38.5 61.5t-10.5 70.5t17.5 61.5l218 87q23 9 39 -1t33 -34q24 -30 48 -53.5t32.5 -32t8.5 -16.5q0 -14 -15 -22
t-31 -8q-31 0 -75 38l-55 42l-11 -15l45 -56q-37 -43 -90 -43q-27 0 -67 9l-9 2l-8 -17q65 -26 130 -25q8 -30 19.5 -43t40.5 -19q0 -51 40 -56zM874 424q-12 -1 -66 -6.5t-78 -5.5q-4 2 -19 12.5t-21 15t-17 13.5t-17 18t-10 19l245 7h13.5h14.5h13t13 -1t11.5 -2.5
t10 -4.5t7.5 -7t5.5 -9.5t1.5 -12.5q0 -26 -107 -36zM659 332q50 0 87 46q16 -9 16 -25q0 -29 -64 -55q-19 -9 -58.5 -23.5t-51.5 -14.5q-17 0 -29 10t-12 26q0 15 17 32.5t33 17.5q2 0 23 -7t39 -7zM766 298q10 0 17.5 -8.5t7.5 -18.5q0 -17 -13.5 -30.5t-30.5 -19.5
q-64 -25 -107 -25q-31 0 -31 32q0 4 4 7t11 5.5t8 2.5q56 17 107 46q1 0 11.5 4.5t15.5 4.5zM790 214q5 0 11 -11.5t6 -17.5q0 -26 -41 -44t-70 -18q-51 0 -51 31q0 14 18 16q8 2 23.5 6t21.5 5l27 10l27 12q22 11 28 11z" />
    <glyph glyph-name="uni267C" horiz-adv-x="803" 
d="M756 354q0 146 -103.5 250t-250.5 104q-146 0 -250 -104t-104 -250q0 -147 104 -250.5t250 -103.5q147 0 250.5 103.5t103.5 250.5zM409 445l39 24l-41 69q-5 12 -15 2l-71 -125l-114 65l57 98q13 30 56 34l162 -1q32 -2 49 -32l28 -46l42 25l-63 -112zM476 295v-46l81 1
q6 -1 8.5 2.5t0.5 8.5l-72 126l113 64l57 -97q18 -27 0 -66l-81 -140q-19 -26 -52 -27l-54 -1v-49l-65 112zM312 312l-40 23l-40 -71q-7 -12 6 -14h144l1 -130h-113q-32 -3 -58 32l-81 140q-13 29 3 59l26 47l-42 24l128 1z" />
    <glyph glyph-name="uni2713" horiz-adv-x="674" 
d="M518 747l82 -44l-344 -603l-175 245l68 62l101 -142z" />
    <glyph glyph-name="uniF8FF" horiz-adv-x="921" 
d="M50 0v700h821v-700h-821zM491 367q12 0 16 7h1l2 -6h8v73h-11v-19q0 -5 1 -9h-1q-5 8 -15 8t-16 -7q-5 -8 -5 -20t5 -20q6 -7 15 -7zM643 434q0 -3 1 -5q1 -1 5 -1t5 1q1 2 1 5t-1 5q-1 1 -5 1t-5 -1q-1 -2 -1 -5zM171 368l20 57h1q0 -4 -1 -10v-47h11v69h-16l-20 -55
l-19 55h-16v-69h10v33q0 16 -1 25h1l20 -58h10zM351 376q-4 0 -5 2q-2 1 -2 6v28h15v8h-15v12h-7l-4 -11l-8 -4v-5h8v-29q0 -16 15 -16h6q1 0 2.5 0.5t2.5 1.5v8q-2 -1 -8 -1zM268 394q0 11 -7 20q-6 7 -18 7t-19 -7q-6 -7 -6 -20q0 -8 3 -14q3 -7 9 -10q4 -3 13 -3
q12 0 18 7q7 9 7 20zM318 383q0 2 -2 6q-1 2 -4 5q-7 3 -10 4l-4 2t-3.5 2t-2.5 1q-2 2 -2 4q0 5 9 5q5 0 14 -3l4 8q-8 4 -18 4t-15 -4q-5 -3 -5 -10q0 -6 3 -9q3 -4 12 -7l8 -4q3 0 3 -2q2 -2 2 -4q0 -6 -11 -6q-5 0 -17 4v-9q6 -3 17 -3t16 4q6 5 6 12zM412 368v35
q0 10 -5 14q-4 4 -15 4q-6 0 -9 -1q-6 -2 -10 -4l4 -8q3 3 7 3q3 1 8 1q6 0 7 -2q2 -2 2 -8v-2l-9 -1q-13 0 -18 -4q-6 -5 -6 -12q0 -8 4 -12t12 -4t10 1q3 2 8 7l3 -7h7zM457 421q-6 0 -9 -3q-6 -4 -7 -7h-1l-1 9h-9v-52h11v27q0 5 4 11q5 5 11 5q3 0 5 -1l1 11h-5z
M559 367h10l8 3v9l-9 -3q-1 0 -3.5 -0.5t-4.5 -0.5q-8 0 -11 5q-4 3 -4 11h35v6q0 12 -6 18t-17 6t-17 -7q-7 -7 -7 -21q0 -12 7 -19t19 -7zM629 383q0 4 -1 6t-4 5q-7 3 -10 4l-10 5q-2 2 -2 4q0 5 9 5q5 0 14 -3l4 8q-8 4 -18 4t-15 -4q-5 -3 -5 -10q0 -6 3 -9q3 -4 12 -7
q1 0 2.5 -1l3 -2t2.5 -1q3 0 3 -2q1 -1 1 -4q0 -6 -10 -6q-5 0 -17 4v-9q6 -3 17 -3t16 4t5 12zM699 420h-1q-2 1 -3 1h-5q-10 0 -15 -5q-6 -4 -6 -13q0 -6 3 -9q3 -5 7 -6q-1 0 -5 -4q-2 -2 -2 -5l1 -4q1 -3 4 -3q-4 -1 -8 -5q-3 -3 -3 -8q0 -7 5 -11q8 -4 17 -4q13 0 21 5
q7 4 7 14q0 7 -4 11q-4 3 -14 3h-9q-2 0 -4 1h-2q-2 2 -2 3q0 3 4 5h5q10 0 15 4q6 4 6 13q0 1 -1 3v2l-2 4l9 2v6h-18zM775 402q0 19 -19 19q-4 0 -10 -2q-4 -1 -7 -6l-2 7h-9v-52h12v26q0 10 3 14t10 4q5 0 8 -3q2 -2 2 -9v-32h12v34zM655 420h-12v-52h12v52zM680 403
q0 5 3 8q1 3 7 3t7 -3q3 -3 3 -8q0 -10 -10 -10q-3 0 -7 2q-3 3 -3 8zM557 413q4 0 8 -4t4 -10h-24q0 7 4 10q4 4 8 4zM229 394q0 9 4 13q3 5 10 5q13 0 13 -18t-13 -18q-14 0 -14 18zM494 376q-6 0 -9 4t-3 14q0 8 3 13t9 5q7 0 10 -4q4 -4 4 -14v-2q0 -9 -4 -12
q-3 -4 -10 -4zM388 375q-4 0 -6 2q-2 1 -2 6q0 4 3 7q6 2 12 2l6 1v-5q0 -6 -3 -9q-4 -4 -10 -4zM676 359q0 5 2 7q4 2 8 2h8q7 0 9 -2q3 -2 3 -5q0 -4 -5 -6q-5 -3 -13 -3q-5 0 -9 2q-3 2 -3 5zM649 250q10 0 15 8h1l2 -7h8v74h-11v-19q0 -1 0.5 -4t0.5 -5q-6 7 -16 7
t-16 -7q-5 -8 -5 -20t5 -20q6 -7 16 -7zM155 311h21v9h-52v-9h20v-60h11v60zM401 280h26v9h-26v22h28v9h-39v-69h11v29zM200 251l-2 -5q-3 -9 -11 -9h-6v-8q3 -1 7 -1q15 0 21 16l22 60h-12q-2 -8 -4.5 -14.5t-4 -10.5t-2.5 -7t-1 -4q-1 -2 -1 -6h-1q0 6 -3 12l-11 30h-12z
M268 250q8 0 15 7q6 7 6 20q0 14 -6 20q-4 7 -15 7t-16 -8l-2 8h-9v-76h11v29q6 -7 16 -7zM327 250q6 0 9 1q5 0 8 3v9q-4 -3 -8 -3q-3 -1 -9 -1q-7 0 -11 4q-4 6 -4 12h35v6q0 11 -6 17t-16 6q-12 0 -18 -7t-6 -20t6 -20q7 -7 20 -7zM489 277q0 13 -7 20q-6 7 -18 7t-18 -7
q-7 -6 -7 -20q0 -8 3 -14q3 -5 9 -10q6 -3 13 -3q11 0 18 7t7 20zM549 251v53h-11v-27q0 -9 -3 -14q-4 -4 -10 -4q-5 0 -8 3t-3 9v33h-11v-35q0 -9 5 -14t14 -5q4 0 10 2q5 4 7 6l2 -7h8zM613 285q0 19 -18 19q-7 0 -10 -2q-3 -1 -7 -5l-2 7h-9v-53h11v26q0 8 4 14q3 4 10 4
q5 0 8 -3q2 -4 2 -9v-32h11v34zM720 304q-6 0 -9 -2t-7 -8l-2 10h-9v-53h11v27q0 7 5 12q3 4 10 4h5l1 10h-5zM750 251l-2 -5q-3 -9 -11 -9h-6v-8q3 -1 7 -1q15 0 21 16l22 60h-12q-2 -8 -4.5 -14.5t-4 -10.5t-2.5 -7t-1 -4q-1 -2 -1 -6h-1q0 6 -3 12l-11 30h-12zM325 296
q5 0 8 -3q3 -5 3 -10h-24q2 6 4 10q3 3 9 3zM265 295q6 0 9 -4q3 -5 3 -14t-3 -13q-3 -5 -9 -5q-7 0 -10 5q-3 3 -3 13v2q0 9 3 12q3 4 10 4zM451 277q0 9 3 14q3 4 10 4q13 0 13 -18t-13 -18t-13 18zM652 259q-7 0 -10 5q-3 4 -3 13q0 8 3 14q4 4 9 4q7 0 11 -4q3 -5 3 -14
v-1q0 -8 -3 -13q-4 -4 -10 -4z" />
    <glyph glyph-name="uni2117" horiz-adv-x="810" 
d="M406 710q148 0 252.5 -104.5t104.5 -252.5t-104.5 -253t-252.5 -105t-253 104.5t-105 253.5q0 148 105 252.5t253 104.5zM406 45q127 0 216.5 90t89.5 218q0 127 -89.5 217t-216.5 90q-128 0 -218 -90t-90 -217q0 -128 90 -218t218 -90zM442 550q58 0 92 -33t34 -86
t-33.5 -85.5t-91.5 -33.5h-84v-153h-71v391h154zM431 362q29 0 46.5 18.5t17.5 47.5t-17.5 48t-46.5 19h-72v-133h72z" />
    <glyph glyph-name="uni2113" horiz-adv-x="424" 
d="M370 95l33 -59q-57 -46 -139 -46q-41 0 -72.5 14t-48 33t-27.5 45.5t-14 43.5t-4 34q-18 -13 -60 -26l-21 40q48 32 81 60v266q0 99 43.5 159.5t115.5 60.5q59 0 95.5 -42.5t36.5 -111.5q0 -78 -56 -174.5t-148 -178.5v-14q1 -59 28.5 -95.5t71.5 -36.5q51 0 85 28z
M252 655q-30 0 -48.5 -38t-18.5 -101v-214q58 60 93 131t35 131q0 41 -17 66t-44 25z" />
    <glyph glyph-name="estimated" horiz-adv-x="638" 
d="M327 577q124 0 198.5 -84.5t74.5 -206.5h-429v-193q66 -63 152 -63q76 0 123 33t87 94l31 -19q-44 -68 -99 -104.5t-142 -36.5q-119 0 -195 84.5t-76 205.5q0 123 75 206.5t200 83.5zM327 544q-96 0 -156 -62v-163h309v163q-68 62 -153 62z" />
    <glyph glyph-name="uni2116" horiz-adv-x="1067" 
d="M857 385q-74 0 -117.5 43.5t-43.5 120.5t43.5 121t117.5 44q76 0 120 -44t44 -121t-44 -120.5t-120 -43.5zM529 159v551h94v-710h-105l-332 550v-550h-93v710h105zM857 650q-40 0 -63.5 -27.5t-23.5 -73.5t23.5 -73.5t63.5 -27.5q41 0 65 27.5t24 73.5t-24 73.5t-65 27.5
zM701 257v67h314v-66z" />
    <glyph glyph-name="uni2B24" horiz-adv-x="693" 
d="M644 353q0 -123 -87 -210t-210 -87t-210 87t-87 210t87 210t210 87t210 -87t87 -210z" />
    <glyph glyph-name="uni2120" horiz-adv-x="874" 
d="M248 529q91 -45 91 -112q0 -104 -142 -104q-85 0 -140 38l19 51q59 -34 114 -34q36 0 57 13.5t21 35.5q0 29 -52 55l-63 31q-80 39 -80 108q0 49 35.5 76.5t103.5 27.5q66 0 115 -24l-18 -50q-49 19 -90 19q-34 0 -54 -13.5t-20 -36.5q0 -32 41 -49zM803 319h-68l-9 279
l-100 -275h-62l-99 277l-9 -281h-68l15 391h81l111 -310l111 310h82z" />
    <glyph glyph-name="at.case" horiz-adv-x="920" 
d="M479 706q176 0 283 -106t107 -280q0 -119 -54 -191.5t-143 -72.5q-110 0 -130 92q-63 -44 -132 -44q-55 0 -91.5 34.5t-36.5 85.5q0 54 43.5 85.5t120.5 31.5q46 0 91 -10v9q0 48 -24 74t-69 26q-73 0 -123 -41l-11 66q24 17 66 29t83 12q77 0 120 -44.5t43 -121.5v-149
q2 -36 18 -57t42 -21q54 0 87.5 56.5t33.5 147.5q0 148 -89.5 238t-235.5 90q-164 0 -264.5 -102.5t-100.5 -269.5q0 -154 98 -250t249 -96q97 0 177 31l10 -61q-88 -31 -192 -31q-178 0 -293 113t-115 294q0 194 119 313.5t313 119.5zM370 224q0 -26 16.5 -41t45.5 -15
q54 0 105 38v64q-37 9 -83 9q-84 0 -84 -55z" />
    <glyph glyph-name="centsuperior" horiz-adv-x="310" 
d="M265 543l10 -56q-32 -17 -69 -21v-57h-46v56q-59 6 -94.5 47t-35.5 104q0 62 35.5 103.5t94.5 46.5v57h46v-58q50 -8 74 -34l-27 -45q-16 14 -47 19v-181q33 3 59 19zM106 616q0 -67 54 -86v173q-54 -17 -54 -87z" />
    <glyph glyph-name="dollarsuperior" horiz-adv-x="346" 
d="M318 589q0 -42 -31.5 -70.5t-87.5 -35.5v-56h-39v54q-75 2 -128 36l10 58q55 -34 120 -34q81 0 81 48q0 18 -12 30t-38 23l-66 28q-44 19 -64.5 42t-20.5 61q0 48 32 77t86 35v49h39v-48q53 -3 101 -23l-9 -58q-44 21 -98 21q-36 0 -56 -13t-20 -36q0 -31 41 -48l68 -29
q92 -39 92 -111z" />
    <glyph glyph-name="eurosuperior" horiz-adv-x="408" 
d="M360 542l19 -60q-46 -18 -102 -18q-79 0 -130 44.5t-63 122.5h-62l11 27h48v18q0 13 1 20h-55l12 27h45q13 78 63.5 122t129.5 44q54 0 100 -18l-22 -58q-28 11 -67 11q-49 0 -82.5 -26.5t-44.5 -74.5h154l-12 -27h-146q-1 -6 -1 -20q0 -12 1 -18h133l-11 -27h-118
q11 -49 44 -76t82 -27q43 0 73 14z" />
    <glyph glyph-name="sterlingsuperior" horiz-adv-x="365" 
d="M149 530h185v-60h-304v60h45q23 40 23 93v7h-55v42h51q-10 82 -10 100q0 54 37.5 86t101.5 32q50 0 98 -23l-10 -59q-37 21 -76 21q-36 0 -55.5 -18t-19.5 -48q0 -23 9 -91h94v-42h-91v-7q0 -53 -23 -93z" />
    <glyph glyph-name="multiplysuperior" horiz-adv-x="370" 
d="M334 734l-113 -114l113 -114l-35 -35l-114 114l-114 -114l-35 35l114 114l-114 114l35 35l114 -113l114 113z" />
    <glyph glyph-name="dividesuperior" horiz-adv-x="378" 
d="M189 692q-15 0 -25.5 10t-10.5 25t10.5 25t25.5 10t26 -10t11 -25t-11 -25t-26 -10zM37 596v42h304v-42h-304zM189 464q-15 0 -25.5 10t-10.5 26q0 14 11 24t25 10q15 0 26 -10t11 -24q0 -16 -11 -26t-26 -10z" />
    <glyph glyph-name="plusminussuperior" horiz-adv-x="392" 
d="M222 675h127v-48h-127v-80h-50v80h-128v48h128v81h50v-81zM44 468v43h305v-43h-305z" />
    <glyph glyph-name="yensuperior" horiz-adv-x="369" 
d="M352 874l-131 -218v-36h78v-34h-78v-23h78v-34h-78v-59h-73v59h-77v34h77v23h-77v34h77v34l-131 220v8h78l90 -171l89 171h78v-8z" />
    <glyph glyph-name="cent.dnom" horiz-adv-x="310" 
d="M265 74l10 -57q-32 -17 -69 -21v-56h-46v55q-59 6 -94.5 47t-35.5 104t35.5 104.5t94.5 46.5v56h46v-58q50 -8 74 -34l-27 -45q-18 15 -47 20v-182q32 3 59 20zM106 147q0 -67 54 -87v174q-25 -8 -39.5 -31.5t-14.5 -55.5z" />
    <glyph glyph-name="dollar.dnom" horiz-adv-x="346" 
d="M316 120q0 -42 -31.5 -71t-87.5 -36v-56h-39v54q-75 2 -128 36l10 58q59 -34 120 -34q81 0 81 48q0 19 -12 31t-38 23l-66 28q-44 19 -64.5 41.5t-20.5 60.5q0 48 32 77t86 35v50h39v-49q53 -3 101 -23l-8 -58q-42 21 -99 21q-36 0 -56 -13t-20 -35q0 -30 41 -49l69 -29
q91 -39 91 -110z" />
    <glyph glyph-name="Euro.dnom" horiz-adv-x="408" 
d="M360 73l19 -60q-44 -19 -102 -19q-79 0 -130 44.5t-63 122.5h-62l11 27h48v18q0 14 1 21h-55l12 27h46q12 77 62.5 121t129.5 44q57 0 100 -17l-22 -59q-27 12 -67 12q-48 0 -82 -26.5t-45 -74.5h154l-12 -27h-146q-1 -7 -1 -21q0 -12 1 -18h133l-11 -27h-118
q11 -49 44 -76t82 -27q45 0 73 15z" />
    <glyph glyph-name="plus.dnom" horiz-adv-x="362" 
d="M333 171v-49h-127v-124h-50v124h-127v49h127v124h50v-124h127z" />
    <glyph glyph-name="multiply.dnom" horiz-adv-x="370" 
d="M334 264l-113 -113l113 -114l-35 -36l-114 114l-114 -114l-35 36l114 114l-114 113l35 35l114 -113l114 113z" />
    <glyph glyph-name="divide.dnom" horiz-adv-x="378" 
d="M189 222q-15 0 -25.5 10t-10.5 25t10.5 25t25.5 10t26 -10t11 -25t-11 -25t-26 -10zM37 126v42h304v-42h-304zM189 -6q-15 0 -25.5 10.5t-10.5 25.5q0 14 11 24t25 10q15 0 26 -10t11 -24q0 -15 -11 -25.5t-26 -10.5z" />
    <glyph glyph-name="equal.dnom" horiz-adv-x="401" 
d="M49 240h304v-50h-304v50zM49 117h304v-49h-304v49z" />
    <glyph glyph-name="plusminus.dnom" horiz-adv-x="392" 
d="M222 206h127v-49h-127v-79h-50v79h-128v49h128v80h50v-80zM44 -2v44h305v-44h-305z" />
    <glyph glyph-name="sterling.dnom" horiz-adv-x="365" 
d="M149 60h185v-60h-304v60h44q24 41 24 93v7h-55v42h51q-10 82 -10 101q0 53 37.5 85t101.5 32q50 0 98 -23l-10 -58q-37 21 -76 21q-36 0 -55.5 -18.5t-19.5 -47.5q0 -24 9 -92h94v-42h-91v-6q0 -54 -23 -94z" />
    <glyph glyph-name="yen.dnom" horiz-adv-x="369" 
d="M352 405l-131 -219v-35h78v-35h-78v-23h78v-34h-78v-59h-73v59h-77v34h77v23h-77v35h77v34l-131 220v7h78l90 -171l89 171h78v-7z" />
    <glyph glyph-name="cent.numr" horiz-adv-x="310" 
d="M264 348l10 -57q-32 -17 -69 -21v-56h-46v55q-59 6 -94.5 47t-35.5 104t35.5 104.5t94.5 46.5v56h46v-58q49 -8 74 -33l-27 -46q-18 15 -47 20v-182q32 3 59 20zM105 421q0 -67 54 -87v174q-54 -19 -54 -87z" />
    <glyph glyph-name="dollar.numr" horiz-adv-x="346" 
d="M317 394q0 -42 -31.5 -71t-87.5 -36v-56h-39v54q-75 2 -128 36l10 58q59 -34 120 -34q81 0 81 48q0 19 -12 31t-38 23l-66 28q-44 19 -64.5 41.5t-20.5 60.5q0 49 32 78t86 34v50h39v-49q52 -3 101 -23l-9 -58q-41 21 -98 21q-36 0 -56 -13t-20 -35q0 -31 41 -49l69 -29
q91 -39 91 -110z" />
    <glyph glyph-name="Euro.numr" horiz-adv-x="408" 
d="M360 347l19 -60q-44 -19 -102 -19q-79 0 -130 44.5t-63 122.5h-62l11 27h49q-1 6 -1 18q0 14 1 21h-55l12 27h46q12 77 62.5 121t129.5 44q57 0 100 -17l-22 -59q-27 12 -67 12q-49 0 -82.5 -26.5t-44.5 -74.5h154l-12 -27h-146q-1 -7 -1 -21q0 -12 1 -18h133l-11 -27
h-118q11 -49 44 -76t82 -27q45 0 73 15z" />
    <glyph glyph-name="plus.numr" horiz-adv-x="362" 
d="M333 445v-49h-127v-124h-50v124h-127v49h127v124h50v-124h127z" />
    <glyph glyph-name="multiply.numr" horiz-adv-x="370" 
d="M334 538l-113 -113l113 -114l-35 -35l-114 114l-114 -114l-35 35l114 114l-114 113l35 35l114 -113l114 113z" />
    <glyph glyph-name="divide.numr" horiz-adv-x="378" 
d="M189 497q-15 0 -25.5 9.5t-10.5 24.5t10.5 25t25.5 10t26 -10t11 -25t-11 -24.5t-26 -9.5zM37 400v42h304v-42h-304zM189 268q-15 0 -25.5 10.5t-10.5 25.5q0 14 11 24t25 10q15 0 26 -10t11 -24q0 -15 -11 -25.5t-26 -10.5z" />
    <glyph glyph-name="equal.numr" horiz-adv-x="401" 
d="M49 515h304v-50h-304v50zM49 392h304v-50h-304v50z" />
    <glyph glyph-name="plusminus.numr" horiz-adv-x="392" 
d="M222 480h127v-49h-127v-79h-50v79h-128v49h128v80h50v-80zM44 272v44h305v-44h-305z" />
    <glyph glyph-name="sterling.numr" horiz-adv-x="365" 
d="M149 334h185v-60h-304v60h44q24 41 24 93v7h-55v42h51q-10 82 -10 101q0 53 37.5 85t101.5 32q54 0 98 -23l-10 -58q-37 21 -76 21q-36 0 -55.5 -18.5t-19.5 -47.5q0 -24 9 -92h94v-42h-91v-6q0 -54 -23 -94z" />
    <glyph glyph-name="yen.numr" horiz-adv-x="369" 
d="M352 679l-131 -219v-35h78v-35h-78v-23h78v-34h-78v-59h-73v59h-77v34h77v23h-77v35h77v34l-131 220v7h78l90 -171l89 171h78v-7z" />
    <glyph glyph-name="cent.subs" horiz-adv-x="310" 
d="M265 -128l10 -57q-32 -17 -69 -21v-57h-46v56q-59 6 -94.5 47t-35.5 104t35.5 104.5t94.5 46.5v56h46v-58q50 -8 74 -34l-27 -45q-18 15 -47 20v-182q32 3 59 20zM106 -55q0 -67 54 -87v174q-25 -8 -39.5 -31.5t-14.5 -55.5z" />
    <glyph glyph-name="dollar.subs" horiz-adv-x="346" 
d="M316 -82q0 -42 -31.5 -71t-87.5 -36v-56h-39v54q-75 2 -128 36l10 58q55 -34 120 -34q81 0 81 48q0 19 -11.5 30t-38.5 23l-66 28q-44 19 -64.5 42t-20.5 61q0 48 32 77t86 35v50h39v-49q53 -3 101 -23l-8 -58q-42 21 -99 21q-36 0 -56 -13t-20 -35q0 -30 41 -49l69 -29
q91 -39 91 -110z" />
    <glyph glyph-name="Euro.subs" horiz-adv-x="408" 
d="M360 -129l19 -60q-44 -19 -102 -19q-79 0 -130 44.5t-63 122.5h-62l11 27h48v18q0 14 1 21h-55l12 27h46q12 77 62.5 121t129.5 44q58 0 100 -18l-22 -58q-27 12 -67 12q-48 0 -82 -26.5t-45 -74.5h154l-12 -27h-146q-1 -7 -1 -21q0 -12 1 -18h133l-11 -27h-118
q11 -49 44 -76t82 -27q45 0 73 15z" />
    <glyph glyph-name="plus.subs" horiz-adv-x="362" 
d="M333 -31v-50h-127v-123h-50v123h-127v50h127v124h50v-124h127z" />
    <glyph glyph-name="multiply.subs" horiz-adv-x="370" 
d="M334 62l-113 -114l113 -114l-35 -35l-114 114l-114 -114l-35 35l114 114l-114 114l35 35l114 -113l114 113z" />
    <glyph glyph-name="divide.subs" horiz-adv-x="378" 
d="M189 20q-15 0 -25.5 10t-10.5 25t10.5 25t25.5 10t26 -10t11 -25t-11 -25t-26 -10zM37 -76v42h304v-42h-304zM189 -208q-15 0 -25.5 10.5t-10.5 25.5q0 14 11 24t25 10q15 0 26 -10t11 -24q0 -15 -11 -25.5t-26 -10.5z" />
    <glyph glyph-name="equal.subs" horiz-adv-x="401" 
d="M49 38h304v-50h-304v50zM49 -85h304v-49h-304v49z" />
    <glyph glyph-name="plusminus.subs" horiz-adv-x="392" 
d="M222 4h127v-49h-127v-79h-50v79h-128v49h128v80h50v-80zM44 -204v44h305v-44h-305z" />
    <glyph glyph-name="sterling.subs" horiz-adv-x="365" 
d="M149 -142h185v-60h-304v60h45q23 40 23 93v7h-55v42h51q-10 82 -10 100q0 54 37.5 86t101.5 32q50 0 98 -23l-10 -58q-37 21 -76 21q-36 0 -55.5 -18.5t-19.5 -47.5q0 -24 9 -92h94v-42h-91v-6q0 -54 -23 -94z" />
    <glyph glyph-name="yen.subs" horiz-adv-x="369" 
d="M352 203l-131 -219v-35h78v-35h-78v-23h78v-34h-78v-59h-73v59h-77v34h77v23h-77v35h77v34l-131 220v7h78l90 -171l89 171h78v-7z" />
    </font>
</defs>
</svg>
