<?xml version="1.0" standalone="no"?>
<!DOCTYPE svg PUBLIC "-//W3C//DTD SVG 1.1//EN" "http://www.w3.org/Graphics/SVG/1.1/DTD/svg11.dtd" >
<svg xmlns="http://www.w3.org/2000/svg" xmlns:xlink="http://www.w3.org/1999/xlink" version="1.1">
<metadata>
Created by FontForge 20170731 at Thu Jun 22 14:52:30 2017
 By Aleksey,,,
Copyright (c) 2017 by Olivier Gourvat. All rights reserved.
</metadata>
<defs>
<font id="RivalSans-ExtraLight" horiz-adv-x="600" >
  <font-face 
    font-family="Rival Sans ExtraLight"
    font-weight="300"
    font-stretch="normal"
    units-per-em="1000"
    panose-1="2 11 5 3 5 3 0 0 0 3"
    ascent="750"
    descent="-250"
    x-height="479"
    cap-height="710"
    bbox="-110 -346 1362 931"
    underline-thickness="50"
    underline-position="-200"
    unicode-range="U+0020-2122"
  />
<missing-glyph horiz-adv-x="697" 
d="M99 710h500v-710h-500v710zM288 249h44l-4 31q-4 36 32 64l54 38q24 17 38 43t14 51q0 51 -35 81.5t-92 30.5q-48 0 -101 -28l8 -40q49 26 89 26q37 0 58.5 -19t21.5 -51t-40 -63l-50 -38q-52 -36 -40 -107zM308 122q16 0 27 11t11 27q0 15 -11 26t-27 11t-27 -11
t-11 -26q0 -16 11 -27t27 -11z" />
    <glyph glyph-name="f_f" unicode="ff" horiz-adv-x="617" 
d="M576 678q-59 0 -90.5 -31t-31.5 -101v-67h156v-41h-156v-438h-49v438h-251v-438h-50v438h-82v41h82v71q0 83 43 126.5t127 43.5q53 0 84 -17l-7 -40q-36 15 -76 15q-121 0 -121 -132v-67h251v71q0 83 42.5 126.5t126.5 43.5q45 0 76 -11l-7 -41q-29 10 -67 10z" />
    <glyph glyph-name="f_f_i" unicode="ffi" horiz-adv-x="837" 
d="M657 479l84 6v-485h-50v438h-237v-438h-49v438h-251v-438h-50v438h-82v41h82v71q0 83 43 126.5t127 43.5q53 0 84 -17l-7 -40q-36 15 -76 15q-121 0 -121 -132v-67h251v71q0 83 44.5 126.5t131.5 43.5q77 0 129 -24l-7 -41q-52 23 -121 23q-128 0 -128 -135v-64h203z" />
    <glyph glyph-name="f_f_l" unicode="ffl" horiz-adv-x="849" 
d="M405 550q0 83 42.5 126.5t126.5 43.5q45 0 76 -11l-7 -41q-29 10 -67 10q-59 0 -90.5 -31t-31.5 -101v-67h156v-41h-156v-438h-49v438h-251v-438h-50v438h-82v41h82v71q0 83 43 126.5t127 43.5q53 0 84 -17l-7 -40q-36 15 -76 15q-121 0 -121 -132v-67h251v71zM709 704
l50 12v-716h-50v704z" />
    <glyph glyph-name="fi" unicode="fi" horiz-adv-x="531" 
d="M357 479l84 6v-485h-50v438h-237v-438h-50v438h-82v41h82v71q0 83 45 126.5t131 43.5q76 0 129 -24l-7 -41q-52 23 -121 23q-127 0 -127 -135v-64h203z" />
    <glyph glyph-name="fl" unicode="fl" horiz-adv-x="548" 
d="M104 550q0 83 43 126.5t127 43.5q35 0 68 -10l-7 -41q-28 9 -60 9q-121 0 -121 -132v-67h140v-41h-140v-438h-50v438h-82v41h82v71zM408 704l50 12v-716h-50v704z" />
    <glyph glyph-name=".notdef" horiz-adv-x="697" 
d="M99 710h500v-710h-500v710zM288 249h44l-4 31q-4 36 32 64l54 38q24 17 38 43t14 51q0 51 -35 81.5t-92 30.5q-48 0 -101 -28l8 -40q49 26 89 26q37 0 58.5 -19t21.5 -51t-40 -63l-50 -38q-52 -36 -40 -107zM308 122q16 0 27 11t11 27q0 15 -11 26t-27 11t-27 -11
t-11 -26q0 -16 11 -27t27 -11z" />
    <glyph glyph-name=".null" horiz-adv-x="0" 
 />
    <glyph glyph-name="nonmarkingreturn" horiz-adv-x="333" 
 />
    <glyph glyph-name="space" unicode=" " horiz-adv-x="249" 
 />
    <glyph glyph-name="space" unicode="&#xa0;" horiz-adv-x="249" 
 />
    <glyph glyph-name="exclam" unicode="!" horiz-adv-x="243" 
d="M103 176l-7 506v28h52v-28l-8 -506h-37zM121 -10q-17 0 -29 12t-12 30q0 16 12 27.5t29 11.5t29 -11.5t12 -27.5q0 -18 -12 -30t-29 -12z" />
    <glyph glyph-name="quotedbl" unicode="&#x22;" horiz-adv-x="333" 
d="M81 399l-9 221v90h52v-90l-9 -221h-34zM219 399l-9 221v90h52v-90l-9 -221h-34z" />
    <glyph glyph-name="numbersign" unicode="#" horiz-adv-x="688" 
d="M654 455h-140l-37 -183h130v-40h-140l-48 -232h-43l48 232l-222 -1l-48 -231h-43l48 231h-125v41h135l37 182h-125v41h135l45 215h43l-45 -215h222l45 215h43l-45 -215h130v-40zM434 272l37 183l-222 -1l-37 -182h222z" />
    <glyph glyph-name="dollar" unicode="$" horiz-adv-x="507" 
d="M468 188q-2 -154 -188 -168v-102h-45v101q-114 3 -190 51l8 46q72 -55 194 -55q90 0 130 35t40 90q0 49 -29 79t-86 53l-114 47q-69 28 -101.5 64.5t-32.5 94.5q0 73 48 116t133 51v93h45v-91q80 -1 152 -32l-7 -42q-70 32 -152 32q-78 0 -123 -33t-45 -92
q0 -78 100 -118l115 -46q147 -60 148 -174z" />
    <glyph glyph-name="percent" unicode="%" horiz-adv-x="803" 
d="M187 -6l386 708l36 -19l-385 -708zM196 304q-72 0 -116 53.5t-44 140.5q0 88 44 141.5t116 53.5q70 0 112.5 -53.5t42.5 -141.5q0 -87 -42.5 -140.5t-112.5 -53.5zM195 344q49 0 79.5 42.5t30.5 111.5q0 70 -30.5 112.5t-79.5 42.5q-51 0 -82 -42.5t-31 -112.5
q0 -69 31 -111.5t82 -42.5zM611 -6q-72 0 -115.5 53.5t-43.5 140.5q0 88 43.5 141.5t115.5 53.5q70 0 112.5 -53.5t42.5 -141.5q0 -87 -42.5 -140.5t-112.5 -53.5zM611 35q49 0 79 42t30 111q0 70 -30 112.5t-79 42.5q-51 0 -82 -42.5t-31 -112.5q0 -69 31 -111t82 -42z" />
    <glyph glyph-name="ampersand" unicode="&#x26;" horiz-adv-x="663" 
d="M522 145l108 -139v-6h-56l-83 105q-101 -115 -233 -115q-99 0 -157.5 50.5t-58.5 138.5q0 79 46.5 135.5t145.5 106.5l6 3l-30 38q-50 66 -50 128q0 59 42 95.5t111 36.5t110 -37.5t41 -98.5q0 -44 -26.5 -84t-75.5 -66l-46 -24l176 -227q41 64 71 152h50v-5
q-36 -107 -91 -187zM260 484l27 -35l39 21q86 45 86 112q0 43 -27.5 69.5t-72.5 26.5q-44 0 -72 -24.5t-28 -62.5q0 -45 48 -107zM261 34q112 0 200 109l-192 244l-5 -3q-88 -44 -129.5 -91.5t-41.5 -112.5q0 -68 46 -107t122 -39z" />
    <glyph glyph-name="quotesingle" unicode="'" horiz-adv-x="195" 
d="M81 399l-9 221v90h52v-90l-9 -221h-34z" />
    <glyph glyph-name="parenleft" unicode="(" horiz-adv-x="252" 
d="M191 -224q-60 86 -98.5 211t-38.5 262q0 139 39 263.5t98 208.5l40 -14q-56 -76 -93.5 -199.5t-36.5 -258.5q-1 -137 36.5 -260.5t93.5 -199.5z" />
    <glyph glyph-name="parenright" unicode=")" horiz-adv-x="253" 
d="M61 -224l-40 13q56 76 93.5 199.5t37.5 260.5q0 136 -37.5 259t-93.5 199l40 14q59 -84 98 -208.5t39 -263.5q0 -138 -38.5 -263t-98.5 -210z" />
    <glyph glyph-name="asterisk" unicode="*" horiz-adv-x="458" 
d="M412 552l-154 -39l95 -127l-30 -23l-94 131l-93 -131l-31 23l95 127l-154 39l10 38l156 -44l-2 162h39l-2 -162l155 44z" />
    <glyph glyph-name="plus" unicode="+" 
d="M539 261v-44h-217v-217h-43v217h-218v44h218v217h43v-217h217z" />
    <glyph glyph-name="comma" unicode="," horiz-adv-x="214" 
d="M105 91q19 0 31.5 -14.5t12.5 -45.5q0 -44 -19 -103.5t-63 -99.5l-21 23q31 31 46.5 74.5t15.5 83.5q-17 -1 -30 10.5t-13 30.5q0 17 11.5 29t28.5 12z" />
    <glyph glyph-name="hyphen" unicode="-" horiz-adv-x="403" 
d="M71 264h261v-41h-261v41z" />
    <glyph glyph-name="period" unicode="." horiz-adv-x="206" 
d="M103 -10q-17 0 -29 12t-12 30q0 16 12 27.5t29 11.5t29 -11.5t12 -27.5q0 -18 -12 -30t-29 -12z" />
    <glyph glyph-name="slash" unicode="/" horiz-adv-x="413" 
d="M345 743l39 -17l-316 -794l-39 17z" />
    <glyph glyph-name="zero" unicode="0" horiz-adv-x="590" 
d="M293 -10q-109 0 -170.5 93t-61.5 259q0 168 61.5 261.5t170.5 93.5q111 0 173 -93.5t62 -261.5q0 -167 -62 -259.5t-173 -92.5zM293 32q87 0 136 81.5t49 228.5q0 148 -49 230.5t-136 82.5q-85 0 -133 -82.5t-48 -230.5q0 -147 48 -228.5t133 -81.5z" />
    <glyph glyph-name="one" unicode="1" horiz-adv-x="369" 
d="M237 687h30v-687h-50v625l-188 -88l-9 43z" />
    <glyph glyph-name="two" unicode="2" horiz-adv-x="525" 
d="M103 42h372v-42h-424l-11 40l261 271q57 58 84 102t27 93q0 65 -48.5 107t-123.5 42q-91 0 -182 -44l-8 40q89 46 195 46q95 0 156.5 -54t61.5 -141q0 -94 -130 -224z" />
    <glyph glyph-name="three" unicode="3" horiz-adv-x="533" 
d="M331 359q70 -11 108 -59t38 -110q0 -86 -68.5 -143t-178.5 -57q-45 0 -102 11t-94 26l9 43q33 -15 86.5 -26.5t98.5 -11.5q89 0 143.5 46t54.5 114q0 63 -49 102t-127 39h-74v44h69q74 0 114.5 43t40.5 101q0 60 -43.5 97t-116.5 37q-91 0 -169 -33l-8 40q77 35 180 35
q94 0 151 -48t57 -123q0 -59 -31 -102t-89 -65z" />
    <glyph glyph-name="four" unicode="4" horiz-adv-x="565" 
d="M535 224v-42h-122v-182h-49v182h-332l-13 36l348 469h46v-463h122zM76 224h288v383z" />
    <glyph glyph-name="five" unicode="5" horiz-adv-x="561" 
d="M294 411q102 0 162 -57.5t60 -147.5q0 -98 -70 -157t-186 -59q-117 0 -201 53l10 45q74 -56 188 -56q94 0 151 47.5t57 126.5q0 72 -47.5 117.5t-130.5 45.5q-104 0 -189 -49l-33 27l34 340h368v-42h-327l-27 -274q88 40 181 40z" />
    <glyph glyph-name="six" unicode="6" horiz-adv-x="557" 
d="M296 422q103 0 162 -59t59 -155q0 -98 -61.5 -158t-162.5 -60q-117 0 -176 82t-59 210q0 164 94.5 272t265.5 142l6 -41q-126 -25 -205.5 -100.5t-101.5 -181.5q80 49 179 49zM293 32q79 0 126 48.5t47 127.5q0 78 -47 125t-131 47q-94 0 -178 -56q-1 -13 -1 -38
q0 -115 46 -184.5t138 -69.5z" />
    <glyph glyph-name="seven" unicode="7" horiz-adv-x="494" 
d="M467 687l8 -30l-338 -657h-53l334 645h-392v42h441z" />
    <glyph glyph-name="eight" unicode="8" horiz-adv-x="595" 
d="M413 339q56 -17 90 -62t34 -102q0 -82 -66.5 -133.5t-173.5 -51.5t-173 52.5t-66 137.5q0 53 31.5 99t85.5 74q-46 20 -71 63.5t-25 95.5q0 82 61 133.5t160 51.5q98 0 158 -51.5t60 -134.5q0 -55 -28.5 -101t-76.5 -71zM130 511q0 -48 26.5 -83.5t76.5 -48.5l125 -28
q50 24 80 66.5t30 93.5q0 64 -46.5 104t-123.5 40q-75 0 -121.5 -39.5t-46.5 -104.5zM298 32q84 0 136 39t52 103q0 48 -29 83.5t-80 46.5l-151 34q-54 -22 -85.5 -64t-31.5 -96q0 -68 52.5 -107t136.5 -39z" />
    <glyph glyph-name="nine" unicode="9" horiz-adv-x="557" 
d="M264 696q117 0 176 -81.5t59 -209.5q0 -164 -94.5 -272.5t-265.5 -142.5l-6 41q126 26 205.5 101t101.5 181q-83 -49 -179 -49q-102 0 -161.5 59.5t-59.5 154.5q0 98 61.5 158t162.5 60zM91 478q0 -78 47.5 -125t131.5 -47q96 0 178 56q1 13 1 39q0 114 -46.5 184
t-138.5 70q-78 0 -125.5 -49t-47.5 -128z" />
    <glyph glyph-name="colon" unicode=":" horiz-adv-x="225" 
d="M112 408q-16 0 -28 12t-12 29q0 16 12 28t28 12q17 0 29.5 -12t12.5 -28q0 -17 -12.5 -29t-29.5 -12zM112 -10q-16 0 -28 12t-12 30q0 16 12 27.5t28 11.5q17 0 29.5 -11.5t12.5 -27.5q0 -18 -12.5 -30t-29.5 -12z" />
    <glyph glyph-name="semicolon" unicode=";" horiz-adv-x="259" 
d="M139 489q17 0 29.5 -12t12.5 -28q0 -17 -12.5 -29t-29.5 -12t-29 12t-12 29q0 16 12.5 28t28.5 12zM123 91q19 0 31.5 -14.5t12.5 -45.5q0 -44 -19 -103.5t-63 -99.5l-21 23q31 31 46.5 74.5t15.5 83.5q-17 -1 -30 10.5t-13 30.5q0 17 11.5 29t28.5 12z" />
    <glyph glyph-name="less" unicode="&#x3c;" 
d="M536 477v-52l-431 -187l431 -187v-53l-482 214v51z" />
    <glyph glyph-name="equal" unicode="=" 
d="M61 357h478v-44h-478v44zM61 163h478v-44h-478v44z" />
    <glyph glyph-name="greater" unicode="&#x3e;" 
d="M64 477l482 -214v-51l-482 -214v53l431 187l-431 187v52z" />
    <glyph glyph-name="question" unicode="?" horiz-adv-x="432" 
d="M141 176l-5 45q-7 51 9.5 85.5t62.5 70.5l69 51q67 51 67 115q0 62 -41.5 98t-110.5 36q-74 0 -152 -47l-8 43q84 47 162 47q92 0 146.5 -48t54.5 -129q0 -40 -22.5 -80t-60.5 -69l-71 -50q-37 -30 -51 -55.5t-10 -61.5l5 -51h-44zM164 -10q-17 0 -29 12t-12 30
q0 16 12 27.5t29 11.5t29 -11.5t12 -27.5q0 -18 -12 -30t-29 -12z" />
    <glyph glyph-name="at" unicode="@" horiz-adv-x="932" 
d="M485 700q175 0 282 -106.5t107 -280.5q0 -119 -50 -190t-137 -71q-112 0 -129 103q-65 -55 -141 -55q-55 0 -90.5 32.5t-35.5 82.5q0 52 43.5 82.5t117.5 30.5q59 0 104 -15v36q0 50 -26.5 80.5t-76.5 30.5q-78 0 -126 -39l-8 39q57 39 139 39q72 0 109.5 -41t37.5 -111
v-159q1 -48 23.5 -73t62.5 -25q65 0 102.5 61t37.5 162q0 156 -95.5 252.5t-251.5 96.5q-174 0 -281 -109.5t-107 -285.5q0 -163 104 -265t263 -102q100 0 179 30l10 -38q-88 -31 -190 -31q-178 0 -293.5 112.5t-115.5 293.5q0 195 119 314t313 119zM340 215q0 -34 23 -55
t61 -21q69 0 132 55v80q-38 15 -102 15q-54 0 -84 -19.5t-30 -54.5z" />
    <glyph glyph-name="A" unicode="A" horiz-adv-x="638" 
d="M562 0l-80 216h-325l-81 -216h-53l267 710h58l267 -710h-53zM173 259h293l-147 394z" />
    <glyph glyph-name="B" unicode="B" horiz-adv-x="625" 
d="M434 370q66 -14 102.5 -63t36.5 -113q0 -77 -57 -135.5t-163 -58.5h-252v710h224q101 0 155 -55.5t54 -128.5q0 -49 -25 -93.5t-75 -62.5zM483 522q0 59 -41 101.5t-124 42.5h-165v-277h194q70 0 103 40.5t33 92.5zM346 44q86 0 131 46t45 107q0 63 -41.5 105.5
t-130.5 42.5h-197v-301h193z" />
    <glyph glyph-name="B" unicode="&#xe000;" horiz-adv-x="625" 
d="M434 370q66 -14 102.5 -63t36.5 -113q0 -77 -57 -135.5t-163 -58.5h-252v710h224q101 0 155 -55.5t54 -128.5q0 -49 -25 -93.5t-75 -62.5zM483 522q0 59 -41 101.5t-124 42.5h-165v-277h194q70 0 103 40.5t33 92.5zM346 44q86 0 131 46t45 107q0 63 -41.5 105.5
t-130.5 42.5h-197v-301h193z" />
    <glyph glyph-name="C" unicode="C" horiz-adv-x="603" 
d="M391 -10q-151 0 -243 100.5t-92 264.5t92 264.5t243 100.5q111 0 180 -33l-8 -42q-69 31 -164 31q-131 0 -211 -88.5t-80 -232.5t80 -232.5t211 -88.5q97 0 165 30l7 -41q-68 -33 -180 -33z" />
    <glyph glyph-name="D" unicode="D" horiz-adv-x="680" 
d="M305 710q151 0 234.5 -96t83.5 -258q0 -163 -83.5 -259.5t-234.5 -96.5h-204v710h204zM305 44q127 0 197 84.5t70 227.5q0 142 -70 226t-197 84h-154v-622h154z" />
    <glyph glyph-name="E" unicode="E" horiz-adv-x="577" 
d="M151 44h390v-44h-440v710h435l-7 -44h-378v-292h289v-43h-289v-287z" />
    <glyph glyph-name="E" unicode="&#xe001;" horiz-adv-x="577" 
d="M151 44h390v-44h-440v710h435l-7 -44h-378v-292h289v-43h-289v-287z" />
    <glyph glyph-name="F" unicode="F" horiz-adv-x="544" 
d="M525 666h-373v-297h290v-44h-290v-325h-51v710h431z" />
    <glyph glyph-name="G" unicode="G" horiz-adv-x="673" 
d="M361 342h254v-287q-35 -29 -101 -47t-141 -18q-142 0 -229.5 101.5t-87.5 267.5q0 163 88.5 262t233.5 99q110 0 196 -47l-8 -47q-82 50 -187 50q-121 0 -195 -87t-74 -230q0 -146 74.5 -235.5t195.5 -89.5q116 0 183 40v221l-209 5z" />
    <glyph glyph-name="H" unicode="H" horiz-adv-x="702" 
d="M550 710h50v-710h-50v341h-399v-341h-50v710h50v-323h399v323z" />
    <glyph glyph-name="I" unicode="I" horiz-adv-x="253" 
d="M101 0v710h50v-710h-50z" />
    <glyph glyph-name="J" unicode="J" horiz-adv-x="271" 
d="M-58 -224l-8 44q81 0 133 63.5t52 158.5v668h50v-668q0 -115 -63 -190.5t-164 -75.5z" />
    <glyph glyph-name="K" unicode="K" horiz-adv-x="578" 
d="M308 437l267 -431v-6h-55l-244 397l-125 -159v-238h-50v710h50v-399l309 399h57v-6z" />
    <glyph glyph-name="L" unicode="L" horiz-adv-x="523" 
d="M151 44h360v-44h-410v710h50v-666z" />
    <glyph glyph-name="M" unicode="M" horiz-adv-x="841" 
d="M753 0h-51l-23 640l-231 -634h-56l-231 636l-22 -642h-51l28 710h74l231 -642l230 642h74z" />
    <glyph glyph-name="N" unicode="N" horiz-adv-x="703" 
d="M552 710h50v-710h-55l-396 625v-625h-50v710h56l395 -626v626z" />
    <glyph glyph-name="O" unicode="O" horiz-adv-x="737" 
d="M368 -10q-140 0 -226 100.5t-86 265.5q0 164 86 264t227 100q140 0 225.5 -100t85.5 -264q0 -165 -85.5 -265.5t-226.5 -100.5zM368 34q117 0 188.5 88.5t71.5 233.5q0 144 -71 232t-188 88t-189 -88t-72 -232q0 -145 71.5 -233.5t188.5 -88.5z" />
    <glyph glyph-name="P" unicode="P" horiz-adv-x="584" 
d="M330 710q98 0 158 -60t60 -158t-60 -158.5t-158 -60.5h-179v-273h-50v710h229zM323 317q77 0 125 48.5t48 126.5t-48 126t-125 48h-172v-349h172z" />
    <glyph glyph-name="Q" unicode="Q" horiz-adv-x="737" 
d="M680 356q0 -128 -52.5 -219t-145.5 -127l86 -160l-43 -20l-84 168q-37 -8 -73 -8q-140 0 -226 100.5t-86 265.5q0 164 86 264t227 100q140 0 225.5 -100t85.5 -264zM368 34q117 0 188.5 88.5t71.5 233.5q0 144 -71 232t-188 88t-189 -88t-72 -232q0 -145 71.5 -233.5
t188.5 -88.5z" />
    <glyph glyph-name="R" unicode="R" horiz-adv-x="605" 
d="M320 296l246 -290v-6h-60l-247 296h-108v-296h-50v710h229q98 0 158 -57t60 -150q0 -94 -61.5 -151t-161.5 -56h-5zM151 666v-326h172q77 0 125 45t48 118t-48 118t-125 45h-172z" />
    <glyph glyph-name="S" unicode="S" horiz-adv-x="544" 
d="M263 -10q-133 0 -218 55l9 49q36 -27 92.5 -43.5t116.5 -16.5q100 0 145 38t45 98q0 54 -32 86.5t-95 58.5l-125 50q-76 30 -110 70t-34 101q0 89 62.5 136.5t174.5 47.5q89 0 173 -35l-8 -44q-76 35 -163 35t-137 -36.5t-50 -102.5q0 -83 111 -125l125 -51
q77 -31 118 -75t42 -113q-2 -183 -242 -183z" />
    <glyph glyph-name="S" unicode="&#xe002;" horiz-adv-x="544" 
d="M263 -10q-133 0 -218 55l9 49q36 -27 92.5 -43.5t116.5 -16.5q100 0 145 38t45 98q0 54 -32 86.5t-95 58.5l-125 50q-76 30 -110 70t-34 101q0 89 62.5 136.5t174.5 47.5q89 0 173 -35l-8 -44q-76 35 -163 35t-137 -36.5t-50 -102.5q0 -83 111 -125l125 -51
q77 -31 118 -75t42 -113q-2 -183 -242 -183z" />
    <glyph glyph-name="T" unicode="T" horiz-adv-x="568" 
d="M556 710v-44h-247v-666h-50v666h-247v44h544z" />
    <glyph glyph-name="U" unicode="U" horiz-adv-x="687" 
d="M344 -10q-122 0 -186.5 64.5t-64.5 213.5v442h50v-442q0 -125 52 -179.5t149 -54.5t148.5 54.5t51.5 179.5v442h50v-442q0 -149 -64 -213.5t-186 -64.5z" />
    <glyph glyph-name="V" unicode="V" horiz-adv-x="621" 
d="M542 710h54l-255 -710h-61l-255 710h54l232 -655z" />
    <glyph glyph-name="W" unicode="W" horiz-adv-x="846" 
d="M761 710h51l-174 -710h-63l-152 608l-152 -608h-63l-174 710h51l155 -649l161 642h44l161 -644z" />
    <glyph glyph-name="X" unicode="X" horiz-adv-x="544" 
d="M302 374l225 -368v-6h-57l-198 328l-199 -328h-56v6l225 368l-202 330v6h56l176 -290l176 290h55v-6z" />
    <glyph glyph-name="Y" unicode="Y" horiz-adv-x="604" 
d="M574 710v-6l-246 -420v-284h-51v284l-247 420v6h55l217 -377l217 377h55z" />
    <glyph glyph-name="Z" unicode="Z" horiz-adv-x="549" 
d="M90 44h424v-44h-481l-6 38l419 628h-400v44h460l6 -38z" />
    <glyph glyph-name="bracketleft" unicode="[" horiz-adv-x="306" 
d="M146 669v-842h138l-7 -41h-178v924h178l7 -41h-138z" />
    <glyph glyph-name="backslash" unicode="\" horiz-adv-x="413" 
d="M68 743l316 -794l-39 -17l-316 794z" />
    <glyph glyph-name="bracketright" unicode="]" horiz-adv-x="306" 
d="M29 710h178v-924h-178l-7 41h138v842h-138z" />
    <glyph glyph-name="asciicircum" unicode="^" 
d="M488 315h-53l-135 337l-136 -337h-53l164 395h50z" />
    <glyph glyph-name="underscore" unicode="_" horiz-adv-x="472" 
d="M0 -53h472v-39h-472v39z" />
    <glyph glyph-name="grave" unicode="`" horiz-adv-x="389" 
d="M147 722l159 -142l-23 -27l-167 136z" />
    <glyph glyph-name="a" unicode="a" horiz-adv-x="515" 
d="M245 489q92 0 141 -55.5t49 -151.5v-282h-41l-8 74q-34 -39 -87.5 -61.5t-98.5 -22.5q-69 0 -114.5 40t-45.5 103q0 67 53.5 106.5t146.5 39.5q74 0 145 -22v27q0 76 -37 119.5t-110 43.5q-38 0 -80.5 -13.5t-71.5 -36.5l-7 41q30 23 75.5 37t90.5 14zM209 32
q42 0 93.5 23.5t82.5 61.5v97q-58 23 -145 23q-70 0 -109.5 -28.5t-39.5 -76.5q0 -44 33 -72t85 -28z" />
    <glyph glyph-name="b" unicode="b" horiz-adv-x="547" 
d="M309 489q88 0 137 -66.5t49 -179.5q-2 -122 -66 -187.5t-175 -65.5q-61 0 -168 32v682l49 12v-297q77 70 174 70zM247 32q91 0 144 57t53 160q0 89 -38.5 143.5t-108.5 54.5q-85 0 -162 -75v-319q61 -21 112 -21z" />
    <glyph glyph-name="b" unicode="&#xe003;" horiz-adv-x="547" 
d="M309 489q88 0 137 -66.5t49 -179.5q-2 -122 -66 -187.5t-175 -65.5q-61 0 -168 32v682l49 12v-297q77 70 174 70zM247 32q91 0 144 57t53 160q0 89 -38.5 143.5t-108.5 54.5q-85 0 -162 -75v-319q61 -21 112 -21z" />
    <glyph glyph-name="c" unicode="c" horiz-adv-x="456" 
d="M272 -10q-102 0 -161.5 68t-59.5 181t59 181.5t155 68.5q45 0 87 -16.5t66 -42.5l-25 -33q-20 22 -55.5 36t-72.5 14q-75 0 -119 -57t-44 -151t46 -150.5t128 -56.5q80 0 136 40l8 -41q-66 -41 -148 -41z" />
    <glyph glyph-name="d" unicode="d" horiz-adv-x="545" 
d="M409 704l50 12v-716h-42l-6 60q-75 -70 -165 -70q-86 0 -140 66.5t-54 175.5q0 123 62.5 190t171.5 67q66 0 123 -33v248zM258 32q79 0 151 74v308q-55 33 -121 33q-85 0 -135 -57t-50 -158q0 -91 43.5 -145.5t111.5 -54.5z" />
    <glyph glyph-name="e" unicode="e" horiz-adv-x="505" 
d="M456 244h-354v-4q0 -99 50 -153.5t137 -54.5q82 0 131 31l8 -40q-61 -33 -144 -33q-107 0 -169.5 67t-62.5 185q0 112 57 179.5t162 67.5q92 0 143 -62.5t51 -166.5zM269 447q-69 0 -111.5 -41.5t-52.5 -119.5h308q-10 161 -144 161z" />
    <glyph glyph-name="f" unicode="f" horiz-adv-x="326" 
d="M275 678q-121 0 -121 -132v-67h164v-41h-164v-438h-50v438h-82v41h82v71q0 83 43 126.5t127 43.5q53 0 84 -17l-7 -41q-36 16 -76 16z" />
    <glyph glyph-name="g" unicode="g" horiz-adv-x="494" 
d="M354 28q60 -8 94.5 -40t34.5 -77q0 -62 -65.5 -98.5t-175.5 -36.5t-174.5 37.5t-64.5 103.5q0 40 28 71t75 48q-38 30 -37 78l65 65q-74 47 -74 139q0 75 53 123t141 48q52 0 95 -19q61 63 112 74l20 -45q-49 -12 -96 -51q61 -48 61 -130q0 -75 -52.5 -123t-139.5 -48
q-45 0 -84 14l-49 -52q0 -23 20.5 -39.5t55.5 -20.5zM252 449q-65 0 -103.5 -36.5t-38.5 -94.5t39 -94t105 -36q65 0 103.5 36t38.5 94t-39.5 94.5t-104.5 36.5zM247 -182q83 0 134 25t51 65q0 31 -24.5 51t-66.5 25l-156 21q-21 3 -39 9q-94 -29 -94 -92q0 -51 56.5 -77.5
t138.5 -26.5z" />
    <glyph glyph-name="h" unicode="h" horiz-adv-x="552" 
d="M323 489q71 0 109 -47t38 -140v-302h-49v294q0 153 -108 153q-86 0 -177 -84v-363h-49v704l49 12v-310q93 83 187 83z" />
    <glyph glyph-name="i" unicode="i" horiz-adv-x="230" 
d="M115 606q-15 0 -26.5 11.5t-11.5 27.5t11.5 27t26.5 11q17 0 28.5 -11t11.5 -27t-11.5 -27.5t-28.5 -11.5zM90 0v473l50 12v-485h-50z" />
    <glyph glyph-name="j" unicode="j" horiz-adv-x="235" 
d="M120 606q-16 0 -27.5 11.5t-11.5 27.5t11.5 27t27.5 11t28 -11t12 -27t-12 -27.5t-28 -11.5zM-30 -224l-8 43q66 0 99 45t34 125v484l49 12v-496q0 -98 -47 -155.5t-127 -57.5z" />
    <glyph glyph-name="k" unicode="k" horiz-adv-x="455" 
d="M191 266l265 -260v-6h-58l-262 254v-254h-49v704l49 12v-442l210 205h57v-6z" />
    <glyph glyph-name="l" unicode="l" horiz-adv-x="230" 
d="M90 0v704l50 12v-716h-50z" />
    <glyph glyph-name="m" unicode="m" horiz-adv-x="848" 
d="M620 489q71 0 109 -47t38 -140v-302h-49v294q0 153 -109 153q-32 0 -62.5 -14t-50 -29.5t-48.5 -44.5q4 -24 4 -57v-302h-50v294q0 153 -108 153q-45 0 -80.5 -21.5t-77.5 -62.5v-363h-49v481l40 8l8 -83q49 45 84 64t85 19q102 0 134 -93q50 48 89.5 70.5t92.5 22.5z
" />
    <glyph glyph-name="n" unicode="n" horiz-adv-x="552" 
d="M323 489q71 0 109 -47t38 -140v-302h-49v294q0 153 -108 153q-86 0 -177 -84v-363h-49v481l40 8l8 -83q94 83 188 83z" />
    <glyph glyph-name="o" unicode="o" horiz-adv-x="554" 
d="M277 -10q-101 0 -163.5 68.5t-62.5 180.5q0 113 62 181.5t163 68.5q102 0 164.5 -69t62.5 -181t-62.5 -180.5t-163.5 -68.5zM277 32q79 0 127 57.5t48 149.5q0 94 -48.5 151t-127.5 57q-78 0 -126 -57t-48 -151q0 -91 49.5 -149t125.5 -58z" />
    <glyph glyph-name="p" unicode="p" horiz-adv-x="546" 
d="M299 489q86 0 140.5 -66.5t54.5 -175.5q0 -123 -62.5 -190t-171.5 -67q-67 0 -124 33v-237h-49v693h41l6 -61q76 71 165 71zM258 32q85 0 135 57t50 158q0 91 -43.5 145.5t-111.5 54.5q-79 0 -152 -75v-307q55 -33 122 -33z" />
    <glyph glyph-name="q" unicode="q" horiz-adv-x="547" 
d="M293 489q62 0 169 -32v-671h-50v273q-76 -69 -172 -69q-89 0 -138.5 66t-49.5 179q2 122 66.5 188t174.5 66zM250 32q84 0 162 74v320q-61 21 -113 21q-90 0 -143 -57.5t-53 -161.5q0 -88 38.5 -142t108.5 -54z" />
    <glyph glyph-name="r" unicode="r" horiz-adv-x="361" 
d="M276 489q37 0 71 -23l-8 -43l-3 -1q-22 17 -65 17q-37 0 -73 -27t-62 -72v-340h-49v481l40 8l9 -100v-1q58 101 140 101z" />
    <glyph glyph-name="s" unicode="s" horiz-adv-x="432" 
d="M210 -10q-99 0 -164 41l7 40q69 -39 160 -39q127 0 127 84q0 30 -19 48t-60 33l-106 40q-100 34 -100 125q0 61 44 93.5t126 32.5q79 0 138 -27l-6 -43q-58 29 -131 29q-59 0 -90 -22t-31 -63q0 -56 70 -81l107 -41q57 -22 83 -51.5t26 -73.5q0 -61 -47 -93t-134 -32z
" />
    <glyph glyph-name="s" unicode="&#xe004;" horiz-adv-x="432" 
d="M210 -10q-99 0 -164 41l7 40q69 -39 160 -39q127 0 127 84q0 30 -19 48t-60 33l-106 40q-100 34 -100 125q0 61 44 93.5t126 32.5q79 0 138 -27l-6 -43q-58 29 -131 29q-59 0 -90 -22t-31 -63q0 -56 70 -81l107 -41q57 -22 83 -51.5t26 -73.5q0 -61 -47 -93t-134 -32z
" />
    <glyph glyph-name="t" unicode="t" horiz-adv-x="316" 
d="M295 45l7 -40q-40 -15 -89 -15q-114 0 -114 143v305h-67v41h68l11 127h38v-127h143v-41h-143v-296q0 -110 73 -110q36 0 73 13z" />
    <glyph glyph-name="u" unicode="u" horiz-adv-x="552" 
d="M415 479h50v-479h-42l-8 73q-91 -83 -187 -83q-71 0 -109 47t-38 140v302h50v-294q0 -153 108 -153q86 0 176 84v363z" />
    <glyph glyph-name="v" unicode="v" horiz-adv-x="485" 
d="M412 479h53l-197 -479h-50l-198 479h53l170 -426z" />
    <glyph glyph-name="w" unicode="w" horiz-adv-x="682" 
d="M604 479h52l-144 -479h-64l-107 385l-107 -385h-65l-143 479h52l124 -423l116 416h46l116 -416z" />
    <glyph glyph-name="x" unicode="x" horiz-adv-x="467" 
d="M264 248l183 -242v-6h-55l-159 213l-159 -213h-55v6l184 242l-170 225v6h57l143 -196l144 196h57v-6z" />
    <glyph glyph-name="y" unicode="y" horiz-adv-x="484" 
d="M411 479h51v-6l-277 -687h-51l83 208l-194 479v6h52l168 -424z" />
    <glyph glyph-name="y" unicode="&#xe006;" horiz-adv-x="484" 
d="M411 479h51v-6l-277 -687h-51l83 208l-194 479v6h52l168 -424z" />
    <glyph glyph-name="z" unicode="z" horiz-adv-x="463" 
d="M94 42h331v-42h-387l-8 37l326 400h-307v42h366l7 -38z" />
    <glyph glyph-name="braceleft" unicode="{" horiz-adv-x="302" 
d="M244 670q-101 0 -101 -143q0 -36 8 -86q9 -65 9 -86q0 -86 -54 -105q54 -21 54 -106q0 -21 -9 -86q-8 -50 -8 -89q0 -142 101 -142h34v-40h-34q-148 0 -148 181q0 37 8.5 94t8.5 80q0 77 -53 84l-29 4v39l29 3q53 6 53 85q0 24 -8.5 79.5t-8.5 92.5q0 181 148 181h34v-40
h-34z" />
    <glyph glyph-name="bar" unicode="|" horiz-adv-x="236" 
d="M99 710h38v-865h-38v865z" />
    <glyph glyph-name="braceright" unicode="}" horiz-adv-x="302" 
d="M242 272l29 -3v-39l-29 -4q-28 -5 -40.5 -24.5t-12.5 -59.5q0 -23 8.5 -80t8.5 -94q0 -181 -148 -181h-33v40h33q101 0 101 142q0 45 -7 89q-10 72 -10 86q0 85 54 106q-54 19 -54 105q0 13 10 86q7 44 7 86q0 143 -101 143h-33v40h33q148 0 148 -181q0 -37 -8.5 -92.5
t-8.5 -79.5q0 -79 53 -85z" />
    <glyph glyph-name="asciitilde" unicode="~" 
d="M56 223q-2 57 28.5 93.5t81.5 36.5q25 0 51 -9t74 -30q5 -3 9 -4.5t8 -3.5t21.5 -10t22 -10t18.5 -7.5t20 -7.5t17 -5t19 -4t17 -1q59 0 61 86h42q2 -62 -27.5 -96t-78.5 -34q-40 0 -145 47q-5 2 -23.5 11t-24.5 11.5t-20.5 8.5t-22.5 8t-19 4t-21 2q-62 0 -65 -86h-43z
" />
    <glyph glyph-name="exclamdown" unicode="&#xa1;" horiz-adv-x="225" 
d="M153 464q0 -16 -12 -27.5t-29 -11.5t-29 11.5t-12 27.5q0 18 12 30t29 12t29 -12t12 -30zM94 320h37l8 -506v-28h-52v28z" />
    <glyph glyph-name="cent" unicode="&#xa2;" horiz-adv-x="471" 
d="M423 31q-61 -38 -137 -41v-87h-40v89q-89 10 -140.5 76.5t-51.5 170.5q0 106 52.5 173.5t139.5 75.5v86h40v-86q88 -7 135 -58l-25 -33q-39 42 -110 49v-414q77 3 129 40zM105 239q0 -84 37 -138.5t104 -65.5v411q-65 -9 -103 -64.5t-38 -142.5z" />
    <glyph glyph-name="sterling" unicode="&#xa3;" horiz-adv-x="533" 
d="M136 42h363v-42h-466v42h51q67 83 67 190q0 23 -1 34h-84v35h80q-1 8 -13 84t-12 116q0 88 56.5 142t152.5 54q76 0 142 -38l-8 -41q-62 37 -129 37q-72 0 -119 -42.5t-47 -106.5q0 -30 4 -64t11.5 -77t10.5 -64h173v-35h-169q0 -6 0.5 -17.5t0.5 -17.5q0 -108 -64 -189z
" />
    <glyph glyph-name="currency" unicode="&#xa4;" horiz-adv-x="536" 
d="M444 358q0 -62 -38 -109l56 -57l-29 -28l-56 55q-48 -37 -109 -37q-62 0 -109 38l-55 -56l-29 29l56 56q-38 48 -38 109q0 62 38 109l-56 55l29 29l55 -56q47 38 109 38q61 0 110 -39l55 56l29 -28l-56 -56q38 -48 38 -108zM140 359q0 -53 38 -93.5t90 -40.5
q53 0 90.5 40.5t37.5 93.5q0 52 -37.5 91.5t-90.5 39.5q-52 0 -90 -39.5t-38 -91.5z" />
    <glyph glyph-name="yen" unicode="&#xa5;" horiz-adv-x="558" 
d="M529 681l-225 -376v-76h131v-34h-131v-56h131v-35h-131v-104h-50v104h-131v35h131v56h-131v34h131v75l-226 377v6h56l195 -333l195 333h55v-6z" />
    <glyph glyph-name="brokenbar" unicode="&#xa6;" horiz-adv-x="240" 
d="M101 710h38v-358h-38v358zM101 203h38v-358h-38v358z" />
    <glyph glyph-name="section" unicode="&#xa7;" horiz-adv-x="495" 
d="M238 -10q-73 0 -132 28l6 40q52 -26 121 -26q59 0 91.5 22t32.5 64q0 58 -69 81l-139 45q-110 35 -110 123q0 95 113 117q-65 34 -65 106q0 62 45.5 96t124.5 34q73 0 132 -28l-6 -40q-52 26 -121 26q-59 0 -92 -22t-33 -64q0 -58 70 -81l146 -48q103 -35 103 -120
q0 -93 -106 -120q58 -36 58 -103q0 -62 -45.5 -96t-124.5 -34zM295 248q52 7 81 31t29 62q0 55 -75 80l-122 39q-118 -13 -118 -91q0 -55 75 -80z" />
    <glyph glyph-name="dieresis" unicode="&#xa8;" horiz-adv-x="459" 
d="M147 587q-15 0 -26.5 11t-11.5 27q0 14 11.5 25t26.5 11q16 0 27 -11t11 -25q0 -16 -11 -27t-27 -11zM312 587q-15 0 -26.5 11t-11.5 27q1 14 12 25t26 11q16 0 27 -11t11 -25q0 -16 -11 -27t-27 -11z" />
    <glyph glyph-name="copyright" unicode="&#xa9;" horiz-adv-x="823" 
d="M412 -5q-148 0 -253 104.5t-105 253.5q0 148 105 252.5t253 104.5t252.5 -104.5t104.5 -252.5t-104.5 -253t-252.5 -105zM412 31q133 0 227 94.5t94 227.5t-94 227t-227 94q-134 0 -228.5 -94t-94.5 -227t94.5 -227.5t228.5 -94.5zM417 146q-86 0 -137.5 54.5
t-51.5 146.5t51.5 146.5t137.5 54.5q60 0 99 -18l-9 -34q-31 14 -85 14q-67 0 -107.5 -44t-40.5 -119t40.5 -119.5t107.5 -44.5q51 0 86 15l9 -34q-41 -18 -100 -18z" />
    <glyph glyph-name="ordfeminine" unicode="&#xaa;" horiz-adv-x="471" 
d="M236 710q75 0 114.5 -44.5t39.5 -122.5v-225h-39l-6 60q-27 -31 -69.5 -49.5t-78.5 -18.5q-55 0 -91.5 32.5t-36.5 81.5q0 54 43.5 86t117.5 32q62 0 114 -18v21q0 59 -29 93t-87 34q-69 0 -121 -39l-6 37q56 40 135 40zM209 347q32 0 71.5 18.5t63.5 47.5v75
q-47 19 -111 19q-54 0 -85 -22t-31 -60q0 -34 25.5 -56t66.5 -22zM73 210v37h317v-36z" />
    <glyph glyph-name="guillemotleft" unicode="&#xab;" horiz-adv-x="444" 
d="M235 422l-143 -176l144 -177l-46 -13l-143 173v33l141 173zM248 246l144 -177l-46 -13l-143 173v33l141 173l47 -13z" />
    <glyph glyph-name="logicalnot" unicode="&#xac;" 
d="M57 341h478v-235h-40v195h-438v40z" />
    <glyph glyph-name="uni00AD" unicode="&#xad;" horiz-adv-x="403" 
d="M71 264h261v-41h-261v41z" />
    <glyph glyph-name="registered" unicode="&#xae;" horiz-adv-x="823" 
d="M412 710q148 0 252.5 -104.5t104.5 -252.5t-104.5 -253t-252.5 -105t-253 104.5t-105 253.5q0 148 105 252.5t253 104.5zM412 31q133 0 227 94.5t94 227.5t-94 227t-227 94q-134 0 -228.5 -94t-94.5 -227t94.5 -227.5t228.5 -94.5zM549 433q0 -45 -26 -75t-70 -38
l103 -157v-5h-48l-102 160h-71v-160h-44v391h136q55 0 88.5 -32t33.5 -84zM335 513v-162h86q37 0 60 22.5t23 58.5t-23 58.5t-60 22.5h-86z" />
    <glyph glyph-name="macron" unicode="&#xaf;" horiz-adv-x="484" 
d="M120 600v40h244v-40h-244z" />
    <glyph glyph-name="degree" unicode="&#xb0;" horiz-adv-x="381" 
d="M191 407q-62 0 -100.5 40t-38.5 104t38.5 103.5t100.5 39.5t100 -39t38 -104t-38 -104.5t-100 -39.5zM191 443q46 0 73.5 29.5t27.5 78.5t-27.5 78.5t-73.5 29.5t-74 -29.5t-28 -78.5t27.5 -78.5t74.5 -29.5z" />
    <glyph glyph-name="plusminus" unicode="&#xb1;" 
d="M322 310h219v-44h-219v-152h-43v152h-220v44h220v151h43v-151zM60 0v44h480v-44h-480z" />
    <glyph glyph-name="uni00B2" unicode="&#xb2;" horiz-adv-x="340" 
d="M91 499h210v-35h-260l-7 28l161 170q53 56 53 102q0 36 -26 59t-69 23q-55 0 -107 -26l-7 35q58 27 121 27q59 0 96 -32.5t37 -85.5q0 -56 -74 -132z" />
    <glyph glyph-name="uni00B3" unicode="&#xb3;" horiz-adv-x="344" 
d="M212 679q40 -4 65 -33t25 -68q0 -52 -42 -86t-109 -34q-68 0 -119 22l6 35q15 -8 48 -15t61 -7q48 0 79 25.5t31 63.5q0 35 -28 56t-72 21h-38v34h37q40 0 63 22.5t23 54.5q0 34 -24 55t-64 21q-50 0 -98 -18l-6 34q42 20 111 20q56 0 91 -29t35 -75q0 -37 -20 -62.5
t-55 -36.5z" />
    <glyph glyph-name="acute" unicode="&#xb4;" horiz-adv-x="389" 
d="M275 722l31 -33l-167 -136l-23 27z" />
    <glyph glyph-name="uni00B5" unicode="&#xb5;" horiz-adv-x="557" 
d="M87 -193v672h49v-294q0 -153 109 -153q85 0 176 84v363h49v-479h-41l-7 73q-92 -83 -188 -83q-63 0 -98 41v-224h-49z" />
    <glyph glyph-name="paragraph" unicode="&#xb6;" horiz-adv-x="573" 
d="M470 710v-710h-44v286h-68v-286h-44v286h-68q-88 0 -150.5 62t-62.5 150q0 87 62.5 149.5t150.5 62.5h224z" />
    <glyph glyph-name="periodcentered" unicode="&#xb7;" horiz-adv-x="222" 
d="M110 227q-16 0 -28 12t-12 30q0 16 12 27.5t28 11.5q17 0 29.5 -11.5t12.5 -27.5q0 -18 -12.5 -30t-29.5 -12z" />
    <glyph glyph-name="cedilla" unicode="&#xb8;" horiz-adv-x="434" 
d="M205 -193q-40 0 -68 14l16 34q25 -10 48 -10q47 0 47 34q0 13 -8.5 22.5t-19 14.5t-32.5 13l-3 16l49 64h27l-34 -57q69 -24 69 -73q0 -34 -26 -53t-65 -19z" />
    <glyph glyph-name="uni00B9" unicode="&#xb9;" horiz-adv-x="241" 
d="M152 876h24v-412h-44v356l-102 -41l-5 37z" />
    <glyph glyph-name="ordmasculine" unicode="&#xba;" horiz-adv-x="515" 
d="M257 310q-82 0 -132 54t-50 142q0 92 50 148t132 56t132 -56t50 -148q0 -88 -50 -142t-132 -54zM257 349q61 0 97.5 43t36.5 114q0 74 -36.5 119.5t-97.5 45.5q-60 0 -97 -45.5t-37 -119.5q1 -70 38 -113.5t96 -43.5zM75 247h364v-36l-364 -1v37z" />
    <glyph glyph-name="guillemotright" unicode="&#xbb;" horiz-adv-x="444" 
d="M242 262v-33l-143 -173l-47 13l145 177l-144 176l47 13zM256 435l142 -173v-33l-143 -173l-47 13l144 177l-143 176z" />
    <glyph glyph-name="onequarter" unicode="&#xbc;" horiz-adv-x="765" 
d="M445 697l34 -15l-308 -708l-34 15zM137 275v357l-102 -42l-5 37l127 60h24v-412h-44zM732 144v-38h-69v-106h-44v106h-195l-10 29l210 277h39v-268h69zM463 144h156v206z" />
    <glyph glyph-name="onehalf" unicode="&#xbd;" horiz-adv-x="752" 
d="M445 697l34 -15l-308 -708l-34 15zM137 275v357l-102 -42l-5 37l127 60h24v-412h-44zM500 36h208v-36h-259l-7 29l161 170q53 56 53 101q0 37 -26.5 59.5t-68.5 22.5q-53 0 -107 -25l-8 34q54 27 122 27q60 0 96.5 -32t36.5 -85q0 -56 -74 -133z" />
    <glyph glyph-name="threequarters" unicode="&#xbe;" horiz-adv-x="900" 
d="M583 697l34 -15l-308 -708l-34 15zM310 389q0 -52 -42 -86t-109 -34q-68 0 -119 22l6 35q15 -8 48 -15t61 -7q48 0 79 25.5t31 63.5q0 35 -28 56.5t-72 21.5h-38v33h37q40 0 63 22.5t23 54.5q0 34 -24 55t-64 21q-50 0 -98 -18l-6 34q42 20 111 20q56 0 91 -29t35 -75
q0 -37 -20 -62.5t-55 -36.5q40 -4 65 -33t25 -68zM870 144v-38h-69v-106h-44v106h-195l-10 29l210 277h39v-268h69zM601 144h156v206z" />
    <glyph glyph-name="questiondown" unicode="&#xbf;" horiz-adv-x="425" 
d="M265 506q17 0 29 -12t12 -30q0 -16 -12 -27.5t-29 -11.5t-29 11.5t-12 27.5q0 18 12 30t29 12zM288 320l5 -45q7 -51 -9.5 -85.5t-62.5 -70.5l-69 -51q-67 -51 -67 -115q0 -62 41.5 -98t110.5 -36q74 0 152 47l8 -43q-84 -47 -162 -47q-92 0 -146.5 48t-54.5 129
q0 40 22.5 80t60.5 69l71 50q37 30 51 55.5t10 61.5l-5 51h44z" />
    <glyph glyph-name="Agrave" unicode="&#xc0;" horiz-adv-x="638" 
d="M364 786l-18 -31l-162 91l24 39zM562 0l-80 216h-325l-81 -216h-53l267 710h58l267 -710h-53zM173 259h293l-147 394z" />
    <glyph glyph-name="Aacute" unicode="&#xc1;" horiz-adv-x="638" 
d="M426 845l-162 -91l-18 31l156 99zM562 0l-80 216h-325l-81 -216h-53l267 710h58l267 -710h-53zM173 259h293l-147 394z" />
    <glyph glyph-name="Acircumflex" unicode="&#xc2;" horiz-adv-x="638" 
d="M316 840l-131 -80l-25 25l144 102h24l144 -102l-24 -25zM562 0l-80 216h-325l-81 -216h-53l267 710h58l267 -710h-53zM173 259h293l-147 394z" />
    <glyph glyph-name="Atilde" unicode="&#xc3;" horiz-adv-x="638" 
d="M262 822q-35 0 -35 -48h-37q0 89 68 89q24 0 60 -23.5t50 -23.5q35 0 35 48h37q0 -89 -69 -89q-24 0 -59.5 23.5t-49.5 23.5zM562 0l-80 216h-325l-81 -216h-53l267 710h58l267 -710h-53zM173 259h293l-147 394z" />
    <glyph glyph-name="Adieresis" unicode="&#xc4;" horiz-adv-x="638" 
d="M233 783q-15 0 -26.5 11t-11.5 27q0 15 11.5 26t26.5 11t26 -11t12 -26q0 -16 -11 -27t-27 -11zM398 783q-15 0 -26.5 11t-11.5 27q1 15 12 26t26 11q16 0 27 -11t11 -26q0 -16 -11 -27t-27 -11zM562 0l-80 216h-325l-81 -216h-53l267 710h58l267 -710h-53zM173 259h293
l-147 394z" />
    <glyph glyph-name="Aring" unicode="&#xc5;" horiz-adv-x="638" 
d="M317 750q-39 0 -66.5 26t-27.5 65q0 37 27.5 63.5t66.5 26.5q38 0 65.5 -26.5t27.5 -63.5q0 -39 -27 -65t-66 -26zM317 900q-25 0 -43 -17.5t-18 -41.5q0 -26 17.5 -42.5t43.5 -16.5q24 0 42 17.5t18 41.5t-18 41.5t-42 17.5zM562 0l-80 216h-325l-81 -216h-53l267 710
h58l267 -710h-53zM173 259h293l-147 394z" />
    <glyph glyph-name="AE" unicode="&#xc6;" horiz-adv-x="846" 
d="M475 44h334v-44h-384v216h-268l-90 -216h-52l299 710h491l-8 -44h-322v-292h233v-43h-233v-287zM175 259h250v407h-80z" />
    <glyph glyph-name="Ccedilla" unicode="&#xc7;" horiz-adv-x="603" 
d="M571 23q-63 -31 -176 -33l-26 -39q67 -24 67 -72q0 -34 -26 -53t-65 -19q-40 0 -68 14l16 34q25 -10 48 -10q47 0 47 34q0 13 -8.5 22.5t-19 14.5t-32.5 13l-3 16l31 46q-137 12 -218.5 111t-81.5 253q0 164 92 264.5t243 100.5q111 0 180 -33l-8 -42q-69 31 -164 31
q-131 0 -211 -88.5t-80 -232.5t80 -232.5t211 -88.5q97 0 165 30z" />
    <glyph glyph-name="Egrave" unicode="&#xc8;" horiz-adv-x="577" 
d="M365 786l-18 -31l-162 91l24 39zM151 44h390v-44h-440v710h435l-7 -44h-378v-292h289v-43h-289v-287z" />
    <glyph glyph-name="Eacute" unicode="&#xc9;" horiz-adv-x="577" 
d="M389 845l-162 -91l-18 31l156 99zM151 44h390v-44h-440v710h435l-7 -44h-378v-292h289v-43h-289v-287z" />
    <glyph glyph-name="Ecircumflex" unicode="&#xca;" horiz-adv-x="577" 
d="M310 840l-131 -80l-25 25l144 102h24l144 -102l-24 -25zM151 44h390v-44h-440v710h435l-7 -44h-378v-292h289v-43h-289v-287z" />
    <glyph glyph-name="Edieresis" unicode="&#xcb;" horiz-adv-x="577" 
d="M226 783q-15 0 -26.5 11t-11.5 27q0 15 11.5 26t26.5 11q16 0 26.5 -11t11.5 -26q0 -16 -11 -27t-27 -11zM391 783q-15 0 -26.5 11t-11.5 27q1 15 12 26t26 11q16 0 27 -11t11 -26q0 -16 -11 -27t-27 -11zM151 44h390v-44h-440v710h435l-7 -44h-378v-292h289v-43h-289
v-287z" />
    <glyph glyph-name="Igrave" unicode="&#xcc;" horiz-adv-x="253" 
d="M166 755l-162 91l24 39l156 -99zM101 0v710h50v-710h-50z" />
    <glyph glyph-name="Iacute" unicode="&#xcd;" horiz-adv-x="253" 
d="M82 754l-18 31l156 99l24 -39zM101 0v710h50v-710h-50z" />
    <glyph glyph-name="Icircumflex" unicode="&#xce;" horiz-adv-x="253" 
d="M-5 760l-25 25l144 102h24l144 -102l-24 -25l-132 80zM101 0v710h50v-710h-50z" />
    <glyph glyph-name="Idieresis" unicode="&#xcf;" horiz-adv-x="253" 
d="M44 783q-15 0 -26.5 11t-11.5 27q0 15 11.5 26t26.5 11q16 0 26.5 -11t11.5 -26q0 -16 -11 -27t-27 -11zM209 783q-15 0 -26.5 11t-11.5 27q1 15 12 26t26 11q16 0 27 -11t11 -26q0 -16 -11 -27t-27 -11zM101 0v710h50v-710h-50z" />
    <glyph glyph-name="Eth" unicode="&#xd0;" horiz-adv-x="688" 
d="M312 710q151 0 234.5 -96t83.5 -258q0 -163 -83.5 -259.5t-234.5 -96.5h-204v341h-84v44h84v325h204zM312 44q127 0 197 84.5t70 227.5q0 142 -70 226t-197 84h-154v-281h201v-44h-201v-297h154z" />
    <glyph glyph-name="Ntilde" unicode="&#xd1;" horiz-adv-x="703" 
d="M298 822q-35 0 -35 -48h-37q0 89 68 89q24 0 60 -23.5t50 -23.5q35 0 35 48h37q0 -89 -69 -89q-24 0 -59.5 23.5t-49.5 23.5zM552 710h50v-710h-55l-396 625v-625h-50v710h56l395 -626v626z" />
    <glyph glyph-name="Ograve" unicode="&#xd2;" horiz-adv-x="737" 
d="M427 755l-162 91l24 39l156 -99zM368 -10q-140 0 -226 100.5t-86 265.5q0 164 86 264t227 100q140 0 225.5 -100t85.5 -264q0 -165 -85.5 -265.5t-226.5 -100.5zM368 34q117 0 188.5 88.5t71.5 233.5q0 144 -71 232t-188 88t-189 -88t-72 -232q0 -145 71.5 -233.5
t188.5 -88.5z" />
    <glyph glyph-name="Oacute" unicode="&#xd3;" horiz-adv-x="737" 
d="M307 754l-18 31l156 99l24 -39zM368 -10q-140 0 -226 100.5t-86 265.5q0 164 86 264t227 100q140 0 225.5 -100t85.5 -264q0 -165 -85.5 -265.5t-226.5 -100.5zM368 34q117 0 188.5 88.5t71.5 233.5q0 144 -71 232t-188 88t-189 -88t-72 -232q0 -145 71.5 -233.5
t188.5 -88.5z" />
    <glyph glyph-name="Ocircumflex" unicode="&#xd4;" horiz-adv-x="737" 
d="M238 760l-25 25l144 102h24l144 -102l-24 -25l-132 80zM368 -10q-140 0 -226 100.5t-86 265.5q0 164 86 264t227 100q140 0 225.5 -100t85.5 -264q0 -165 -85.5 -265.5t-226.5 -100.5zM368 34q117 0 188.5 88.5t71.5 233.5q0 144 -71 232t-188 88t-189 -88t-72 -232
q0 -145 71.5 -233.5t188.5 -88.5z" />
    <glyph glyph-name="Otilde" unicode="&#xd5;" horiz-adv-x="737" 
d="M243 774q0 89 68 89q24 0 60 -23.5t50 -23.5q35 0 35 48h37q0 -89 -69 -89q-24 0 -59.5 23.5t-49.5 23.5q-35 0 -35 -48h-37zM368 -10q-140 0 -226 100.5t-86 265.5q0 164 86 264t227 100q140 0 225.5 -100t85.5 -264q0 -165 -85.5 -265.5t-226.5 -100.5zM368 34
q117 0 188.5 88.5t71.5 233.5q0 144 -71 232t-188 88t-189 -88t-72 -232q0 -145 71.5 -233.5t188.5 -88.5z" />
    <glyph glyph-name="Odieresis" unicode="&#xd6;" horiz-adv-x="737" 
d="M286 783q-15 0 -26.5 11t-11.5 27q0 15 11.5 26t26.5 11q16 0 26.5 -11t11.5 -26q0 -16 -11 -27t-27 -11zM451 783q-15 0 -26.5 11t-11.5 27q1 15 12 26t26 11q16 0 27 -11t11 -26q0 -16 -11 -27t-27 -11zM368 -10q-140 0 -226 100.5t-86 265.5q0 164 86 264t227 100
q140 0 225.5 -100t85.5 -264q0 -165 -85.5 -265.5t-226.5 -100.5zM368 34q117 0 188.5 88.5t71.5 233.5q0 144 -71 232t-188 88t-189 -88t-72 -232q0 -145 71.5 -233.5t188.5 -88.5z" />
    <glyph glyph-name="multiply" unicode="&#xd7;" 
d="M521 428l-189 -189l189 -189l-32 -32l-189 190l-189 -190l-32 32l190 189l-190 189l32 32l189 -189l189 189z" />
    <glyph glyph-name="Oslash" unicode="&#xd8;" horiz-adv-x="737" 
d="M582 633q98 -101 98 -277q0 -165 -85.5 -265.5t-226.5 -100.5q-105 0 -180 57l-44 -65l-37 25l47 70q-98 101 -98 279q0 164 86 264t227 100q105 0 180 -57l44 66l37 -25zM108 356q0 -149 74 -237l340 504q-64 53 -153 53q-117 0 -189 -88t-72 -232zM368 34
q117 0 188.5 88.5t71.5 233.5q0 147 -74 235l-339 -504q64 -53 153 -53z" />
    <glyph glyph-name="Ugrave" unicode="&#xd9;" horiz-adv-x="687" 
d="M402 755l-162 91l24 39l156 -99zM344 -10q-122 0 -186.5 64.5t-64.5 213.5v442h50v-442q0 -125 52 -179.5t149 -54.5t148.5 54.5t51.5 179.5v442h50v-442q0 -149 -64 -213.5t-186 -64.5z" />
    <glyph glyph-name="Uacute" unicode="&#xda;" horiz-adv-x="687" 
d="M282 754l-18 31l156 99l24 -39zM344 -10q-122 0 -186.5 64.5t-64.5 213.5v442h50v-442q0 -125 52 -179.5t149 -54.5t148.5 54.5t51.5 179.5v442h50v-442q0 -149 -64 -213.5t-186 -64.5z" />
    <glyph glyph-name="Ucircumflex" unicode="&#xdb;" horiz-adv-x="687" 
d="M213 760l-25 25l144 102h24l144 -102l-24 -25l-132 80zM344 -10q-122 0 -186.5 64.5t-64.5 213.5v442h50v-442q0 -125 52 -179.5t149 -54.5t148.5 54.5t51.5 179.5v442h50v-442q0 -149 -64 -213.5t-186 -64.5z" />
    <glyph glyph-name="Udieresis" unicode="&#xdc;" horiz-adv-x="687" 
d="M261 783q-15 0 -26.5 11t-11.5 27q0 15 11.5 26t26.5 11t26 -11t12 -26q0 -16 -11 -27t-27 -11zM426 783q-15 0 -26.5 11t-11.5 27q1 15 12 26t26 11q16 0 27 -11t11 -26q0 -16 -11 -27t-27 -11zM344 -10q-122 0 -186.5 64.5t-64.5 213.5v442h50v-442q0 -125 52 -179.5
t149 -54.5t148.5 54.5t51.5 179.5v442h50v-442q0 -149 -64 -213.5t-186 -64.5z" />
    <glyph glyph-name="Yacute" unicode="&#xdd;" horiz-adv-x="604" 
d="M397 845l-162 -91l-18 31l156 99zM574 710v-6l-246 -420v-284h-51v284l-247 420v6h55l217 -377l217 377h55z" />
    <glyph glyph-name="Thorn" unicode="&#xde;" horiz-adv-x="595" 
d="M328 573q97 0 156.5 -60t59.5 -158t-59.5 -158t-156.5 -60h-177v-137h-50v710h50v-137h177zM321 180q78 0 125 48t47 127t-47 127t-125 48h-170v-350h170z" />
    <glyph glyph-name="germandbls" unicode="&#xdf;" horiz-adv-x="567" 
d="M383 -10q-70 0 -136 34l8 45q59 -39 127 -39q47 0 73 28.5t26 68.5q0 37 -21 69t-51.5 53.5t-61 40.5t-51.5 39.5t-21 41.5q0 25 26 59t52 73t26 77q0 42 -33 70t-80 28q-59 0 -94.5 -43.5t-35.5 -127.5v-507h-49v522q0 91 50 144.5t131 53.5q68 0 115 -39.5t47 -95.5
q0 -35 -16 -69.5t-36 -56.5t-36 -45.5t-16 -37.5q0 -12 21 -28.5t51.5 -36.5t61 -44t51.5 -60t21 -77q0 -60 -42 -100t-107 -40z" />
    <glyph glyph-name="agrave" unicode="&#xe0;" horiz-adv-x="515" 
d="M347 580l-23 -27l-167 136l31 33zM245 489q92 0 141 -55.5t49 -151.5v-282h-41l-8 74q-34 -39 -87.5 -61.5t-98.5 -22.5q-69 0 -114.5 40t-45.5 103q0 67 53.5 106.5t146.5 39.5q74 0 145 -22v27q0 76 -37 119.5t-110 43.5q-38 0 -80.5 -13.5t-71.5 -36.5l-7 41
q30 23 75.5 37t90.5 14zM209 32q42 0 93.5 23.5t82.5 61.5v97q-58 23 -145 23q-70 0 -109.5 -28.5t-39.5 -76.5q0 -44 33 -72t85 -28z" />
    <glyph glyph-name="aacute" unicode="&#xe1;" horiz-adv-x="515" 
d="M347 689l-167 -136l-23 27l159 142zM245 489q92 0 141 -55.5t49 -151.5v-282h-41l-8 74q-34 -39 -87.5 -61.5t-98.5 -22.5q-69 0 -114.5 40t-45.5 103q0 67 53.5 106.5t146.5 39.5q74 0 145 -22v27q0 76 -37 119.5t-110 43.5q-38 0 -80.5 -13.5t-71.5 -36.5l-7 41
q30 23 75.5 37t90.5 14zM209 32q42 0 93.5 23.5t82.5 61.5v97q-58 23 -145 23q-70 0 -109.5 -28.5t-39.5 -76.5q0 -44 33 -72t85 -28z" />
    <glyph glyph-name="acircumflex" unicode="&#xe2;" horiz-adv-x="515" 
d="M251 675l-131 -125l-25 25l144 151h24l144 -151l-24 -25zM245 489q92 0 141 -55.5t49 -151.5v-282h-41l-8 74q-34 -39 -87.5 -61.5t-98.5 -22.5q-69 0 -114.5 40t-45.5 103q0 67 53.5 106.5t146.5 39.5q74 0 145 -22v27q0 76 -37 119.5t-110 43.5q-38 0 -80.5 -13.5
t-71.5 -36.5l-7 41q30 23 75.5 37t90.5 14zM209 32q42 0 93.5 23.5t82.5 61.5v97q-58 23 -145 23q-70 0 -109.5 -28.5t-39.5 -76.5q0 -44 33 -72t85 -28z" />
    <glyph glyph-name="atilde" unicode="&#xe3;" horiz-adv-x="515" 
d="M198 631q-35 0 -35 -48h-37q0 89 68 89q24 0 60 -23.5t50 -23.5q35 0 35 48h37q0 -89 -69 -89q-24 0 -59.5 23.5t-49.5 23.5zM245 489q92 0 141 -55.5t49 -151.5v-282h-41l-8 74q-34 -39 -87.5 -61.5t-98.5 -22.5q-69 0 -114.5 40t-45.5 103q0 67 53.5 106.5t146.5 39.5
q74 0 145 -22v27q0 76 -37 119.5t-110 43.5q-38 0 -80.5 -13.5t-71.5 -36.5l-7 41q30 23 75.5 37t90.5 14zM209 32q42 0 93.5 23.5t82.5 61.5v97q-58 23 -145 23q-70 0 -109.5 -28.5t-39.5 -76.5q0 -44 33 -72t85 -28z" />
    <glyph glyph-name="adieresis" unicode="&#xe4;" horiz-adv-x="515" 
d="M169 587q-15 0 -26.5 11t-11.5 27q0 14 11.5 25t26.5 11q16 0 27 -11t11 -25q0 -16 -11 -27t-27 -11zM334 587q-15 0 -26.5 11t-11.5 27q1 14 12 25t26 11q16 0 27 -11t11 -25q0 -16 -11 -27t-27 -11zM245 489q92 0 141 -55.5t49 -151.5v-282h-41l-8 74
q-34 -39 -87.5 -61.5t-98.5 -22.5q-69 0 -114.5 40t-45.5 103q0 67 53.5 106.5t146.5 39.5q74 0 145 -22v27q0 76 -37 119.5t-110 43.5q-38 0 -80.5 -13.5t-71.5 -36.5l-7 41q30 23 75.5 37t90.5 14zM209 32q42 0 93.5 23.5t82.5 61.5v97q-58 23 -145 23q-70 0 -109.5 -28.5
t-39.5 -76.5q0 -44 33 -72t85 -28z" />
    <glyph glyph-name="aring" unicode="&#xe5;" horiz-adv-x="515" 
d="M252 547q-39 0 -66.5 25.5t-27.5 64.5q0 37 27.5 64t66.5 27q38 0 65.5 -27t27.5 -64q0 -39 -27 -64.5t-66 -25.5zM252 696q-25 0 -43 -17t-18 -42q0 -26 17.5 -42t43.5 -16q24 0 42 17t18 41t-18 41.5t-42 17.5zM245 489q92 0 141 -55.5t49 -151.5v-282h-41l-8 74
q-34 -39 -87.5 -61.5t-98.5 -22.5q-69 0 -114.5 40t-45.5 103q0 67 53.5 106.5t146.5 39.5q74 0 145 -22v27q0 76 -37 119.5t-110 43.5q-38 0 -80.5 -13.5t-71.5 -36.5l-7 41q30 23 75.5 37t90.5 14zM209 32q42 0 93.5 23.5t82.5 61.5v97q-58 23 -145 23q-70 0 -109.5 -28.5
t-39.5 -76.5q0 -44 33 -72t85 -28z" />
    <glyph glyph-name="ae" unicode="&#xe6;" horiz-adv-x="837" 
d="M789 244h-354v-4q0 -99 50 -153.5t137 -54.5q82 0 131 31l7 -40q-59 -33 -143 -33q-145 0 -202 118q-81 -118 -209 -118q-69 0 -117.5 40.5t-48.5 102.5q0 67 53.5 106.5t146.5 39.5q68 0 145 -22v27q0 76 -37 119.5t-110 43.5q-38 0 -80.5 -13.5t-71.5 -36.5l-7 41
q30 23 75.5 37t90.5 14q129 0 172 -106q55 106 186 106q93 0 143.5 -62.5t50.5 -166.5zM602 447q-70 0 -112 -41.5t-52 -119.5h308q-5 77 -41.5 119t-102.5 42zM211 32q57 0 108.5 35t80.5 82q-8 26 -11 64q-59 24 -149 24q-70 0 -109.5 -28.5t-39.5 -76.5q0 -44 33.5 -72
t86.5 -28z" />
    <glyph glyph-name="ccedilla" unicode="&#xe7;" horiz-adv-x="456" 
d="M245 -49q67 -24 67 -72q0 -34 -26 -53t-65 -19q-40 0 -68 14l16 34q25 -10 48 -10q47 0 47 34q0 13 -8.5 22.5t-19 14.5t-32.5 13l-3 16l32 48q-85 13 -133.5 79t-48.5 167q0 113 59 181.5t155 68.5q45 0 87 -16.5t66 -42.5l-25 -33q-20 22 -55.5 36t-72.5 14
q-75 0 -119 -57t-44 -151t46 -150.5t128 -56.5q80 0 136 40l8 -41q-66 -41 -148 -41h-1z" />
    <glyph glyph-name="egrave" unicode="&#xe8;" horiz-adv-x="505" 
d="M358 580l-23 -27l-167 136l31 33zM456 244h-354v-4q0 -99 50 -153.5t137 -54.5q82 0 131 31l8 -40q-61 -33 -144 -33q-107 0 -169.5 67t-62.5 185q0 112 57 179.5t162 67.5q92 0 143 -62.5t51 -166.5zM269 447q-69 0 -111.5 -41.5t-52.5 -119.5h308q-10 161 -144 161z
" />
    <glyph glyph-name="eacute" unicode="&#xe9;" horiz-adv-x="505" 
d="M358 689l-167 -136l-23 27l159 142zM456 244h-354v-4q0 -99 50 -153.5t137 -54.5q82 0 131 31l8 -40q-61 -33 -144 -33q-107 0 -169.5 67t-62.5 185q0 112 57 179.5t162 67.5q92 0 143 -62.5t51 -166.5zM269 447q-69 0 -111.5 -41.5t-52.5 -119.5h308q-10 161 -144 161z
" />
    <glyph glyph-name="ecircumflex" unicode="&#xea;" horiz-adv-x="505" 
d="M262 675l-131 -125l-25 25l144 151h24l144 -151l-24 -25zM456 244h-354v-4q0 -99 50 -153.5t137 -54.5q82 0 131 31l8 -40q-61 -33 -144 -33q-107 0 -169.5 67t-62.5 185q0 112 57 179.5t162 67.5q92 0 143 -62.5t51 -166.5zM269 447q-69 0 -111.5 -41.5t-52.5 -119.5
h308q-10 161 -144 161z" />
    <glyph glyph-name="edieresis" unicode="&#xeb;" horiz-adv-x="505" 
d="M180 587q-15 0 -26.5 11t-11.5 27q0 14 11.5 25t26.5 11q16 0 27 -11t11 -25q0 -16 -11 -27t-27 -11zM345 587q-15 0 -26.5 11t-11.5 27q1 14 12 25t26 11q16 0 27 -11t11 -25q0 -16 -11 -27t-27 -11zM456 244h-354v-4q0 -99 50 -153.5t137 -54.5q82 0 131 31l8 -40
q-61 -33 -144 -33q-107 0 -169.5 67t-62.5 185q0 112 57 179.5t162 67.5q92 0 143 -62.5t51 -166.5zM269 447q-69 0 -111.5 -41.5t-52.5 -119.5h308q-10 161 -144 161z" />
    <glyph glyph-name="igrave" unicode="&#xec;" horiz-adv-x="230" 
d="M49 722l159 -142l-23 -27l-167 136zM90 0v473l50 12v-485h-50z" />
    <glyph glyph-name="iacute" unicode="&#xed;" horiz-adv-x="230" 
d="M41 553l-23 27l159 142l31 -33zM90 0v473l50 12v-485h-50z" />
    <glyph glyph-name="icircumflex" unicode="&#xee;" horiz-adv-x="230" 
d="M-18 550l-25 25l144 151h24l144 -151l-24 -25l-132 125zM90 0v473l50 12v-485h-50z" />
    <glyph glyph-name="idieresis" unicode="&#xef;" horiz-adv-x="230" 
d="M31 587q-15 0 -26.5 11t-11.5 27q0 14 11.5 25t26.5 11q16 0 27 -11t11 -25q0 -16 -11 -27t-27 -11zM196 587q-15 0 -26.5 11t-11.5 27q1 14 12 25t26 11q16 0 27 -11t11 -25q0 -16 -11 -27t-27 -11zM90 0v473l50 12v-485h-50z" />
    <glyph glyph-name="eth" unicode="&#xf0;" horiz-adv-x="556" 
d="M503 242v-3q0 -112 -62.5 -180.5t-163.5 -68.5q-102 0 -164 68.5t-62 180.5q0 113 62 181.5t164 68.5q75 0 131 -43q-41 83 -116 151l-120 -44l-12 32l102 37q-40 32 -91 61l26 37q61 -32 116 -79l129 47l12 -32l-113 -41q162 -158 162 -373zM277 32q79 0 127 54t48 144
q0 98 -49 157.5t-128 59.5q-81 0 -127 -62t-46 -155q2 -89 51.5 -143.5t123.5 -54.5z" />
    <glyph glyph-name="ntilde" unicode="&#xf1;" horiz-adv-x="552" 
d="M226 631q-35 0 -35 -48h-37q0 89 68 89q24 0 60 -23.5t50 -23.5q35 0 35 48h37q0 -89 -69 -89q-24 0 -59.5 23.5t-49.5 23.5zM323 489q71 0 109 -47t38 -140v-302h-49v294q0 153 -108 153q-86 0 -177 -84v-363h-49v481l40 8l8 -83q94 83 188 83z" />
    <glyph glyph-name="ograve" unicode="&#xf2;" horiz-adv-x="554" 
d="M214 722l159 -142l-23 -27l-167 136zM277 -10q-101 0 -163.5 68.5t-62.5 180.5q0 113 62 181.5t163 68.5q102 0 164.5 -69t62.5 -181t-62.5 -180.5t-163.5 -68.5zM277 32q79 0 127 57.5t48 149.5q0 94 -48.5 151t-127.5 57q-78 0 -126 -57t-48 -151q0 -91 49.5 -149
t125.5 -58z" />
    <glyph glyph-name="oacute" unicode="&#xf3;" horiz-adv-x="554" 
d="M206 553l-23 27l159 142l31 -33zM277 -10q-101 0 -163.5 68.5t-62.5 180.5q0 113 62 181.5t163 68.5q102 0 164.5 -69t62.5 -181t-62.5 -180.5t-163.5 -68.5zM277 32q79 0 127 57.5t48 149.5q0 94 -48.5 151t-127.5 57q-78 0 -126 -57t-48 -151q0 -91 49.5 -149
t125.5 -58z" />
    <glyph glyph-name="ocircumflex" unicode="&#xf4;" horiz-adv-x="554" 
d="M146 550l-25 25l144 151h24l144 -151l-24 -25l-132 125zM277 -10q-101 0 -163.5 68.5t-62.5 180.5q0 113 62 181.5t163 68.5q102 0 164.5 -69t62.5 -181t-62.5 -180.5t-163.5 -68.5zM277 32q79 0 127 57.5t48 149.5q0 94 -48.5 151t-127.5 57q-78 0 -126 -57t-48 -151
q0 -91 49.5 -149t125.5 -58z" />
    <glyph glyph-name="otilde" unicode="&#xf5;" horiz-adv-x="554" 
d="M152 583q0 89 68 89q24 0 60 -23.5t50 -23.5q35 0 35 48h37q0 -89 -69 -89q-24 0 -59.5 23.5t-49.5 23.5q-35 0 -35 -48h-37zM277 -10q-101 0 -163.5 68.5t-62.5 180.5q0 113 62 181.5t163 68.5q102 0 164.5 -69t62.5 -181t-62.5 -180.5t-163.5 -68.5zM277 32
q79 0 127 57.5t48 149.5q0 94 -48.5 151t-127.5 57q-78 0 -126 -57t-48 -151q0 -91 49.5 -149t125.5 -58z" />
    <glyph glyph-name="odieresis" unicode="&#xf6;" horiz-adv-x="554" 
d="M195 587q-15 0 -26.5 11t-11.5 27q0 14 11.5 25t26.5 11q16 0 27 -11t11 -25q0 -16 -11 -27t-27 -11zM360 587q-15 0 -26.5 11t-11.5 27q1 14 12 25t26 11q16 0 27 -11t11 -25q0 -16 -11 -27t-27 -11zM277 -10q-101 0 -163.5 68.5t-62.5 180.5q0 113 62 181.5t163 68.5
q102 0 164.5 -69t62.5 -181t-62.5 -180.5t-163.5 -68.5zM277 32q79 0 127 57.5t48 149.5q0 94 -48.5 151t-127.5 57q-78 0 -126 -57t-48 -151q0 -91 49.5 -149t125.5 -58z" />
    <glyph glyph-name="divide" unicode="&#xf7;" 
d="M299 353q-16 0 -28 12t-12 29q0 16 12 28t28 12q17 0 29.5 -12t12.5 -28q0 -17 -12.5 -29t-29.5 -12zM61 198v44h478v-44h-478zM299 -10q-16 0 -28 12t-12 30q0 16 12 27.5t28 11.5q17 0 29.5 -11.5t12.5 -27.5q0 -18 -12.5 -30t-29.5 -12z" />
    <glyph glyph-name="oslash" unicode="&#xf8;" horiz-adv-x="554" 
d="M431 430q72 -70 72 -191q0 -112 -62.5 -180.5t-163.5 -68.5q-68 0 -121 33l-32 -48l-34 24l33 49q-72 70 -72 191q0 113 62 181.5t163 68.5q69 0 122 -33l32 48l34 -24zM102 239q0 -92 49 -149l221 328q-40 29 -96 29q-78 0 -126 -57t-48 -151zM277 32q79 0 127 57.5
t48 149.5q0 93 -48 151l-222 -328q43 -30 95 -30z" />
    <glyph glyph-name="ugrave" unicode="&#xf9;" horiz-adv-x="552" 
d="M368 580l-23 -27l-167 136l31 33zM415 479h50v-479h-42l-8 73q-91 -83 -187 -83q-71 0 -109 47t-38 140v302h50v-294q0 -153 108 -153q86 0 176 84v363z" />
    <glyph glyph-name="uacute" unicode="&#xfa;" horiz-adv-x="552" 
d="M368 689l-167 -136l-23 27l159 142zM415 479h50v-479h-42l-8 73q-91 -83 -187 -83q-71 0 -109 47t-38 140v302h50v-294q0 -153 108 -153q86 0 176 84v363z" />
    <glyph glyph-name="ucircumflex" unicode="&#xfb;" horiz-adv-x="552" 
d="M273 675l-131 -125l-25 25l144 151h24l144 -151l-24 -25zM415 479h50v-479h-42l-8 73q-91 -83 -187 -83q-71 0 -109 47t-38 140v302h50v-294q0 -153 108 -153q86 0 176 84v363z" />
    <glyph glyph-name="udieresis" unicode="&#xfc;" horiz-adv-x="552" 
d="M190 587q-15 0 -26.5 11t-11.5 27q0 14 11.5 25t26.5 11q16 0 27 -11t11 -25q0 -16 -11 -27t-27 -11zM355 587q-15 0 -26.5 11t-11.5 27q1 14 12 25t26 11q16 0 27 -11t11 -25q0 -16 -11 -27t-27 -11zM415 479h50v-479h-42l-8 73q-91 -83 -187 -83q-71 0 -109 47t-38 140
v302h50v-294q0 -153 108 -153q86 0 176 84v363z" />
    <glyph glyph-name="yacute" unicode="&#xfd;" horiz-adv-x="484" 
d="M339 689l-167 -136l-23 27l159 142zM411 479h51v-6l-277 -687h-51l83 208l-194 479v6h52l168 -424z" />
    <glyph glyph-name="thorn" unicode="&#xfe;" horiz-adv-x="548" 
d="M310 489q88 0 137 -66.5t49 -179.5q-2 -122 -66 -187.5t-175 -65.5q-45 0 -119 18v-222h-49v918l49 12v-297q77 70 174 70zM248 32q91 0 144 57t53 160q0 89 -38.5 143.5t-108.5 54.5q-85 0 -162 -75v-319q61 -21 112 -21z" />
    <glyph glyph-name="ydieresis" unicode="&#xff;" horiz-adv-x="484" 
d="M161 587q-15 0 -26.5 11t-11.5 27q0 14 11.5 25t26.5 11q16 0 27 -11t11 -25q0 -16 -11 -27t-27 -11zM326 587q-15 0 -26.5 11t-11.5 27q1 14 12 25t26 11q16 0 27 -11t11 -25q0 -16 -11 -27t-27 -11zM411 479h51v-6l-277 -687h-51l83 208l-194 479v6h52l168 -424z" />
    <glyph glyph-name="OE" unicode="&#x152;" horiz-adv-x="915" 
d="M498 44h380v-44h-480q-161 0 -251 90.5t-90 265.5q0 174 89.5 264t251.5 90h476l-7 -44h-369v-292h280v-43h-280v-287zM398 44h50v621l-50 1q-136 1 -211.5 -78t-75.5 -232q0 -152 75.5 -231t211.5 -81z" />
    <glyph glyph-name="oe" unicode="&#x153;" horiz-adv-x="894" 
d="M846 244h-351v-4q0 -100 48.5 -154t135.5 -54q82 0 131 31l7 -40q-59 -33 -143 -33q-148 0 -203 125q-25 -59 -75 -92t-119 -33q-102 0 -164 68.5t-62 180.5q0 113 62 181.5t164 68.5q67 0 117 -32t76 -89q49 121 190 121q93 0 143.5 -62.5t50.5 -166.5zM277 32
q78 0 124.5 57t46.5 150q0 94 -47 151t-125 57q-79 0 -126.5 -57t-47.5 -151q0 -91 49.5 -149t125.5 -58zM659 447q-70 0 -111 -41.5t-50 -119.5h305q-5 77 -41.5 119t-102.5 42z" />
    <glyph glyph-name="Ydieresis" unicode="&#x178;" horiz-adv-x="604" 
d="M213 783q-15 0 -26.5 11t-11.5 27q0 15 11.5 26t26.5 11t26 -11t12 -26q0 -16 -11 -27t-27 -11zM378 783q-15 0 -26.5 11t-11.5 27q1 15 12 26t26 11q16 0 27 -11t11 -26q0 -16 -11 -27t-27 -11zM574 710v-6l-246 -420v-284h-51v284l-247 420v6h55l217 -377l217 377h55z
" />
    <glyph glyph-name="tilde" unicode="&#x2dc;" horiz-adv-x="470" 
d="M110 583q0 89 68 89q24 0 60 -23.5t50 -23.5q35 0 35 48h37q0 -89 -69 -89q-24 0 -59.5 23.5t-49.5 23.5q-35 0 -35 -48h-37z" />
    <glyph glyph-name="endash" unicode="&#x2013;" horiz-adv-x="627" 
d="M71 264h484v-41h-484v41z" />
    <glyph glyph-name="emdash" unicode="&#x2014;" horiz-adv-x="804" 
d="M71 264h661v-41h-661v41z" />
    <glyph glyph-name="quoteleft" unicode="&#x2018;" horiz-adv-x="209" 
d="M98 543q17 1 30 -10.5t13 -30.5q0 -17 -11.5 -29t-28.5 -12q-19 0 -31.5 14.5t-12.5 45.5q0 44 19 103.5t63 99.5l21 -23q-31 -31 -46.5 -74.5t-15.5 -83.5z" />
    <glyph glyph-name="quoteright" unicode="&#x2019;" horiz-adv-x="207" 
d="M113 726q19 0 31.5 -14.5t12.5 -45.5q0 -44 -19 -103.5t-63 -99.5l-21 23q31 31 46.5 74.5t15.5 83.5q-17 -1 -30 10.5t-13 30.5q0 17 11.5 29t28.5 12z" />
    <glyph glyph-name="quotedblleft" unicode="&#x201c;" horiz-adv-x="340" 
d="M160 701q-31 -31 -46.5 -74.5t-15.5 -83.5q17 1 30 -10.5t13 -30.5q0 -17 -11.5 -29t-28.5 -12q-19 0 -31.5 14.5t-12.5 45.5q0 44 19 103.5t63 99.5zM229 543q17 1 30 -10.5t13 -30.5q0 -17 -11.5 -29t-28.5 -12q-19 0 -31.5 14.5t-12.5 45.5q0 44 19 103.5t63 99.5
l21 -23q-31 -31 -46.5 -74.5t-15.5 -83.5z" />
    <glyph glyph-name="quotedblright" unicode="&#x201d;" horiz-adv-x="346" 
d="M113 726q19 0 31.5 -14.5t12.5 -45.5q0 -44 -19 -103.5t-63 -99.5l-21 23q31 31 46.5 74.5t15.5 83.5q-17 -1 -30 10.5t-13 30.5q0 17 11.5 29t28.5 12zM252 726q19 0 31.5 -14.5t12.5 -45.5q0 -44 -19 -103.5t-63 -99.5l-21 23q31 31 46.5 74.5t15.5 83.5
q-17 -1 -30 10.5t-13 30.5q0 17 11.5 29t28.5 12z" />
    <glyph glyph-name="quotedblbase" unicode="&#x201e;" horiz-adv-x="353" 
d="M105 91q19 0 31.5 -14.5t12.5 -45.5q0 -44 -19 -103.5t-63 -99.5l-21 23q31 31 46.5 74.5t15.5 83.5q-17 -1 -30 10.5t-13 30.5q0 17 11.5 29t28.5 12zM244 91q19 0 31.5 -14.5t12.5 -45.5q0 -44 -19 -103.5t-63 -99.5l-21 23q31 31 46.5 74.5t15.5 83.5q-17 -1 -30 10.5
t-13 30.5q0 17 11.5 29t28.5 12z" />
    <glyph glyph-name="bullet" unicode="&#x2022;" horiz-adv-x="403" 
d="M201 121q-49 0 -83 34.5t-34 83.5t34 83t83 34t83.5 -34t34.5 -83t-34.5 -83.5t-83.5 -34.5z" />
    <glyph glyph-name="ellipsis" unicode="&#x2026;" horiz-adv-x="848" 
d="M103 -10q-17 0 -29 12t-12 30q0 16 12 27.5t29 11.5t29 -11.5t12 -27.5q0 -18 -12 -30t-29 -12zM424 -10q-17 0 -29 12t-12 30q0 16 12 27.5t29 11.5t29 -11.5t12 -27.5q0 -18 -12 -30t-29 -12zM744 -10q-16 0 -28 12t-12 30q0 16 12 27.5t28 11.5q17 0 29.5 -11.5
t12.5 -27.5q0 -18 -12.5 -30t-29.5 -12z" />
    <glyph glyph-name="guilsinglleft" unicode="&#x2039;" horiz-adv-x="288" 
d="M92 246l144 -177l-46 -13l-143 173v33l141 173l47 -13z" />
    <glyph glyph-name="guilsinglright" unicode="&#x203a;" horiz-adv-x="288" 
d="M100 435l142 -173v-33l-143 -173l-47 13l145 177l-144 176z" />
    <glyph glyph-name="Euro" unicode="&#x20ac;" horiz-adv-x="630" 
d="M578 61l16 -37q-60 -34 -162 -34q-123 0 -202.5 76t-97.5 206h-101l16 35h81q-1 12 -1 37q0 27 1 40h-93l16 35h81q19 129 97.5 204t198.5 75q95 0 158 -28l-18 -37q-52 23 -137 23q-98 0 -164 -63.5t-83 -173.5h282l-16 -35h-270q-2 -26 -2 -40q0 -25 1 -37h246l-15 -35
h-227q17 -111 84.5 -175.5t169.5 -64.5q85 0 141 29z" />
    <glyph glyph-name="trademark" unicode="&#x2122;" horiz-adv-x="798" 
d="M32 674v36h258v-36h-107v-355h-44v355h-107zM717 319h-43l-12 324l-117 -321h-42l-117 323l-12 -326h-43l15 391h56l123 -339l122 339h55z" />
    <glyph glyph-name="Q.alt" horiz-adv-x="737" 
d="M438 -3q31 -62 92.5 -96.5t136.5 -36.5v-3l-8 -37q-96 0 -167 46.5t-99 120.5q-8 -1 -25 -1q-140 0 -226 100.5t-86 265.5q0 164 86 264t227 100q140 0 225.5 -100t85.5 -264q0 -143 -65 -239t-177 -120zM108 356q0 -145 71.5 -233.5t188.5 -88.5t188.5 88.5t71.5 233.5
q0 144 -71 232t-188 88t-189 -88t-72 -232z" />
    <glyph glyph-name="A.c2sc" horiz-adv-x="559" 
d="M481 0l-66 171h-271l-66 -171h-52l225 573h57l225 -573h-52zM161 214h237l-118 307z" />
    <glyph glyph-name="Aacute.c2sc" horiz-adv-x="559" 
d="M373 682l-140 -73l-17 27l133 83zM481 0l-66 171h-271l-66 -171h-52l225 573h57l225 -573h-52zM161 214h237l-118 307z" />
    <glyph glyph-name="Acircumflex.c2sc" horiz-adv-x="559" 
d="M277 678l-111 -64l-23 22l123 85h23l122 -85l-23 -22zM481 0l-66 171h-271l-66 -171h-52l225 573h57l225 -573h-52zM161 214h237l-118 307z" />
    <glyph glyph-name="Adieresis.c2sc" horiz-adv-x="559" 
d="M205 631q-14 0 -24 10t-10 24q1 14 11 23.5t23 9.5q15 0 24.5 -9.5t10.5 -23.5q0 -14 -10 -24t-25 -10zM349 631q-14 0 -24.5 10t-10.5 24q0 13 10.5 23t24.5 10t24 -10t10 -23q0 -14 -10 -24t-24 -10zM481 0l-66 171h-271l-66 -171h-52l225 573h57l225 -573h-52z
M161 214h237l-118 307z" />
    <glyph glyph-name="Agrave.c2sc" horiz-adv-x="559" 
d="M321 637l-17 -27l-140 73l25 37zM481 0l-66 171h-271l-66 -171h-52l225 573h57l225 -573h-52zM161 214h237l-118 307z" />
    <glyph glyph-name="Aring.c2sc" horiz-adv-x="559" 
d="M277 607q-33 0 -56.5 21t-23.5 53q0 30 23.5 51.5t56.5 21.5q34 0 57 -21.5t23 -51.5q0 -32 -23 -53t-57 -21zM277 727q-20 0 -35 -13.5t-15 -32.5q0 -21 14.5 -34t35.5 -13t35.5 13.5t14.5 33.5q0 19 -14.5 32.5t-35.5 13.5zM481 0l-66 171h-271l-66 -171h-52l225 573
h57l225 -573h-52zM161 214h237l-118 307z" />
    <glyph glyph-name="Atilde.c2sc" horiz-adv-x="559" 
d="M231 662q-29 0 -29 -37h-33q0 75 59 75q21 0 51 -18.5t42 -18.5q30 0 30 38h34q0 -75 -60 -75q-21 0 -51.5 18t-42.5 18zM481 0l-66 171h-271l-66 -171h-52l225 573h57l225 -573h-52zM161 214h237l-118 307z" />
    <glyph glyph-name="AE.c2sc" horiz-adv-x="738" 
d="M417 43h281v-43h-330v171h-223l-75 -171h-52l254 573h422l-7 -43h-270v-224h196v-42h-196v-221zM162 212h206v319h-66z" />
    <glyph glyph-name="B.c2sc" horiz-adv-x="548" 
d="M377 299q57 -10 88.5 -50t31.5 -92q0 -63 -48.5 -110t-138.5 -47h-218v573h194q86 0 132 -44.5t46 -103.5q0 -40 -22 -76t-65 -50zM413 420q0 46 -33.5 78t-102.5 32h-134v-214h158q58 0 85 31t27 73zM302 43q71 0 107.5 35t36.5 83q0 49 -34 82t-107 33h-162v-233h159z
" />
    <glyph glyph-name="C.c2sc" horiz-adv-x="528" 
d="M339 -8q-129 0 -207.5 81t-78.5 214t78.5 213.5t207.5 80.5q95 0 153 -26l-7 -41q-58 25 -139 25q-108 0 -175 -69.5t-67 -182.5q0 -114 67 -183t175 -69q85 0 139 24l8 -40q-61 -27 -154 -27z" />
    <glyph glyph-name="Ccedilla.c2sc" horiz-adv-x="528" 
d="M322 -39q56 -21 56 -59q0 -28 -22 -43.5t-56 -15.5q-33 0 -59 12l14 29q19 -8 40 -8q39 0 39 27q0 14 -11.5 22t-38.5 17l-3 12l27 39q-116 11 -185.5 90.5t-69.5 203.5q0 133 78.5 213.5t207.5 80.5q95 0 153 -26l-7 -41q-58 25 -139 25q-108 0 -175 -69.5t-67 -182.5
q0 -114 67 -183t175 -69q85 0 139 24l8 -40q-55 -25 -150 -27z" />
    <glyph glyph-name="D.c2sc" horiz-adv-x="593" 
d="M267 573q129 0 200.5 -77t71.5 -208q0 -132 -71.5 -210t-200.5 -78h-175v573h175zM267 43q106 0 163.5 66t57.5 179q0 111 -58 176.5t-163 65.5h-125v-487h125z" />
    <glyph glyph-name="Eth.c2sc" 
d="M273 573q129 0 200.5 -77t71.5 -208q0 -132 -71.5 -210t-200.5 -78h-174v272h-71v42h71v259h174zM273 43q106 0 163.5 66t57.5 179q0 111 -58 176.5t-163 65.5h-125v-216h166v-42h-166v-229h125z" />
    <glyph glyph-name="E.c2sc" horiz-adv-x="507" 
d="M142 43h325v-43h-375v573h372l-7 -43h-315v-224h241v-42h-241v-221z" />
    <glyph glyph-name="Eacute.c2sc" horiz-adv-x="507" 
d="M340 682l-140 -73l-16 27l132 83zM142 43h325v-43h-375v573h372l-7 -43h-315v-224h241v-42h-241v-221z" />
    <glyph glyph-name="Ecircumflex.c2sc" horiz-adv-x="507" 
d="M271 678l-112 -64l-22 22l122 85h23l122 -85l-23 -22zM142 43h325v-43h-375v573h372l-7 -43h-315v-224h241v-42h-241v-221z" />
    <glyph glyph-name="Edieresis.c2sc" horiz-adv-x="507" 
d="M196 631q-13 0 -23.5 10t-10.5 24q0 13 10.5 23t23.5 10q15 0 25 -9.5t10 -23.5t-10 -24t-25 -10zM340 631q-14 0 -24.5 10t-10.5 24q1 13 11 23t24 10t24.5 -10t10.5 -23q0 -14 -10.5 -24t-24.5 -10zM142 43h325v-43h-375v573h372l-7 -43h-315v-224h241v-42h-241v-221z
" />
    <glyph glyph-name="Egrave.c2sc" horiz-adv-x="507" 
d="M320 637l-17 -27l-140 73l24 37zM142 43h325v-43h-375v573h372l-7 -43h-315v-224h241v-42h-241v-221z" />
    <glyph glyph-name="F.c2sc" horiz-adv-x="479" 
d="M453 530h-311v-229h243v-43h-243v-258h-50v573h368z" />
    <glyph glyph-name="G.c2sc" horiz-adv-x="587" 
d="M315 279h216v-233q-29 -24 -85.5 -39t-120.5 -15q-122 0 -196.5 82t-74.5 216q0 131 75.5 211t199.5 80q94 0 168 -37l-8 -45q-67 39 -157 39q-102 0 -164 -68t-62 -180q0 -114 62 -184t163 -70q89 0 149 29v170l-172 4z" />
    <glyph glyph-name="H.c2sc" horiz-adv-x="612" 
d="M470 573h49v-573h-49v271h-328v-271h-50v573h50v-257h328v257z" />
    <glyph glyph-name="I.c2sc" horiz-adv-x="234" 
d="M92 0v573h50v-573h-50z" />
    <glyph glyph-name="Iacute.c2sc" horiz-adv-x="233" 
d="M78 609l-17 27l133 83l24 -37zM92 0v573h49v-573h-49z" />
    <glyph glyph-name="Icircumflex.c2sc" horiz-adv-x="233" 
d="M6 614l-23 22l122 85h23l122 -85l-22 -22l-111 64zM92 0v573h49v-573h-49z" />
    <glyph glyph-name="Idieresis.c2sc" horiz-adv-x="234" 
d="M46 631q-14 0 -24.5 10t-10.5 24q1 14 11 23.5t24 9.5t24 -9.5t10 -23.5t-10 -24t-24 -10zM188 631q-14 0 -24 10t-9 24q0 13 9.5 23t23.5 10t24.5 -10t10.5 -23q0 -14 -10.5 -24t-24.5 -10zM92 0v573h50v-573h-50z" />
    <glyph glyph-name="Igrave.c2sc" horiz-adv-x="233" 
d="M152 610l-140 73l25 37l132 -83zM92 0v573h49v-573h-49z" />
    <glyph glyph-name="J.c2sc" horiz-adv-x="251" 
d="M-40 -178l-8 42q69 0 113.5 49.5t44.5 124.5v535h49v-535q0 -95 -55 -155.5t-144 -60.5z" />
    <glyph glyph-name="K.c2sc" horiz-adv-x="513" 
d="M277 352l224 -346v-6h-54l-201 314l-104 -126v-188h-50v573h50v-314l257 314h56v-5z" />
    <glyph glyph-name="L.c2sc" horiz-adv-x="461" 
d="M142 43h301v-43h-351v573h50v-530z" />
    <glyph glyph-name="M.c2sc" horiz-adv-x="733" 
d="M652 0h-49l-19 506l-190 -501h-54l-190 501l-19 -506h-50l24 573h71l191 -508l191 508h71z" />
    <glyph glyph-name="N.c2sc" horiz-adv-x="613" 
d="M472 573h49v-573h-54l-325 488v-488h-50v573h54l326 -492v492z" />
    <glyph glyph-name="Ntilde.c2sc" horiz-adv-x="613" 
d="M261 662q-29 0 -29 -37h-34q0 75 60 75q20 0 50 -18.5t42 -18.5q31 0 31 38h33q0 -75 -60 -75q-21 0 -51.5 18t-41.5 18zM472 573h49v-573h-54l-325 488v-488h-50v573h54l326 -492v492z" />
    <glyph glyph-name="O.c2sc" horiz-adv-x="640" 
d="M320 -8q-120 0 -193 81t-73 215q0 132 73 212.5t194 80.5q119 0 191.5 -80.5t72.5 -212.5q0 -134 -72.5 -215t-192.5 -81zM320 35q99 0 156.5 68.5t57.5 184.5q0 114 -57.5 182t-155.5 68q-99 0 -157 -68t-58 -182q0 -116 57.5 -184.5t156.5 -68.5z" />
    <glyph glyph-name="Oacute.c2sc" horiz-adv-x="640" 
d="M267 609l-16 27l132 83l24 -37zM320 -8q-120 0 -193 81t-73 215q0 132 73 212.5t194 80.5q119 0 191.5 -80.5t72.5 -212.5q0 -134 -72.5 -215t-192.5 -81zM320 35q99 0 156.5 68.5t57.5 184.5q0 114 -57.5 182t-155.5 68q-99 0 -157 -68t-58 -182q0 -116 57.5 -184.5
t156.5 -68.5z" />
    <glyph glyph-name="Ocircumflex.c2sc" horiz-adv-x="640" 
d="M210 614l-23 22l122 85h23l122 -85l-23 -22l-110 64zM320 -8q-120 0 -193 81t-73 215q0 132 73 212.5t194 80.5q119 0 191.5 -80.5t72.5 -212.5q0 -134 -72.5 -215t-192.5 -81zM320 35q99 0 156.5 68.5t57.5 184.5q0 114 -57.5 182t-155.5 68q-99 0 -157 -68t-58 -182
q0 -116 57.5 -184.5t156.5 -68.5z" />
    <glyph glyph-name="Odieresis.c2sc" horiz-adv-x="640" 
d="M248 631q-13 0 -23.5 10t-9.5 24q0 13 10 23t23 10q14 0 24.5 -10t10.5 -23q0 -14 -10.5 -24t-24.5 -10zM392 631q-14 0 -24.5 10t-10.5 24q1 14 11 23.5t24 9.5t24 -9.5t10 -23.5t-10 -24t-24 -10zM320 -8q-120 0 -193 81t-73 215q0 132 73 212.5t194 80.5
q119 0 191.5 -80.5t72.5 -212.5q0 -134 -72.5 -215t-192.5 -81zM320 35q99 0 156.5 68.5t57.5 184.5q0 114 -57.5 182t-155.5 68q-99 0 -157 -68t-58 -182q0 -116 57.5 -184.5t156.5 -68.5z" />
    <glyph glyph-name="Ograve.c2sc" horiz-adv-x="640" 
d="M371 610l-140 73l24 37l132 -83zM320 -8q-120 0 -193 81t-73 215q0 132 73 212.5t194 80.5q119 0 191.5 -80.5t72.5 -212.5q0 -134 -72.5 -215t-192.5 -81zM320 35q99 0 156.5 68.5t57.5 184.5q0 114 -57.5 182t-155.5 68q-99 0 -157 -68t-58 -182q0 -116 57.5 -184.5
t156.5 -68.5z" />
    <glyph glyph-name="Oslash.c2sc" horiz-adv-x="640" 
d="M504 509q81 -79 81 -221q0 -134 -72.5 -215t-192.5 -81q-87 0 -151 44l-38 -53l-33 24l39 56q-83 81 -83 225q0 132 73 212.5t194 80.5q85 0 151 -44l38 54l35 -24zM106 288q0 -118 59 -186l280 397q-51 39 -124 39q-99 0 -157 -68t-58 -182zM320 35q99 0 156.5 68.5
t57.5 184.5t-58 182l-281 -396q53 -39 125 -39z" />
    <glyph glyph-name="Otilde.c2sc" horiz-adv-x="640" 
d="M212 625q0 75 60 75q20 0 50 -18.5t43 -18.5q30 0 30 38h33q0 -75 -60 -75q-21 0 -51.5 18t-41.5 18q-29 0 -29 -37h-34zM320 -8q-120 0 -193 81t-73 215q0 132 73 212.5t194 80.5q119 0 191.5 -80.5t72.5 -212.5q0 -134 -72.5 -215t-192.5 -81zM320 35q99 0 156.5 68.5
t57.5 184.5q0 114 -57.5 182t-155.5 68q-99 0 -157 -68t-58 -182q0 -116 57.5 -184.5t156.5 -68.5z" />
    <glyph glyph-name="OE.c2sc" horiz-adv-x="795" 
d="M436 43h319v-43h-409q-138 0 -214.5 73t-76.5 215q0 141 76.5 213t214.5 72h405l-7 -43h-308v-224h234v-42h-234v-221zM346 43l41 -1v489h-41q-113 1 -176 -61t-63 -182q0 -121 63 -182.5t176 -62.5z" />
    <glyph glyph-name="P.c2sc" horiz-adv-x="513" 
d="M290 573q84 0 135 -48.5t51 -128.5t-51 -129t-135 -49h-148v-218h-50v573h198zM283 261q64 0 103 37t39 98t-39 97.5t-103 36.5h-141v-269h141z" />
    <glyph glyph-name="Thorn.c2sc" horiz-adv-x="522" 
d="M289 464q83 0 133.5 -49t50.5 -128q0 -80 -50.5 -128.5t-133.5 -48.5h-147v-110h-50v573h50v-109h147zM281 152q64 0 103 37t39 98q0 60 -39 97t-103 37h-139v-269h139z" />
    <glyph glyph-name="Q.c2sc" horiz-adv-x="640" 
d="M585 288q0 -103 -44 -175.5t-121 -102.5l73 -127l-44 -21l-69 136q-28 -6 -60 -6q-120 0 -193 81t-73 215q0 132 73 212.5t194 80.5q119 0 191.5 -80.5t72.5 -212.5zM328 35q96 2 152.5 71t54.5 177q-2 117 -62.5 186.5t-160.5 69.5q-93 0 -151 -69.5t-56 -177.5
q2 -118 64.5 -188.5t158.5 -68.5z" />
    <glyph glyph-name="R.c2sc" horiz-adv-x="532" 
d="M287 237l205 -231v-6h-58l-206 237h-86v-237h-50v573h198q84 0 135 -46t51 -122q0 -77 -52 -123t-137 -45zM142 530v-252h141q64 0 103 34.5t39 91.5t-39 91.5t-103 34.5h-141z" />
    <glyph glyph-name="S.c2sc" horiz-adv-x="479" 
d="M232 -8q-112 0 -187 46l8 46q69 -49 178 -49q82 0 119.5 29t37.5 75q0 41 -26.5 66.5t-77.5 44.5l-105 41q-65 25 -94 57.5t-29 83.5q0 72 53.5 110.5t148.5 38.5q80 0 150 -29l-8 -42q-66 29 -138 29t-113.5 -28t-41.5 -79q0 -62 92 -96l105 -41q134 -50 135 -153
q-1 -69 -50.5 -109.5t-156.5 -40.5z" />
    <glyph glyph-name="T.c2sc" horiz-adv-x="500" 
d="M482 573v-43h-208v-530h-48v530h-208v43h464z" />
    <glyph glyph-name="U.c2sc" 
d="M300 -8q-104 0 -159.5 52t-55.5 172v357h50v-356q0 -182 165 -182q80 0 122.5 42.5t42.5 139.5v356h49v-357q0 -121 -54.5 -172.5t-159.5 -51.5z" />
    <glyph glyph-name="Uacute.c2sc" 
d="M248 609l-17 27l132 83l25 -37zM300 -8q-104 0 -159.5 52t-55.5 172v357h50v-356q0 -182 165 -182q80 0 122.5 42.5t42.5 139.5v356h49v-357q0 -121 -54.5 -172.5t-159.5 -51.5z" />
    <glyph glyph-name="Ucircumflex.c2sc" 
d="M189 614l-23 22l122 85h24l122 -85l-23 -22l-111 64zM300 -8q-104 0 -159.5 52t-55.5 172v357h50v-356q0 -182 165 -182q80 0 122.5 42.5t42.5 139.5v356h49v-357q0 -121 -54.5 -172.5t-159.5 -51.5z" />
    <glyph glyph-name="Udieresis.c2sc" 
d="M229 631q-14 0 -24.5 10t-10.5 24q1 13 11 23t24 10q13 0 23 -9.5t11 -23.5q0 -14 -10 -24t-24 -10zM372 631q-14 0 -24.5 10t-10.5 24q1 14 11 23.5t24 9.5t24 -9.5t10 -23.5t-10 -24t-24 -10zM300 -8q-104 0 -159.5 52t-55.5 172v357h50v-356q0 -182 165 -182
q80 0 122.5 42.5t42.5 139.5v356h49v-357q0 -121 -54.5 -172.5t-159.5 -51.5z" />
    <glyph glyph-name="Ugrave.c2sc" 
d="M350 610l-140 73l25 37l132 -83zM300 -8q-104 0 -159.5 52t-55.5 172v357h50v-356q0 -182 165 -182q80 0 122.5 42.5t42.5 139.5v356h49v-357q0 -121 -54.5 -172.5t-159.5 -51.5z" />
    <glyph glyph-name="V.c2sc" horiz-adv-x="544" 
d="M464 573h53l-216 -573h-58l-215 573h53l192 -521z" />
    <glyph glyph-name="W.c2sc" horiz-adv-x="737" 
d="M652 573h49l-147 -573h-59l-126 478l-127 -478h-59l-147 573h49l129 -513l134 508h41l134 -509z" />
    <glyph glyph-name="X.c2sc" horiz-adv-x="483" 
d="M271 302l190 -296v-6h-55l-165 259l-164 -259h-55v6l190 296l-171 266v5h54l146 -229l146 229h54v-5z" />
    <glyph glyph-name="Y.c2sc" horiz-adv-x="533" 
d="M500 573v-5l-209 -340v-228h-50v228l-209 340v5h55l179 -297l179 297h55z" />
    <glyph glyph-name="Yacute.c2sc" horiz-adv-x="533" 
d="M349 682l-140 -73l-17 27l132 83zM500 573v-5l-209 -340v-228h-50v228l-209 340v5h55l179 -297l179 297h55z" />
    <glyph glyph-name="Ydieresis.c2sc" horiz-adv-x="533" 
d="M190 631q-14 0 -24.5 10t-10.5 24q1 13 11 23t24 10t24 -9.5t10 -23.5t-10 -24t-24 -10zM332 631q-14 0 -24 10t-10 24q0 13 10 23t24 10t24.5 -10t10.5 -23q0 -14 -10.5 -24t-24.5 -10zM500 573v-5l-209 -340v-228h-50v228l-209 340v5h55l179 -297l179 297h55z" />
    <glyph glyph-name="Z.c2sc" horiz-adv-x="487" 
d="M96 43h353v-43h-411l-6 35l348 495h-332v43h393l6 -34z" />
    <glyph glyph-name="Q.alt.c2sc" horiz-adv-x="640" 
d="M383 -1q54 -100 190 -102v-3l-8 -37q-82 0 -142 37.5t-85 97.5h-18q-120 0 -193 81t-73 215q0 132 73 212.5t194 80.5q119 0 191.5 -80.5t72.5 -212.5q0 -114 -54.5 -191.5t-147.5 -97.5zM105 292q2 -118 64.5 -188.5t158.5 -68.5t152.5 71t54.5 177q-2 117 -62.5 186.5
t-160.5 69.5q-93 0 -151 -69.5t-56 -177.5z" />
    <glyph glyph-name="dotlessi" horiz-adv-x="230" 
d="M90 0v473l50 12v-485h-50z" />
    <glyph glyph-name="i.loclTRK" horiz-adv-x="230" 
d="M113 587q-15 0 -26.5 11t-11.5 27q0 14 11.5 25t26.5 11q16 0 27 -11t11 -25q0 -16 -11 -27t-27 -11zM90 0v473l50 12v-485h-50z" />
    <glyph glyph-name="ldot" horiz-adv-x="283" 
d="M90 0v704l50 12v-716h-50zM256 263q-16 0 -28 12t-12 30q0 16 12 27.5t28 11.5q17 0 29.5 -11.5t12.5 -27.5q0 -18 -12.5 -30t-29.5 -12z" />
    <glyph glyph-name="a.alt" horiz-adv-x="545" 
d="M409 479h50v-479h-42l-6 60q-75 -70 -165 -70q-85 0 -139.5 70t-54.5 180q0 109 54.5 179t139.5 70q86 0 163 -68v58zM258 32q79 0 151 74v267q-74 74 -156 74q-66 0 -108 -58t-42 -149q0 -92 43.5 -150t111.5 -58z" />
    <glyph glyph-name="aacute.alt" horiz-adv-x="545" 
d="M352 689l-167 -136l-23 27l159 142zM409 479h50v-479h-42l-6 60q-75 -70 -165 -70q-85 0 -139.5 70t-54.5 180q0 109 54.5 179t139.5 70q86 0 163 -68v58zM258 32q79 0 151 74v267q-74 74 -156 74q-66 0 -108 -58t-42 -149q0 -92 43.5 -150t111.5 -58z" />
    <glyph glyph-name="acircumflex.alt" horiz-adv-x="545" 
d="M257 675l-131 -125l-25 25l144 151h24l144 -151l-24 -25zM409 479h50v-479h-42l-6 60q-75 -70 -165 -70q-85 0 -139.5 70t-54.5 180q0 109 54.5 179t139.5 70q86 0 163 -68v58zM258 32q79 0 151 74v267q-74 74 -156 74q-66 0 -108 -58t-42 -149q0 -92 43.5 -150
t111.5 -58z" />
    <glyph glyph-name="adieresis.alt" horiz-adv-x="545" 
d="M174 587q-15 0 -26.5 11t-11.5 27q0 14 11.5 25t26.5 11q16 0 27 -11t11 -25q0 -16 -11 -27t-27 -11zM339 587q-15 0 -26.5 11t-11.5 27q1 14 12 25t26 11q16 0 27 -11t11 -25q0 -16 -11 -27t-27 -11zM409 479h50v-479h-42l-6 60q-75 -70 -165 -70q-85 0 -139.5 70
t-54.5 180q0 109 54.5 179t139.5 70q86 0 163 -68v58zM258 32q79 0 151 74v267q-74 74 -156 74q-66 0 -108 -58t-42 -149q0 -92 43.5 -150t111.5 -58z" />
    <glyph glyph-name="agrave.alt" horiz-adv-x="545" 
d="M352 580l-23 -27l-167 136l31 33zM409 479h50v-479h-42l-6 60q-75 -70 -165 -70q-85 0 -139.5 70t-54.5 180q0 109 54.5 179t139.5 70q86 0 163 -68v58zM258 32q79 0 151 74v267q-74 74 -156 74q-66 0 -108 -58t-42 -149q0 -92 43.5 -150t111.5 -58z" />
    <glyph glyph-name="aring.alt" horiz-adv-x="545" 
d="M265 547q-39 0 -66.5 25.5t-27.5 64.5q0 37 27.5 64t66.5 27q38 0 65.5 -27t27.5 -64q0 -39 -27 -64.5t-66 -25.5zM265 696q-25 0 -43 -17t-18 -42q0 -26 17.5 -42t43.5 -16q24 0 42 17t18 41t-18 41.5t-42 17.5zM409 479h50v-479h-42l-6 60q-75 -70 -165 -70
q-85 0 -139.5 70t-54.5 180q0 109 54.5 179t139.5 70q86 0 163 -68v58zM258 32q79 0 151 74v267q-74 74 -156 74q-66 0 -108 -58t-42 -149q0 -92 43.5 -150t111.5 -58z" />
    <glyph glyph-name="atilde.alt" horiz-adv-x="545" 
d="M203 631q-35 0 -35 -48h-37q0 89 68 89q24 0 60 -23.5t50 -23.5q35 0 35 48h37q0 -89 -69 -89q-24 0 -59.5 23.5t-49.5 23.5zM409 479h50v-479h-42l-6 60q-75 -70 -165 -70q-85 0 -139.5 70t-54.5 180q0 109 54.5 179t139.5 70q86 0 163 -68v58zM258 32q79 0 151 74v267
q-74 74 -156 74q-66 0 -108 -58t-42 -149q0 -92 43.5 -150t111.5 -58z" />
    <glyph glyph-name="g.alt" horiz-adv-x="545" 
d="M409 479h50v-479q-1 -106 -54.5 -165t-162.5 -59q-79 0 -149 30l11 41q63 -29 138 -29q167 0 167 181v59q-77 -68 -163 -68q-85 0 -139.5 70t-54.5 180q0 109 54.5 179t139.5 70q86 0 163 -68v58zM258 32q79 0 151 74v267q-74 74 -156 74q-66 0 -108 -58t-42 -149
q0 -92 43.5 -150t111.5 -58z" />
    <glyph glyph-name="l.alt" horiz-adv-x="240" 
d="M162 -10q-74 0 -74 91v623l50 12v-638q0 -46 37 -46q17 0 27 3l7 -41q-25 -4 -47 -4z" />
    <glyph glyph-name="ldot.alt" horiz-adv-x="283" 
d="M162 -10q-74 0 -74 91v623l50 12v-638q0 -46 37 -46q17 0 27 3l7 -41q-25 -4 -47 -4zM254 263q-17 0 -29 12.5t-12 29.5q0 16 12.5 28t28.5 12q17 0 29.5 -12t12.5 -28q0 -17 -12.5 -29.5t-29.5 -12.5z" />
    <glyph glyph-name="y.alt" horiz-adv-x="484" 
d="M411 479h51v-6l-231 -579q-48 -118 -147 -118q-42 0 -74 14l9 40q31 -12 61 -12q66 2 103 90l34 86l-194 479v6h52l169 -426z" />
    <glyph glyph-name="yacute.alt" horiz-adv-x="484" 
d="M339 689l-167 -136l-23 27l159 142zM411 479h51v-6l-231 -579q-48 -118 -147 -118q-42 0 -74 14l9 40q31 -12 61 -12q66 2 103 90l34 86l-194 479v6h52l169 -426z" />
    <glyph glyph-name="ydieresis.alt" horiz-adv-x="484" 
d="M161 587q-15 0 -26.5 11t-11.5 27q0 14 11.5 25t26.5 11q16 0 27 -11t11 -25q0 -16 -11 -27t-27 -11zM326 587q-15 0 -26.5 11t-11.5 27q1 14 12 25t26 11q16 0 27 -11t11 -25q0 -16 -11 -27t-27 -11zM411 479h51v-6l-231 -579q-48 -118 -147 -118q-42 0 -74 14l9 40
q31 -12 61 -12q66 2 103 90l34 86l-194 479v6h52l169 -426z" />
    <glyph glyph-name="germandbls.calt" horiz-adv-x="665" 
d="M397 405q110 -19 165.5 -79.5t55.5 -140.5q0 -83 -58.5 -139t-164.5 -56q-86 0 -159 35l8 47q60 -38 148 -38q87 0 131 44.5t44 103.5q0 70 -53 121.5t-172 69.5l-2 32l161 232q-64 39 -158 39q-97 0 -151.5 -56t-54.5 -162v-458h-50v471q0 117 70 183t185 66
q64 0 125 -17t96 -44v-17z" />
    <glyph glyph-name="f_b" horiz-adv-x="870" 
d="M104 550q0 83 43 126.5t127 43.5q35 0 68 -10l-7 -41q-28 9 -60 9q-121 0 -121 -132v-67h140v-41h-140v-438h-50v438h-82v41h82v71zM631 489q89 0 138 -66.5t49 -179.5q-2 -121 -66.5 -187t-174.5 -66q-60 0 -169 32v682l50 12v-296q76 69 173 69zM569 32q92 0 145 57
t53 160q0 89 -38.5 143.5t-108.5 54.5q-85 0 -162 -75v-319q63 -21 111 -21z" />
    <glyph glyph-name="f_f_b" horiz-adv-x="1170" 
d="M405 550q0 83 42.5 126.5t126.5 43.5q43 0 74 -11l-7 -40q-28 9 -65 9q-59 0 -90.5 -31t-31.5 -101v-67h156v-41h-156v-438h-49v438h-251v-438h-50v438h-82v41h82v71q0 83 43 126.5t127 43.5q53 0 84 -17l-7 -40q-36 15 -76 15q-121 0 -121 -132v-67h251v71zM932 489
q88 0 137 -66.5t49 -179.5q-2 -122 -66 -187.5t-174 -65.5q-62 0 -169 32v682l50 12v-296q78 69 173 69zM870 32q91 0 144 57t53 160q0 89 -38 143.5t-108 54.5q-86 0 -162 -74v-320q61 -21 111 -21z" />
    <glyph glyph-name="f_f_h" horiz-adv-x="1174" 
d="M405 550q0 83 42.5 126.5t126.5 43.5q45 0 76 -11l-7 -41q-29 10 -67 10q-122 0 -122 -132v-67h156v-41h-156v-438h-49v438h-251v-438h-50v438h-82v41h82v71q0 83 43 126.5t127 43.5q53 0 84 -17l-7 -40q-36 15 -76 15q-121 0 -121 -132v-67h251v71zM945 489
q71 0 109.5 -47t38.5 -140v-302h-50v294q0 153 -108 153q-86 0 -176 -84v-363h-50v704l50 12v-309q93 82 186 82z" />
    <glyph glyph-name="f_f_j" horiz-adv-x="828" 
d="M662 479l84 6v-496q0 -98 -47 -155.5t-127 -57.5l-8 43q65 0 98.5 45t34.5 125v449h-238v-438h-49v438h-251v-438h-50v438h-82v41h82v71q0 83 43 126.5t127 43.5q53 0 84 -17l-7 -40q-36 15 -76 15q-121 0 -121 -132v-67h251v71q0 83 44.5 126.5t131.5 43.5q76 0 129 -24
l-7 -41q-52 23 -121 23q-128 0 -128 -135v-64h203z" />
    <glyph glyph-name="f_f_k" horiz-adv-x="1077" 
d="M405 550q0 83 42.5 126.5t126.5 43.5q45 0 76 -11l-7 -41q-29 10 -67 10q-59 0 -90.5 -31t-31.5 -101v-67h156v-41h-156v-438h-49v438h-251v-438h-50v438h-82v41h82v71q0 83 43 126.5t127 43.5q53 0 84 -17l-7 -40q-36 15 -76 15q-121 0 -121 -132v-67h251v71zM813 267
l265 -261v-6h-58l-261 253v-253h-50v704l50 12v-441l210 204h56v-6z" />
    <glyph glyph-name="f_h" horiz-adv-x="873" 
d="M104 550q0 83 43 126.5t127 43.5q35 0 68 -10l-7 -41q-28 9 -60 9q-121 0 -121 -132v-67h140v-41h-140v-438h-50v438h-82v41h82v71zM645 489q71 0 109 -47t38 -140v-302h-50v294q0 153 -108 153q-86 0 -176 -84v-363h-50v704l50 12v-310q93 83 187 83z" />
    <glyph glyph-name="f_j" horiz-adv-x="540" 
d="M357 479l84 6v-496q0 -98 -47.5 -155.5t-127.5 -57.5l-8 43q66 0 99.5 45t33.5 125v449h-237v-438h-50v438h-82v41h82v71q0 83 45 126.5t131 43.5q76 0 129 -24l-7 -41q-52 23 -121 23q-127 0 -127 -135v-64h203z" />
    <glyph glyph-name="f_k" horiz-adv-x="777" 
d="M104 550q0 83 43 126.5t127 43.5q35 0 68 -10l-7 -41q-28 9 -60 9q-121 0 -121 -132v-67h140v-41h-140v-438h-50v438h-82v41h82v71zM513 266l265 -260v-6h-58l-262 254v-254h-50v704l50 12v-442l210 205h57v-6z" />
    <glyph glyph-name="f_f_l.alt" horiz-adv-x="860" 
d="M405 550q0 83 42.5 126.5t126.5 43.5q45 0 76 -11l-7 -41q-29 10 -67 10q-59 0 -90.5 -31t-31.5 -101v-67h156v-41h-156v-438h-49v438h-251v-438h-50v438h-82v41h82v71q0 83 43 126.5t127 43.5q53 0 84 -17l-7 -40q-36 15 -76 15q-121 0 -121 -132v-67h251v71zM822 35
l7 -41q-25 -4 -47 -4q-74 0 -74 91v623l49 12v-638q0 -46 38 -46q17 0 27 3z" />
    <glyph glyph-name="fl.alt" horiz-adv-x="560" 
d="M104 550q0 83 43 126.5t127 43.5q35 0 68 -10l-7 -41q-28 9 -60 9q-121 0 -121 -132v-67h140v-41h-140v-438h-50v438h-82v41h82v71zM522 35l7 -41q-25 -4 -47 -4q-74 0 -74 91v623l50 12v-638q0 -46 37 -46q18 0 27 3z" />
    <glyph glyph-name="n_d.alt" horiz-adv-x="849" 
d="M711 848l45 8v-536h-38l-5 44q-59 -52 -124 -52q-64 0 -105 50t-41 132q0 92 47.5 142.5t129.5 50.5q50 0 91 -24v185zM130 590v-270h-45v361l38 6l6 -62q71 62 139 62q113 0 113 -144v-223h-46v219q0 110 -79 110q-62 0 -126 -59zM602 350q58 0 109 53v223
q-42 23 -86 23q-62 0 -99 -40.5t-37 -114.5q0 -65 32 -104.5t81 -39.5zM85 216v35h671v-35h-671z" />
    <glyph glyph-name="r_d.alt" horiz-adv-x="720" 
d="M582 849l45 8v-537h-39l-4 46q-58 -54 -124 -54q-64 0 -105 50.5t-41 132.5q0 92 47.5 142.5t129.5 50.5q48 0 91 -24v185zM130 576v-256h-45v361l38 6l7 -74v-2q43 77 104 77q25 0 53 -16l-7 -42h-2q-18 13 -51 13q-55 0 -97 -67zM360 495q0 -65 32 -104.5t81 -39.5
q57 0 109 52v224q-42 23 -86 23q-62 0 -99 -41t-37 -114zM85 216v35h542v-35h-542z" />
    <glyph glyph-name="s_t.alt" horiz-adv-x="655" 
d="M422 430v222h-49v35h50l13 96h32v-96h106v-35h-106v-214q0 -80 53 -80q30 0 55 10l6 -36q-32 -12 -70 -12q-90 0 -90 110zM340 418q0 -48 -37.5 -73t-101.5 -25q-77 0 -125 31l6 34q51 -28 116 -28q96 0 96 60q0 21 -12.5 33.5t-41.5 22.5l-80 29q-77 27 -77 94
q0 47 35 72.5t97 25.5q60 0 104 -21l-6 -35q-40 20 -95 20q-42 0 -65.5 -16t-23.5 -45q0 -40 50 -58l80 -29q81 -28 81 -92zM80 216v35h499v-35h-499z" />
    <glyph glyph-name="t_h.alt" horiz-adv-x="695" 
d="M501 695q111 0 111 -144v-223h-44v219q0 110 -80 110q-61 0 -125 -59v-270h-45v528l45 8v-230q69 61 138 61zM110 430v222h-50v35h51l12 96h32v-96h107v-35h-107v-214q0 -80 53 -80q30 0 55 10l6 -36q-30 -12 -69 -12q-90 0 -90 110zM73 216v35h539v-35h-539z" />
    <glyph glyph-name="a.smcp" horiz-adv-x="559" 
d="M481 0l-66 171h-271l-66 -171h-52l225 573h57l225 -573h-52zM161 214h237l-118 307z" />
    <glyph glyph-name="aacute.smcp" horiz-adv-x="559" 
d="M373 682l-140 -73l-17 27l133 83zM481 0l-66 171h-271l-66 -171h-52l225 573h57l225 -573h-52zM161 214h237l-118 307z" />
    <glyph glyph-name="acircumflex.smcp" horiz-adv-x="559" 
d="M277 678l-111 -64l-23 22l123 85h23l122 -85l-23 -22zM481 0l-66 171h-271l-66 -171h-52l225 573h57l225 -573h-52zM161 214h237l-118 307z" />
    <glyph glyph-name="adieresis.smcp" horiz-adv-x="559" 
d="M205 631q-14 0 -24 10t-10 24q1 14 11 23.5t23 9.5q15 0 24.5 -9.5t10.5 -23.5q0 -14 -10 -24t-25 -10zM349 631q-14 0 -24.5 10t-10.5 24q0 13 10.5 23t24.5 10t24 -10t10 -23q0 -14 -10 -24t-24 -10zM481 0l-66 171h-271l-66 -171h-52l225 573h57l225 -573h-52z
M161 214h237l-118 307z" />
    <glyph glyph-name="agrave.smcp" horiz-adv-x="559" 
d="M321 637l-17 -27l-140 73l25 37zM481 0l-66 171h-271l-66 -171h-52l225 573h57l225 -573h-52zM161 214h237l-118 307z" />
    <glyph glyph-name="q.alt.smcp" horiz-adv-x="640" 
d="M383 -1q54 -100 190 -102v-3l-8 -37q-82 0 -142 37.5t-85 97.5h-18q-120 0 -193 81t-73 215q0 132 73 212.5t194 80.5q119 0 191.5 -80.5t72.5 -212.5q0 -114 -54.5 -191.5t-147.5 -97.5zM105 292q2 -118 64.5 -188.5t158.5 -68.5t152.5 71t54.5 177q-2 117 -62.5 186.5
t-160.5 69.5q-93 0 -151 -69.5t-56 -177.5z" />
    <glyph glyph-name="aring.smcp" horiz-adv-x="559" 
d="M277 607q-33 0 -56.5 21t-23.5 53q0 30 23.5 51.5t56.5 21.5q34 0 57 -21.5t23 -51.5q0 -32 -23 -53t-57 -21zM277 727q-20 0 -35 -13.5t-15 -32.5q0 -21 14.5 -34t35.5 -13t35.5 13.5t14.5 33.5q0 19 -14.5 32.5t-35.5 13.5zM481 0l-66 171h-271l-66 -171h-52l225 573
h57l225 -573h-52zM161 214h237l-118 307z" />
    <glyph glyph-name="atilde.smcp" horiz-adv-x="559" 
d="M231 662q-29 0 -29 -37h-33q0 75 59 75q21 0 51 -18.5t42 -18.5q30 0 30 38h34q0 -75 -60 -75q-21 0 -51.5 18t-42.5 18zM481 0l-66 171h-271l-66 -171h-52l225 573h57l225 -573h-52zM161 214h237l-118 307z" />
    <glyph glyph-name="ae.smcp" horiz-adv-x="738" 
d="M417 43h281v-43h-330v171h-223l-75 -171h-52l254 573h422l-7 -43h-270v-224h196v-42h-196v-221zM162 212h206v319h-66z" />
    <glyph glyph-name="b.smcp" horiz-adv-x="548" 
d="M377 299q57 -10 88.5 -50t31.5 -92q0 -63 -48.5 -110t-138.5 -47h-218v573h194q86 0 132 -44.5t46 -103.5q0 -40 -22 -76t-65 -50zM413 420q0 46 -33.5 78t-102.5 32h-134v-214h158q58 0 85 31t27 73zM302 43q71 0 107.5 35t36.5 83q0 49 -34 82t-107 33h-162v-233h159z
" />
    <glyph glyph-name="c.smcp" horiz-adv-x="528" 
d="M339 -8q-129 0 -207.5 81t-78.5 214t78.5 213.5t207.5 80.5q95 0 153 -26l-7 -41q-58 25 -139 25q-108 0 -175 -69.5t-67 -182.5q0 -114 67 -183t175 -69q85 0 139 24l8 -40q-61 -27 -154 -27z" />
    <glyph glyph-name="ccedilla.smcp" horiz-adv-x="528" 
d="M322 -39q56 -21 56 -59q0 -28 -22 -43.5t-56 -15.5q-33 0 -59 12l14 29q19 -8 40 -8q39 0 39 27q0 14 -11.5 22t-38.5 17l-3 12l27 39q-116 11 -185.5 90.5t-69.5 203.5q0 133 78.5 213.5t207.5 80.5q95 0 153 -26l-7 -41q-58 25 -139 25q-108 0 -175 -69.5t-67 -182.5
q0 -114 67 -183t175 -69q85 0 139 24l8 -40q-55 -25 -150 -27z" />
    <glyph glyph-name="d.smcp" horiz-adv-x="593" 
d="M267 573q129 0 200.5 -77t71.5 -208q0 -132 -71.5 -210t-200.5 -78h-175v573h175zM267 43q106 0 163.5 66t57.5 179q0 111 -58 176.5t-163 65.5h-125v-487h125z" />
    <glyph glyph-name="eth.smcp" 
d="M273 573q129 0 200.5 -77t71.5 -208q0 -132 -71.5 -210t-200.5 -78h-174v272h-71v42h71v259h174zM273 43q106 0 163.5 66t57.5 179q0 111 -58 176.5t-163 65.5h-125v-216h166v-42h-166v-229h125z" />
    <glyph glyph-name="e.smcp" horiz-adv-x="507" 
d="M142 43h325v-43h-375v573h372l-7 -43h-315v-224h241v-42h-241v-221z" />
    <glyph glyph-name="eacute.smcp" horiz-adv-x="507" 
d="M340 682l-140 -73l-16 27l132 83zM142 43h325v-43h-375v573h372l-7 -43h-315v-224h241v-42h-241v-221z" />
    <glyph glyph-name="ecircumflex.smcp" horiz-adv-x="507" 
d="M271 678l-112 -64l-22 22l122 85h23l122 -85l-23 -22zM142 43h325v-43h-375v573h372l-7 -43h-315v-224h241v-42h-241v-221z" />
    <glyph glyph-name="edieresis.smcp" horiz-adv-x="507" 
d="M196 631q-13 0 -23.5 10t-10.5 24q0 13 10.5 23t23.5 10q15 0 25 -9.5t10 -23.5t-10 -24t-25 -10zM340 631q-14 0 -24.5 10t-10.5 24q1 13 11 23t24 10t24.5 -10t10.5 -23q0 -14 -10.5 -24t-24.5 -10zM142 43h325v-43h-375v573h372l-7 -43h-315v-224h241v-42h-241v-221z
" />
    <glyph glyph-name="egrave.smcp" horiz-adv-x="507" 
d="M320 637l-17 -27l-140 73l24 37zM142 43h325v-43h-375v573h372l-7 -43h-315v-224h241v-42h-241v-221z" />
    <glyph glyph-name="f.smcp" horiz-adv-x="479" 
d="M453 530h-311v-229h243v-43h-243v-258h-50v573h368z" />
    <glyph glyph-name="f_b.smcp" horiz-adv-x="980" 
d="M92 0v573h368l-7 -43h-311v-229h243v-43h-243v-258h-50zM809 299q57 -10 88.5 -50t31.5 -92q0 -63 -48.5 -110t-138.5 -47h-218v573h194q86 0 132 -44.5t46 -103.5q0 -40 -22 -76t-65 -50zM845 420q0 46 -33.5 78t-102.5 32h-134v-214h158q58 0 85 31t27 73zM734 43
q71 0 107.5 35t36.5 83q0 49 -34 82t-107 33h-162v-233h159z" />
    <glyph glyph-name="f_f.smcp" horiz-adv-x="891" 
d="M92 0v573h368l-7 -43h-311v-229h243v-43h-243v-258h-50zM865 530h-311v-229h243v-43h-243v-258h-50v573h368z" />
    <glyph glyph-name="f_f_b.smcp" horiz-adv-x="1392" 
d="M92 0v573h368l-7 -43h-311v-229h243v-43h-243v-258h-50zM504 0v573h368l-7 -43h-311v-229h243v-43h-243v-258h-50zM1221 299q57 -10 88.5 -50t31.5 -92q0 -63 -48.5 -110t-138.5 -47h-218v573h194q86 0 132 -44.5t46 -103.5q0 -40 -22 -76t-65 -50zM1257 420
q0 46 -33.5 78t-102.5 32h-134v-214h158q58 0 85 31t27 73zM1146 43q71 0 107.5 35t36.5 83q0 49 -34 82t-107 33h-162v-233h159z" />
    <glyph glyph-name="f_f_h.smcp" horiz-adv-x="1455" 
d="M92 0v573h368l-7 -43h-311v-229h243v-43h-243v-258h-50zM504 0v573h368l-7 -43h-311v-229h243v-43h-243v-258h-50zM1313 573h49v-573h-49v271h-328v-271h-50v573h50v-257h328v257z" />
    <glyph glyph-name="f_f_i.smcp" horiz-adv-x="1070" 
d="M92 0v573h368l-7 -43h-311v-229h243v-43h-243v-258h-50zM504 0v573h368l-7 -43h-311v-229h243v-43h-243v-258h-50zM929 573h50v-573h-50v573z" />
    <glyph glyph-name="f_f_j.smcp" horiz-adv-x="1175" 
d="M92 0v573h368l-7 -43h-311v-229h243v-43h-243v-258h-50zM504 0v573h368l-7 -43h-311v-229h243v-43h-243v-258h-50zM1034 573h49v-535q0 -95 -55 -155.5t-144 -60.5l-8 42q69 0 113.5 49.5t44.5 124.5v535z" />
    <glyph glyph-name="f_f_k.smcp" horiz-adv-x="1357" 
d="M92 0v573h368l-7 -43h-311v-229h243v-43h-243v-258h-50zM504 0v573h368l-7 -43h-311v-229h243v-43h-243v-258h-50zM1122 352l224 -346v-6h-54l-201 314l-104 -126v-188h-50v573h50v-314l257 314h56v-5z" />
    <glyph glyph-name="f_f_l.smcp" horiz-adv-x="1300" 
d="M92 0v573h368l-7 -43h-311v-229h243v-43h-243v-258h-50zM504 0v573h368l-7 -43h-311v-229h243v-43h-243v-258h-50zM981 43h301v-43h-351v573h50v-530z" />
    <glyph glyph-name="f_h.smcp" horiz-adv-x="1043" 
d="M92 0v573h368l-7 -43h-311v-229h243v-43h-243v-258h-50zM901 573h49v-573h-49v271h-328v-271h-50v573h50v-257h328v257z" />
    <glyph glyph-name="f_j.smcp" horiz-adv-x="763" 
d="M92 0v573h368l-7 -43h-311v-229h243v-43h-243v-258h-50zM621 573h49v-535q0 -95 -55 -155.5t-144 -60.5l-8 42q69 0 113.5 49.5t44.5 124.5v535z" />
    <glyph glyph-name="f_k.smcp" horiz-adv-x="945" 
d="M92 0v573h368l-7 -43h-311v-229h243v-43h-243v-258h-50zM709 352l224 -346v-6h-54l-201 314l-104 -126v-188h-50v573h50v-314l257 314h56v-5z" />
    <glyph glyph-name="fi.smcp" horiz-adv-x="658" 
d="M92 0v573h368l-7 -43h-311v-229h243v-43h-243v-258h-50zM516 573h50v-573h-50v573z" />
    <glyph glyph-name="fl.smcp" horiz-adv-x="887" 
d="M92 0v573h368l-7 -43h-311v-229h243v-43h-243v-258h-50zM568 43h301v-43h-351v573h50v-530z" />
    <glyph glyph-name="g.smcp" horiz-adv-x="587" 
d="M315 279h216v-233q-29 -24 -85.5 -39t-120.5 -15q-122 0 -196.5 82t-74.5 216q0 131 75.5 211t199.5 80q94 0 168 -37l-8 -45q-67 39 -157 39q-102 0 -164 -68t-62 -180q0 -114 62 -184t163 -70q89 0 149 29v170l-172 4z" />
    <glyph glyph-name="h.smcp" horiz-adv-x="612" 
d="M470 573h49v-573h-49v271h-328v-271h-50v573h50v-257h328v257z" />
    <glyph glyph-name="i.smcp" horiz-adv-x="234" 
d="M92 0v573h50v-573h-50z" />
    <glyph glyph-name="iacute.smcp" horiz-adv-x="233" 
d="M78 609l-17 27l133 83l24 -37zM92 0v573h49v-573h-49z" />
    <glyph glyph-name="icircumflex.smcp" horiz-adv-x="233" 
d="M6 614l-23 22l122 85h23l122 -85l-22 -22l-111 64zM92 0v573h49v-573h-49z" />
    <glyph glyph-name="idieresis.smcp" horiz-adv-x="234" 
d="M46 631q-14 0 -24.5 10t-10.5 24q1 14 11 23.5t24 9.5t24 -9.5t10 -23.5t-10 -24t-24 -10zM188 631q-14 0 -24 10t-9 24q0 13 9.5 23t23.5 10t24.5 -10t10.5 -23q0 -14 -10.5 -24t-24.5 -10zM92 0v573h50v-573h-50z" />
    <glyph glyph-name="i.loclTRK.smcp" horiz-adv-x="234" 
d="M117 631q-14 0 -24.5 10t-10.5 24q1 13 11 23t24 10t24.5 -10t10.5 -23q0 -14 -10.5 -24t-24.5 -10zM92 0v573h50v-573h-50z" />
    <glyph glyph-name="igrave.smcp" horiz-adv-x="233" 
d="M152 610l-140 73l25 37l132 -83zM92 0v573h49v-573h-49z" />
    <glyph glyph-name="j.smcp" horiz-adv-x="251" 
d="M-40 -178l-8 42q69 0 113.5 49.5t44.5 124.5v535h49v-535q0 -95 -55 -155.5t-144 -60.5z" />
    <glyph glyph-name="k.smcp" horiz-adv-x="513" 
d="M277 352l224 -346v-6h-54l-201 314l-104 -126v-188h-50v573h50v-314l257 314h56v-5z" />
    <glyph glyph-name="l.smcp" horiz-adv-x="461" 
d="M142 43h301v-43h-351v573h50v-530z" />
    <glyph glyph-name="m.smcp" horiz-adv-x="733" 
d="M652 0h-49l-19 506l-190 -501h-54l-190 501l-19 -506h-50l24 573h71l191 -508l191 508h71z" />
    <glyph glyph-name="n.smcp" horiz-adv-x="613" 
d="M472 573h49v-573h-54l-325 488v-488h-50v573h54l326 -492v492z" />
    <glyph glyph-name="ntilde.smcp" horiz-adv-x="613" 
d="M261 662q-29 0 -29 -37h-34q0 75 60 75q20 0 50 -18.5t42 -18.5q31 0 31 38h33q0 -75 -60 -75q-21 0 -51.5 18t-41.5 18zM472 573h49v-573h-54l-325 488v-488h-50v573h54l326 -492v492z" />
    <glyph glyph-name="o.smcp" horiz-adv-x="640" 
d="M320 -8q-120 0 -193 81t-73 215q0 132 73 212.5t194 80.5q119 0 191.5 -80.5t72.5 -212.5q0 -134 -72.5 -215t-192.5 -81zM320 35q99 0 156.5 68.5t57.5 184.5q0 114 -57.5 182t-155.5 68q-99 0 -157 -68t-58 -182q0 -116 57.5 -184.5t156.5 -68.5z" />
    <glyph glyph-name="oacute.smcp" horiz-adv-x="640" 
d="M267 609l-16 27l132 83l24 -37zM320 -8q-120 0 -193 81t-73 215q0 132 73 212.5t194 80.5q119 0 191.5 -80.5t72.5 -212.5q0 -134 -72.5 -215t-192.5 -81zM320 35q99 0 156.5 68.5t57.5 184.5q0 114 -57.5 182t-155.5 68q-99 0 -157 -68t-58 -182q0 -116 57.5 -184.5
t156.5 -68.5z" />
    <glyph glyph-name="ocircumflex.smcp" horiz-adv-x="640" 
d="M210 614l-23 22l122 85h23l122 -85l-23 -22l-110 64zM320 -8q-120 0 -193 81t-73 215q0 132 73 212.5t194 80.5q119 0 191.5 -80.5t72.5 -212.5q0 -134 -72.5 -215t-192.5 -81zM320 35q99 0 156.5 68.5t57.5 184.5q0 114 -57.5 182t-155.5 68q-99 0 -157 -68t-58 -182
q0 -116 57.5 -184.5t156.5 -68.5z" />
    <glyph glyph-name="odieresis.smcp" horiz-adv-x="640" 
d="M248 631q-13 0 -23.5 10t-9.5 24q0 13 10 23t23 10q14 0 24.5 -10t10.5 -23q0 -14 -10.5 -24t-24.5 -10zM392 631q-14 0 -24.5 10t-10.5 24q1 14 11 23.5t24 9.5t24 -9.5t10 -23.5t-10 -24t-24 -10zM320 -8q-120 0 -193 81t-73 215q0 132 73 212.5t194 80.5
q119 0 191.5 -80.5t72.5 -212.5q0 -134 -72.5 -215t-192.5 -81zM320 35q99 0 156.5 68.5t57.5 184.5q0 114 -57.5 182t-155.5 68q-99 0 -157 -68t-58 -182q0 -116 57.5 -184.5t156.5 -68.5z" />
    <glyph glyph-name="ograve.smcp" horiz-adv-x="640" 
d="M371 610l-140 73l24 37l132 -83zM320 -8q-120 0 -193 81t-73 215q0 132 73 212.5t194 80.5q119 0 191.5 -80.5t72.5 -212.5q0 -134 -72.5 -215t-192.5 -81zM320 35q99 0 156.5 68.5t57.5 184.5q0 114 -57.5 182t-155.5 68q-99 0 -157 -68t-58 -182q0 -116 57.5 -184.5
t156.5 -68.5z" />
    <glyph glyph-name="oslash.smcp" horiz-adv-x="640" 
d="M504 509q81 -79 81 -221q0 -134 -72.5 -215t-192.5 -81q-87 0 -151 44l-38 -53l-33 24l39 56q-83 81 -83 225q0 132 73 212.5t194 80.5q85 0 151 -44l38 54l35 -24zM106 288q0 -118 59 -186l280 397q-51 39 -124 39q-99 0 -157 -68t-58 -182zM320 35q99 0 156.5 68.5
t57.5 184.5t-58 182l-281 -396q53 -39 125 -39z" />
    <glyph glyph-name="otilde.smcp" horiz-adv-x="640" 
d="M212 625q0 75 60 75q20 0 50 -18.5t43 -18.5q30 0 30 38h33q0 -75 -60 -75q-21 0 -51.5 18t-41.5 18q-29 0 -29 -37h-34zM320 -8q-120 0 -193 81t-73 215q0 132 73 212.5t194 80.5q119 0 191.5 -80.5t72.5 -212.5q0 -134 -72.5 -215t-192.5 -81zM320 35q99 0 156.5 68.5
t57.5 184.5q0 114 -57.5 182t-155.5 68q-99 0 -157 -68t-58 -182q0 -116 57.5 -184.5t156.5 -68.5z" />
    <glyph glyph-name="oe.smcp" horiz-adv-x="795" 
d="M436 43h319v-43h-409q-138 0 -214.5 73t-76.5 215q0 141 76.5 213t214.5 72h405l-7 -43h-308v-224h234v-42h-234v-221zM346 43l41 -1v489h-41q-113 1 -176 -61t-63 -182q0 -121 63 -182.5t176 -62.5z" />
    <glyph glyph-name="p.smcp" horiz-adv-x="513" 
d="M290 573q84 0 135 -48.5t51 -128.5t-51 -129t-135 -49h-148v-218h-50v573h198zM283 261q64 0 103 37t39 98t-39 97.5t-103 36.5h-141v-269h141z" />
    <glyph glyph-name="thorn.smcp" horiz-adv-x="522" 
d="M289 464q83 0 133.5 -49t50.5 -128q0 -80 -50.5 -128.5t-133.5 -48.5h-147v-110h-50v573h50v-109h147zM281 152q64 0 103 37t39 98q0 60 -39 97t-103 37h-139v-269h139z" />
    <glyph glyph-name="q.smcp" horiz-adv-x="640" 
d="M585 288q0 -103 -44 -175.5t-121 -102.5l73 -127l-44 -21l-69 136q-28 -6 -60 -6q-120 0 -193 81t-73 215q0 132 73 212.5t194 80.5q119 0 191.5 -80.5t72.5 -212.5zM328 35q96 2 152.5 71t54.5 177q-2 117 -62.5 186.5t-160.5 69.5q-93 0 -151 -69.5t-56 -177.5
q2 -118 64.5 -188.5t158.5 -68.5z" />
    <glyph glyph-name="r.smcp" horiz-adv-x="532" 
d="M287 237l205 -231v-6h-58l-206 237h-86v-237h-50v573h198q84 0 135 -46t51 -122q0 -77 -52 -123t-137 -45zM142 530v-252h141q64 0 103 34.5t39 91.5t-39 91.5t-103 34.5h-141z" />
    <glyph glyph-name="s.smcp" horiz-adv-x="479" 
d="M232 -8q-112 0 -187 46l8 46q69 -49 178 -49q82 0 119.5 29t37.5 75q0 41 -26.5 66.5t-77.5 44.5l-105 41q-65 25 -94 57.5t-29 83.5q0 72 53.5 110.5t148.5 38.5q80 0 150 -29l-8 -42q-66 29 -138 29t-113.5 -28t-41.5 -79q0 -62 92 -96l105 -41q134 -50 135 -153
q-1 -69 -50.5 -109.5t-156.5 -40.5z" />
    <glyph glyph-name="germandbls.smcp" horiz-adv-x="582" 
d="M357 327q91 -15 137.5 -63.5t46.5 -113.5q0 -68 -50 -113t-139 -45q-74 0 -135 28l8 44q49 -30 122 -30q71 0 107.5 34t36.5 80q0 54 -44 94.5t-142 54.5l-2 30l131 182q-52 30 -128 30q-80 0 -125 -44t-45 -126v-369h-50v380q0 95 60 148.5t159 53.5q55 0 107 -14
t82 -35v-14z" />
    <glyph glyph-name="t.smcp" horiz-adv-x="500" 
d="M482 573v-43h-208v-530h-48v530h-208v43h464z" />
    <glyph glyph-name="u.smcp" 
d="M300 -8q-104 0 -159.5 52t-55.5 172v357h50v-356q0 -182 165 -182q80 0 122.5 42.5t42.5 139.5v356h49v-357q0 -121 -54.5 -172.5t-159.5 -51.5z" />
    <glyph glyph-name="uacute.smcp" 
d="M248 609l-17 27l132 83l25 -37zM300 -8q-104 0 -159.5 52t-55.5 172v357h50v-356q0 -182 165 -182q80 0 122.5 42.5t42.5 139.5v356h49v-357q0 -121 -54.5 -172.5t-159.5 -51.5z" />
    <glyph glyph-name="ucircumflex.smcp" 
d="M189 614l-23 22l122 85h24l122 -85l-23 -22l-111 64zM300 -8q-104 0 -159.5 52t-55.5 172v357h50v-356q0 -182 165 -182q80 0 122.5 42.5t42.5 139.5v356h49v-357q0 -121 -54.5 -172.5t-159.5 -51.5z" />
    <glyph glyph-name="udieresis.smcp" 
d="M229 631q-14 0 -24.5 10t-10.5 24q1 13 11 23t24 10q13 0 23 -9.5t11 -23.5q0 -14 -10 -24t-24 -10zM372 631q-14 0 -24.5 10t-10.5 24q1 14 11 23.5t24 9.5t24 -9.5t10 -23.5t-10 -24t-24 -10zM300 -8q-104 0 -159.5 52t-55.5 172v357h50v-356q0 -182 165 -182
q80 0 122.5 42.5t42.5 139.5v356h49v-357q0 -121 -54.5 -172.5t-159.5 -51.5z" />
    <glyph glyph-name="ugrave.smcp" 
d="M350 610l-140 73l25 37l132 -83zM300 -8q-104 0 -159.5 52t-55.5 172v357h50v-356q0 -182 165 -182q80 0 122.5 42.5t42.5 139.5v356h49v-357q0 -121 -54.5 -172.5t-159.5 -51.5z" />
    <glyph glyph-name="v.smcp" horiz-adv-x="544" 
d="M464 573h53l-216 -573h-58l-215 573h53l192 -521z" />
    <glyph glyph-name="w.smcp" horiz-adv-x="737" 
d="M652 573h49l-147 -573h-59l-126 478l-127 -478h-59l-147 573h49l129 -513l134 508h41l134 -509z" />
    <glyph glyph-name="x.smcp" horiz-adv-x="483" 
d="M271 302l190 -296v-6h-55l-165 259l-164 -259h-55v6l190 296l-171 266v5h54l146 -229l146 229h54v-5z" />
    <glyph glyph-name="y.smcp" horiz-adv-x="533" 
d="M500 573v-5l-209 -340v-228h-50v228l-209 340v5h55l179 -297l179 297h55z" />
    <glyph glyph-name="yacute.smcp" horiz-adv-x="533" 
d="M349 682l-140 -73l-17 27l132 83zM500 573v-5l-209 -340v-228h-50v228l-209 340v5h55l179 -297l179 297h55z" />
    <glyph glyph-name="ydieresis.smcp" horiz-adv-x="533" 
d="M190 631q-14 0 -24.5 10t-10.5 24q1 13 11 23t24 10t24 -9.5t10 -23.5t-10 -24t-24 -10zM332 631q-14 0 -24 10t-10 24q0 13 10 23t24 10t24.5 -10t10.5 -23q0 -14 -10.5 -24t-24.5 -10zM500 573v-5l-209 -340v-228h-50v228l-209 340v5h55l179 -297l179 297h55z" />
    <glyph glyph-name="z.smcp" horiz-adv-x="487" 
d="M96 43h353v-43h-411l-6 35l348 495h-332v43h393l6 -34z" />
    <glyph glyph-name="uni24EA" horiz-adv-x="849" 
d="M424 -15q-154 0 -263.5 110t-109.5 265q0 154 109.5 263.5t263.5 109.5q155 0 264 -109t109 -264t-109 -265t-264 -110zM424 20q140 -1 239.5 99.5t99.5 239.5q0 141 -99 240t-240 99q-140 0 -239 -99.5t-99 -239.5q0 -139 99.5 -238.5t238.5 -100.5zM423 152
q-67 0 -105 56t-38 156t38.5 156.5t104.5 56.5q68 0 107 -56.5t39 -156.5q0 -101 -38.5 -156.5t-107.5 -55.5zM423 188q48 0 74.5 45.5t26.5 130.5q0 84 -26.5 130t-74.5 46q-46 0 -72 -46t-26 -130q0 -85 26 -130.5t72 -45.5z" />
    <glyph glyph-name="uni2460" horiz-adv-x="849" 
d="M425 733q155 0 264 -109t109 -264t-109 -265t-264 -110q-154 0 -263.5 110t-109.5 265q0 154 109 263.5t264 109.5zM425 20q140 -1 239.5 99.5t99.5 239.5q0 141 -99 240t-240 99q-140 0 -239 -99.5t-99 -239.5q0 -139 99.5 -238.5t238.5 -100.5zM310 508l131 63h24v-413
h-44v358l-105 -45z" />
    <glyph glyph-name="uni2461" horiz-adv-x="849" 
d="M425 733q155 0 264 -109t109 -264t-109 -265t-264 -110q-154 0 -263.5 110t-109.5 265q0 154 109 263.5t264 109.5zM425 20q140 -1 239.5 99.5t99.5 239.5q0 141 -99 240t-240 99q-140 0 -239 -99.5t-99 -239.5q0 -139 99.5 -238.5t238.5 -100.5zM477 324l-128 -132h210
v-36h-260l-7 29l161 170q53 55 53 102q0 36 -26 58.5t-69 22.5q-53 0 -107 -25l-7 34q54 27 121 27q60 0 96.5 -32t36.5 -85q0 -56 -74 -133z" />
    <glyph glyph-name="uni2462" horiz-adv-x="849" 
d="M424 733q155 0 264 -109t109 -264t-109 -265t-264 -110q-154 0 -263.5 110t-109.5 265q0 154 109.5 263.5t263.5 109.5zM424 20q140 -1 239.5 99.5t99.5 239.5q0 141 -99 240t-240 99q-140 0 -239 -99.5t-99 -239.5q0 -139 99.5 -238.5t238.5 -100.5zM470 374
q40 -5 64.5 -33.5t24.5 -67.5q0 -52 -42 -86.5t-109 -34.5q-71 0 -119 23l7 35q14 -8 47 -15t61 -7q49 0 79.5 25t30.5 63q0 36 -27.5 57t-71.5 21h-38v33h36q40 0 63 22.5t23 55.5q0 34 -24 54.5t-64 20.5q-53 0 -98 -17l-6 34q47 19 111 19q56 0 91 -29t35 -75
q0 -75 -74 -98z" />
    <glyph glyph-name="uni2463" horiz-adv-x="849" 
d="M425 733q155 0 264 -109t109 -264t-109 -265t-264 -110q-154 0 -263.5 110t-109.5 265q0 154 109 263.5t264 109.5zM425 20q140 -1 239.5 99.5t99.5 239.5q0 141 -99 240t-240 99q-140 0 -239 -99.5t-99 -239.5q0 -139 99.5 -238.5t238.5 -100.5zM486 571v-269h69v-37
h-69v-107h-44v107h-196l-9 28l210 278h39zM286 302h156v206z" />
    <glyph glyph-name="uni2464" horiz-adv-x="849" 
d="M424 733q155 0 264 -109t109 -264t-109 -265t-264 -110q-154 0 -263.5 110t-109.5 265q0 154 109.5 263.5t263.5 109.5zM424 20q140 -1 239.5 99.5t99.5 239.5q0 141 -99 240t-240 99q-140 0 -239 -99.5t-99 -239.5q0 -139 99.5 -238.5t238.5 -100.5zM432 408
q61 0 97 -34.5t36 -88.5q0 -59 -43 -95t-115 -36q-67 0 -122 30l7 37q43 -31 112 -31q54 0 85 25.5t31 68.5q0 39 -26.5 64.5t-72.5 25.5q-56 0 -108 -27l-24 18l20 207h226v-36h-190l-14 -149q52 21 101 21z" />
    <glyph glyph-name="uni2465" horiz-adv-x="849" 
d="M424 733q155 0 264 -109t109 -264t-109 -265t-264 -110q-154 0 -263.5 110t-109.5 265q0 154 109.5 263.5t263.5 109.5zM424 20q140 -1 239.5 99.5t99.5 239.5q0 141 -99 240t-240 99q-140 0 -239 -99.5t-99 -239.5q0 -139 99.5 -238.5t238.5 -100.5zM416 412
q59 0 95 -35t36 -93q0 -59 -38 -95.5t-99 -36.5q-71 0 -107 49t-36 126q0 97 57.5 163t163.5 86l6 -35q-75 -15 -119.5 -55.5t-57.5 -97.5q43 24 99 24zM411 188q42 0 68.5 27t26.5 70t-26.5 67.5t-71.5 24.5q-47 0 -96 -27q-2 -16 -2 -25q0 -60 25.5 -98.5t75.5 -38.5z" />
    <glyph glyph-name="uni2466" horiz-adv-x="849" 
d="M425 733q155 0 264 -109t109 -264t-109 -265t-264 -110q-154 0 -263.5 110t-109.5 265q0 154 109 263.5t264 109.5zM425 20q140 -1 239.5 99.5t99.5 239.5q0 141 -99 240t-240 99q-140 0 -239 -99.5t-99 -239.5q0 -139 99.5 -238.5t238.5 -100.5zM289 571h267l6 -24
l-199 -389h-48l196 376h-222v37z" />
    <glyph glyph-name="uni2467" horiz-adv-x="849" 
d="M425 733q155 0 264 -109t109 -264t-109 -265t-264 -110q-154 0 -263.5 110t-109.5 265q0 154 109 263.5t264 109.5zM425 20q140 -1 239.5 99.5t99.5 239.5q0 141 -99 240t-240 99q-140 0 -239 -99.5t-99 -239.5q0 -139 99.5 -238.5t238.5 -100.5zM499 363
q33 -10 53 -37.5t20 -61.5q0 -49 -40 -80.5t-106 -31.5q-67 0 -107.5 31.5t-40.5 81.5q0 64 69 104q-27 12 -42 39.5t-15 58.5q0 48 38 78.5t99 30.5t98 -30.5t37 -79.5q0 -64 -63 -103zM426 540q-42 0 -67 -21t-25 -55q0 -58 55 -71l70 -19q26 13 43 37t17 51
q0 35 -25.5 56.5t-67.5 21.5zM426 188q46 0 74.5 22t28.5 57q0 54 -58 68l-82 21q-67 -26 -67 -87q0 -37 28.5 -59t75.5 -22z" />
    <glyph glyph-name="uni2468" horiz-adv-x="849" 
d="M424 733q155 0 264 -109t109 -264t-109 -265t-264 -110q-154 0 -263.5 110t-109.5 265q0 154 109.5 263.5t263.5 109.5zM424 20q140 -1 239.5 99.5t99.5 239.5q0 141 -99 240t-240 99q-140 0 -239 -99.5t-99 -239.5q0 -139 99.5 -238.5t238.5 -100.5zM426 576
q71 0 107 -49t36 -125q0 -97 -57.5 -163.5t-163.5 -86.5l-6 35q75 14 119.5 54.5t57.5 98.5q-48 -24 -99 -24q-60 0 -96 35.5t-36 92.5q0 60 38 96t100 36zM523 378q3 12 3 26q0 59 -25.5 97.5t-75.5 38.5q-42 0 -68.5 -27t-26.5 -70t26.5 -67.5t71.5 -24.5q46 0 95 27z" />
    <glyph glyph-name="zero.lf" horiz-adv-x="590" 
d="M293 -10q-109 0 -170.5 93t-61.5 259q0 168 61.5 261.5t170.5 93.5q111 0 173 -93.5t62 -261.5q0 -167 -62 -259.5t-173 -92.5zM293 32q87 0 136 81.5t49 228.5q0 148 -49 230.5t-136 82.5q-85 0 -133 -82.5t-48 -230.5q0 -147 48 -228.5t133 -81.5z" />
    <glyph glyph-name="one.lf" horiz-adv-x="369" 
d="M237 687h30v-687h-50v625l-188 -88l-9 43z" />
    <glyph glyph-name="two.lf" horiz-adv-x="525" 
d="M103 42h372v-42h-424l-11 40l261 271q57 58 84 102t27 93q0 65 -48.5 107t-123.5 42q-91 0 -182 -44l-8 40q89 46 195 46q95 0 156.5 -54t61.5 -141q0 -94 -130 -224z" />
    <glyph glyph-name="three.lf" horiz-adv-x="533" 
d="M331 359q70 -11 108 -59t38 -110q0 -86 -68.5 -143t-178.5 -57q-45 0 -102 11t-94 26l9 43q33 -15 86.5 -26.5t98.5 -11.5q89 0 143.5 46t54.5 114q0 63 -49 102t-127 39h-74v44h69q74 0 114.5 43t40.5 101q0 60 -43.5 97t-116.5 37q-91 0 -169 -33l-8 40q77 35 180 35
q94 0 151 -48t57 -123q0 -59 -31 -102t-89 -65z" />
    <glyph glyph-name="four.lf" horiz-adv-x="565" 
d="M535 224v-42h-122v-182h-49v182h-332l-13 36l348 469h46v-463h122zM76 224h288v383z" />
    <glyph glyph-name="five.lf" horiz-adv-x="560" 
d="M293 411q102 0 162 -57.5t60 -147.5q0 -98 -70 -157t-186 -59q-117 0 -201 53l10 45q74 -56 187 -56q95 0 152 47.5t57 126.5q0 72 -47.5 117.5t-130.5 45.5q-104 0 -189 -49l-32 27l34 340h366v-42h-326l-27 -274q88 40 181 40z" />
    <glyph glyph-name="six.lf" horiz-adv-x="557" 
d="M296 422q103 0 162 -59t59 -155q0 -98 -61.5 -158t-162.5 -60q-117 0 -176 82t-59 210q0 164 94.5 272t265.5 142l6 -41q-126 -25 -205.5 -100.5t-101.5 -181.5q80 49 179 49zM293 32q79 0 126 48.5t47 127.5q0 78 -47 125t-131 47q-94 0 -178 -56q-1 -13 -1 -38
q0 -115 46 -184.5t138 -69.5z" />
    <glyph glyph-name="seven.lf" horiz-adv-x="494" 
d="M467 687l8 -30l-338 -657h-53l334 645h-392v42h441z" />
    <glyph glyph-name="eight.lf" horiz-adv-x="595" 
d="M413 339q56 -17 90 -62t34 -102q0 -82 -66.5 -133.5t-173.5 -51.5t-173 52.5t-66 137.5q0 53 31.5 99t85.5 74q-46 20 -71 63.5t-25 95.5q0 82 61 133.5t160 51.5q98 0 158 -51.5t60 -134.5q0 -55 -28.5 -101t-76.5 -71zM130 511q0 -48 26.5 -83.5t76.5 -48.5l125 -28
q50 24 80 66.5t30 93.5q0 64 -46.5 104t-123.5 40q-75 0 -121.5 -39.5t-46.5 -104.5zM298 32q84 0 136 39t52 103q0 48 -29 83.5t-80 46.5l-151 34q-54 -22 -85.5 -64t-31.5 -96q0 -68 52.5 -107t136.5 -39z" />
    <glyph glyph-name="nine.lf" horiz-adv-x="557" 
d="M264 696q117 0 176 -81.5t59 -209.5q0 -164 -94.5 -272.5t-265.5 -142.5l-6 41q126 26 205.5 101t101.5 181q-83 -49 -179 -49q-102 0 -161.5 59.5t-59.5 154.5q0 98 61.5 158t162.5 60zM91 478q0 -78 47.5 -125t131.5 -47q96 0 178 56q1 13 1 39q0 114 -46.5 184
t-138.5 70q-78 0 -125.5 -49t-47.5 -128z" />
    <glyph glyph-name="zero.lf.zero" horiz-adv-x="590" 
d="M293 697q111 0 173 -93.5t62 -261.5q0 -167 -62 -259.5t-173 -92.5q-109 0 -170.5 93t-61.5 259q0 168 61.5 261.5t170.5 93.5zM293 655q-85 0 -133 -82.5t-48 -230.5q0 -134 40 -214l257 472q-46 55 -116 55zM293 32q87 0 136 81.5t49 228.5q0 136 -42 218l-258 -472
q45 -56 115 -56z" />
    <glyph glyph-name="zero.osf" horiz-adv-x="570" 
d="M283 -10q-102 0 -165.5 69.5t-63.5 183.5q0 115 63.5 185.5t165.5 70.5q104 0 168.5 -70.5t64.5 -185.5q0 -114 -64.5 -183.5t-168.5 -69.5zM283 32q81 0 131.5 58t50.5 153q0 96 -50.5 155t-131.5 59q-79 0 -128.5 -59t-49.5 -155q0 -95 49.5 -153t128.5 -58z" />
    <glyph glyph-name="one.osf" horiz-adv-x="459" 
d="M281 42h155v-42h-363v42h159v388l-184 -78l-7 41l210 96h30v-447z" />
    <glyph glyph-name="two.osf" horiz-adv-x="496" 
d="M113 42h342v-42h-403l-15 39l248 188q91 69 91 130q0 48 -40 74t-107 26q-95 0 -164 -29l-8 41q72 30 175 30q90 0 142.5 -38.5t52.5 -102.5q0 -78 -109 -160z" />
    <glyph glyph-name="three.osf" horiz-adv-x="491" 
d="M297 166q65 -11 105 -57t40 -107q0 -75 -53.5 -127t-140 -75t-199.5 -24l-8 42q156 0 253 47t97 139q0 58 -49.5 97t-125.5 39h-70v44h64q72 0 114 41.5t42 102.5q0 57 -44.5 93t-116.5 36q-88 0 -168 -29l-8 39q81 32 179 32q92 0 150.5 -47t58.5 -120
q0 -57 -31.5 -100.5t-88.5 -65.5z" />
    <glyph glyph-name="four.osf" horiz-adv-x="588" 
d="M565 42v-42h-150v-214h-49v214h-332l-12 36l347 453h46v-447h150zM79 42h287v368z" />
    <glyph glyph-name="five.osf" horiz-adv-x="521" 
d="M265 235q98 0 158.5 -55t60.5 -141q0 -123 -120.5 -192.5t-307.5 -70.5l-8 42q164 0 275 58t111 163q0 68 -48.5 110t-131.5 42q-93 0 -176 -49l-33 27l53 320h346v-42h-305l-43 -251q86 39 169 39z" />
    <glyph glyph-name="six.osf" horiz-adv-x="551" 
d="M293 422q103 0 162 -59t59 -155q0 -98 -61.5 -158t-162.5 -60q-117 0 -176 82t-59 210q0 166 96 284t264 151l6 -41q-124 -25 -204 -108.5t-103 -194.5q81 49 179 49zM290 32q79 0 126 48.5t47 127.5q0 78 -47 125t-131 47q-94 0 -178 -56q-1 -13 -1 -38
q0 -115 46 -184.5t138 -69.5z" />
    <glyph glyph-name="seven.osf" horiz-adv-x="490" 
d="M468 489l7 -31l-338 -672h-52l333 661h-403v42h453z" />
    <glyph glyph-name="eight.osf" horiz-adv-x="589" 
d="M410 349q56 -18 90 -64t34 -104q0 -84 -66.5 -137.5t-173.5 -53.5t-173 54t-66 142q0 55 31.5 102.5t85.5 75.5q-46 20 -71 65.5t-25 98.5q0 84 61.5 138t159.5 54t158 -54t60 -139q0 -57 -28.5 -104t-76.5 -74zM127 527q0 -50 26.5 -86.5t76.5 -49.5l125 -28
q49 24 79.5 68t30.5 96q0 67 -46.5 109t-123.5 42q-75 0 -121.5 -42t-46.5 -109zM295 32q84 0 136 40.5t52 106.5q0 50 -29 86.5t-80 47.5l-150 35q-54 -22 -86 -65t-32 -99q0 -71 52.5 -111.5t136.5 -40.5z" />
    <glyph glyph-name="nine.osf" horiz-adv-x="543" 
d="M257 499q79 0 133.5 -40.5t78 -104.5t23.5 -147q0 -165 -95.5 -281t-264.5 -150l-6 41q124 25 204 107.5t103 191.5q-81 -49 -179 -49q-102 0 -161.5 59.5t-59.5 154.5q0 98 61.5 158t162.5 60zM84 281q0 -79 47.5 -126t131.5 -47q96 0 178 56q1 13 1 39q0 114 -46 184
t-139 70q-78 0 -125.5 -48.5t-47.5 -127.5z" />
    <glyph glyph-name="zero.osf.zero" horiz-adv-x="570" 
d="M283 499q104 0 168.5 -70.5t64.5 -185.5q0 -114 -64.5 -183.5t-168.5 -69.5q-102 0 -165.5 69.5t-63.5 183.5q0 115 63.5 185.5t165.5 70.5zM105 243q0 -114 67 -171l199 362q-40 23 -88 23q-79 0 -128.5 -59t-49.5 -155zM283 32q81 0 131.5 58t50.5 153q0 105 -61 166
l-197 -360q36 -17 76 -17z" />
    <glyph glyph-name="zero.tf" 
d="M298 -10q-109 0 -170.5 93t-61.5 259q0 168 61.5 261.5t170.5 93.5q111 0 173 -93.5t62 -261.5q0 -167 -62 -259.5t-173 -92.5zM298 32q87 0 136 81.5t49 228.5q0 148 -49 230.5t-136 82.5q-85 0 -133 -82.5t-48 -230.5q0 -147 48 -228.5t133 -81.5z" />
    <glyph glyph-name="one.tf" 
d="M363 42h135v-42h-321v42h136v583l-189 -88l-8 43l217 107h30v-645z" />
    <glyph glyph-name="two.tf" 
d="M141 42h372v-42h-425l-11 40l262 271q57 59 83.5 102.5t26.5 92.5q0 65 -48 107t-124 42q-89 0 -182 -44l-8 40q89 46 196 46q95 0 156 -53.5t61 -141.5q1 -94 -130 -224z" />
    <glyph glyph-name="three.tf" 
d="M365 359q69 -11 107 -59t38 -110q0 -85 -68 -142.5t-177 -57.5q-50 0 -108.5 12t-88.5 25l8 43q26 -13 81.5 -25.5t104.5 -12.5q89 0 143 45.5t54 114.5q0 63 -49 102t-126 39h-74v44h68q75 0 115.5 43t40.5 101q0 60 -44 97t-116 37q-89 0 -170 -33l-7 40q77 35 180 35
q94 0 151 -48t57 -123q0 -59 -31 -102t-89 -65z" />
    <glyph glyph-name="four.tf" 
d="M553 224v-42h-122v-182h-50v182h-331l-13 36l348 469h46v-463h122zM94 224h287v382z" />
    <glyph glyph-name="five.tf" 
d="M313 411q102 0 162 -57.5t60 -147.5q0 -98 -70 -157t-186 -59q-117 0 -201 53l10 45q74 -56 188 -56q94 0 151 47.5t57 126.5q0 72 -47.5 117.5t-130.5 45.5q-104 0 -189 -49l-31 27l33 340h367v-42h-327l-27 -274q86 40 181 40z" />
    <glyph glyph-name="six.tf" 
d="M318 422q102 0 161.5 -59t59.5 -155q0 -98 -61.5 -158t-162.5 -60q-118 0 -177 82t-59 210q0 164 95 272t265 142l6 -41q-125 -25 -204.5 -100t-101.5 -181q84 48 179 48zM315 32q78 0 125.5 48.5t47.5 127.5q0 78 -47.5 125t-131.5 47q-94 0 -178 -56q-1 -13 -1 -38
q0 -115 46 -184.5t139 -69.5z" />
    <glyph glyph-name="seven.tf" 
d="M521 687l7 -30l-338 -657h-52l333 645h-391v42h441z" />
    <glyph glyph-name="eight.tf" 
d="M415 339q56 -17 90 -62t34 -102q0 -81 -66 -133t-173 -52q-108 0 -174 52.5t-66 137.5q0 53 31.5 99.5t85.5 73.5q-45 20 -70.5 63.5t-25.5 95.5q0 82 61.5 133.5t159.5 51.5q99 0 159 -51.5t60 -134.5q0 -55 -28.5 -101t-77.5 -71zM132 511q0 -48 26.5 -83.5t76.5 -48.5
l125 -28q50 24 80 66.5t30 93.5q0 64 -46 104t-123 40q-76 0 -122.5 -39.5t-46.5 -104.5zM300 32q85 0 136.5 39t51.5 103q0 48 -29 83.5t-80 46.5l-150 34q-54 -22 -86 -64.5t-32 -95.5q0 -68 52.5 -107t136.5 -39z" />
    <glyph glyph-name="nine.tf" 
d="M285 696q118 0 177 -81.5t59 -209.5q0 -164 -95 -272.5t-265 -142.5l-6 41q126 26 205 100.5t101 180.5q-87 -48 -179 -48q-102 0 -161.5 59.5t-59.5 154.5q0 98 61.5 158t162.5 60zM112 478q0 -78 47.5 -125t131.5 -47q94 0 178 56q1 13 1 39q0 114 -46 184t-139 70
q-78 0 -125.5 -49t-47.5 -128z" />
    <glyph glyph-name="zero.tf.zero" 
d="M298 697q111 0 173 -93.5t62 -261.5q0 -167 -62 -259.5t-173 -92.5q-109 0 -170.5 93t-61.5 259q0 168 61.5 261.5t170.5 93.5zM298 655q-85 0 -133 -82.5t-48 -230.5q0 -134 40 -214l257 472q-46 55 -116 55zM298 32q87 0 136 81.5t49 228.5q0 136 -42 218l-258 -472
q45 -56 115 -56z" />
    <glyph glyph-name="zero.tosf" 
d="M298 -10q-102 0 -165.5 70t-63.5 183q0 114 63.5 185t165.5 71q104 0 169 -71t65 -185t-65 -183.5t-169 -69.5zM298 32q81 0 132 58t51 153q0 96 -51 155t-132 59q-79 0 -128.5 -59t-49.5 -155q0 -95 49.5 -153t128.5 -58z" />
    <glyph glyph-name="one.tosf" 
d="M352 42h155v-42h-364v42h159v388l-184 -78l-7 41l211 96h30v-447z" />
    <glyph glyph-name="two.tosf" 
d="M165 42h342v-42h-403l-15 39l247 188q92 68 92 130q0 48 -40 74t-107 26q-95 0 -164 -29l-8 41q70 30 175 30q90 0 142.5 -38.5t52.5 -102.5q0 -77 -110 -160z" />
    <glyph glyph-name="three.tosf" 
d="M352 166q65 -11 105 -57t40 -107q0 -75 -53.5 -127t-139.5 -75t-200 -24l-8 42q156 0 253.5 47t97.5 139q0 57 -50 96.5t-126 39.5h-70v44h64q72 0 114 41.5t42 102.5q0 57 -44.5 93t-116.5 36q-88 0 -168 -29l-8 39q81 32 179 32q92 0 150.5 -47t58.5 -120
q0 -57 -31.5 -100.5t-88.5 -65.5z" />
    <glyph glyph-name="four.tosf" 
d="M571 42v-42h-149v-214h-50v214h-331l-13 36l347 453h47v-447h149zM86 42h286v367z" />
    <glyph glyph-name="five.tosf" 
d="M304 235q99 0 159.5 -55t60.5 -141q0 -123 -121 -192.5t-308 -70.5l-7 42q163 0 274 58t111 163q0 68 -48.5 110t-131.5 42q-91 0 -176 -49l-32 27l52 320h346v-42h-306l-42 -252q88 40 169 40z" />
    <glyph glyph-name="six.tosf" 
d="M318 422q102 0 161.5 -59t59.5 -155q0 -98 -61.5 -158t-162.5 -60q-118 0 -177 82t-59 210q0 166 96 284t264 151l6 -41q-123 -25 -203 -108.5t-103 -193.5q84 48 179 48zM315 32q78 0 125.5 48.5t47.5 127.5q0 78 -47.5 125t-131.5 47q-94 0 -178 -56q-1 -13 -1 -38
q0 -115 46 -184.5t139 -69.5z" />
    <glyph glyph-name="seven.tosf" 
d="M523 489l7 -31l-338 -672h-52l333 661h-404v42h454z" />
    <glyph glyph-name="eight.tosf" 
d="M416 349q56 -18 89.5 -64t33.5 -104q0 -84 -66 -137.5t-173 -53.5q-108 0 -174 54t-66 142q0 55 32 102.5t86 75.5q-46 20 -71.5 65.5t-25.5 98.5q0 84 61.5 138t159.5 54t158.5 -54t60.5 -139q0 -56 -28.5 -103.5t-76.5 -74.5zM132 527q0 -49 26.5 -86t76.5 -50l126 -28
q49 24 79 68t30 96q0 67 -46.5 109t-122.5 42t-122.5 -41.5t-46.5 -109.5zM300 32q85 0 136.5 40.5t51.5 106.5q0 50 -29 86.5t-80 47.5l-149 35q-55 -22 -87 -65t-32 -99q0 -71 52.5 -111.5t136.5 -40.5z" />
    <glyph glyph-name="nine.tosf" 
d="M285 499q118 0 177 -82t59 -210q0 -165 -96 -281t-264 -150l-6 41q124 25 203.5 107t102.5 191q-84 -48 -179 -48q-102 0 -161.5 59.5t-59.5 154.5q0 98 61.5 158t162.5 60zM112 281q0 -79 47.5 -126t131.5 -47q94 0 178 56q1 13 1 39q0 115 -46 184.5t-139 69.5
q-78 0 -125.5 -48.5t-47.5 -127.5z" />
    <glyph glyph-name="zero.tosf.zero" 
d="M298 499q104 0 168.5 -70.5t64.5 -185.5q0 -114 -64.5 -183.5t-168.5 -69.5q-102 0 -165.5 69.5t-63.5 183.5q0 115 63.5 185.5t165.5 70.5zM120 243q0 -114 68 -171l198 362q-38 23 -88 23q-79 0 -128.5 -59t-49.5 -155zM298 32q81 0 131.5 58t50.5 153q0 107 -60 165
l-197 -359q34 -17 75 -17z" />
    <glyph glyph-name="zero.zero" horiz-adv-x="590" 
d="M293 697q111 0 173 -93.5t62 -261.5q0 -167 -62 -259.5t-173 -92.5q-109 0 -170.5 93t-61.5 259q0 168 61.5 261.5t170.5 93.5zM293 655q-85 0 -133 -82.5t-48 -230.5q0 -134 40 -214l259 470q-46 57 -118 57zM293 32q87 0 136 81.5t49 228.5q0 137 -41 217l-259 -471
q45 -56 115 -56z" />
    <glyph glyph-name="zero.subs" horiz-adv-x="377" 
d="M187 -220q-67 0 -105 55.5t-38 156.5q0 100 38 156.5t105 56.5q68 0 106.5 -56.5t38.5 -156.5q0 -101 -38.5 -156.5t-106.5 -55.5zM187 -184q48 0 74 45.5t26 130.5q0 84 -26.5 130t-73.5 46q-46 0 -72 -46t-26 -130q0 -85 26 -130.5t72 -45.5z" />
    <glyph glyph-name="one.subs" horiz-adv-x="241" 
d="M152 199h24v-413h-44v357l-102 -42l-5 38z" />
    <glyph glyph-name="two.subs" horiz-adv-x="340" 
d="M91 -178h210v-36h-260l-7 29l161 170q53 55 53 102q0 36 -26 58.5t-69 22.5q-53 0 -107 -25l-7 34q54 27 121 27q60 0 96.5 -32t36.5 -85q0 -56 -74 -133z" />
    <glyph glyph-name="three.subs" horiz-adv-x="344" 
d="M213 2q39 -5 64 -33.5t25 -67.5q0 -52 -42 -86.5t-109 -34.5q-71 0 -119 23l6 35q15 -8 48 -15t61 -7q48 0 79 25t31 63q0 36 -28 57t-72 21h-38v33h37q40 0 63 22.5t23 55.5q0 34 -24 54.5t-64 20.5q-53 0 -98 -17l-6 34q45 19 111 19q56 0 91 -29t35 -75q0 -75 -74 -98
z" />
    <glyph glyph-name="four.subs" horiz-adv-x="371" 
d="M341 -70v-37h-69v-107h-44v107h-195l-10 28l210 278h39v-269h69zM72 -70h156v206z" />
    <glyph glyph-name="five.subs" horiz-adv-x="358" 
d="M190 34q61 0 97 -34.5t36 -88.5q0 -59 -43 -95t-115 -36q-69 0 -122 30l7 37q46 -31 111 -31q54 0 85.5 25.5t31.5 68.5q0 40 -26.5 65t-73.5 25q-55 0 -107 -27l-24 19l20 207h226v-37h-190l-15 -149q52 21 102 21z" />
    <glyph glyph-name="six.subs" horiz-adv-x="356" 
d="M190 40q61 0 97 -36t36 -93q0 -58 -38 -94.5t-100 -36.5q-71 0 -107 49.5t-36 125.5q0 97 57.5 163t164.5 86l6 -34q-75 -15 -119.5 -56t-57.5 -98q43 24 97 24zM185 -184q42 0 68.5 27t26.5 70q0 42 -26.5 67.5t-70.5 25.5q-50 0 -97 -28q-2 -16 -2 -26
q0 -59 25.5 -97.5t75.5 -38.5z" />
    <glyph glyph-name="seven.subs" horiz-adv-x="325" 
d="M296 199l6 -24l-199 -389h-48l196 376h-222v37h267z" />
    <glyph glyph-name="eight.subs" horiz-adv-x="379" 
d="M263 -9q33 -10 53 -37.5t20 -61.5q0 -49 -40 -80.5t-106 -31.5t-106.5 31.5t-40.5 81.5q0 65 68 104q-27 12 -42 39.5t-15 58.5q0 48 38 78.5t99 30.5q62 0 98.5 -30.5t36.5 -79.5q0 -64 -63 -103zM191 168q-42 0 -67.5 -21t-25.5 -55q0 -58 55 -71l70 -19q26 13 43 37
t17 51q0 35 -25 56.5t-67 21.5zM190 -184q47 0 75 22t28 57q0 54 -58 68l-82 21q-30 -12 -48.5 -34.5t-18.5 -51.5q0 -38 28 -60t76 -22z" />
    <glyph glyph-name="nine.subs" horiz-adv-x="356" 
d="M171 204q71 0 107 -49t36 -125q0 -98 -57.5 -164t-164.5 -86l-5 35q74 14 118.5 55t57.5 98q-46 -24 -97 -24q-60 0 -96.5 36.5t-36.5 92.5q0 58 38 94.5t100 36.5zM76 72q0 -42 26.5 -67.5t71.5 -25.5q46 0 95 27q3 12 3 26q0 59 -25.5 97.5t-75.5 38.5q-42 0 -68.5 -27
t-26.5 -69z" />
    <glyph glyph-name="zero.dnom" horiz-adv-x="377" 
d="M187 -6q-67 0 -105 55.5t-38 155.5q0 101 38 157t105 56q68 0 106.5 -56t38.5 -157q0 -100 -38.5 -155.5t-106.5 -55.5zM187 30q48 0 74 45.5t26 129.5q0 85 -26 131t-74 46q-46 0 -72 -46t-26 -131q0 -84 26 -129.5t72 -45.5z" />
    <glyph glyph-name="one.dnom" horiz-adv-x="241" 
d="M152 412h24v-412h-44v357l-102 -42l-5 38z" />
    <glyph glyph-name="two.dnom" horiz-adv-x="340" 
d="M93 36h208v-36h-259l-7 29l161 170q53 56 53 101q0 37 -26.5 59.5t-68.5 22.5q-53 0 -107 -25l-8 34q54 27 122 27q60 0 96.5 -32t36.5 -85q0 -56 -74 -133z" />
    <glyph glyph-name="three.dnom" horiz-adv-x="344" 
d="M215 216q39 -6 63 -34.5t24 -67.5q0 -52 -42 -86t-109 -34q-68 0 -119 22l6 36q14 -8 47 -15t62 -7q48 0 79 25t31 63q0 36 -28 57t-72 21h-38v33h37q40 0 63 22.5t23 55.5q0 34 -24 54.5t-64 20.5q-57 0 -98 -18l-6 34q42 20 111 20q56 0 91 -29t35 -75q0 -35 -19.5 -61
t-52.5 -37z" />
    <glyph glyph-name="four.dnom" horiz-adv-x="371" 
d="M341 144v-38h-69v-106h-44v106h-195l-10 29l210 277h39v-268h69zM72 144h156v206z" />
    <glyph glyph-name="five.dnom" horiz-adv-x="358" 
d="M190 248q61 0 97 -34.5t36 -88.5q0 -59 -43 -95t-115 -36q-69 0 -122 30l7 37q43 -31 111 -31q54 0 85.5 25.5t31.5 68.5q0 39 -26.5 64.5t-73.5 25.5q-55 0 -107 -27l-24 18l20 207h226v-36h-190l-15 -149q52 21 102 21z" />
    <glyph glyph-name="six.dnom" horiz-adv-x="356" 
d="M190 254q61 0 97 -36t36 -93q0 -58 -38 -94.5t-100 -36.5q-71 0 -107 49.5t-36 125.5q0 97 57.5 163t164.5 86l6 -35q-75 -14 -119.5 -55t-57.5 -98q46 24 97 24zM185 30q42 0 68.5 27t26.5 70q0 41 -26.5 66.5t-70.5 25.5q-47 0 -96 -27q-3 -12 -3 -26q0 -59 25.5 -97.5
t75.5 -38.5z" />
    <glyph glyph-name="seven.dnom" horiz-adv-x="325" 
d="M296 412l6 -23l-199 -389h-49l196 376h-222v36h268z" />
    <glyph glyph-name="eight.dnom" horiz-adv-x="379" 
d="M264 205q33 -10 52.5 -37.5t19.5 -62.5q0 -49 -40 -80t-106 -31t-106.5 31.5t-40.5 81.5q0 68 69 103q-28 12 -43 39t-15 60q0 48 38 78.5t99 30.5q62 0 98.5 -30.5t36.5 -80.5q0 -65 -62 -102zM191 382q-42 0 -67.5 -21t-25.5 -56q0 -57 55 -70l70 -19q26 13 43 37
t17 51q0 35 -25 56.5t-67 21.5zM190 30q47 0 75 21.5t28 57.5q0 54 -58 67l-82 22q-67 -26 -67 -87q0 -37 28.5 -59t75.5 -22z" />
    <glyph glyph-name="nine.dnom" horiz-adv-x="356" 
d="M171 418q71 0 107 -49t36 -126q0 -97 -57.5 -163t-164.5 -86l-5 35q74 14 118.5 55t57.5 98q-46 -24 -97 -24q-60 0 -96.5 36t-36.5 93q0 58 38 94.5t100 36.5zM76 285q0 -41 26.5 -66.5t71.5 -25.5q46 0 95 27q3 12 3 26q0 59 -25.5 97.5t-75.5 38.5q-42 0 -68.5 -27
t-26.5 -70z" />
    <glyph glyph-name="zero.numr" horiz-adv-x="377" 
d="M187 269q-67 0 -105 55.5t-38 155.5q0 101 38 157t105 56q68 0 106.5 -56t38.5 -157q0 -100 -38.5 -155.5t-106.5 -55.5zM187 304q47 0 73.5 46t26.5 130q0 85 -26 131t-74 46q-46 0 -72 -46t-26 -131q0 -84 26 -130t72 -46z" />
    <glyph glyph-name="one.numr" horiz-adv-x="241" 
d="M152 687h24v-412h-44v357l-102 -42l-5 37z" />
    <glyph glyph-name="two.numr" horiz-adv-x="340" 
d="M91 310h210v-35h-260l-7 28l161 170q53 56 53 102q0 36 -26 59t-69 23q-55 0 -107 -26l-7 35q58 27 121 27q59 0 96 -32.5t37 -85.5q0 -56 -74 -132z" />
    <glyph glyph-name="three.numr" horiz-adv-x="344" 
d="M212 490q40 -4 65 -33t25 -68q0 -52 -42 -86t-109 -34q-68 0 -119 22l6 35q15 -8 48 -15t61 -7q48 0 79 25.5t31 63.5q0 35 -28 56.5t-72 21.5h-38v33h37q40 0 63 22.5t23 54.5q0 34 -24 55t-64 21q-50 0 -98 -18l-6 34q42 20 111 20q56 0 91 -29t35 -75q0 -37 -20 -62.5
t-55 -36.5z" />
    <glyph glyph-name="four.numr" horiz-adv-x="371" 
d="M341 419v-38h-69v-106h-44v106h-195l-10 28l210 278h39v-268h69zM72 419h156v206z" />
    <glyph glyph-name="five.numr" horiz-adv-x="358" 
d="M190 522q61 0 97 -34t36 -88q0 -59 -43 -95t-115 -36q-69 0 -122 30l7 37q44 -32 111 -32q54 0 85.5 26t31.5 69q0 39 -26.5 64t-73.5 25q-57 0 -107 -26l-24 18l20 207h226v-36h-190l-15 -149q49 20 102 20z" />
    <glyph glyph-name="six.numr" horiz-adv-x="356" 
d="M190 528q60 0 96.5 -36t36.5 -92q0 -58 -38 -94.5t-100 -36.5q-71 0 -107 49t-36 125q0 97 57.5 163t163.5 87l6 -35q-74 -15 -119 -56t-58 -98q43 24 98 24zM185 304q42 0 68.5 27.5t26.5 69.5t-26.5 67.5t-71.5 25.5q-47 0 -96 -27q-2 -16 -2 -27q0 -59 25.5 -97.5
t75.5 -38.5z" />
    <glyph glyph-name="seven.numr" horiz-adv-x="325" 
d="M296 687l6 -23l-199 -389h-48l197 376h-223v36h267z" />
    <glyph glyph-name="eight.numr" horiz-adv-x="379" 
d="M264 480q33 -11 52.5 -38.5t19.5 -61.5q0 -49 -40 -80t-106 -31t-106.5 31t-40.5 82q0 66 68 103q-27 12 -42 39.5t-15 58.5q0 49 38 79.5t99 30.5q62 0 98.5 -31t36.5 -80q0 -66 -62 -102zM191 657q-42 0 -67.5 -21t-25.5 -56q0 -58 55 -71l70 -18q26 13 43 36.5
t17 50.5q0 35 -25 57t-67 22zM190 304q47 0 75 22t28 57q0 54 -58 68l-82 22q-30 -12 -48.5 -34.5t-18.5 -52.5q0 -37 28.5 -59.5t75.5 -22.5z" />
    <glyph glyph-name="nine.numr" horiz-adv-x="356" 
d="M171 693q71 0 107 -49t36 -126q0 -97 -57.5 -163.5t-163.5 -85.5l-5 34q74 14 118.5 55t57.5 99q-43 -24 -98 -24q-60 0 -96 36t-36 93q0 59 38 95t99 36zM76 560q0 -42 26.5 -67.5t71.5 -25.5q49 0 96 26q2 18 2 28q0 59 -25 97t-75 38q-43 0 -69.5 -26.5t-26.5 -69.5z
" />
    <glyph glyph-name="uni2070" horiz-adv-x="377" 
d="M187 458q-67 0 -105 55.5t-38 155.5q0 101 38 157t105 56q68 0 106.5 -56t38.5 -157q0 -100 -38.5 -155.5t-106.5 -55.5zM187 493q47 0 73.5 46t26.5 130q0 85 -26 131t-74 46q-46 0 -72 -46t-26 -131q0 -84 26 -130t72 -46z" />
    <glyph glyph-name="uni2074" horiz-adv-x="371" 
d="M341 608v-38h-69v-106h-44v106h-195l-10 28l210 278h39v-268h69zM73 608h155v205z" />
    <glyph glyph-name="uni2075" horiz-adv-x="358" 
d="M190 711q61 0 97 -34.5t36 -88.5q0 -59 -43 -94.5t-115 -35.5q-69 0 -122 30l7 37q44 -32 111 -32q54 0 85.5 26t31.5 69q0 39 -26.5 64t-73.5 25q-55 0 -107 -27l-24 19l20 207h226v-36h-190l-15 -149q54 20 102 20z" />
    <glyph glyph-name="uni2076" horiz-adv-x="356" 
d="M190 717q61 0 97 -36t36 -92q0 -58 -38 -94.5t-100 -36.5q-71 0 -107 49t-36 125q0 97 57.5 163t164.5 87l6 -35q-75 -15 -119.5 -56t-57.5 -98q43 24 97 24zM185 493q42 0 68.5 27t26.5 70q0 42 -26.5 67.5t-70.5 25.5q-47 0 -96 -27q-3 -12 -3 -27q0 -59 25.5 -97.5
t75.5 -38.5z" />
    <glyph glyph-name="uni2077" horiz-adv-x="325" 
d="M296 876l6 -23l-199 -389h-48l197 376h-223v36h267z" />
    <glyph glyph-name="uni2078" horiz-adv-x="379" 
d="M263 668q33 -10 53 -37.5t20 -61.5q0 -49 -40 -80t-106 -31t-106.5 31t-40.5 82q0 66 68 103q-27 12 -42 39.5t-15 58.5q0 49 38 79.5t99 30.5q62 0 98.5 -31t36.5 -80q0 -65 -63 -103zM191 846q-42 0 -67.5 -21t-25.5 -56q0 -58 55 -71l69 -19q26 12 43.5 36t17.5 52
q0 35 -25 57t-67 22zM190 493q47 0 75 22t28 57q0 54 -58 68l-82 21q-30 -12 -48.5 -34.5t-18.5 -51.5q0 -38 28 -60t76 -22z" />
    <glyph glyph-name="uni2079" horiz-adv-x="356" 
d="M171 882q71 0 107 -49t36 -126q0 -97 -57.5 -163.5t-164.5 -85.5l-5 34q74 14 118.5 55t57.5 98q-44 -23 -97 -23q-60 0 -96.5 36t-36.5 93q0 58 38 94.5t100 36.5zM76 749q0 -42 26.5 -67.5t71.5 -25.5q46 0 95 27q3 12 3 27q0 59 -25.5 97t-75.5 38q-42 0 -68.5 -26.5
t-26.5 -69.5z" />
    <glyph glyph-name="fraction" horiz-adv-x="124" 
d="M-110 -11l308 708l34 -15l-308 -708z" />
    <glyph glyph-name="zero.subs.zero" horiz-adv-x="377" 
d="M187 205q68 0 106.5 -56.5t38.5 -156.5q0 -101 -38.5 -156.5t-106.5 -55.5q-67 0 -105 55.5t-38 156.5q0 100 38 156.5t105 56.5zM187 168q-46 0 -72 -46t-26 -130q0 -74 20 -119l137 269q-24 26 -59 26zM187 -184q48 0 74 45.5t26 130.5q0 71 -19 117l-137 -269
q23 -24 56 -24z" />
    <glyph glyph-name="zero.dnom.zero" horiz-adv-x="377" 
d="M187 418q68 0 106.5 -56t38.5 -157q0 -100 -38.5 -155.5t-106.5 -55.5q-67 0 -105 55.5t-38 155.5q0 101 38 157t105 56zM187 382q-46 0 -72 -46t-26 -131q0 -73 20 -118l137 269q-24 26 -59 26zM187 30q48 0 74 45.5t26 129.5q0 71 -19 117l-137 -268q23 -24 56 -24z
" />
    <glyph glyph-name="zero.numr.zero" horiz-adv-x="377" 
d="M187 693q68 0 106.5 -56t38.5 -157q0 -100 -38.5 -155.5t-106.5 -55.5q-67 0 -105 55.5t-38 155.5q0 101 38 157t105 56zM187 657q-46 0 -72 -46t-26 -131q0 -73 20 -118l137 269q-23 26 -59 26zM187 304q47 0 73.5 46t26.5 130q0 71 -19 117l-137 -269q23 -24 56 -24z
" />
    <glyph glyph-name="uni2070.zero" horiz-adv-x="377" 
d="M187 882q68 0 106.5 -56t38.5 -157q0 -100 -38.5 -155.5t-106.5 -55.5q-67 0 -105 55.5t-38 155.5q0 101 38 157t105 56zM187 846q-46 0 -72 -46t-26 -131q0 -73 20 -118l137 269q-23 26 -59 26zM187 493q47 0 73.5 46t26.5 130q0 71 -19 117l-137 -269q23 -24 56 -24z
" />
    <glyph glyph-name="periodcentered.case" horiz-adv-x="230" 
d="M115 313q-17 0 -29 12.5t-12 29.5q0 16 12.5 28t28.5 12t28.5 -12t12.5 -28q0 -17 -12 -29.5t-29 -12.5z" />
    <glyph glyph-name="bullet.case" horiz-adv-x="398" 
d="M199 237q-49 0 -83.5 34.5t-34.5 83.5t34.5 83.5t83.5 34.5t83.5 -34.5t34.5 -83.5t-34.5 -83.5t-83.5 -34.5z" />
    <glyph glyph-name="colon.case" horiz-adv-x="236" 
d="M118 528q-17 0 -29 12t-12 30q0 16 12 27.5t29 11.5t29.5 -11.5t12.5 -27.5q0 -18 -12.5 -30t-29.5 -12zM118 110q-17 0 -29 12.5t-12 29.5q0 16 12.5 28t28.5 12q17 0 29.5 -12t12.5 -28q0 -17 -12.5 -29.5t-29.5 -12.5z" />
    <glyph glyph-name="exclamdown.case" horiz-adv-x="249" 
d="M165 678q0 -16 -12 -27.5t-29 -11.5t-29 11.5t-12 27.5q0 18 12 30t29 12t29 -12t12 -30zM106 534h37l8 -506v-28h-52v28z" />
    <glyph glyph-name="questiondown.case" horiz-adv-x="432" 
d="M268 720q17 0 29 -12t12 -30q0 -16 -12 -27.5t-29 -11.5t-29 11.5t-12 27.5q0 18 12 30t29 12zM291 534l5 -45q7 -51 -9.5 -85.5t-62.5 -70.5l-69 -51q-67 -51 -67 -115q0 -62 41.5 -98t110.5 -36q74 0 152 47l8 -43q-84 -47 -162 -47q-92 0 -146.5 48t-54.5 129
q0 40 22.5 80t60.5 69l71 50q37 30 51 55.5t10 61.5l-5 51h44z" />
    <glyph glyph-name="uni207D" horiz-adv-x="183" 
d="M125 332q-35 50 -58.5 125t-23.5 157q0 83 23.5 157.5t58.5 124.5l32 -8q-33 -47 -54.5 -120t-21.5 -154t22 -154.5t54 -119.5z" />
    <glyph glyph-name="uni207E" horiz-adv-x="183" 
d="M58 332l-32 8q32 46 54 119.5t22 154.5t-21.5 154t-54.5 120l32 8q35 -50 58.5 -124.5t23.5 -157.5q0 -82 -23.5 -157t-58.5 -125z" />
    <glyph glyph-name="braceleft.case" horiz-adv-x="310" 
d="M248 769q-52 0 -76.5 -37.5t-24.5 -98.5q0 -35 8 -87q9 -65 9 -85q0 -86 -53 -106q53 -22 53 -105q0 -12 -1.5 -26.5t-4 -32t-3.5 -27.5q-8 -50 -8 -83q0 -143 101 -143h34v-40h-34q-148 0 -148 182q0 37 8.5 91t8.5 77q0 75 -52 84l-30 4v39l30 3q52 6 52 85
q0 23 -8.5 78.5t-8.5 92.5q0 176 148 176h34v-41h-34z" />
    <glyph glyph-name="braceright.case" horiz-adv-x="310" 
d="M245 378l29 -3v-39l-29 -4q-52 -9 -52 -84q0 -23 8.5 -77t8.5 -91q0 -182 -148 -182h-34v40h34q101 0 101 143q0 16 -8 83q-1 10 -3.5 27.5t-4 32t-1.5 26.5q0 83 53 105q-53 20 -53 106q0 20 9 85q8 52 8 87q0 61 -24.5 98.5t-76.5 37.5h-34v41h34q148 0 148 -176
q0 -37 -8.5 -92.5t-8.5 -78.5q0 -79 52 -85z" />
    <glyph glyph-name="bracketleft.case" horiz-adv-x="312" 
d="M149 777v-843h138l-7 -40h-178v924h178l7 -41h-138z" />
    <glyph glyph-name="bracketright.case" horiz-adv-x="312" 
d="M32 818h179v-924h-179l-7 40h139v843h-139z" />
    <glyph glyph-name="parenleft.case" horiz-adv-x="263" 
d="M194 -117q-60 84 -98.5 209.5t-38.5 262.5q0 139 39 263.5t98 208.5l40 -13q-56 -76 -93.5 -199t-37.5 -260t37.5 -260.5t93.5 -198.5z" />
    <glyph glyph-name="parenright.case" horiz-adv-x="263" 
d="M69 -118l-39 13q56 76 93 199.5t37 260.5q0 136 -37 259t-93 199l39 13q59 -83 98 -207.5t39 -263.5q0 -138 -38.5 -263t-98.5 -210z" />
    <glyph glyph-name="emdash.case" horiz-adv-x="810" 
d="M75 375h661v-41h-661v41z" />
    <glyph glyph-name="endash.case" horiz-adv-x="633" 
d="M75 375h484v-41h-484v41z" />
    <glyph glyph-name="hyphen.case" horiz-adv-x="410" 
d="M75 375h260v-41h-260v41z" />
    <glyph glyph-name="guillemotleft.case" horiz-adv-x="474" 
d="M244 532l-143 -177l144 -176l-46 -14l-143 173v34l141 173zM257 355l144 -176l-46 -14l-143 173v34l141 173l47 -13z" />
    <glyph glyph-name="guillemotright.case" horiz-adv-x="474" 
d="M262 372v-34l-143 -173l-46 14l144 176l-143 177l47 13zM277 545l141 -173v-34l-143 -173l-46 14l144 176l-143 177z" />
    <glyph glyph-name="guilsinglleft.case" horiz-adv-x="318" 
d="M101 355l144 -176l-46 -14l-143 173v34l141 173l47 -13z" />
    <glyph glyph-name="guilsinglright.case" horiz-adv-x="318" 
d="M121 545l141 -173v-34l-143 -173l-46 14l144 176l-143 177z" />
    <glyph glyph-name="colonsuperior" horiz-adv-x="169" 
d="M84 700q-12 0 -21 8.5t-9 20.5t9 20.5t21 8.5q13 0 22 -8.5t9 -20.5q0 -13 -9 -21t-22 -8zM84 458q-12 0 -21 8.5t-9 20.5t9 20.5t21 8.5q13 0 22 -8.5t9 -20.5q0 -13 -9 -21t-22 -8z" />
    <glyph glyph-name="commasuperior" horiz-adv-x="159" 
d="M87 526q30 0 30 -39q0 -27 -19.5 -62.5t-56.5 -65.5l-14 18q49 42 55 91q-25 5 -25 29q0 13 8.5 21t21.5 8z" />
    <glyph glyph-name="hyphensuperior" horiz-adv-x="266" 
d="M48 626h170v-33h-170v33z" />
    <glyph glyph-name="periodsuperior" horiz-adv-x="144" 
d="M72 458q-13 0 -21.5 8t-8.5 21q0 12 8.5 20.5t21.5 8.5q12 0 21 -8.5t9 -20.5t-9 -20.5t-21 -8.5z" />
    <glyph glyph-name="semicolonsuperior" horiz-adv-x="182" 
d="M93 700q-12 0 -21 8.5t-9 20.5t9 20.5t21 8.5t21 -8.5t9 -20.5t-9 -20.5t-21 -8.5zM92 527q30 0 30 -39q0 -27 -19.5 -63t-56.5 -65l-14 17q49 44 55 92q-25 5 -25 28q0 13 8.5 21.5t21.5 8.5z" />
    <glyph glyph-name="colon.dnom" horiz-adv-x="169" 
d="M84 236q-12 0 -21 8.5t-9 21.5q0 12 9 20.5t21 8.5q13 0 22 -8.5t9 -20.5q0 -13 -9 -21.5t-22 -8.5zM84 -6q-12 0 -21 8.5t-9 21.5q0 12 9 20t21 8q13 0 22 -8t9 -20q0 -13 -9 -21.5t-22 -8.5z" />
    <glyph glyph-name="comma.dnom" horiz-adv-x="159" 
d="M87 63q30 0 30 -39q0 -27 -19.5 -63t-56.5 -65l-14 17q49 44 55 92q-25 5 -25 28q0 13 8.5 21.5t21.5 8.5z" />
    <glyph glyph-name="hyphen.dnom" horiz-adv-x="266" 
d="M48 162h170v-33h-170v33z" />
    <glyph glyph-name="parenleft.dnom" horiz-adv-x="183" 
d="M125 -132q-35 51 -58.5 126t-23.5 157q0 83 23.5 157.5t58.5 123.5l32 -7q-33 -48 -54.5 -121t-21.5 -153q0 -81 22 -154.5t54 -120.5z" />
    <glyph glyph-name="parenright.dnom" horiz-adv-x="183" 
d="M58 -132l-32 8q32 47 54 120.5t22 154.5q0 80 -21.5 153t-54.5 121l32 7q35 -49 58.5 -123.5t23.5 -157.5q0 -82 -23.5 -157t-58.5 -126z" />
    <glyph glyph-name="period.dnom" horiz-adv-x="144" 
d="M72 -6q-13 0 -21.5 8.5t-8.5 21.5q0 12 8.5 20t21.5 8q12 0 21 -8t9 -20q0 -13 -9 -21.5t-21 -8.5z" />
    <glyph glyph-name="semicolon.dnom" horiz-adv-x="182" 
d="M93 236q-12 0 -21 8.5t-9 21.5q0 12 9 20.5t21 8.5t21 -8.5t9 -20.5q0 -13 -9 -21.5t-21 -8.5zM92 63q30 0 30 -39q0 -27 -19.5 -63t-56.5 -65l-14 17q49 44 55 92q-25 5 -25 28q0 13 8.5 21.5t21.5 8.5z" />
    <glyph glyph-name="colon.numr" horiz-adv-x="169" 
d="M84 511q-12 0 -21 8.5t-9 20.5t9 20.5t21 8.5q13 0 22 -8.5t9 -20.5q0 -13 -9 -21t-22 -8zM84 269q-12 0 -21 8.5t-9 20.5t9 20.5t21 8.5q13 0 22 -8.5t9 -20.5q0 -13 -9 -21t-22 -8z" />
    <glyph glyph-name="comma.numr" horiz-adv-x="159" 
d="M86 337q30 0 30 -39q0 -27 -19 -62.5t-57 -65.5l-14 18q49 43 55 92q-25 4 -25 28q0 13 8.5 21t21.5 8z" />
    <glyph glyph-name="hyphen.numr" horiz-adv-x="266" 
d="M48 437h170v-33h-170v33z" />
    <glyph glyph-name="parenleft.numr" horiz-adv-x="183" 
d="M125 143q-36 49 -59 124.5t-23 157.5q0 83 23.5 158t58.5 124l31 -8q-33 -47 -54 -120t-22 -154q0 -81 22 -154.5t54 -119.5z" />
    <glyph glyph-name="parenright.numr" horiz-adv-x="183" 
d="M58 143l-31 8q32 46 54 120t22 154q0 81 -21.5 154t-54.5 120l31 8q35 -49 58.5 -124t23.5 -158q0 -82 -23 -157.5t-59 -124.5z" />
    <glyph glyph-name="period.numr" horiz-adv-x="144" 
d="M72 269q-13 0 -21.5 8t-8.5 21q0 12 8.5 20.5t21.5 8.5q12 0 21 -8.5t9 -20.5t-9 -20.5t-21 -8.5z" />
    <glyph glyph-name="semicolon.numr" horiz-adv-x="182" 
d="M93 511q-12 0 -21 8.5t-9 20.5t9 20.5t21 8.5q13 0 22 -8.5t9 -20.5q0 -13 -9 -21t-22 -8zM92 338q30 0 30 -39q0 -27 -19.5 -63t-56.5 -65l-14 17q49 44 55 92q-25 5 -25 28q0 13 8.5 21.5t21.5 8.5z" />
    <glyph glyph-name="colon.subs" horiz-adv-x="169" 
d="M84 23q-12 0 -21 8.5t-9 20.5t9 20.5t21 8.5q13 0 22 -8.5t9 -20.5q0 -13 -9 -21t-22 -8zM84 -220q-12 0 -21 8.5t-9 21.5q0 12 9 20t21 8q13 0 22 -8t9 -20q0 -13 -9 -21.5t-22 -8.5z" />
    <glyph glyph-name="comma.subs" horiz-adv-x="159" 
d="M87 -151q30 0 30 -39q0 -27 -19.5 -63t-56.5 -65l-14 18q49 44 55 91q-25 5 -25 29q0 12 8.5 20.5t21.5 8.5z" />
    <glyph glyph-name="hyphen.subs" horiz-adv-x="266" 
d="M48 -51h170v-33h-170v33z" />
    <glyph glyph-name="parenleft.subs" horiz-adv-x="183" 
d="M125 -346q-35 51 -58.5 126t-23.5 157q0 83 23.5 157.5t58.5 123.5l32 -7q-33 -48 -54.5 -121t-21.5 -153q0 -81 22 -154.5t54 -120.5z" />
    <glyph glyph-name="parenright.subs" horiz-adv-x="183" 
d="M58 -346l-32 8q32 47 54 120.5t22 154.5q0 80 -21.5 153t-54.5 121l32 7q35 -49 58.5 -123.5t23.5 -157.5q0 -82 -23.5 -157t-58.5 -126z" />
    <glyph glyph-name="period.subs" horiz-adv-x="144" 
d="M72 -220q-13 0 -21.5 8.5t-8.5 21.5q0 12 8.5 20t21.5 8q12 0 21 -8t9 -20q0 -13 -9 -21.5t-21 -8.5z" />
    <glyph glyph-name="semicolon.subs" horiz-adv-x="182" 
d="M93 23q-12 0 -21 8.5t-9 20.5t9 20.5t21 8.5t21 -8.5t9 -20.5t-9 -20.5t-21 -8.5zM92 -151q30 0 30 -39q0 -27 -19.5 -63t-56.5 -65l-14 17q49 44 55 92q-25 5 -25 28q0 13 8.5 21.5t21.5 8.5z" />
    <glyph glyph-name="cent.case" horiz-adv-x="469" 
d="M422 146q-61 -38 -138 -41v-104h-39v106q-89 10 -140.5 76.5t-51.5 170.5q0 106 52.5 173.5t139.5 75.5v107h39v-107q89 -7 136 -58l-25 -33q-38 42 -111 49v-414q76 2 130 40zM104 354q0 -84 37 -138.5t104 -65.5v411q-65 -9 -103 -64.5t-38 -142.5z" />
    <glyph glyph-name="uni207C" horiz-adv-x="402" 
d="M54 686h294v-33h-294v33zM54 567h294v-34h-294v34z" />
    <glyph glyph-name="uni207A" horiz-adv-x="362" 
d="M328 625v-34h-130v-128h-34v128h-130v34h130v129h34v-129h130z" />
    <glyph glyph-name="arrowup" horiz-adv-x="503" 
d="M455 406v-12h-182v-496h-43v496h-182v12l203 204z" />
    <glyph glyph-name="uni2197" horiz-adv-x="646" 
d="M282 505l289 -1v-287l-9 -8l-128 127l-351 -350l-30 29l351 352l-130 129z" />
    <glyph glyph-name="arrowright" horiz-adv-x="835" 
d="M572 454l203 -203l-204 -205h-13v184h-495v42h496v182h13z" />
    <glyph glyph-name="uni2198" horiz-adv-x="648" 
d="M563 291l9 -8l-1 -289h-287l-8 8l128 129l-351 351l30 30l351 -351z" />
    <glyph glyph-name="arrowdown" horiz-adv-x="503" 
d="M272 104h183v-13l-204 -204l-203 203v13h181v496h43v-495z" />
    <glyph glyph-name="uni2199" horiz-adv-x="647" 
d="M594 483l-350 -351l130 -129l-9 -9l-289 1v286l9 9l128 -128l351 351z" />
    <glyph glyph-name="arrowleft" horiz-adv-x="835" 
d="M772 272v-42h-495v-184h-12l-204 205l203 203h12v-182h496z" />
    <glyph glyph-name="uni2196" horiz-adv-x="648" 
d="M595 14l-30 -29l-350 349l-130 -130l-9 9l1 289h287l8 -9l-128 -128z" />
    <glyph glyph-name="triagup" horiz-adv-x="678" 
d="M30 112l309 535l310 -536z" />
    <glyph glyph-name="uni25B6" horiz-adv-x="672" 
d="M88 673l535 -309l-536 -311z" />
    <glyph glyph-name="triagdn" horiz-adv-x="672" 
d="M27 646l619 1l-310 -536z" />
    <glyph glyph-name="uni25C0" horiz-adv-x="672" 
d="M584 673l1 -620l-536 311z" />
    <glyph glyph-name="uni2605" horiz-adv-x="809" 
d="M549 250l90 -275l-235 170l-234 -170l89 275l-234 171h290l89 276l90 -276h290z" />
    <glyph glyph-name="uni2611" horiz-adv-x="640" 
d="M684 695l-104 -182v-513h-520v520h468l112 199zM539 42v399l-195 -342l-171 239l37 32l130 -182l164 291h-402v-437h437z" />
    <glyph glyph-name="uni261C" horiz-adv-x="1061" 
d="M198 393l78 -4q-18 -20 -18 -39q0 -10 6 -24q-16 -8 -26.5 -24.5t-10.5 -34.5q0 -17 11 -28q-25 -23 -25 -49q0 -42 49.5 -66t96.5 -24q52 0 71 29l212 49q23 7 41.5 -3.5t36.5 -25t37 -14.5q62 191 -2 386l-28 -11v-39l-224 82q-16 7 -40.5 -2.5t-40.5 -31.5l-261 8
q-124 7 -124 -65q0 -12 4.5 -21t15 -15.5t20 -10.5t27 -7.5t29 -5.5t33.5 -4.5t32 -4.5zM786 124h157q62 183 0 407h-157q36 -63 35 -202.5t-35 -204.5zM437 173q40 5 40 56q29 6 40.5 19t19.5 43q65 -1 130 25l-8 17l-9 -2q-40 -9 -67 -9q-53 0 -90 43l45 56l-11 15
l-55 -42q-44 -38 -75 -38q-16 0 -31 8t-15 22q0 8 8.5 16.5t32.5 32t48 53.5q17 24 33 34t39 1l218 -87q16 -25 17.5 -61.5t-10.5 -70.5t-38.5 -61.5t-61.5 -36.5l-200 -50v17zM180 424q-107 10 -107 36q0 7 1.5 12.5t5.5 9.5t7.5 7t10 4.5t11.5 2.5t13 1h13h14.5h13.5
l245 -7q-4 -10 -10 -19t-17 -18t-17 -13.5t-21 -15t-19 -12.5q-24 0 -78 5.5t-66 6.5zM395 332q18 0 39 7t23 7q16 0 33 -17.5t17 -32.5q0 -16 -12 -26t-29 -10q-12 0 -51.5 14.5t-58.5 23.5q-64 26 -64 55q0 16 16 25q37 -46 87 -46zM288 298q5 0 15.5 -4.5t11.5 -4.5
q51 -29 107 -46q1 0 8 -2.5t11 -5.5t4 -7q0 -32 -31 -32q-43 0 -107 25q-17 6 -30.5 19.5t-13.5 30.5q0 10 7.5 18.5t17.5 8.5zM264 214q6 0 28 -11l27 -12l27 -10q6 -1 21.5 -5t23.5 -6q18 -2 18 -16q0 -31 -51 -31q-29 0 -70 18t-41 44q0 6 6 17.5t11 11.5z" />
    <glyph glyph-name="uni261E" horiz-adv-x="1061" 
d="M863 393q10 2 32 4.5t33.5 4.5t29 5.5t27 7.5t20 10.5t15 15.5t4.5 21q0 72 -124 65l-261 -8q-16 22 -40.5 31.5t-40.5 2.5l-224 -82v39l-28 11q-64 -195 -2 -386q19 0 37 14.5t36.5 25t41.5 3.5l212 -49q19 -29 71 -29q47 0 96.5 24t49.5 66q0 26 -25 49q11 11 11 28
q0 18 -10.5 34.5t-26.5 24.5q6 14 6 24q0 19 -18 39zM275 124q-34 65 -35 204.5t35 202.5h-157q-62 -224 0 -407h157zM624 173v-17l-200 50q-35 9 -61.5 36.5t-38.5 61.5t-10.5 70.5t17.5 61.5l218 87q23 9 39 -1t33 -34q24 -30 48 -53.5t32.5 -32t8.5 -16.5q0 -14 -15 -22
t-31 -8q-31 0 -75 38l-55 42l-11 -15l45 -56q-37 -43 -90 -43q-27 0 -67 9l-9 2l-8 -17q65 -26 130 -25q8 -30 19.5 -43t40.5 -19q0 -51 40 -56zM881 424q-12 -1 -66 -6.5t-78 -5.5q-4 2 -19 12.5t-21 15t-17 13.5t-17 18t-10 19l245 7h13.5h14.5h13t13 -1t11.5 -2.5
t10 -4.5t7.5 -7t5.5 -9.5t1.5 -12.5q0 -26 -107 -36zM666 332q50 0 87 46q16 -9 16 -25q0 -29 -64 -55q-19 -9 -58.5 -23.5t-51.5 -14.5q-17 0 -29 10t-12 26q0 15 17 32.5t33 17.5q2 0 23 -7t39 -7zM773 298q10 0 17.5 -8.5t7.5 -18.5q0 -17 -13.5 -30.5t-30.5 -19.5
q-64 -25 -107 -25q-31 0 -31 32q0 4 4 7t11 5.5t8 2.5q56 17 107 46q1 0 11.5 4.5t15.5 4.5zM797 214q5 0 11 -11.5t6 -17.5q0 -26 -41 -44t-70 -18q-51 0 -51 31q0 14 18 16q8 2 23.5 6t21.5 5l27 10l27 12q22 11 28 11z" />
    <glyph glyph-name="uni267C" horiz-adv-x="816" 
d="M762 354q0 146 -103.5 250t-250.5 104q-146 0 -250 -104t-104 -250q0 -147 104 -250.5t250 -103.5q147 0 250.5 103.5t103.5 250.5zM415 445l39 24l-41 69q-5 12 -15 2l-71 -125l-114 65l57 98q13 30 56 34l162 -1q32 -2 49 -32l28 -46l42 25l-63 -112zM482 295v-46l81 1
q6 -1 8.5 2.5t0.5 8.5l-72 126l113 64l57 -97q18 -27 0 -66l-81 -140q-19 -26 -52 -27l-54 -1v-49l-65 112zM318 312l-40 23l-40 -71q-7 -12 6 -14h144l1 -130h-113q-32 -3 -58 32l-81 140q-13 29 3 59l26 47l-42 24l128 1z" />
    <glyph glyph-name="uni2713" horiz-adv-x="640" 
d="M538 719l44 -24l-340 -596l-171 239l37 32l130 -182z" />
    <glyph glyph-name="uniF8FF" horiz-adv-x="921" 
d="M50 0v700h821v-700h-821zM491 367q12 0 16 7h1l2 -6h8v73h-11v-19q0 -5 1 -9h-1q-5 8 -15 8t-16 -7q-5 -8 -5 -20t5 -20q6 -7 15 -7zM643 434q0 -3 1 -5q1 -1 5 -1t5 1q1 2 1 5t-1 5q-1 1 -5 1t-5 -1q-1 -2 -1 -5zM171 368l20 57h1q0 -4 -1 -10v-47h11v69h-16l-20 -55
l-19 55h-16v-69h10v33q0 16 -1 25h1l20 -58h10zM351 376q-4 0 -5 2q-2 1 -2 6v28h15v8h-15v12h-7l-4 -11l-8 -4v-5h8v-29q0 -16 15 -16h6q1 0 2.5 0.5t2.5 1.5v8q-2 -1 -8 -1zM268 394q0 11 -7 20q-6 7 -18 7t-19 -7q-6 -7 -6 -20q0 -8 3 -14q3 -7 9 -10q4 -3 13 -3
q12 0 18 7q7 9 7 20zM318 383q0 2 -2 6q-1 2 -4 5q-7 3 -10 4l-4 2t-3.5 2t-2.5 1q-2 2 -2 4q0 5 9 5q5 0 14 -3l4 8q-8 4 -18 4t-15 -4q-5 -3 -5 -10q0 -6 3 -9q3 -4 12 -7l8 -4q3 0 3 -2q2 -2 2 -4q0 -6 -11 -6q-5 0 -17 4v-9q6 -3 17 -3t16 4q6 5 6 12zM412 368v35
q0 10 -5 14q-4 4 -15 4q-6 0 -9 -1q-6 -2 -10 -4l4 -8q3 3 7 3q3 1 8 1q6 0 7 -2q2 -2 2 -8v-2l-9 -1q-13 0 -18 -4q-6 -5 -6 -12q0 -8 4 -12t12 -4t10 1q3 2 8 7l3 -7h7zM457 421q-6 0 -9 -3q-6 -4 -7 -7h-1l-1 9h-9v-52h11v27q0 5 4 11q5 5 11 5q3 0 5 -1l1 11h-5z
M559 367h10l8 3v9l-9 -3q-1 0 -3.5 -0.5t-4.5 -0.5q-8 0 -11 5q-4 3 -4 11h35v6q0 12 -6 18t-17 6t-17 -7q-7 -7 -7 -21q0 -12 7 -19t19 -7zM629 383q0 4 -1 6t-4 5q-7 3 -10 4l-10 5q-2 2 -2 4q0 5 9 5q5 0 14 -3l4 8q-8 4 -18 4t-15 -4q-5 -3 -5 -10q0 -6 3 -9q3 -4 12 -7
q1 0 2.5 -1l3 -2t2.5 -1q3 0 3 -2q1 -1 1 -4q0 -6 -10 -6q-5 0 -17 4v-9q6 -3 17 -3t16 4t5 12zM699 420h-1q-2 1 -3 1h-5q-10 0 -15 -5q-6 -4 -6 -13q0 -6 3 -9q3 -5 7 -6q-1 0 -5 -4q-2 -2 -2 -5l1 -4q1 -3 4 -3q-4 -1 -8 -5q-3 -3 -3 -8q0 -7 5 -11q8 -4 17 -4q13 0 21 5
q7 4 7 14q0 7 -4 11q-4 3 -14 3h-9q-2 0 -4 1h-2q-2 2 -2 3q0 3 4 5h5q10 0 15 4q6 4 6 13q0 1 -1 3v2l-2 4l9 2v6h-18zM775 402q0 19 -19 19q-4 0 -10 -2q-4 -1 -7 -6l-2 7h-9v-52h12v26q0 10 3 14t10 4q5 0 8 -3q2 -2 2 -9v-32h12v34zM655 420h-12v-52h12v52zM680 403
q0 5 3 8q1 3 7 3t7 -3q3 -3 3 -8q0 -10 -10 -10q-3 0 -7 2q-3 3 -3 8zM557 413q4 0 8 -4t4 -10h-24q0 7 4 10q4 4 8 4zM229 394q0 9 4 13q3 5 10 5q13 0 13 -18t-13 -18q-14 0 -14 18zM494 376q-6 0 -9 4t-3 14q0 8 3 13t9 5q7 0 10 -4q4 -4 4 -14v-2q0 -9 -4 -12
q-3 -4 -10 -4zM388 375q-4 0 -6 2q-2 1 -2 6q0 4 3 7q6 2 12 2l6 1v-5q0 -6 -3 -9q-4 -4 -10 -4zM676 359q0 5 2 7q4 2 8 2h8q7 0 9 -2q3 -2 3 -5q0 -4 -5 -6q-5 -3 -13 -3q-5 0 -9 2q-3 2 -3 5zM649 250q10 0 15 8h1l2 -7h8v74h-11v-19q0 -1 0.5 -4t0.5 -5q-6 7 -16 7
t-16 -7q-5 -8 -5 -20t5 -20q6 -7 16 -7zM155 311h21v9h-52v-9h20v-60h11v60zM401 280h26v9h-26v22h28v9h-39v-69h11v29zM200 251l-2 -5q-3 -9 -11 -9h-6v-8q3 -1 7 -1q15 0 21 16l22 60h-12q-2 -8 -4.5 -14.5t-4 -10.5t-2.5 -7t-1 -4q-1 -2 -1 -6h-1q0 6 -3 12l-11 30h-12z
M268 250q8 0 15 7q6 7 6 20q0 14 -6 20q-4 7 -15 7t-16 -8l-2 8h-9v-76h11v29q6 -7 16 -7zM327 250q6 0 9 1q5 0 8 3v9q-4 -3 -8 -3q-3 -1 -9 -1q-7 0 -11 4q-4 6 -4 12h35v6q0 11 -6 17t-16 6q-12 0 -18 -7t-6 -20t6 -20q7 -7 20 -7zM489 277q0 13 -7 20q-6 7 -18 7t-18 -7
q-7 -6 -7 -20q0 -8 3 -14q3 -5 9 -10q6 -3 13 -3q11 0 18 7t7 20zM549 251v53h-11v-27q0 -9 -3 -14q-4 -4 -10 -4q-5 0 -8 3t-3 9v33h-11v-35q0 -9 5 -14t14 -5q4 0 10 2q5 4 7 6l2 -7h8zM613 285q0 19 -18 19q-7 0 -10 -2q-3 -1 -7 -5l-2 7h-9v-53h11v26q0 8 4 14q3 4 10 4
q5 0 8 -3q2 -4 2 -9v-32h11v34zM720 304q-6 0 -9 -2t-7 -8l-2 10h-9v-53h11v27q0 7 5 12q3 4 10 4h5l1 10h-5zM750 251l-2 -5q-3 -9 -11 -9h-6v-8q3 -1 7 -1q15 0 21 16l22 60h-12q-2 -8 -4.5 -14.5t-4 -10.5t-2.5 -7t-1 -4q-1 -2 -1 -6h-1q0 6 -3 12l-11 30h-12zM325 296
q5 0 8 -3q3 -5 3 -10h-24q2 6 4 10q3 3 9 3zM265 295q6 0 9 -4q3 -5 3 -14t-3 -13q-3 -5 -9 -5q-7 0 -10 5q-3 3 -3 13v2q0 9 3 12q3 4 10 4zM451 277q0 9 3 14q3 4 10 4q13 0 13 -18t-13 -18t-13 18zM652 259q-7 0 -10 5q-3 4 -3 13q0 8 3 14q4 4 9 4q7 0 11 -4q3 -5 3 -14
v-1q0 -8 -3 -13q-4 -4 -10 -4z" />
    <glyph glyph-name="uni2117" horiz-adv-x="823" 
d="M412 710q148 0 252.5 -104.5t104.5 -252.5t-104.5 -253t-252.5 -105t-253 104.5t-105 253.5q0 148 105 252.5t253 104.5zM412 31q133 0 227 94.5t94 227.5t-94 227t-227 94q-134 0 -228.5 -94t-94.5 -227t94.5 -227.5t228.5 -94.5zM446 549q55 0 88 -32t33 -84
t-33.5 -83.5t-88.5 -31.5h-91v-160h-45v391h137zM439 351q38 0 60.5 22.5t22.5 58.5t-22.5 58.5t-60.5 22.5h-85v-162h85z" />
    <glyph glyph-name="uni2113" horiz-adv-x="414" 
d="M364 69l23 -34q-58 -45 -137 -45q-44 0 -75.5 17t-47.5 44.5t-22.5 54.5t-6.5 55v1q-21 -14 -60 -32l-11 27q55 38 71 51v293q0 98 40 158.5t106 60.5q59 0 94.5 -42t35.5 -111q0 -89 -62 -192.5t-164 -182.5v-17q1 -65 29 -103t81 -38q61 0 106 35zM242 681
q-42 0 -68 -48t-26 -126v-261q81 68 130 155.5t49 164.5q0 52 -23.5 83.5t-61.5 31.5z" />
    <glyph glyph-name="estimated" horiz-adv-x="650" 
d="M333 577q124 0 198.5 -84.5t74.5 -206.5h-429v-193q66 -63 152 -63q76 0 123 33t87 94l31 -19q-44 -68 -99 -104.5t-142 -36.5q-119 0 -195 84.5t-76 205.5q0 123 75 206.5t200 83.5zM333 544q-96 0 -156 -62v-163h309v163q-68 62 -153 62z" />
    <glyph glyph-name="uni2116" horiz-adv-x="1050" 
d="M841 380q-73 0 -115 44t-42 122q0 79 42 123.5t115 44.5q74 0 116.5 -44.5t42.5 -123.5q0 -78 -42.5 -122t-116.5 -44zM552 84v626h50v-710h-55l-396 625v-625h-50v710h56zM841 677q-53 0 -83 -35t-30 -96q0 -60 30.5 -95t82.5 -35q53 0 84 35t31 95q0 61 -31 96t-84 35z
M692 276v41h300v-40z" />
    <glyph glyph-name="uni2B24" horiz-adv-x="706" 
d="M650 353q0 -123 -87 -210t-210 -87t-210 87t-87 210t87 210t210 87t210 -87t87 -210z" />
    <glyph glyph-name="uni2120" horiz-adv-x="852" 
d="M242 521q90 -41 90 -108q0 -100 -137 -100q-80 0 -132 36l15 33q51 -33 114 -33q48 0 71.5 18t23.5 46q0 42 -63 70l-66 29q-79 35 -79 100q0 49 34.5 76t99.5 27q56 0 105 -22l-13 -33q-45 20 -89 20q-43 0 -67.5 -18t-24.5 -50q0 -40 53 -62zM774 319h-43l-12 324
l-117 -321h-42l-117 323l-12 -326h-43l15 391h56l123 -339l122 339h55z" />
    <glyph glyph-name="at.case" horiz-adv-x="921" 
d="M485 744q175 0 282 -106.5t107 -280.5q0 -119 -49.5 -190t-136.5 -71q-112 0 -128 102q-69 -54 -143 -54q-56 0 -91 32t-35 82q0 52 43.5 82.5t117.5 30.5q56 0 105 -14v35q0 50 -26.5 80.5t-76.5 30.5q-81 0 -127 -39l-7 40q58 38 138 38q72 0 109.5 -41t37.5 -110v-159
q1 -47 24 -73t62 -26q66 0 103 61t37 162q0 156 -95.5 252.5t-250.5 96.5q-174 0 -281 -109t-107 -285q0 -163 104 -265.5t263 -102.5q96 0 178 30l10 -37q-88 -31 -190 -31q-178 0 -293.5 112.5t-115.5 293.5q0 195 119 314t313 119zM341 258q0 -34 23 -54.5t61 -20.5
q69 0 132 55v79q-38 15 -103 15q-53 0 -83 -19.5t-30 -54.5z" />
    <glyph glyph-name="centsuperior" horiz-adv-x="305" 
d="M261 517l6 -35q-37 -20 -78 -23v-54h-32v54q-55 6 -87 46t-32 103q0 62 32.5 103t86.5 46v53h32v-53q51 -5 78 -35l-18 -28q-20 22 -60 27v-227q42 3 72 23zM82 608q0 -44 19.5 -74t55.5 -37v223q-35 -7 -55 -37t-20 -75z" />
    <glyph glyph-name="dollarsuperior" horiz-adv-x="334" 
d="M302 577q0 -41 -29 -68.5t-87 -32.5v-58h-29v57q-70 1 -120 32l6 37q49 -33 119 -33q95 0 95 66q0 26 -16 42t-48 29l-67 28q-42 17 -61.5 39t-19.5 58q0 46 30 73.5t82 32.5v52h29v-51q50 -1 96 -22l-5 -35q-43 20 -94 20q-44 0 -68.5 -17.5t-24.5 -49.5q0 -42 53 -63
l69 -29q90 -37 90 -107z" />
    <glyph glyph-name="eurosuperior" horiz-adv-x="405" 
d="M360 511l12 -34q-38 -19 -99 -19q-75 0 -124 45.5t-60 123.5h-61l10 22h49q-1 7 -1 21q0 15 1 22h-55l10 22h47q11 78 59.5 123.5t123.5 45.5q55 0 96 -17l-14 -34q-28 12 -77 12q-56 0 -94 -34.5t-48 -95.5h166l-11 -22h-158q-1 -7 -1 -22q0 -14 1 -21h144l-9 -22h-133
q11 -61 49 -96.5t95 -35.5q50 0 82 16z" />
    <glyph glyph-name="sterlingsuperior" horiz-adv-x="354" 
d="M112 499h208v-35h-288v35h35q34 47 34 109v13h-53v28h50q-1 11 -5.5 36t-6.5 44t-2 36q0 53 35.5 85t95.5 32q50 0 90 -23l-6 -36q-39 23 -78 23q-41 0 -66.5 -23t-25.5 -59q0 -23 6 -66t7 -49h99v-28h-96v-14q0 -62 -33 -108z" />
    <glyph glyph-name="multiplysuperior" horiz-adv-x="362" 
d="M319 724l-114 -114l114 -115l-23 -24l-114 115l-115 -115l-24 24l115 115l-115 114l24 23l115 -114l114 114z" />
    <glyph glyph-name="dividesuperior" horiz-adv-x="385" 
d="M192 681q-11 0 -19 8t-8 20q0 10 8 18t19 8q12 0 20.5 -7.5t8.5 -18.5q0 -12 -8.5 -20t-20.5 -8zM46 586v31h293v-31h-293zM192 458q-11 0 -19 7.5t-8 19.5q0 11 8 18.5t19 7.5q12 0 20.5 -7.5t8.5 -18.5q0 -12 -8.5 -19.5t-20.5 -7.5z" />
    <glyph glyph-name="plusminussuperior" horiz-adv-x="393" 
d="M213 656h131v-34h-131v-87h-33v87h-131v34h131v87h33v-87zM49 463v31h295v-31h-295z" />
    <glyph glyph-name="yensuperior" horiz-adv-x="353" 
d="M332 871l-134 -225v-41h80v-25h-80v-30h80v-25h-80v-61h-44v61h-79v25h79v30h-79v25h79v42l-133 224v5h47l109 -193l108 193h47v-5z" />
    <glyph glyph-name="cent.dnom" horiz-adv-x="305" 
d="M261 53l6 -34q-39 -21 -78 -24v-53h-32v53q-55 6 -87 46t-32 103t32.5 104t86.5 46v53h32v-53q52 -7 78 -36l-18 -27q-21 21 -60 26v-227q42 3 72 23zM82 144q0 -44 19.5 -74t55.5 -37v223q-35 -7 -55 -36.5t-20 -75.5z" />
    <glyph glyph-name="dollar.dnom" horiz-adv-x="334" 
d="M301 113q0 -40 -28.5 -68t-86.5 -33v-57h-30v56q-71 2 -120 33l6 37q48 -34 119 -34q96 0 96 66q0 27 -16 43t-49 29l-67 27q-42 18 -61.5 40t-19.5 58q0 45 30 72.5t82 32.5v53h30v-52q47 -1 96 -21l-6 -35q-42 20 -94 20q-44 0 -68.5 -17.5t-24.5 -49.5q0 -41 53 -64
l69 -28q90 -37 90 -108z" />
    <glyph glyph-name="Euro.dnom" horiz-adv-x="405" 
d="M360 48l12 -35q-38 -19 -99 -19q-75 0 -124 46t-60 124h-61l10 22h49q-1 7 -1 20q0 16 1 23h-55l10 22h47q11 78 60 123t123 45q55 0 96 -17l-14 -34q-31 13 -77 13q-56 0 -93.5 -34.5t-48.5 -95.5h166l-11 -22h-158q-1 -7 -1 -23q0 -13 1 -20h144l-9 -22h-133
q10 -62 48 -97.5t96 -35.5q48 0 82 17z" />
    <glyph glyph-name="plus.dnom" horiz-adv-x="362" 
d="M328 161v-33h-130v-129h-34v129h-130v33h130v129h34v-129h130z" />
    <glyph glyph-name="multiply.dnom" horiz-adv-x="362" 
d="M319 260l-113 -114l113 -115l-23 -24l-114 115l-115 -115l-24 24l114 115l-114 114l24 24l115 -114l114 114z" />
    <glyph glyph-name="divide.dnom" horiz-adv-x="385" 
d="M192 218q-11 0 -19 8t-8 19t8 19t19 8q12 0 20.5 -8t8.5 -19t-8.5 -19t-20.5 -8zM46 122v31h293v-31h-293zM192 -6q-11 0 -19 8t-8 20q0 10 8 18t19 8q12 0 20.5 -7.5t8.5 -18.5q0 -12 -8.5 -20t-20.5 -8z" />
    <glyph glyph-name="equal.dnom" horiz-adv-x="402" 
d="M54 223h294v-34h-294v34zM54 103h294v-33h-294v33z" />
    <glyph glyph-name="plusminus.dnom" horiz-adv-x="393" 
d="M213 192h131v-33h-131v-87h-33v87h-131v33h131v88h33v-88zM49 -1v31h295v-31h-295z" />
    <glyph glyph-name="sterling.dnom" horiz-adv-x="354" 
d="M112 36h208v-36h-288v36h35q34 47 34 108v14h-53v28h50q-1 11 -5.5 35.5t-6.5 43.5t-2 37q0 53 35.5 85t95.5 32q48 0 90 -24l-6 -35q-39 23 -78 23q-42 0 -67 -23.5t-25 -59.5q0 -23 6 -65.5t7 -48.5h99v-28h-96v-14q0 -62 -33 -108z" />
    <glyph glyph-name="yen.dnom" horiz-adv-x="353" 
d="M332 407l-134 -224v-42h80v-25h-80v-29h80v-26h-80v-61h-44v61h-79v26h79v29h-79v25h79v42l-133 224v5h47l109 -193l108 193h47v-5z" />
    <glyph glyph-name="cent.numr" horiz-adv-x="305" 
d="M260 328l6 -35q-35 -20 -78 -23v-54h-31v54q-55 5 -87 45.5t-32 103.5q0 62 32.5 103t86.5 46v53h31v-53q52 -5 79 -35l-18 -28q-24 24 -61 27v-227q40 1 72 23zM82 419q0 -44 19.5 -74t55.5 -37v223q-35 -7 -55 -37t-20 -75z" />
    <glyph glyph-name="dollar.numr" horiz-adv-x="334" 
d="M302 388q0 -41 -28.5 -68.5t-86.5 -32.5v-58h-30v57q-71 2 -120 33l6 36q49 -33 119 -33q96 0 96 66q0 26 -16 42t-49 30l-67 27q-42 17 -61.5 39t-19.5 58q0 46 30 73.5t82 32.5v52h30v-51q49 -1 96 -22l-6 -35q-42 20 -94 20q-44 0 -68.5 -17.5t-24.5 -49.5
q0 -42 53 -63l69 -29q90 -37 90 -107z" />
    <glyph glyph-name="Euro.numr" horiz-adv-x="405" 
d="M360 322l12 -34q-38 -19 -99 -19q-75 0 -124 45.5t-60 123.5h-61l10 22h49q-1 7 -1 21q0 15 1 22h-55l10 22h47q11 78 59.5 123.5t123.5 45.5q55 0 96 -17l-14 -34q-31 13 -77 13q-56 0 -94 -35t-48 -96h166l-11 -22h-158q-1 -7 -1 -22q0 -14 1 -21h144l-9 -22h-133
q11 -61 49 -96.5t95 -35.5q50 0 82 16z" />
    <glyph glyph-name="plus.numr" horiz-adv-x="362" 
d="M328 436v-34h-130v-128h-34v128h-130v34h130v129h34v-129h130z" />
    <glyph glyph-name="multiply.numr" horiz-adv-x="362" 
d="M319 535l-114 -114l114 -115l-23 -24l-114 115l-115 -115l-24 24l115 115l-115 114l24 24l115 -114l114 114z" />
    <glyph glyph-name="divide.numr" horiz-adv-x="385" 
d="M192 492q-11 0 -19 8t-8 20q0 10 8.5 18.5t18.5 8.5q12 0 20.5 -8t8.5 -19q0 -12 -8.5 -20t-20.5 -8zM46 397v31h293v-31h-293zM192 269q-11 0 -19 8t-8 20q0 10 8 17.5t19 7.5q12 0 20.5 -7.5t8.5 -17.5q0 -12 -8.5 -20t-20.5 -8z" />
    <glyph glyph-name="equal.numr" horiz-adv-x="402" 
d="M54 497h294v-33h-294v33zM54 378h294v-34h-294v34z" />
    <glyph glyph-name="plusminus.numr" horiz-adv-x="393" 
d="M213 467h131v-34h-131v-87h-33v87h-131v34h131v87h33v-87zM49 274v31h295v-31h-295z" />
    <glyph glyph-name="sterling.numr" horiz-adv-x="354" 
d="M112 310h208v-35h-288v35h35q34 47 34 109v13h-53v28h50q-1 11 -5.5 36t-6.5 44t-2 36q0 53 35.5 85t95.5 32q50 0 90 -23l-6 -35q-39 23 -78 23q-41 0 -66.5 -23.5t-25.5 -59.5q0 -23 6 -66t7 -49h99v-28h-96v-14q0 -62 -33 -108z" />
    <glyph glyph-name="yen.numr" horiz-adv-x="353" 
d="M332 682l-134 -224v-42h80v-25h-80v-30h80v-25h-80v-61h-44v61h-79v25h79v30h-79v25h79v42l-133 224v5h47l109 -193l108 193h47v-5z" />
    <glyph glyph-name="cent.subs" horiz-adv-x="305" 
d="M261 -160l6 -35q-39 -21 -78 -24v-53h-32v53q-55 6 -87 46.5t-32 102.5q0 63 32.5 104t86.5 46v53h32v-53q52 -7 78 -36l-18 -27q-21 21 -60 26v-226q42 2 72 23zM82 -70q0 -44 19.5 -73.5t55.5 -36.5v222q-35 -7 -55 -36.5t-20 -75.5z" />
    <glyph glyph-name="dollar.subs" horiz-adv-x="334" 
d="M301 -100q0 -41 -28.5 -69t-86.5 -33v-57h-30v56q-71 2 -120 33l6 37q46 -33 119 -33q96 0 96 66q0 26 -16 42t-49 29l-67 28q-42 17 -61.5 39t-19.5 58q0 45 30 72.5t82 32.5v53h30v-52q47 -1 96 -21l-6 -35q-42 20 -94 20q-44 0 -68.5 -17.5t-24.5 -49.5q0 -41 53 -64
l69 -28q90 -37 90 -107z" />
    <glyph glyph-name="Euro.subs" horiz-adv-x="405" 
d="M360 -166l12 -35q-38 -19 -99 -19q-75 0 -124 46t-60 124h-61l10 22h49q-1 7 -1 20q0 16 1 23h-55l10 22h47q11 78 60 123t123 45q59 0 96 -17l-14 -33q-28 12 -77 12q-56 0 -93.5 -34.5t-48.5 -95.5h166l-11 -22h-158q-1 -7 -1 -23q0 -13 1 -20h144l-9 -22h-133
q11 -62 49 -97t95 -35q50 0 82 16z" />
    <glyph glyph-name="plus.subs" horiz-adv-x="362" 
d="M328 -53v-33h-130v-129h-34v129h-130v33h130v129h34v-129h130z" />
    <glyph glyph-name="multiply.subs" horiz-adv-x="362" 
d="M319 46l-114 -114l114 -114l-23 -24l-114 114l-115 -114l-24 24l114 114l-114 114l24 24l115 -114l114 114z" />
    <glyph glyph-name="divide.subs" horiz-adv-x="385" 
d="M192 4q-11 0 -19 8t-8 19t8 19t19 8q12 0 20.5 -8t8.5 -19t-8.5 -19t-20.5 -8zM46 -91v30h293v-30h-293zM192 -220q-11 0 -19 8t-8 20q0 10 8 18t19 8q12 0 20.5 -7.5t8.5 -18.5q0 -12 -8.5 -20t-20.5 -8z" />
    <glyph glyph-name="equal.subs" horiz-adv-x="402" 
d="M54 9h294v-34h-294v34zM54 -111h294v-33h-294v33z" />
    <glyph glyph-name="plusminus.subs" horiz-adv-x="393" 
d="M213 -22h131v-33h-131v-87h-33v87h-131v33h131v88h33v-88zM49 -215v32h295v-32h-295z" />
    <glyph glyph-name="sterling.subs" horiz-adv-x="354" 
d="M112 -178h208v-36h-288v36h35q34 47 34 108v14h-53v28h50q-2 12 -6 36.5t-6 43.5t-2 36q0 53 35.5 85t95.5 32q50 0 90 -23l-6 -36q-39 23 -78 23q-41 0 -66.5 -23t-25.5 -59q0 -23 6 -66t7 -49h99v-28h-96v-14q0 -62 -33 -108z" />
    <glyph glyph-name="yen.subs" horiz-adv-x="353" 
d="M332 194l-134 -225v-41h80v-26h-80v-29h80v-25h-80v-62h-44v62h-79v25h79v29h-79v26h79v42l-133 224v4h47l109 -192l108 192h47v-4z" />
    </font>
</defs>
</svg>
