<?xml version="1.0" standalone="no"?>
<!DOCTYPE svg PUBLIC "-//W3C//DTD SVG 1.1//EN" "http://www.w3.org/Graphics/SVG/1.1/DTD/svg11.dtd" >
<svg xmlns="http://www.w3.org/2000/svg" xmlns:xlink="http://www.w3.org/1999/xlink" version="1.1">
<metadata>
Created by FontForge 20170731 at Thu Jun 22 14:52:31 2017
 By Aleksey,,,
Copyright (c) 2017 by Olivier Gourvat. All rights reserved.
</metadata>
<defs>
<font id="RivalSans-Bold" horiz-adv-x="600" >
  <font-face 
    font-family="Rival Sans"
    font-weight="700"
    font-stretch="normal"
    units-per-em="1000"
    panose-1="2 11 5 3 5 3 0 0 0 3"
    ascent="750"
    descent="-250"
    x-height="490"
    cap-height="710"
    bbox="-113 -313 1548 953"
    underline-thickness="50"
    underline-position="-300"
    unicode-range="U+0020-2122"
  />
<missing-glyph horiz-adv-x="659" 
d="M79 710h500v-710h-500v710zM268 249h44l-4 31q-4 36 32 64l54 38q24 17 38 43t14 51q0 51 -35 81.5t-92 30.5q-48 0 -101 -28l8 -40q49 26 89 26q37 0 58.5 -19t21.5 -51t-40 -63l-50 -38q-52 -36 -40 -107zM288 122q16 0 27 11t11 27q0 15 -11 26t-27 11t-27 -11
t-11 -26q0 -16 11 -27t27 -11z" />
    <glyph glyph-name="f_f" unicode="ff" horiz-adv-x="737" 
d="M693 604q-40 0 -63 -18t-23 -66v-30h126v-102h-126v-388h-141v388h-226v-388h-141v388h-81v102h81v47q0 50 18.5 87t50 57t65.5 29.5t72 9.5q82 0 124 -21l-19 -111q-37 16 -77 16q-93 0 -93 -84v-30h226v47q0 66 33 109t76.5 58.5t95.5 15.5q55 0 107 -15l-18 -111
q-26 10 -67 10z" />
    <glyph glyph-name="f_f_i" unicode="ffi" horiz-adv-x="1004" 
d="M818 490l119 10v-500h-141v388h-189v-388h-141v388h-226v-388h-141v388h-81v102h81v47q0 50 18.5 87t50 57t65.5 29.5t72 9.5q82 0 124 -21l-19 -111q-37 16 -77 16q-93 0 -93 -84v-30h226v47q0 50 21.5 87.5t56.5 57t72.5 29t76.5 9.5q90 0 150 -24l-18 -113
q-48 21 -114 21q-104 0 -104 -88v-26h211z" />
    <glyph glyph-name="f_f_l" unicode="ffl" horiz-adv-x="1041" 
d="M466 537q0 66 33 109t76.5 58.5t95.5 15.5q55 0 107 -15l-18 -111q-26 10 -67 10q-40 0 -63 -18t-23 -66v-30h133v-102h-133v-388h-141v388h-226v-388h-141v388h-81v102h81v47q0 50 18.5 87t50 57t65.5 29.5t72 9.5q82 0 124 -21l-19 -111q-37 16 -77 16q-93 0 -93 -84
v-30h226v47zM831 700l141 20v-720h-141v700z" />
    <glyph glyph-name="fi" unicode="fi" horiz-adv-x="632" 
d="M452 490l119 10v-500h-142v388h-189v-388h-141v388h-81v102h81v47q0 50 21.5 87.5t56.5 57t73 29t77 9.5q89 0 149 -24l-18 -113q-48 21 -114 21q-104 0 -104 -88v-26h212z" />
    <glyph glyph-name="fl" unicode="fl" horiz-adv-x="685" 
d="M99 537q0 50 18.5 87t50 57t65.5 29.5t72 9.5q44 0 100 -14l-18 -112q-26 10 -61 10q-40 0 -63 -18t-23 -66v-30h134v-102h-134v-388h-141v388h-81v102h81v47zM475 700l142 20v-720h-142v700z" />
    <glyph glyph-name=".notdef" horiz-adv-x="659" 
d="M79 710h500v-710h-500v710zM268 249h44l-4 31q-4 36 32 64l54 38q24 17 38 43t14 51q0 51 -35 81.5t-92 30.5q-48 0 -101 -28l8 -40q49 26 89 26q37 0 58.5 -19t21.5 -51t-40 -63l-50 -38q-52 -36 -40 -107zM288 122q16 0 27 11t11 27q0 15 -11 26t-27 11t-27 -11
t-11 -26q0 -16 11 -27t27 -11z" />
    <glyph glyph-name=".null" horiz-adv-x="0" 
 />
    <glyph glyph-name="nonmarkingreturn" horiz-adv-x="333" 
 />
    <glyph glyph-name="space" unicode=" " horiz-adv-x="225" 
 />
    <glyph glyph-name="space" unicode="&#xa0;" horiz-adv-x="225" 
 />
    <glyph glyph-name="exclam" unicode="!" horiz-adv-x="286" 
d="M100 221l-37 459v30h160v-30l-37 -459h-86zM143 -10q-36 0 -61.5 24t-25.5 60q0 34 25.5 58t61.5 24t61 -24t25 -58q0 -36 -25 -60t-61 -24z" />
    <glyph glyph-name="quotedbl" unicode="&#x22;" horiz-adv-x="439" 
d="M82 350l-32 275v85h133v-85l-31 -275h-70zM288 350l-32 275v85h133v-85l-31 -275h-70z" />
    <glyph glyph-name="numbersign" unicode="#" horiz-adv-x="715" 
d="M683 427h-129l-28 -134h110v-89h-129l-43 -204h-97l43 205l-168 -2l-43 -203h-97l43 203h-114v90h134l28 133h-115v90h134l40 194h97l-41 -194h169l40 194h97l-41 -194h110v-89zM430 293l28 135l-169 -2l-28 -133h169z" />
    <glyph glyph-name="dollar" unicode="$" horiz-adv-x="549" 
d="M518 214q-1 -78 -53.5 -128t-141.5 -63v-107h-81v102q-119 5 -204 59l19 113q97 -56 196 -56q55 0 87.5 19.5t32.5 54.5q0 48 -66 76l-112 47q-74 32 -111.5 75t-37.5 104q0 77 54 123.5t142 56.5v91h81v-89q90 -6 160 -35l-19 -112q-69 32 -157 32q-52 0 -84 -16
t-32 -46q0 -42 62 -67l117 -49q70 -29 108.5 -77t39.5 -108z" />
    <glyph glyph-name="percent" unicode="%" horiz-adv-x="854" 
d="M199 -5l388 719l59 -30l-387 -720zM203 304q-78 0 -126 53t-48 140q0 88 48 141.5t126 53.5q77 0 124 -53.5t47 -141.5q0 -87 -47 -140t-124 -53zM203 384q34 0 54.5 31.5t20.5 81.5q0 52 -20.5 83t-54.5 31q-35 0 -56 -31t-21 -83q0 -50 21.5 -81.5t55.5 -31.5zM654 -5
q-79 0 -127 53t-48 140q0 88 48 141.5t127 53.5q76 0 123 -53.5t47 -141.5q0 -87 -46.5 -140t-123.5 -53zM653 75q34 0 54.5 31.5t20.5 81.5q0 52 -20.5 83t-54.5 31q-35 0 -56 -31t-21 -83q0 -50 21.5 -81.5t55.5 -31.5z" />
    <glyph glyph-name="ampersand" unicode="&#x26;" horiz-adv-x="721" 
d="M581 162l127 -149v-13h-152l-60 71q-102 -82 -231 -82q-105 0 -170.5 52.5t-65.5 141.5q0 71 45 125t134 100l-3 4q-66 78 -66 148q0 68 54.5 111.5t139.5 43.5q86 0 137.5 -44t51.5 -112q0 -106 -126 -179l102 -120q25 48 40 106h132v-13q-30 -107 -89 -191zM334 611
q-27 0 -44.5 -14.5t-17.5 -39.5q0 -39 50 -91q74 38 74 86q0 26 -17 42.5t-45 16.5zM285 107q71 0 135 53l-136 160q-53 -26 -81 -54t-28 -68q0 -43 31 -67t79 -24z" />
    <glyph glyph-name="quotesingle" unicode="'" horiz-adv-x="234" 
d="M82 350l-32 275v85h133v-85l-31 -275h-70z" />
    <glyph glyph-name="parenleft" unicode="(" horiz-adv-x="296" 
d="M185 -204q-67 99 -105.5 221t-38.5 242t38 241t106 220l101 -18q-129 -197 -129 -444q0 -248 129 -444z" />
    <glyph glyph-name="parenright" unicode=")" horiz-adv-x="296" 
d="M112 -204l-102 18q129 196 129 444q0 247 -129 444l102 18q68 -100 106 -220.5t38 -240.5t-38.5 -241.5t-105.5 -221.5z" />
    <glyph glyph-name="asterisk" unicode="*" horiz-adv-x="450" 
d="M415 532l-128 -29l84 -100l-65 -51l-81 114l-81 -114l-65 51l84 100l-128 29l21 80l133 -42l-5 140h83l-6 -140l133 42z" />
    <glyph glyph-name="plus" unicode="+" 
d="M550 289v-91h-203v-198h-92v198h-204v91h204v199h92v-199h203z" />
    <glyph glyph-name="comma" unicode="," horiz-adv-x="265" 
d="M128 162q39 0 64.5 -27t25.5 -84q0 -58 -33 -124t-102 -118l-45 46q77 64 88 144q-33 2 -57 24.5t-24 56.5q0 33 22.5 57.5t60.5 24.5z" />
    <glyph glyph-name="hyphen" unicode="-" horiz-adv-x="439" 
d="M59 300h320v-95h-320v95z" />
    <glyph glyph-name="period" unicode="." horiz-adv-x="260" 
d="M130 -10q-36 0 -61 24t-25 60q0 34 25 58t61 24t61 -24t25 -58q0 -36 -25 -60t-61 -24z" />
    <glyph glyph-name="slash" unicode="/" horiz-adv-x="435" 
d="M339 743l73 -31l-316 -794l-73 31z" />
    <glyph glyph-name="zero" unicode="0" horiz-adv-x="610" 
d="M304 -10q-121 0 -188.5 93t-67.5 260t67.5 261t188.5 94q122 0 190.5 -94t68.5 -261t-68.5 -260t-190.5 -93zM304 106q55 0 84.5 60.5t29.5 176.5q0 117 -29.5 178t-84.5 61q-53 0 -82 -61t-29 -178q0 -116 29 -176.5t82 -60.5z" />
    <glyph glyph-name="one" unicode="1" horiz-adv-x="425" 
d="M279 688h64v-688h-141v515l-167 -68l-21 114z" />
    <glyph glyph-name="two" unicode="2" horiz-adv-x="567" 
d="M227 116h298v-116h-470l-21 92l237 241q51 51 71.5 82.5t20.5 71.5q0 44 -33 69t-85 25q-91 0 -180 -38l-21 109q95 45 221 45q111 0 177 -54.5t66 -143.5q0 -66 -39 -124t-128 -146z" />
    <glyph glyph-name="three" unicode="3" horiz-adv-x="549" 
d="M356 360q69 -9 109 -57t40 -111q0 -89 -75 -145.5t-197 -56.5q-120 0 -203 40l19 110q67 -34 167 -34q62 0 103 28t41 71q0 44 -37 67t-99 23h-61v103h52q56 0 87 27t31 68q0 40 -30.5 64t-83.5 24q-66 0 -147 -25l-18 107q80 34 193 34q105 0 168 -48t63 -129
q0 -59 -34.5 -102t-87.5 -58z" />
    <glyph glyph-name="four" unicode="4" horiz-adv-x="587" 
d="M555 276v-120h-97v-156h-141v156h-279l-28 90l329 441h119v-411h97zM147 276h170v229z" />
    <glyph glyph-name="five" unicode="5" horiz-adv-x="577" 
d="M318 426q101 0 162 -56.5t61 -148.5q0 -104 -77.5 -167.5t-205.5 -63.5q-111 0 -216 45l23 114q29 -18 80 -30.5t100 -12.5q72 0 111.5 29.5t39.5 81.5q0 46 -32.5 76t-88.5 30q-86 0 -155 -28l-66 51l39 342h401v-116h-288l-18 -158q63 12 130 12z" />
    <glyph glyph-name="six" unicode="6" horiz-adv-x="580" 
d="M326 425q103 0 163.5 -59.5t60.5 -155.5q0 -100 -67.5 -160t-176.5 -60q-123 0 -192 78t-69 215q0 173 109.5 284t306.5 130l18 -111q-223 -23 -275 -182q56 21 122 21zM304 106q48 0 77 30.5t29 79.5q0 50 -31 79.5t-91 29.5q-55 0 -103 -22q-4 -17 -4 -40
q0 -74 34.5 -115.5t88.5 -41.5z" />
    <glyph glyph-name="seven" unicode="7" horiz-adv-x="539" 
d="M510 688l15 -72l-305 -616h-156l297 572h-333v116h482z" />
    <glyph glyph-name="eight" unicode="8" horiz-adv-x="602" 
d="M427 341q128 -55 128 -165q0 -82 -70 -134t-186 -52q-117 0 -185 52.5t-68 136.5q0 49 33 93t88 75q-48 24 -76 67.5t-28 93.5q0 85 66.5 137t175.5 52t173 -51.5t64 -134.5q0 -55 -32 -99t-83 -71zM303 581q-45 0 -71.5 -22t-26.5 -57q0 -58 62 -88l48 -22
q37 15 61 41.5t24 61.5q0 39 -26 62.5t-71 23.5zM304 106q52 0 81 22t29 57q0 60 -68 86l-67 28q-92 -38 -92 -106q0 -38 30 -62.5t87 -24.5z" />
    <glyph glyph-name="nine" unicode="9" horiz-adv-x="580" 
d="M274 697q123 0 192 -78t69 -215q0 -173 -109.5 -284t-306.5 -130l-17 111q226 30 275 182q-58 -21 -123 -21q-103 0 -163.5 59.5t-60.5 155.5q0 100 67.5 160t176.5 60zM170 471q0 -50 31 -79.5t92 -29.5q54 0 102 22q4 17 4 40q0 74 -34.5 115.5t-88.5 41.5
q-48 0 -77 -30.5t-29 -79.5z" />
    <glyph glyph-name="colon" unicode=":" horiz-adv-x="285" 
d="M143 334q-36 0 -61.5 24t-25.5 60q0 34 25.5 58t61.5 24t61 -24t25 -58q0 -36 -25 -60t-61 -24zM143 -10q-36 0 -61.5 24t-25.5 60q0 34 25.5 58t61.5 24t61 -24t25 -58q0 -36 -25 -60t-61 -24z" />
    <glyph glyph-name="semicolon" unicode=";" horiz-adv-x="292" 
d="M140 334q-36 0 -61.5 24t-25.5 60q0 34 25.5 58t61.5 24t61 -24t25 -58q0 -36 -25 -60t-61 -24zM147 162q39 0 64.5 -27t25.5 -84q0 -58 -33 -124t-102 -118l-45 46q77 64 88 144q-33 2 -57 24.5t-24 56.5q0 33 22.5 57.5t60.5 24.5z" />
    <glyph glyph-name="less" unicode="&#x3c;" 
d="M536 563v-103l-368 -156l368 -155v-103l-486 215v86z" />
    <glyph glyph-name="equal" unicode="=" 
d="M51 406h499v-91h-499v91zM51 209h499v-91h-499v91z" />
    <glyph glyph-name="greater" unicode="&#x3e;" 
d="M64 563l486 -216v-86l-486 -215v103l368 155l-368 156v103z" />
    <glyph glyph-name="question" unicode="?" horiz-adv-x="469" 
d="M117 221l-7 40q-8 56 10 92t60 64l67 50q48 33 48 67q0 31 -25.5 47.5t-67.5 16.5q-77 0 -148 -42l-20 116q39 21 93.5 34.5t100.5 13.5q94 0 153 -48.5t59 -129.5q0 -45 -25 -88.5t-64 -68.5l-75 -49q-29 -20 -42.5 -36t-10.5 -41l4 -38h-110zM172 -10q-36 0 -61 24
t-25 60q0 34 25 58t61 24t61 -24t25 -58q0 -36 -25 -60t-61 -24z" />
    <glyph glyph-name="at" unicode="@" horiz-adv-x="910" 
d="M474 699q177 0 284.5 -104.5t107.5 -278.5q0 -122 -56 -200t-151 -78q-51 0 -87.5 22.5t-50.5 62.5q-58 -37 -116 -37q-59 0 -97.5 35.5t-38.5 89.5q0 56 43.5 88.5t120.5 32.5q40 0 80 -8q-6 89 -87 89q-69 0 -115 -37l-12 84q24 19 68 32t87 13q79 0 125 -47t46 -127
v-153q3 -75 52 -75q52 0 85.5 59.5t33.5 150.5q0 146 -88.5 233t-234.5 87q-163 0 -263 -102t-100 -267q0 -154 95 -249t246 -95q107 0 183 30l11 -64q-93 -32 -201 -32q-179 0 -291.5 113.5t-112.5 296.5q0 195 119.5 315t314.5 120zM383 215q0 -23 15.5 -36.5t43.5 -13.5
q35 0 71 18v77q-25 6 -56 6q-74 0 -74 -51z" />
    <glyph glyph-name="A" unicode="A" horiz-adv-x="682" 
d="M524 0l-58 181h-250l-58 -181h-149l250 710h164l250 -710h-149zM255 303h172l-86 270z" />
    <glyph glyph-name="B" unicode="B" horiz-adv-x="654" 
d="M470 370q66 -10 107 -59.5t41 -114.5q0 -79 -60.5 -137.5t-171.5 -58.5h-305v710h275q106 0 163.5 -55t57.5 -131q0 -50 -26 -94t-81 -60zM431 499q0 87 -111 87h-95v-174h95q111 0 111 87zM350 124q60 0 90.5 25t30.5 67q0 41 -31 66.5t-90 25.5h-125v-184h125z" />
    <glyph glyph-name="B" unicode="&#xe000;" horiz-adv-x="654" 
d="M470 370q66 -10 107 -59.5t41 -114.5q0 -79 -60.5 -137.5t-171.5 -58.5h-305v710h275q106 0 163.5 -55t57.5 -131q0 -50 -26 -94t-81 -60zM431 499q0 87 -111 87h-95v-174h95q111 0 111 87zM350 124q60 0 90.5 25t30.5 67q0 41 -31 66.5t-90 25.5h-125v-184h125z" />
    <glyph glyph-name="C" unicode="C" horiz-adv-x="618" 
d="M400 -10q-162 0 -260.5 100t-98.5 265t98.5 265t260.5 100q106 0 191 -34l-20 -116q-67 26 -148 26q-107 0 -171.5 -64.5t-64.5 -176.5t64.5 -176.5t171.5 -64.5q80 0 147 25l21 -115q-85 -34 -191 -34z" />
    <glyph glyph-name="D" unicode="D" horiz-adv-x="694" 
d="M309 710q164 0 253.5 -96t89.5 -258q0 -164 -89.5 -260t-253.5 -96h-228v710h228zM309 124q97 0 146.5 60.5t49.5 171.5q0 110 -49.5 170t-146.5 60h-86v-462h86z" />
    <glyph glyph-name="E" unicode="E" horiz-adv-x="592" 
d="M223 124h333v-124h-475v710h470l-20 -124h-308v-173h240v-122h-240v-167z" />
    <glyph glyph-name="E" unicode="&#xe001;" horiz-adv-x="592" 
d="M223 124h333v-124h-475v710h470l-20 -124h-308v-173h240v-122h-240v-167z" />
    <glyph glyph-name="F" unicode="F" horiz-adv-x="565" 
d="M534 586h-311v-180h248v-122h-248v-284h-142v710h474z" />
    <glyph glyph-name="G" unicode="G" horiz-adv-x="689" 
d="M376 379h266v-306q-35 -37 -103.5 -60t-145.5 -23q-159 0 -255.5 101t-96.5 267q0 164 97 263t258 99q123 0 210 -45l-21 -118q-73 39 -171 39q-104 0 -164.5 -63t-60.5 -175q0 -113 58.5 -178.5t154.5 -65.5q51 0 96 15v139l-141 7z" />
    <glyph glyph-name="H" unicode="H" horiz-adv-x="716" 
d="M494 710h142v-710h-142v302h-271v-302h-142v710h142v-284h271v284z" />
    <glyph glyph-name="I" unicode="I" horiz-adv-x="303" 
d="M81 0v710h142v-710h-142z" />
    <glyph glyph-name="J" unicode="J" horiz-adv-x="327" 
d="M-45 -204l-22 124q77 2 125 51t48 150v589h142v-589q0 -154 -81 -239.5t-212 -85.5z" />
    <glyph glyph-name="K" unicode="K" horiz-adv-x="666" 
d="M421 430l239 -417v-13h-157l-171 323l-109 -131v-192h-142v710h142v-334l258 334h161v-13z" />
    <glyph glyph-name="L" unicode="L" horiz-adv-x="540" 
d="M223 124h305v-124h-447v710h142v-586z" />
    <glyph glyph-name="M" unicode="M" horiz-adv-x="892" 
d="M822 0h-138l-13 472l-153 -465h-144l-153 465l-13 -472h-139l25 710h185l167 -525l166 525h186z" />
    <glyph glyph-name="N" unicode="N" horiz-adv-x="719" 
d="M496 710h142v-710h-152l-263 448v-448h-142v710h155l260 -460v460z" />
    <glyph glyph-name="O" unicode="O" horiz-adv-x="739" 
d="M369 -10q-148 0 -237.5 100.5t-89.5 265.5q0 164 90 264t238 100t237.5 -100t89.5 -264q0 -165 -90 -265.5t-238 -100.5zM369 114q82 0 132 66t50 175t-49.5 175t-131.5 66t-132 -66t-50 -175t49.5 -175t131.5 -66z" />
    <glyph glyph-name="P" unicode="P" horiz-adv-x="626" 
d="M366 710q106 0 170.5 -63.5t64.5 -167.5t-64.5 -168t-170.5 -64h-143v-247h-142v710h285zM342 366q51 0 82 29.5t31 81.5q0 50 -31 79.5t-82 29.5h-119v-220h119z" />
    <glyph glyph-name="Q" unicode="Q" horiz-adv-x="739" 
d="M697 356q0 -113 -43.5 -197.5t-121.5 -128.5l93 -140l-141 -66l-60 170q-23 -4 -55 -4q-148 0 -237.5 100.5t-89.5 265.5q0 164 90 264t238 100t237.5 -100t89.5 -264zM188 355q0 -109 49.5 -175t131.5 -66t132 66t50 175t-49.5 175t-131.5 66t-132 -66t-50 -175z" />
    <glyph glyph-name="R" unicode="R" horiz-adv-x="655" 
d="M432 276l212 -263v-13h-159l-210 269h-52v-269h-142v710h285q106 0 170.5 -60.5t64.5 -159.5q0 -82 -45.5 -139t-123.5 -75zM223 586v-214h119q51 0 82 28.5t31 77.5t-31 78.5t-82 29.5h-119z" />
    <glyph glyph-name="S" unicode="S" horiz-adv-x="574" 
d="M274 -11q-142 0 -241 63l21 122q104 -61 210 -61q61 0 96 20.5t35 60.5q0 54 -71 84l-121 52q-79 33 -115 78.5t-36 111.5q0 98 69.5 149t185.5 51q115 0 206 -40l-20 -119q-75 35 -169 35q-58 0 -92 -17.5t-34 -52.5q0 -47 67 -73l126 -54q148 -63 150 -196
q-1 -101 -72.5 -157.5t-194.5 -56.5z" />
    <glyph glyph-name="S" unicode="&#xe002;" horiz-adv-x="574" 
d="M274 -11q-142 0 -241 63l21 122q104 -61 210 -61q61 0 96 20.5t35 60.5q0 54 -71 84l-121 52q-79 33 -115 78.5t-36 111.5q0 98 69.5 149t185.5 51q115 0 206 -40l-20 -119q-75 35 -169 35q-58 0 -92 -17.5t-34 -52.5q0 -47 67 -73l126 -54q148 -63 150 -196
q-1 -101 -72.5 -157.5t-194.5 -56.5z" />
    <glyph glyph-name="T" unicode="T" horiz-adv-x="601" 
d="M589 710v-124h-217v-586h-142v586h-218v124h577z" />
    <glyph glyph-name="U" unicode="U" horiz-adv-x="707" 
d="M354 -10q-136 0 -208 64.5t-72 213.5v442h142v-438q0 -158 138 -158q68 0 102.5 37.5t34.5 120.5v438h142v-442q0 -149 -71.5 -213.5t-207.5 -64.5z" />
    <glyph glyph-name="V" unicode="V" horiz-adv-x="656" 
d="M499 710h146l-240 -710h-153l-241 710h146l171 -568z" />
    <glyph glyph-name="W" unicode="W" horiz-adv-x="903" 
d="M744 710h141l-179 -710h-140l-114 464l-115 -464h-140l-179 710h141l116 -511l126 503h102l125 -503z" />
    <glyph glyph-name="X" unicode="X" horiz-adv-x="622" 
d="M394 370l219 -357v-13h-157l-145 252l-145 -252h-158v13l220 357l-205 327v13h157l131 -223l131 223h157v-13z" />
    <glyph glyph-name="Y" unicode="Y" horiz-adv-x="657" 
d="M643 710v-13l-243 -409v-288h-142v286l-245 411v13h158l158 -292l157 292h157z" />
    <glyph glyph-name="Z" unicode="Z" horiz-adv-x="601" 
d="M565 625l-341 -501h341v-124h-522l-16 88l338 498h-317v124h501z" />
    <glyph glyph-name="bracketleft" unicode="[" horiz-adv-x="340" 
d="M194 620v-724h125l-10 -90h-230v904h230l10 -90h-125z" />
    <glyph glyph-name="backslash" unicode="\" horiz-adv-x="435" 
d="M96 743l316 -794l-73 -31l-316 794z" />
    <glyph glyph-name="bracketright" unicode="]" horiz-adv-x="340" 
d="M31 710h229v-904h-229l-10 90h125v724h-125z" />
    <glyph glyph-name="asciicircum" unicode="^" 
d="M525 310h-133l-93 267l-92 -267h-132l163 400h123z" />
    <glyph glyph-name="underscore" unicode="_" horiz-adv-x="533" 
d="M0 -62h533v-78h-533v78z" />
    <glyph glyph-name="grave" unicode="`" horiz-adv-x="465" 
d="M219 767l157 -169l-43 -49l-204 121z" />
    <glyph glyph-name="a" unicode="a" horiz-adv-x="547" 
d="M267 500q105 0 162.5 -59.5t57.5 -160.5v-280h-125l-13 61q-32 -32 -78 -51.5t-91 -19.5q-66 0 -109.5 42t-43.5 105q0 70 54.5 108t139.5 38q65 0 124 -13v19q0 45 -30 72.5t-85 27.5q-81 0 -146 -35l-19 100q34 20 91 33t111 13zM172 148q0 -26 18 -42t49 -16
q51 0 106 33v73q-40 10 -93 10q-39 0 -59.5 -15.5t-20.5 -42.5z" />
    <glyph glyph-name="b" unicode="b" horiz-adv-x="590" 
d="M354 500q92 0 145.5 -66t53.5 -184q-3 -118 -73 -189t-192 -71q-102 0 -222 44v666l141 20v-277q68 57 147 57zM281 106q58 0 92 39t34 105q0 64 -26 99.5t-72 35.5q-55 0 -102 -44v-223q33 -12 74 -12z" />
    <glyph glyph-name="b" unicode="&#xe003;" horiz-adv-x="590" 
d="M354 500q92 0 145.5 -66t53.5 -184q-3 -118 -73 -189t-192 -71q-102 0 -222 44v666l141 20v-277q68 57 147 57zM281 106q58 0 92 39t34 105q0 64 -26 99.5t-72 35.5q-55 0 -102 -44v-223q33 -12 74 -12z" />
    <glyph glyph-name="c" unicode="c" horiz-adv-x="486" 
d="M295 -10q-115 0 -187 70t-72 185q0 113 70 184t179 71q53 0 103 -15.5t77 -40.5l-56 -90q-38 30 -107 30q-55 0 -87.5 -37t-32.5 -99q0 -64 38 -103t104 -39q67 0 112 25l20 -108q-69 -33 -161 -33z" />
    <glyph glyph-name="d" unicode="d" horiz-adv-x="589" 
d="M380 700l142 20v-720h-124l-12 52q-60 -62 -149 -62t-144 68t-55 183q0 117 65.5 188t174.5 71q57 0 102 -18v218zM183 243q0 -65 29 -101t76 -36q48 0 92 39v223q-35 17 -82 17q-53 0 -84 -37.5t-31 -104.5z" />
    <glyph glyph-name="e" unicode="e" horiz-adv-x="527" 
d="M501 243l-15 -27h-301q16 -115 131 -115q67 0 117 24l27 -96q-28 -17 -76.5 -28.5t-95.5 -11.5q-113 0 -182 69t-69 188q0 114 67 184t178 70q103 0 161 -67.5t58 -189.5zM278 391q-78 0 -93 -95h172q-6 51 -25 73t-54 22z" />
    <glyph glyph-name="f" unicode="f" horiz-adv-x="386" 
d="M333 604q-93 0 -93 -84v-30h136v-102h-136v-388h-141v388h-81v102h81v47q0 50 18.5 87t50 57t65.5 29.5t72 9.5q88 0 129 -21l-19 -112q-38 17 -82 17z" />
    <glyph glyph-name="g" unicode="g" horiz-adv-x="540" 
d="M359 87q83 -8 128.5 -47.5t45.5 -102.5q0 -72 -70.5 -112t-195.5 -40q-124 0 -194 35t-70 98q0 75 90 108q-38 35 -37 86l65 77q-79 46 -79 138q0 78 60 125.5t162 47.5q46 0 87 -11q67 74 139 86l36 -110q-48 -3 -89 -23q47 -45 47 -115q0 -79 -59 -125t-161 -46
q-42 0 -71 7l-22 -34q0 -19 46 -25zM260 407q-40 0 -63 -22.5t-23 -57.5q0 -36 25 -59t66 -23q40 0 63.5 22.5t23.5 57.5q0 36 -25 59t-67 23zM277 -118q129 0 129 44q0 37 -56 43l-177 21q-43 -18 -43 -49q0 -32 44 -45.5t103 -13.5z" />
    <glyph glyph-name="h" unicode="h" horiz-adv-x="583" 
d="M365 500q66 0 110.5 -48.5t44.5 -151.5v-300h-141v284q0 56 -18 78.5t-53 22.5q-45 0 -99 -32v-353h-142v700l142 20v-278q84 58 156 58z" />
    <glyph glyph-name="i" unicode="i" horiz-adv-x="279" 
d="M139 569q-37 0 -61 21.5t-24 54.5q0 32 24 53.5t61 21.5t61.5 -21.5t24.5 -53.5q0 -33 -24.5 -54.5t-61.5 -21.5zM69 0v480l141 20v-500h-141z" />
    <glyph glyph-name="j" unicode="j" horiz-adv-x="286" 
d="M147 569q-37 0 -61.5 21.5t-24.5 54.5q0 32 24.5 53.5t61.5 21.5t61.5 -21.5t24.5 -53.5q0 -33 -24.5 -54.5t-61.5 -21.5zM-33 -204l-19 114q60 0 93.5 37t34.5 103v430l141 20v-453q0 -124 -69.5 -187.5t-180.5 -63.5z" />
    <glyph glyph-name="k" unicode="k" horiz-adv-x="543" 
d="M341 271l208 -258v-13h-163l-177 227v-227h-142v700l142 20v-419l141 189h159v-12z" />
    <glyph glyph-name="l" unicode="l" horiz-adv-x="279" 
d="M69 0v700l141 20v-720h-141z" />
    <glyph glyph-name="m" unicode="m" horiz-adv-x="851" 
d="M633 500q66 0 111 -48.5t45 -151.5v-300h-142v284q0 101 -66 101q-37 0 -85 -37q3 -22 3 -48v-300h-142v284q0 101 -66 101q-37 0 -82 -35v-350h-142v491l126 9l11 -59q72 59 139 59q89 0 129 -75q87 75 161 75z" />
    <glyph glyph-name="n" unicode="n" horiz-adv-x="583" 
d="M365 500q66 0 110.5 -48.5t44.5 -151.5v-300h-141v284q0 56 -18 78.5t-53 22.5q-45 0 -99 -32v-353h-142v491l126 9l11 -61q86 61 161 61z" />
    <glyph glyph-name="o" unicode="o" horiz-adv-x="576" 
d="M288 -10q-113 0 -182 70t-69 185t68.5 185t181.5 70t182.5 -70t69.5 -185t-69 -185t-182 -70zM288 106q47 0 76.5 38.5t29.5 100.5q0 63 -29.5 101.5t-77.5 38.5t-76.5 -38.5t-28.5 -101.5q0 -61 29.5 -100t76.5 -39z" />
    <glyph glyph-name="p" unicode="p" horiz-adv-x="589" 
d="M352 500q89 0 144 -67.5t55 -182.5q0 -117 -65.5 -188.5t-174.5 -71.5q-59 0 -102 18v-202h-142v684h125l12 -52q62 62 148 62zM291 106q53 0 84.5 37t31.5 104q0 65 -29.5 101.5t-75.5 36.5q-49 0 -93 -39v-224q36 -16 82 -16z" />
    <glyph glyph-name="q" unicode="q" horiz-adv-x="590" 
d="M302 500q108 0 222 -44v-650h-141v241q-65 -57 -145 -57q-93 0 -146.5 66t-53.5 184q2 118 72 189t192 71zM282 106q54 0 101 44v221q-39 14 -75 14q-57 0 -91 -39.5t-34 -106.5q0 -62 26.5 -97.5t72.5 -35.5z" />
    <glyph glyph-name="r" unicode="r" horiz-adv-x="433" 
d="M346 500q50 0 78 -25l-22 -129l-4 -3q-29 24 -79 24q-57 0 -110 -45v-322h-142v491l126 9l16 -100q62 100 137 100z" />
    <glyph glyph-name="s" unicode="s" horiz-adv-x="471" 
d="M227 -10q-120 0 -195 44l18 100q85 -36 170 -36q74 0 74 37q0 15 -10.5 24.5t-32.5 17.5l-89 38q-58 25 -88 58t-30 84q0 70 55.5 106.5t152.5 36.5q106 0 169 -29l-20 -103q-64 25 -143 25q-68 0 -68 -38q0 -15 8.5 -23t28.5 -17l106 -45q107 -46 107 -137
q0 -68 -58 -105.5t-155 -37.5z" />
    <glyph glyph-name="s" unicode="&#xe004;" horiz-adv-x="471" 
d="M227 -10q-120 0 -195 44l18 100q85 -36 170 -36q74 0 74 37q0 15 -10.5 24.5t-32.5 17.5l-89 38q-58 25 -88 58t-30 84q0 70 55.5 106.5t152.5 36.5q106 0 169 -29l-20 -103q-64 25 -143 25q-68 0 -68 -38q0 -15 8.5 -23t28.5 -17l106 -45q107 -46 107 -137
q0 -68 -58 -105.5t-155 -37.5z" />
    <glyph glyph-name="t" unicode="t" horiz-adv-x="415" 
d="M378 119l19 -109q-50 -20 -129 -20q-74 0 -123 44t-49 153v201h-79v102h84l44 131h92v-131h151v-102h-151v-185q0 -53 17 -75t50 -22q44 0 74 13z" />
    <glyph glyph-name="u" unicode="u" horiz-adv-x="583" 
d="M374 490h141v-490h-121l-14 52q-87 -62 -162 -62q-66 0 -111 48.5t-45 151.5v300h142v-284q0 -55 18 -77.5t53 -22.5q45 0 99 32v352z" />
    <glyph glyph-name="v" unicode="v" horiz-adv-x="549" 
d="M388 490h157l-203 -490h-135l-203 490h157l113 -326z" />
    <glyph glyph-name="w" unicode="w" horiz-adv-x="771" 
d="M607 490h154l-146 -490h-146l-83 277l-84 -277h-146l-145 490h153l80 -319l90 310h103l90 -310z" />
    <glyph glyph-name="x" unicode="x" horiz-adv-x="517" 
d="M349 256l154 -246v-10h-151l-93 161l-94 -161h-150v10l154 246l-150 224v10h153l87 -148l87 148h152v-10z" />
    <glyph glyph-name="y" unicode="y" horiz-adv-x="543" 
d="M377 490h157v-10l-263 -674h-147l79 202l-195 472v10h159l109 -340z" />
    <glyph glyph-name="y" unicode="&#xe006;" horiz-adv-x="543" 
d="M377 490h157v-10l-263 -674h-147l79 202l-195 472v10h159l109 -340z" />
    <glyph glyph-name="z" unicode="z" horiz-adv-x="514" 
d="M220 116h258v-116h-429l-19 98l246 277h-229v115h409l20 -96z" />
    <glyph glyph-name="braceleft" unicode="{" horiz-adv-x="336" 
d="M268 619q-61 0 -61 -88q0 -30 7 -72q10 -64 10 -97q0 -82 -62 -104q62 -22 62 -104q0 -18 -10 -96q-7 -58 -7 -73q0 -87 61 -87h40v-91h-65q-148 0 -148 171q0 36 8.5 92.5t8.5 79.5q0 37 -14 52.5t-46 18.5l-43 4v67l43 3q32 2 46 18t14 54q0 22 -8.5 79t-8.5 92
q0 172 148 172h65v-91h-40z" />
    <glyph glyph-name="bar" unicode="|" horiz-adv-x="239" 
d="M79 710h80v-886h-80v886z" />
    <glyph glyph-name="braceright" unicode="}" horiz-adv-x="336" 
d="M284 295l43 -3v-67l-43 -4q-32 -3 -46 -18.5t-14 -52.5q0 -23 8.5 -79.5t8.5 -92.5q0 -171 -148 -171h-65v91h40q61 0 61 87q0 15 -7 73q-10 77 -10 96q0 82 62 104q-62 22 -62 104q0 33 10 97q7 42 7 72q0 88 -61 88h-40v91h65q148 0 148 -172q0 -35 -8.5 -92t-8.5 -79
q0 -38 14 -54t46 -18z" />
    <glyph glyph-name="asciitilde" unicode="~" 
d="M49 197q-1 85 34.5 132t99.5 47q31 0 58.5 -10.5t78.5 -37.5q75 -41 104 -41q23 0 33.5 19t12.5 64h83q2 -87 -31 -134t-96 -47q-50 0 -138 48q-77 43 -103 43q-52 0 -52 -83h-84z" />
    <glyph glyph-name="exclamdown" unicode="&#xa1;" horiz-adv-x="273" 
d="M223 442q0 -34 -25 -58t-61 -24t-61.5 24t-25.5 58q0 36 25.5 60t61.5 24t61 -24t25 -60zM94 295h86l37 -459v-30h-160v30z" />
    <glyph glyph-name="cent" unicode="&#xa2;" horiz-adv-x="506" 
d="M441 131l20 -108q-51 -25 -123 -31v-101h-65v100q-104 8 -168 77t-64 177q0 109 64.5 179t167.5 76v100h65v-103q89 -13 132 -53l-56 -90q-28 22 -76 28v-276q65 4 103 25zM187 248q0 -49 22.5 -84t63.5 -49v265q-40 -11 -63 -46t-23 -86z" />
    <glyph glyph-name="sterling" unicode="&#xa3;" horiz-adv-x="572" 
d="M254 116h281v-116h-504v116h80q38 62 38 142q0 17 -1 26h-89v69h81q-18 110 -18 148q0 89 62.5 144t175.5 55q81 0 156 -31l-18 -110q-60 26 -116 26q-54 0 -85.5 -28t-31.5 -72q0 -34 16 -132h168v-69h-159q1 -9 1 -26q0 -80 -37 -142z" />
    <glyph glyph-name="currency" unicode="&#xa4;" horiz-adv-x="570" 
d="M487 358q0 -65 -37 -116l66 -66l-50 -50l-65 66q-52 -36 -116 -36q-65 0 -115 36l-66 -66l-50 50l66 66q-37 51 -37 116t36 115l-65 65l50 50l65 -65q52 36 116 36t116 -36l65 65l50 -50l-65 -65q36 -50 36 -115zM179 358q0 -44 31.5 -78.5t74.5 -34.5t74.5 34.5
t31.5 78.5q0 43 -31.5 77t-74.5 34t-74.5 -34t-31.5 -77z" />
    <glyph glyph-name="yen" unicode="&#xa5;" horiz-adv-x="624" 
d="M599 674l-216 -359v-51h118v-55h-118v-48h118v-55h-118v-106h-141v106h-118v55h118v48h-118v55h118v47l-217 363v13h152l135 -260l135 260h152v-13z" />
    <glyph glyph-name="brokenbar" unicode="&#xa6;" horiz-adv-x="245" 
d="M82 710h80v-360h-80v360zM82 184h80v-360h-80v360z" />
    <glyph glyph-name="section" unicode="&#xa7;" horiz-adv-x="536" 
d="M260 -10q-93 0 -166 39l19 87q66 -32 135 -32q81 0 83 45q0 31 -43 48l-139 48q-118 41 -118 141q0 88 85 127q-28 32 -28 79q0 69 51.5 108.5t136.5 39.5q92 0 167 -39l-20 -86q-58 31 -137 31q-38 0 -59 -12t-21 -33q0 -36 42 -50l158 -55q99 -41 99 -135
q0 -90 -84 -126q26 -30 26 -77q0 -69 -51 -108.5t-136 -39.5zM337 274q49 20 51 62q0 29 -45 48l-150 52q-45 -26 -45 -64q0 -30 45 -49z" />
    <glyph glyph-name="dieresis" unicode="&#xa8;" horiz-adv-x="529" 
d="M361 571q-29 0 -49.5 20.5t-19.5 49.5q0 28 20.5 48t48.5 20t48.5 -20t20.5 -48q0 -29 -20 -49.5t-49 -20.5zM162 571q-28 0 -48.5 20.5t-20.5 48.5q1 28 21 48t48 20q29 0 49.5 -20t19.5 -48q1 -28 -19.5 -48.5t-49.5 -20.5z" />
    <glyph glyph-name="copyright" unicode="&#xa9;" horiz-adv-x="797" 
d="M399 -5q-149 0 -253.5 104.5t-104.5 253.5q0 148 105 252.5t253 104.5t252.5 -104.5t104.5 -252.5t-104.5 -253t-252.5 -105zM399 52q124 0 212 88t88 213q0 124 -88 212t-212 88q-125 0 -213.5 -88t-88.5 -212q0 -125 88.5 -213t213.5 -88zM414 150q-91 0 -146 55
t-55 146t55 146t146 55q53 0 100 -20l-11 -65q-33 14 -73 14q-56 0 -91.5 -36t-35.5 -94q0 -59 35 -95t92 -36q42 0 74 13l11 -64q-43 -19 -101 -19z" />
    <glyph glyph-name="ordfeminine" unicode="&#xaa;" horiz-adv-x="488" 
d="M251 710q81 0 126 -48t45 -129v-223h-97l-11 51q-25 -27 -62 -43t-73 -16q-53 0 -88 33.5t-35 85.5q0 55 46.5 87t119.5 32q48 0 89 -12v13q0 38 -24 60t-68 22q-66 0 -117 -28l-15 78q62 37 164 37zM226 380q43 0 85 31v56q-30 10 -74 10q-32 0 -50 -13.5t-18 -35.5
t15.5 -35t41.5 -13zM58 174v71h364v-70z" />
    <glyph glyph-name="guillemotleft" unicode="&#xab;" horiz-adv-x="515" 
d="M266 416l-127 -169l128 -168l-95 -26l-134 160v67l133 162zM347 247l128 -168l-95 -26l-134 160v67l132 162l96 -26z" />
    <glyph glyph-name="logicalnot" unicode="&#xac;" 
d="M46 384h499v-283h-89v193h-410v90z" />
    <glyph glyph-name="uni00AD" unicode="&#xad;" horiz-adv-x="439" 
d="M59 300h320v-95h-320v95z" />
    <glyph glyph-name="registered" unicode="&#xae;" horiz-adv-x="797" 
d="M399 710q148 0 252.5 -104.5t104.5 -252.5t-104.5 -253t-252.5 -105q-149 0 -253.5 104.5t-104.5 253.5q0 148 105 252.5t253 104.5zM399 52q124 0 212 88t88 213q0 124 -88 212t-212 88q-125 0 -213.5 -88t-88.5 -212q0 -125 88.5 -213t213.5 -88zM548 430
q0 -42 -21.5 -72t-60.5 -42l99 -146v-8h-91l-95 146h-36v-146h-86v391h160q60 0 95.5 -33.5t35.5 -89.5zM343 485v-117h59q58 0 58 57q0 27 -14.5 43.5t-43.5 16.5h-59z" />
    <glyph glyph-name="macron" unicode="&#xaf;" horiz-adv-x="513" 
d="M120 586v89h273v-89h-273z" />
    <glyph glyph-name="degree" unicode="&#xb0;" horiz-adv-x="382" 
d="M191 384q-68 0 -110.5 43t-42.5 113q0 69 42.5 112t110.5 43t110 -42.5t42 -112.5t-42 -113t-110 -43zM191 449q37 0 60.5 25t23.5 66q0 40 -23.5 65t-60.5 25q-38 0 -61.5 -25t-23.5 -65q0 -41 23.5 -66t61.5 -25z" />
    <glyph glyph-name="plusminus" unicode="&#xb1;" 
d="M347 355h204v-92h-204v-134h-92v134h-205v92h205v134h92v-134zM51 0v82h499v-82h-499z" />
    <glyph glyph-name="uni00B2" unicode="&#xb2;" horiz-adv-x="356" 
d="M158 552h168v-80h-287l-15 63l137 138q31 30 43 48t12 41t-18 36t-45 13q-54 0 -108 -22l-15 74q58 27 137 27q68 0 108.5 -32.5t40.5 -86.5q0 -43 -25 -79.5t-82 -89.5z" />
    <glyph glyph-name="uni00B3" unicode="&#xb3;" horiz-adv-x="343" 
d="M225 688q41 -6 64.5 -34.5t23.5 -66.5q0 -53 -46 -87t-120 -34q-76 0 -124 25l13 75q33 -20 99 -20q33 0 55.5 14.5t22.5 36.5q0 46 -75 46h-36v70h29q30 0 47.5 14.5t17.5 36.5t-16.5 34.5t-45.5 12.5q-36 0 -85 -15l-12 74q50 20 117 20q65 0 103.5 -29t38.5 -78
q0 -35 -20 -60.5t-51 -34.5z" />
    <glyph glyph-name="acute" unicode="&#xb4;" horiz-adv-x="465" 
d="M286 767l90 -97l-204 -121l-43 49z" />
    <glyph glyph-name="uni00B5" unicode="&#xb5;" horiz-adv-x="588" 
d="M67 -167v657h142v-284q0 -55 18.5 -77.5t52.5 -22.5q45 0 100 34v350h141v-490h-126l-9 52q-71 -61 -145 -62q-34 0 -52 10v-167h-122z" />
    <glyph glyph-name="paragraph" unicode="&#xb6;" horiz-adv-x="604" 
d="M516 710v-710h-77v279h-70v-279h-77v279h-48q-90 0 -152.5 63t-62.5 152q0 90 62.5 153t152.5 63h272z" />
    <glyph glyph-name="periodcentered" unicode="&#xb7;" horiz-adv-x="274" 
d="M137 182q-36 0 -61.5 23.5t-25.5 59.5q0 35 25.5 59t61.5 24t61 -24t25 -59q0 -36 -25 -59.5t-61 -23.5z" />
    <glyph glyph-name="cedilla" unicode="&#xb8;" horiz-adv-x="460" 
d="M224 -202q-59 0 -97 20l24 56q25 -12 47 -12q32 0 32 20q0 12 -11 20t-40 20l-1 11l59 78h42l-24 -53q78 -28 78 -80q0 -36 -32 -58t-77 -22z" />
    <glyph glyph-name="uni00B9" unicode="&#xb9;" horiz-adv-x="271" 
d="M178 885h43v-413h-97v294l-96 -36l-13 78z" />
    <glyph glyph-name="ordmasculine" unicode="&#xba;" horiz-adv-x="519" 
d="M261 302q-91 0 -146 55.5t-55 145.5q0 93 54.5 150t143.5 57q91 0 146.5 -57t55.5 -150q0 -90 -55 -145.5t-144 -55.5zM261 393q38 0 61.5 30.5t23.5 79.5q0 52 -24 84t-64 32q-38 0 -61.5 -32t-23.5 -84q0 -49 24.5 -79.5t63.5 -30.5zM60 245h400v-70l-400 -1v71z" />
    <glyph glyph-name="guillemotright" unicode="&#xbb;" horiz-adv-x="515" 
d="M269 280v-67l-134 -160l-95 26l129 168l-128 169l96 26zM345 442l132 -162v-67l-134 -160l-95 26l129 168l-128 169z" />
    <glyph glyph-name="onequarter" unicode="&#xbc;" horiz-adv-x="853" 
d="M494 697l56 -25l-308 -708l-56 25zM232 275h-97v294l-96 -36l-13 78l163 77h43v-413zM818 168v-79h-55v-89h-98v89h-159l-19 63l194 260h82v-244h55zM575 168h90v124z" />
    <glyph glyph-name="onehalf" unicode="&#xbd;" horiz-adv-x="845" 
d="M494 697l56 -25l-308 -708l-56 25zM232 275h-97v294l-96 -36l-13 78l163 77h43v-413zM637 80h168v-80h-287l-15 63l137 138q31 30 43 47.5t12 41.5q0 23 -17.5 35.5t-45.5 12.5q-54 0 -108 -22l-15 75q58 27 137 27q68 0 108.5 -33t40.5 -86q0 -43 -25 -79.5t-82 -89.5z
" />
    <glyph glyph-name="threequarters" unicode="&#xbe;" horiz-adv-x="920" 
d="M566 697l56 -25l-308 -708l-56 25zM323 390q0 -53 -46 -87t-120 -34q-78 0 -124 24l13 75q36 -20 99 -20q33 0 55.5 14.5t22.5 36.5q0 47 -75 47h-36v70h29q31 0 48 14.5t17 36.5q0 21 -16.5 33.5t-45.5 12.5q-36 0 -85 -15l-12 74q48 21 117 21q65 0 103.5 -29t38.5 -78
q0 -34 -20 -60t-50 -35q40 -7 63.5 -35.5t23.5 -65.5zM890 168v-79h-55v-89h-98v89h-159l-19 63l194 260h82v-244h55zM647 168h90v124z" />
    <glyph glyph-name="questiondown" unicode="&#xbf;" horiz-adv-x="462" 
d="M294 526q36 0 61 -24t25 -60q0 -34 -25 -58t-61 -24t-61 24t-25 58q0 36 25 60t61 24zM349 295l7 -40q8 -56 -10 -92t-60 -64l-67 -50q-48 -33 -48 -67q0 -31 25.5 -47.5t67.5 -16.5q77 0 148 42l20 -116q-39 -21 -93.5 -34.5t-100.5 -13.5q-94 0 -153 48.5t-59 129.5
q0 45 25 88.5t64 68.5l75 49q29 20 42.5 36t10.5 41l-4 38h110z" />
    <glyph glyph-name="Agrave" unicode="&#xc0;" horiz-adv-x="682" 
d="M425 809l-37 -53l-192 86l76 99zM524 0l-58 181h-250l-58 -181h-149l250 710h164l250 -710h-149zM255 303h172l-86 270z" />
    <glyph glyph-name="Aacute" unicode="&#xc1;" horiz-adv-x="682" 
d="M476 840l-192 -86l-37 53l153 133zM524 0l-58 181h-250l-58 -181h-149l250 710h164l250 -710h-149zM255 303h172l-86 270z" />
    <glyph glyph-name="Acircumflex" unicode="&#xc2;" horiz-adv-x="682" 
d="M341 825l-122 -71l-51 57l141 116h65l141 -116l-51 -57zM524 0l-58 181h-250l-58 -181h-149l250 710h164l250 -710h-149zM255 303h172l-86 270z" />
    <glyph glyph-name="Atilde" unicode="&#xc3;" horiz-adv-x="682" 
d="M285 805q-30 0 -30 -39h-64q0 128 85 128q29 0 66 -18.5t53 -18.5q32 0 32 39h64q0 -128 -87 -128q-31 0 -68.5 18.5t-50.5 18.5zM524 0l-58 181h-250l-58 -181h-149l250 710h164l250 -710h-149zM255 303h172l-86 270z" />
    <glyph glyph-name="Adieresis" unicode="&#xc4;" horiz-adv-x="682" 
d="M242 769q-28 0 -48.5 20.5t-20.5 49.5q1 28 21 48t48 20q29 0 49 -20t20 -48q1 -29 -19.5 -49.5t-49.5 -20.5zM441 770q-29 0 -49.5 20.5t-19.5 48.5q0 28 20 48t49 20t49 -20t20 -48q0 -29 -20 -49t-49 -20zM524 0l-58 181h-250l-58 -181h-149l250 710h164l250 -710
h-149zM255 303h172l-86 270z" />
    <glyph glyph-name="Aring" unicode="&#xc5;" horiz-adv-x="682" 
d="M341 755q-42 0 -72 28.5t-30 70.5q0 41 30 70t72 29q43 0 73 -29t30 -70q0 -42 -30 -70.5t-73 -28.5zM341 901q-19 0 -33 -14t-14 -33q0 -21 13.5 -33.5t33.5 -12.5t34 13.5t14 32.5t-14 33t-34 14zM524 0l-58 181h-250l-58 -181h-149l250 710h164l250 -710h-149z
M255 303h172l-86 270z" />
    <glyph glyph-name="AE" unicode="&#xc6;" horiz-adv-x="903" 
d="M572 124h296v-124h-437v177h-209l-73 -177h-150l303 710h561l-21 -124h-270v-173h202v-122h-202v-167zM267 287h164v310h-36z" />
    <glyph glyph-name="Ccedilla" unicode="&#xc7;" horiz-adv-x="618" 
d="M591 24q-76 -31 -180 -34l-17 -37q71 -25 71 -73q0 -38 -31.5 -60t-78.5 -22q-58 0 -96 20l24 56q25 -12 47 -12q32 0 32 20q0 21 -51 40l-1 11l29 61q-137 19 -217.5 116t-80.5 245q0 165 98.5 265t260.5 100q106 0 191 -34l-20 -116q-67 26 -148 26
q-107 0 -171.5 -64.5t-64.5 -176.5t64.5 -176.5t171.5 -64.5q80 0 147 25z" />
    <glyph glyph-name="Egrave" unicode="&#xc8;" horiz-adv-x="592" 
d="M404 809l-37 -53l-192 86l76 99zM223 124h333v-124h-475v710h470l-20 -124h-308v-173h240v-122h-240v-167z" />
    <glyph glyph-name="Eacute" unicode="&#xc9;" horiz-adv-x="592" 
d="M426 840l-192 -86l-37 53l153 133zM223 124h333v-124h-475v710h470l-20 -124h-308v-173h240v-122h-240v-167z" />
    <glyph glyph-name="Ecircumflex" unicode="&#xca;" horiz-adv-x="592" 
d="M300 825l-122 -71l-51 57l141 116h65l141 -116l-51 -57zM223 124h333v-124h-475v710h470l-20 -124h-308v-173h240v-122h-240v-167z" />
    <glyph glyph-name="Edieresis" unicode="&#xcb;" horiz-adv-x="592" 
d="M200 769q-28 0 -48.5 20.5t-20.5 49.5q1 28 21 48t48 20q29 0 49 -20t20 -48q1 -29 -19.5 -49.5t-49.5 -20.5zM399 770q-29 0 -49.5 20.5t-19.5 48.5q0 28 20 48t49 20t49 -20t20 -48q0 -29 -20 -49t-49 -20zM223 124h333v-124h-475v710h470l-20 -124h-308v-173h240v-122
h-240v-167z" />
    <glyph glyph-name="Igrave" unicode="&#xcc;" horiz-adv-x="303" 
d="M218 756l-192 86l76 99l153 -132zM81 0v710h142v-710h-142z" />
    <glyph glyph-name="Iacute" unicode="&#xcd;" horiz-adv-x="303" 
d="M85 754l-37 53l153 133l76 -100zM81 0v710h142v-710h-142z" />
    <glyph glyph-name="Icircumflex" unicode="&#xce;" horiz-adv-x="303" 
d="M29 754l-51 57l141 116h65l141 -116l-51 -57l-123 71zM81 0v710h142v-710h-142z" />
    <glyph glyph-name="Idieresis" unicode="&#xcf;" horiz-adv-x="303" 
d="M52 769q-28 0 -48.5 20.5t-20.5 49.5q1 28 21 48t48 20q29 0 49 -20t20 -48q1 -29 -19.5 -49.5t-49.5 -20.5zM251 770q-29 0 -49.5 20.5t-19.5 48.5q0 28 20 48t49 20t49 -20t20 -48q0 -29 -20 -49t-49 -20zM81 0v710h142v-710h-142z" />
    <glyph glyph-name="Eth" unicode="&#xd0;" horiz-adv-x="707" 
d="M322 710q164 0 253.5 -96t89.5 -258q0 -164 -89.5 -260t-253.5 -96h-228v305h-74v115h74v290h228zM322 124q97 0 146.5 60.5t49.5 171.5q0 110 -49.5 170t-146.5 60h-86v-166h147v-115h-147v-181h86z" />
    <glyph glyph-name="Ntilde" unicode="&#xd1;" horiz-adv-x="719" 
d="M304 805q-30 0 -30 -39h-64q0 128 85 128q29 0 66 -18.5t53 -18.5q32 0 32 39h64q0 -128 -87 -128q-31 0 -68.5 18.5t-50.5 18.5zM496 710h142v-710h-152l-263 448v-448h-142v710h155l260 -460v460z" />
    <glyph glyph-name="Ograve" unicode="&#xd2;" horiz-adv-x="739" 
d="M437 756l-192 86l76 99l153 -132zM369 -10q-148 0 -237.5 100.5t-89.5 265.5q0 164 90 264t238 100t237.5 -100t89.5 -264q0 -165 -90 -265.5t-238 -100.5zM369 114q82 0 132 66t50 175t-49.5 175t-131.5 66t-132 -66t-50 -175t49.5 -175t131.5 -66z" />
    <glyph glyph-name="Oacute" unicode="&#xd3;" horiz-adv-x="739" 
d="M304 754l-37 53l153 133l76 -100zM369 -10q-148 0 -237.5 100.5t-89.5 265.5q0 164 90 264t238 100t237.5 -100t89.5 -264q0 -165 -90 -265.5t-238 -100.5zM369 114q82 0 132 66t50 175t-49.5 175t-131.5 66t-132 -66t-50 -175t49.5 -175t131.5 -66z" />
    <glyph glyph-name="Ocircumflex" unicode="&#xd4;" horiz-adv-x="739" 
d="M248 754l-51 57l141 116h65l141 -116l-51 -57l-123 71zM369 -10q-148 0 -237.5 100.5t-89.5 265.5q0 164 90 264t238 100t237.5 -100t89.5 -264q0 -165 -90 -265.5t-238 -100.5zM369 114q82 0 132 66t50 175t-49.5 175t-131.5 66t-132 -66t-50 -175t49.5 -175t131.5 -66z
" />
    <glyph glyph-name="Otilde" unicode="&#xd5;" horiz-adv-x="739" 
d="M219 766q0 128 85 128q29 0 66 -18.5t53 -18.5q32 0 32 39h64q0 -128 -87 -128q-31 0 -68.5 18.5t-50.5 18.5q-30 0 -30 -39h-64zM369 -10q-148 0 -237.5 100.5t-89.5 265.5q0 164 90 264t238 100t237.5 -100t89.5 -264q0 -165 -90 -265.5t-238 -100.5zM369 114
q82 0 132 66t50 175t-49.5 175t-131.5 66t-132 -66t-50 -175t49.5 -175t131.5 -66z" />
    <glyph glyph-name="Odieresis" unicode="&#xd6;" horiz-adv-x="739" 
d="M270 769q-28 0 -48.5 20.5t-20.5 49.5q1 28 21 48t48 20q29 0 49 -20t20 -48q1 -29 -19.5 -49.5t-49.5 -20.5zM469 770q-29 0 -49.5 20.5t-19.5 48.5q0 28 20 48t49 20t49 -20t20 -48q0 -29 -20 -49t-49 -20zM369 -10q-148 0 -237.5 100.5t-89.5 265.5q0 164 90 264
t238 100t237.5 -100t89.5 -264q0 -165 -90 -265.5t-238 -100.5zM369 114q82 0 132 66t50 175t-49.5 175t-131.5 66t-132 -66t-50 -175t49.5 -175t131.5 -66z" />
    <glyph glyph-name="multiply" unicode="&#xd7;" 
d="M547 432l-182 -182l182 -182l-65 -65l-182 182l-182 -182l-65 65l182 182l-182 182l65 65l182 -182l182 182z" />
    <glyph glyph-name="Oslash" unicode="&#xd8;" horiz-adv-x="739" 
d="M607 620q90 -101 90 -264q0 -165 -90 -265.5t-238 -100.5q-90 0 -162 40l-44 -66l-80 54l49 72q-90 101 -90 266q0 164 90 264t238 100q88 0 160 -39l45 66l82 -54zM188 355q0 -80 28 -139l241 356q-40 24 -87 24q-82 0 -132 -66t-50 -175zM369 114q82 0 132 66t50 175
q0 81 -28 140l-242 -356q41 -25 88 -25z" />
    <glyph glyph-name="Ugrave" unicode="&#xd9;" horiz-adv-x="707" 
d="M420 756l-192 86l76 99l153 -132zM354 -10q-136 0 -208 64.5t-72 213.5v442h142v-438q0 -158 138 -158q68 0 102.5 37.5t34.5 120.5v438h142v-442q0 -149 -71.5 -213.5t-207.5 -64.5z" />
    <glyph glyph-name="Uacute" unicode="&#xda;" horiz-adv-x="707" 
d="M288 754l-37 53l153 133l76 -100zM354 -10q-136 0 -208 64.5t-72 213.5v442h142v-438q0 -158 138 -158q68 0 102.5 37.5t34.5 120.5v438h142v-442q0 -149 -71.5 -213.5t-207.5 -64.5z" />
    <glyph glyph-name="Ucircumflex" unicode="&#xdb;" horiz-adv-x="707" 
d="M231 754l-51 57l141 116h65l141 -116l-51 -57l-123 71zM354 -10q-136 0 -208 64.5t-72 213.5v442h142v-438q0 -158 138 -158q68 0 102.5 37.5t34.5 120.5v438h142v-442q0 -149 -71.5 -213.5t-207.5 -64.5z" />
    <glyph glyph-name="Udieresis" unicode="&#xdc;" horiz-adv-x="707" 
d="M254 769q-28 0 -48.5 20.5t-20.5 49.5q1 28 21 48t48 20q29 0 49 -20t20 -48q1 -29 -19.5 -49.5t-49.5 -20.5zM453 770q-29 0 -49.5 20.5t-19.5 48.5q0 28 20 48t49 20t49 -20t20 -48q0 -29 -20 -49t-49 -20zM354 -10q-136 0 -208 64.5t-72 213.5v442h142v-438
q0 -158 138 -158q68 0 102.5 37.5t34.5 120.5v438h142v-442q0 -149 -71.5 -213.5t-207.5 -64.5z" />
    <glyph glyph-name="Yacute" unicode="&#xdd;" horiz-adv-x="657" 
d="M455 840l-192 -86l-37 53l153 133zM643 710v-13l-243 -409v-288h-142v286l-245 411v13h158l158 -292l157 292h157z" />
    <glyph glyph-name="Thorn" unicode="&#xde;" horiz-adv-x="632" 
d="M364 584q107 0 170 -63t63 -167t-63 -166.5t-170 -62.5h-141v-125h-142v710h142v-126h141zM340 248q53 0 81.5 28.5t28.5 77.5q0 50 -28.5 78.5t-81.5 28.5h-117v-213h117z" />
    <glyph glyph-name="germandbls" unicode="&#xdf;" horiz-adv-x="629" 
d="M422 -10q-80 0 -149 39l36 109q41 -32 94 -32q29 0 45 14.5t16 37.5q0 25 -27.5 50.5t-60 44.5t-60 46t-27.5 54q0 24 41 81t41 98q0 32 -18.5 52t-51.5 20q-47 0 -69.5 -28.5t-22.5 -90.5v-485h-142v501q0 99 60 159t171 60q94 0 155 -48t61 -112q0 -42 -20.5 -83
t-41 -69t-20.5 -38q0 -13 18 -28t43.5 -31.5t51 -37t43.5 -51.5t18 -67q0 -69 -50 -117t-134 -48z" />
    <glyph glyph-name="agrave" unicode="&#xe0;" horiz-adv-x="547" 
d="M388 598l-43 -49l-204 121l90 97zM267 500q105 0 162.5 -59.5t57.5 -160.5v-280h-125l-13 61q-32 -32 -78 -51.5t-91 -19.5q-66 0 -109.5 42t-43.5 105q0 70 54.5 108t139.5 38q65 0 124 -13v19q0 45 -30 72.5t-85 27.5q-81 0 -146 -35l-19 100q34 20 91 33t111 13z
M172 148q0 -26 18 -42t49 -16q51 0 106 33v73q-40 10 -93 10q-39 0 -59.5 -15.5t-20.5 -42.5z" />
    <glyph glyph-name="aacute" unicode="&#xe1;" horiz-adv-x="547" 
d="M388 670l-204 -121l-43 49l157 169zM267 500q105 0 162.5 -59.5t57.5 -160.5v-280h-125l-13 61q-32 -32 -78 -51.5t-91 -19.5q-66 0 -109.5 42t-43.5 105q0 70 54.5 108t139.5 38q65 0 124 -13v19q0 45 -30 72.5t-85 27.5q-81 0 -146 -35l-19 100q34 20 91 33t111 13z
M172 148q0 -26 18 -42t49 -16q51 0 106 33v73q-40 10 -93 10q-39 0 -59.5 -15.5t-20.5 -42.5z" />
    <glyph glyph-name="acircumflex" unicode="&#xe2;" horiz-adv-x="547" 
d="M264 643l-122 -91l-51 56l141 147h65l141 -147l-51 -56zM267 500q105 0 162.5 -59.5t57.5 -160.5v-280h-125l-13 61q-32 -32 -78 -51.5t-91 -19.5q-66 0 -109.5 42t-43.5 105q0 70 54.5 108t139.5 38q65 0 124 -13v19q0 45 -30 72.5t-85 27.5q-81 0 -146 -35l-19 100
q34 20 91 33t111 13zM172 148q0 -26 18 -42t49 -16q51 0 106 33v73q-40 10 -93 10q-39 0 -59.5 -15.5t-20.5 -42.5z" />
    <glyph glyph-name="atilde" unicode="&#xe3;" horiz-adv-x="547" 
d="M208 625q-30 0 -30 -39h-64q0 127 85 127q29 0 66 -18.5t53 -18.5q32 0 32 39h64q0 -127 -87 -127q-31 0 -68.5 18.5t-50.5 18.5zM267 500q105 0 162.5 -59.5t57.5 -160.5v-280h-125l-13 61q-32 -32 -78 -51.5t-91 -19.5q-66 0 -109.5 42t-43.5 105q0 70 54.5 108
t139.5 38q65 0 124 -13v19q0 45 -30 72.5t-85 27.5q-81 0 -146 -35l-19 100q34 20 91 33t111 13zM172 148q0 -26 18 -42t49 -16q51 0 106 33v73q-40 10 -93 10q-39 0 -59.5 -15.5t-20.5 -42.5z" />
    <glyph glyph-name="adieresis" unicode="&#xe4;" horiz-adv-x="547" 
d="M364 571q-29 0 -49.5 20.5t-19.5 49.5q0 28 20.5 48t48.5 20t48.5 -20t20.5 -48q0 -29 -20 -49.5t-49 -20.5zM165 571q-28 0 -48.5 20.5t-20.5 48.5q1 28 21 48t48 20q29 0 49.5 -20t19.5 -48q1 -28 -19.5 -48.5t-49.5 -20.5zM267 500q105 0 162.5 -59.5t57.5 -160.5
v-280h-125l-13 61q-32 -32 -78 -51.5t-91 -19.5q-66 0 -109.5 42t-43.5 105q0 70 54.5 108t139.5 38q65 0 124 -13v19q0 45 -30 72.5t-85 27.5q-81 0 -146 -35l-19 100q34 20 91 33t111 13zM172 148q0 -26 18 -42t49 -16q51 0 106 33v73q-40 10 -93 10q-39 0 -59.5 -15.5
t-20.5 -42.5z" />
    <glyph glyph-name="aring" unicode="&#xe5;" horiz-adv-x="547" 
d="M264 559q-42 0 -72 28.5t-30 70.5q0 41 30 70t72 29q43 0 73 -29t30 -70q0 -42 -30 -70.5t-73 -28.5zM264 704q-19 0 -33 -13.5t-14 -32.5q0 -21 14 -34t33 -13q20 0 34 14t14 33t-14 32.5t-34 13.5zM267 500q105 0 162.5 -59.5t57.5 -160.5v-280h-125l-13 61
q-32 -32 -78 -51.5t-91 -19.5q-66 0 -109.5 42t-43.5 105q0 70 54.5 108t139.5 38q65 0 124 -13v19q0 45 -30 72.5t-85 27.5q-81 0 -146 -35l-19 100q34 20 91 33t111 13zM172 148q0 -26 18 -42t49 -16q51 0 106 33v73q-40 10 -93 10q-39 0 -59.5 -15.5t-20.5 -42.5z" />
    <glyph glyph-name="ae" unicode="&#xe6;" horiz-adv-x="829" 
d="M803 243l-16 -27h-301q16 -115 132 -115q67 0 117 24l27 -96q-28 -17 -76.5 -28.5t-95.5 -11.5q-128 0 -192 89q-29 -36 -80 -62t-116 -26q-76 0 -125.5 42.5t-49.5 106.5q0 69 58 109t149 40q51 0 111 -14v15q0 45 -30 72.5t-83 27.5q-83 0 -148 -35l-19 100
q77 46 207 46q96 0 153 -57q62 57 159 57q102 0 160.5 -68t58.5 -189zM579 391q-37 0 -61.5 -24.5t-31.5 -73.5h173q-6 52 -25.5 75t-54.5 23zM249 93q60 0 119 46q-8 22 -13 55q-44 11 -104 11q-37 0 -58 -15t-21 -41q0 -25 21 -40.5t56 -15.5z" />
    <glyph glyph-name="ccedilla" unicode="&#xe7;" horiz-adv-x="486" 
d="M295 -10h-3l-17 -37q71 -25 71 -73q0 -38 -31.5 -60t-78.5 -22q-58 0 -96 20l24 56q26 -12 47 -12q32 0 32 20q0 21 -51 40l-1 11l31 65q-86 21 -136 86.5t-50 160.5q0 113 70 184t179 71q53 0 103 -15.5t77 -40.5l-56 -90q-38 30 -107 30q-55 0 -87.5 -37t-32.5 -99
q0 -64 38 -103t104 -39q67 0 112 25l20 -108q-69 -33 -161 -33z" />
    <glyph glyph-name="egrave" unicode="&#xe8;" horiz-adv-x="527" 
d="M392 598l-43 -49l-204 121l90 97zM501 243l-15 -27h-301q16 -115 131 -115q67 0 117 24l27 -96q-28 -17 -76.5 -28.5t-95.5 -11.5q-113 0 -182 69t-69 188q0 114 67 184t178 70q103 0 161 -67.5t58 -189.5zM278 391q-78 0 -93 -95h172q-6 51 -25 73t-54 22z" />
    <glyph glyph-name="eacute" unicode="&#xe9;" horiz-adv-x="527" 
d="M403 670l-204 -121l-43 49l157 169zM501 243l-15 -27h-301q16 -115 131 -115q67 0 117 24l27 -96q-28 -17 -76.5 -28.5t-95.5 -11.5q-113 0 -182 69t-69 188q0 114 67 184t178 70q103 0 161 -67.5t58 -189.5zM278 391q-78 0 -93 -95h172q-6 51 -25 73t-54 22z" />
    <glyph glyph-name="ecircumflex" unicode="&#xea;" horiz-adv-x="527" 
d="M279 643l-122 -91l-51 56l141 147h65l141 -147l-51 -56zM501 243l-15 -27h-301q16 -115 131 -115q67 0 117 24l27 -96q-28 -17 -76.5 -28.5t-95.5 -11.5q-113 0 -182 69t-69 188q0 114 67 184t178 70q103 0 161 -67.5t58 -189.5zM278 391q-78 0 -93 -95h172q-6 51 -25 73
t-54 22z" />
    <glyph glyph-name="edieresis" unicode="&#xeb;" horiz-adv-x="527" 
d="M379 571q-29 0 -49.5 20.5t-19.5 49.5q0 28 20.5 48t48.5 20t48.5 -20t20.5 -48q0 -29 -20 -49.5t-49 -20.5zM180 571q-28 0 -48.5 20.5t-20.5 48.5q1 28 21 48t48 20q29 0 49.5 -20t19.5 -48q1 -28 -19.5 -48.5t-49.5 -20.5zM501 243l-15 -27h-301q16 -115 131 -115
q67 0 117 24l27 -96q-28 -17 -76.5 -28.5t-95.5 -11.5q-113 0 -182 69t-69 188q0 114 67 184t178 70q103 0 161 -67.5t58 -189.5zM278 391q-78 0 -93 -95h172q-6 51 -25 73t-54 22z" />
    <glyph glyph-name="igrave" unicode="&#xec;" horiz-adv-x="279" 
d="M103 767l157 -169l-43 -49l-204 121zM69 0v480l141 20v-500h-141z" />
    <glyph glyph-name="iacute" unicode="&#xed;" horiz-adv-x="279" 
d="M56 549l-43 49l157 169l90 -97zM69 0v480l141 20v-500h-141z" />
    <glyph glyph-name="icircumflex" unicode="&#xee;" horiz-adv-x="279" 
d="M14 552l-51 56l141 147h65l141 -147l-51 -56l-123 91zM69 0v480l141 20v-500h-141z" />
    <glyph glyph-name="idieresis" unicode="&#xef;" horiz-adv-x="279" 
d="M236 571q-29 0 -49.5 20.5t-19.5 49.5q0 28 20.5 48t48.5 20t48.5 -20t20.5 -48q0 -29 -20 -49.5t-49 -20.5zM37 571q-28 0 -48.5 20.5t-20.5 48.5q1 28 21 48t48 20q29 0 49.5 -20t19.5 -48q1 -28 -19.5 -48.5t-49.5 -20.5zM69 0v480l141 20v-500h-141z" />
    <glyph glyph-name="eth" unicode="&#xf0;" horiz-adv-x="575" 
d="M400 580q137 -154 137 -348q0 -109 -69.5 -175.5t-182.5 -66.5q-112 0 -180.5 66.5t-68.5 175.5q0 106 63.5 171t168.5 65q45 0 79 -10q-25 45 -62 80l-119 -43l-18 48l93 34q-34 24 -85 54l67 89q70 -36 138 -100l119 44l18 -48zM286 95q51 0 79.5 35.5t28.5 94.5
q0 65 -29.5 104.5t-80.5 39.5q-54 0 -80 -41.5t-26 -101.5q0 -59 30 -95t78 -36z" />
    <glyph glyph-name="ntilde" unicode="&#xf1;" horiz-adv-x="583" 
d="M235 625q-30 0 -30 -39h-64q0 127 85 127q29 0 66 -18.5t53 -18.5q32 0 32 39h64q0 -127 -87 -127q-31 0 -68.5 18.5t-50.5 18.5zM365 500q66 0 110.5 -48.5t44.5 -151.5v-300h-141v284q0 56 -18 78.5t-53 22.5q-45 0 -99 -32v-353h-142v491l126 9l11 -61q86 61 161 61z
" />
    <glyph glyph-name="ograve" unicode="&#xf2;" horiz-adv-x="576" 
d="M255 767l157 -169l-43 -49l-204 121zM288 -10q-113 0 -182 70t-69 185t68.5 185t181.5 70t182.5 -70t69.5 -185t-69 -185t-182 -70zM288 106q47 0 76.5 38.5t29.5 100.5q0 63 -29.5 101.5t-77.5 38.5t-76.5 -38.5t-28.5 -101.5q0 -61 29.5 -100t76.5 -39z" />
    <glyph glyph-name="oacute" unicode="&#xf3;" horiz-adv-x="576" 
d="M208 549l-43 49l157 169l90 -97zM288 -10q-113 0 -182 70t-69 185t68.5 185t181.5 70t182.5 -70t69.5 -185t-69 -185t-182 -70zM288 106q47 0 76.5 38.5t29.5 100.5q0 63 -29.5 101.5t-77.5 38.5t-76.5 -38.5t-28.5 -101.5q0 -61 29.5 -100t76.5 -39z" />
    <glyph glyph-name="ocircumflex" unicode="&#xf4;" horiz-adv-x="576" 
d="M166 552l-51 56l141 147h65l141 -147l-51 -56l-123 91zM288 -10q-113 0 -182 70t-69 185t68.5 185t181.5 70t182.5 -70t69.5 -185t-69 -185t-182 -70zM288 106q47 0 76.5 38.5t29.5 100.5q0 63 -29.5 101.5t-77.5 38.5t-76.5 -38.5t-28.5 -101.5q0 -61 29.5 -100
t76.5 -39z" />
    <glyph glyph-name="otilde" unicode="&#xf5;" horiz-adv-x="576" 
d="M138 586q0 127 85 127q29 0 66 -18.5t53 -18.5q32 0 32 39h64q0 -127 -87 -127q-31 0 -68.5 18.5t-50.5 18.5q-30 0 -30 -39h-64zM288 -10q-113 0 -182 70t-69 185t68.5 185t181.5 70t182.5 -70t69.5 -185t-69 -185t-182 -70zM288 106q47 0 76.5 38.5t29.5 100.5
q0 63 -29.5 101.5t-77.5 38.5t-76.5 -38.5t-28.5 -101.5q0 -61 29.5 -100t76.5 -39z" />
    <glyph glyph-name="odieresis" unicode="&#xf6;" horiz-adv-x="576" 
d="M388 571q-29 0 -49.5 20.5t-19.5 49.5q0 28 20.5 48t48.5 20t48.5 -20t20.5 -48q0 -29 -20 -49.5t-49 -20.5zM189 571q-28 0 -48.5 20.5t-20.5 48.5q1 28 21 48t48 20q29 0 49.5 -20t19.5 -48q1 -28 -19.5 -48.5t-49.5 -20.5zM288 -10q-113 0 -182 70t-69 185t68.5 185
t181.5 70t182.5 -70t69.5 -185t-69 -185t-182 -70zM288 106q47 0 76.5 38.5t29.5 100.5q0 63 -29.5 101.5t-77.5 38.5t-76.5 -38.5t-28.5 -101.5q0 -61 29.5 -100t76.5 -39z" />
    <glyph glyph-name="divide" unicode="&#xf7;" 
d="M301 327q-32 0 -54 21.5t-22 52.5t22.5 53t53.5 22q32 0 54.5 -22t22.5 -53t-22.5 -52.5t-54.5 -21.5zM51 192v82h499v-82h-499zM301 -10q-32 0 -54.5 21.5t-22.5 53.5q0 31 22.5 52.5t54.5 21.5t54.5 -21.5t22.5 -52.5q0 -32 -22.5 -53.5t-54.5 -21.5z" />
    <glyph glyph-name="oslash" unicode="&#xf8;" horiz-adv-x="576" 
d="M461 438q78 -70 78 -193q0 -115 -69 -185t-182 -70q-66 0 -115 24l-38 -56l-54 38l36 53q-80 71 -80 196q0 115 68.5 185t181.5 70q65 0 118 -25l35 52l56 -38zM182 245q0 -42 16 -77l137 204q-20 13 -48 13q-48 0 -76.5 -38.5t-28.5 -101.5zM288 106q47 0 76.5 38.5
t29.5 100.5q0 41 -14 74l-137 -202q22 -11 45 -11z" />
    <glyph glyph-name="ugrave" unicode="&#xf9;" horiz-adv-x="583" 
d="M415 598l-43 -49l-204 121l90 97zM374 490h141v-490h-121l-14 52q-87 -62 -162 -62q-66 0 -111 48.5t-45 151.5v300h142v-284q0 -55 18 -77.5t53 -22.5q45 0 99 32v352z" />
    <glyph glyph-name="uacute" unicode="&#xfa;" horiz-adv-x="583" 
d="M415 670l-204 -121l-43 49l157 169zM374 490h141v-490h-121l-14 52q-87 -62 -162 -62q-66 0 -111 48.5t-45 151.5v300h142v-284q0 -55 18 -77.5t53 -22.5q45 0 99 32v352z" />
    <glyph glyph-name="ucircumflex" unicode="&#xfb;" horiz-adv-x="583" 
d="M291 643l-122 -91l-51 56l141 147h65l141 -147l-51 -56zM374 490h141v-490h-121l-14 52q-87 -62 -162 -62q-66 0 -111 48.5t-45 151.5v300h142v-284q0 -55 18 -77.5t53 -22.5q45 0 99 32v352z" />
    <glyph glyph-name="udieresis" unicode="&#xfc;" horiz-adv-x="583" 
d="M391 571q-29 0 -49.5 20.5t-19.5 49.5q0 28 20.5 48t48.5 20t48.5 -20t20.5 -48q0 -29 -20 -49.5t-49 -20.5zM192 571q-28 0 -48.5 20.5t-20.5 48.5q1 28 21 48t48 20q29 0 49.5 -20t19.5 -48q1 -28 -19.5 -48.5t-49.5 -20.5zM374 490h141v-490h-121l-14 52
q-87 -62 -162 -62q-66 0 -111 48.5t-45 151.5v300h142v-284q0 -55 18 -77.5t53 -22.5q45 0 99 32v352z" />
    <glyph glyph-name="yacute" unicode="&#xfd;" horiz-adv-x="543" 
d="M398 670l-204 -121l-43 49l157 169zM377 490h157v-10l-263 -674h-147l79 202l-195 472v10h159l109 -340z" />
    <glyph glyph-name="thorn" unicode="&#xfe;" horiz-adv-x="591" 
d="M355 500q92 0 145.5 -66t53.5 -184q-2 -118 -72 -189t-192 -71q-30 0 -81 7v-191h-142v894l142 20v-277q67 57 146 57zM282 106q58 0 92.5 39t34.5 105q0 63 -26.5 99t-71.5 36q-55 0 -102 -44v-223q33 -12 73 -12z" />
    <glyph glyph-name="ydieresis" unicode="&#xff;" horiz-adv-x="543" 
d="M374 571q-29 0 -49.5 20.5t-19.5 49.5q0 28 20.5 48t48.5 20t48.5 -20t20.5 -48q0 -29 -20 -49.5t-49 -20.5zM175 571q-28 0 -48.5 20.5t-20.5 48.5q1 28 21 48t48 20q29 0 49.5 -20t19.5 -48q1 -28 -19.5 -48.5t-49.5 -20.5zM377 490h157v-10l-263 -674h-147l79 202
l-195 472v10h159l109 -340z" />
    <glyph glyph-name="OE" unicode="&#x152;" horiz-adv-x="947" 
d="M584 124h327v-124h-500q-174 0 -271 90.5t-97 265.5t97 264.5t271 89.5h495l-20 -124h-302v-173h234v-122h-234v-167zM411 113h31v484h-31q-102 1 -159.5 -60.5t-57.5 -180.5t57 -180t160 -63z" />
    <glyph glyph-name="oe" unicode="&#x153;" horiz-adv-x="869" 
d="M842 243l-15 -27h-299q16 -115 129 -115q67 0 117 24l27 -96q-28 -17 -76.5 -28.5t-94.5 -11.5q-104 0 -171 73q-65 -72 -172 -72q-115 0 -182.5 70t-67.5 185t67.5 185t182.5 70q105 0 171 -71q64 71 165 71q103 0 161 -67.5t58 -189.5zM619 391q-78 0 -91 -98h171
q-6 52 -25.5 75t-54.5 23zM286 106q46 0 74 38t28 101t-28 101.5t-75 38.5t-75 -38.5t-28 -101.5q0 -61 29 -100t75 -39z" />
    <glyph glyph-name="Ydieresis" unicode="&#x178;" horiz-adv-x="657" 
d="M229 769q-28 0 -48.5 20.5t-20.5 49.5q1 28 21 48t48 20q29 0 49 -20t20 -48q1 -29 -19.5 -49.5t-49.5 -20.5zM428 770q-29 0 -49.5 20.5t-19.5 48.5q0 28 20 48t49 20t49 -20t20 -48q0 -29 -20.5 -49t-48.5 -20zM643 710v-13l-243 -409v-288h-142v286l-245 411v13h158
l158 -292l157 292h157z" />
    <glyph glyph-name="tilde" unicode="&#x2dc;" horiz-adv-x="536" 
d="M118 586q0 127 85 127q29 0 66 -18.5t53 -18.5q32 0 32 39h64q0 -127 -87 -127q-31 0 -68.5 18.5t-50.5 18.5q-30 0 -30 -39h-64z" />
    <glyph glyph-name="endash" unicode="&#x2013;" horiz-adv-x="634" 
d="M59 300h516v-95h-516v95z" />
    <glyph glyph-name="emdash" unicode="&#x2014;" horiz-adv-x="878" 
d="M59 300h760v-95h-760v95z" />
    <glyph glyph-name="quoteleft" unicode="&#x2018;" horiz-adv-x="260" 
d="M131 540q33 -2 57 -24.5t24 -56.5q0 -33 -22.5 -57.5t-60.5 -24.5q-39 0 -64.5 27t-25.5 84q0 58 33 124t102 118l45 -46q-77 -64 -88 -144z" />
    <glyph glyph-name="quoteright" unicode="&#x2019;" horiz-adv-x="257" 
d="M133 743q39 0 64.5 -27t25.5 -84q0 -58 -33 -124t-102 -118l-45 46q77 64 88 144q-33 2 -57 24.5t-24 56.5q0 33 22.5 57.5t60.5 24.5z" />
    <glyph glyph-name="quotedblleft" unicode="&#x201c;" horiz-adv-x="499" 
d="M219 684q-77 -64 -88 -144q33 -2 57 -24.5t24 -56.5q0 -33 -22.5 -57.5t-60.5 -24.5q-39 0 -64.5 27t-25.5 84q0 58 33 124t102 118zM370 540q33 -2 57 -24.5t24 -56.5q0 -33 -22.5 -57.5t-60.5 -24.5q-39 0 -64.5 27t-25.5 84q0 58 33 124t102 118l45 -46
q-77 -64 -88 -144z" />
    <glyph glyph-name="quotedblright" unicode="&#x201d;" horiz-adv-x="498" 
d="M133 743q39 0 64.5 -27t25.5 -84q0 -58 -33 -124t-102 -118l-45 46q77 64 88 144q-33 2 -57 24.5t-24 56.5q0 33 22.5 57.5t60.5 24.5zM375 743q39 0 64.5 -27t25.5 -84q0 -58 -33 -124t-102 -118l-45 46q77 64 88 144q-33 2 -57 24.5t-24 56.5q0 33 22.5 57.5t60.5 24.5
z" />
    <glyph glyph-name="quotedblbase" unicode="&#x201e;" horiz-adv-x="494" 
d="M128 162q39 0 64.5 -27t25.5 -84q0 -58 -33 -124t-102 -118l-45 46q77 64 88 144q-33 2 -57 24.5t-24 56.5q0 33 22.5 57.5t60.5 24.5zM357 162q39 0 64.5 -27t25.5 -84q0 -58 -33 -124t-102 -118l-45 46q77 64 88 144q-33 2 -57 24.5t-24 56.5q0 33 22.5 57.5t60.5 24.5
z" />
    <glyph glyph-name="bullet" unicode="&#x2022;" horiz-adv-x="447" 
d="M223 87q-66 0 -111.5 45.5t-45.5 112.5q0 65 45.5 110.5t111.5 45.5q67 0 112.5 -45.5t45.5 -110.5q0 -67 -45.5 -112.5t-112.5 -45.5z" />
    <glyph glyph-name="ellipsis" unicode="&#x2026;" horiz-adv-x="933" 
d="M130 -10q-36 0 -61 24t-25 60q0 34 25 58t61 24t61 -24t25 -58q0 -36 -25 -60t-61 -24zM466 -10q-36 0 -61 24t-25 60q0 34 25.5 58t60.5 24q37 0 62 -23.5t25 -58.5q0 -36 -25 -60t-62 -24zM803 -11q-36 0 -61 24t-25 60q0 34 25 58t61 24t61.5 -24t25.5 -58
q0 -36 -25.5 -60t-61.5 -24z" />
    <glyph glyph-name="guilsinglleft" unicode="&#x2039;" horiz-adv-x="307" 
d="M139 247l128 -168l-95 -26l-134 160v67l133 162l95 -26z" />
    <glyph glyph-name="guilsinglright" unicode="&#x203a;" horiz-adv-x="307" 
d="M137 442l132 -162v-67l-134 -160l-95 26l129 168l-128 169z" />
    <glyph glyph-name="Euro" unicode="&#x20ac;" horiz-adv-x="670" 
d="M598 139l36 -113q-75 -36 -171 -36q-135 0 -220.5 71t-107.5 198h-107l25 56h76q-1 9 -1 29q0 23 1 34h-96l25 55h78q23 125 107.5 195t215.5 70q98 0 171 -32l-44 -109q-49 20 -108 20q-72 0 -122.5 -37.5t-69.5 -106.5h231l-26 -55h-215q-2 -22 -2 -34q0 -20 1 -29h194
l-25 -56h-160q19 -71 70.5 -109.5t129.5 -38.5q64 0 114 28z" />
    <glyph glyph-name="trademark" unicode="&#x2122;" horiz-adv-x="822" 
d="M30 646v64h269v-64h-95v-326h-80v326h-94zM754 320h-80l-6 264l-81 -260h-79l-82 261l-6 -265h-79l13 390h105l88 -295l89 295h104z" />
    <glyph glyph-name="Q.alt" horiz-adv-x="739" 
d="M473 5q54 -73 189 -77v-4l-22 -112q-104 0 -181 46t-108 132q-140 7 -224.5 106.5t-84.5 259.5q0 164 90 264t238 100t237.5 -100t89.5 -264q0 -133 -60 -226t-164 -125zM188 355q0 -109 49.5 -175t131.5 -66t132 66t50 175t-49.5 175t-131.5 66t-132 -66t-50 -175z" />
    <glyph glyph-name="A.c2sc" horiz-adv-x="612" 
d="M458 0l-46 142h-211l-46 -142h-143l213 594h162l213 -594h-142zM237 254h139l-69 215z" />
    <glyph glyph-name="Aacute.c2sc" horiz-adv-x="612" 
d="M430 703l-174 -75l-35 46l135 123zM458 0l-46 142h-211l-46 -142h-143l213 594h162l213 -594h-142zM237 254h139l-69 215z" />
    <glyph glyph-name="Acircumflex.c2sc" horiz-adv-x="612" 
d="M306 690l-108 -61l-47 53l124 100h62l124 -100l-47 -53zM458 0l-46 142h-211l-46 -142h-143l213 594h162l213 -594h-142zM237 254h139l-69 215z" />
    <glyph glyph-name="Adieresis.c2sc" horiz-adv-x="612" 
d="M396 644q-26 0 -45 18.5t-19 44.5q1 25 20 43t44 18q26 0 45 -18t19 -43q0 -26 -19 -44.5t-45 -18.5zM216 643q-26 0 -45 18.5t-19 44.5q1 25 19.5 43t44.5 18t44 -17.5t19 -43.5q0 -26 -18.5 -44.5t-44.5 -18.5zM458 0l-46 142h-211l-46 -142h-143l213 594h162l213 -594
h-142zM237 254h139l-69 215z" />
    <glyph glyph-name="Agrave.c2sc" horiz-adv-x="612" 
d="M387 674l-36 -46l-174 75l74 95zM458 0l-46 142h-211l-46 -142h-143l213 594h162l213 -594h-142zM237 254h139l-69 215z" />
    <glyph glyph-name="Aring.c2sc" horiz-adv-x="612" 
d="M306 632q-37 0 -63 24.5t-26 59.5t26 59.5t63 24.5t63.5 -24.5t26.5 -59.5t-26 -59.5t-64 -24.5zM306 753q-16 0 -28 -11t-12 -26q0 -17 12 -27t28 -10t28 11t12 26q0 16 -11.5 26.5t-28.5 10.5zM458 0l-46 142h-211l-46 -142h-143l213 594h162l213 -594h-142zM237 254
h139l-69 215z" />
    <glyph glyph-name="Atilde.c2sc" horiz-adv-x="612" 
d="M256 673q-26 0 -26 -31h-58q0 112 77 112q26 0 58.5 -14.5t46.5 -14.5q28 0 28 31h58q0 -112 -79 -112q-28 0 -61 14.5t-44 14.5zM458 0l-46 142h-211l-46 -142h-143l213 594h162l213 -594h-142zM237 254h139l-69 215z" />
    <glyph glyph-name="AE.c2sc" horiz-adv-x="814" 
d="M521 120h256v-120h-394v140h-176l-60 -140h-146l264 594h508l-19 -120h-233v-123h175v-114h-175v-117zM251 244h132v243h-29z" />
    <glyph glyph-name="B.c2sc" horiz-adv-x="589" 
d="M426 309q57 -8 92.5 -49t35.5 -95q0 -67 -53.5 -116t-151.5 -49h-275v594h249q93 0 144 -46t51 -110q0 -41 -22 -78t-70 -51zM377 412q0 62 -90 62h-74v-125h76q88 0 88 63zM314 120q98 0 98 65q0 32 -25 49.5t-73 17.5h-101v-132h101z" />
    <glyph glyph-name="C.c2sc" horiz-adv-x="550" 
d="M355 -8q-143 0 -229.5 84t-86.5 221t86.5 221t229.5 84q94 0 167 -27l-18 -113q-60 21 -128 21q-89 0 -142.5 -49t-53.5 -137t53.5 -137t142.5 -49q71 0 126 19l20 -111q-73 -27 -167 -27z" />
    <glyph glyph-name="Ccedilla.c2sc" horiz-adv-x="550" 
d="M522 19q-68 -25 -157 -27l-15 -32q64 -23 64 -62q0 -32 -28.5 -49.5t-70.5 -17.5q-53 0 -87 18l20 47q22 -11 42 -11q28 0 28 17q0 18 -44 34v8l26 52q-120 16 -190.5 97t-70.5 204q0 137 86.5 221t229.5 84q94 0 167 -27l-18 -113q-60 21 -128 21q-89 0 -142.5 -49
t-53.5 -137t53.5 -137t142.5 -49q71 0 126 19z" />
    <glyph glyph-name="D.c2sc" horiz-adv-x="620" 
d="M276 594q143 0 223.5 -80.5t80.5 -215.5q0 -136 -80.5 -217t-223.5 -81h-202v594h202zM276 120q80 0 121.5 45.5t41.5 132.5q0 85 -41.5 130.5t-121.5 45.5h-64v-354h64z" />
    <glyph glyph-name="Eth.c2sc" horiz-adv-x="630" 
d="M286 594q144 0 224 -80.5t80 -215.5q0 -136 -80 -217t-224 -81h-201v249h-61v105h61v240h201zM286 120q81 0 122 45.5t41 132.5q0 85 -41.5 130.5t-121.5 45.5h-63v-120h116v-105h-116v-129h63z" />
    <glyph glyph-name="E.c2sc" horiz-adv-x="534" 
d="M212 120h284v-120h-422v594h417l-18 -120h-261v-123h203v-114h-203v-117z" />
    <glyph glyph-name="Eacute.c2sc" horiz-adv-x="534" 
d="M381 703l-175 -75l-34 46l135 123zM212 120h284v-120h-422v594h417l-18 -120h-261v-123h203v-114h-203v-117z" />
    <glyph glyph-name="Ecircumflex.c2sc" horiz-adv-x="534" 
d="M268 690l-108 -61l-48 53l125 100h61l125 -100l-48 -53zM212 120h284v-120h-422v594h417l-18 -120h-261v-123h203v-114h-203v-117z" />
    <glyph glyph-name="Edieresis.c2sc" horiz-adv-x="534" 
d="M358 644q-26 0 -45 18.5t-19 44.5q1 26 19.5 43.5t44.5 17.5t45 -18t19 -43q0 -26 -19 -44.5t-45 -18.5zM178 643q-26 0 -45.5 19t-18.5 44q0 25 19 43t45 18t44.5 -18t18.5 -43q0 -26 -18.5 -44.5t-44.5 -18.5zM212 120h284v-120h-422v594h417l-18 -120h-261v-123h203
v-114h-203v-117z" />
    <glyph glyph-name="Egrave.c2sc" horiz-adv-x="534" 
d="M364 674l-35 -46l-175 75l75 95zM212 120h284v-120h-422v594h417l-18 -120h-261v-123h203v-114h-203v-117z" />
    <glyph glyph-name="F.c2sc" horiz-adv-x="506" 
d="M473 474h-261v-129h209v-119h-209v-226h-138v594h418z" />
    <glyph glyph-name="G.c2sc" horiz-adv-x="613" 
d="M335 322h233v-257q-30 -33 -89.5 -53t-127.5 -20q-140 0 -226 84.5t-86 222.5q0 137 85.5 220t228.5 83q108 0 183 -35l-20 -112q-63 27 -144 27q-89 0 -140 -48t-51 -135q0 -88 48 -137.5t127 -49.5q36 0 74 9v103l-112 5z" />
    <glyph glyph-name="H.c2sc" horiz-adv-x="640" 
d="M429 594h137v-594h-137v242h-217v-242h-138v594h138v-232h217v232z" />
    <glyph glyph-name="I.c2sc" horiz-adv-x="286" 
d="M74 0v594h138v-594h-138z" />
    <glyph glyph-name="Iacute.c2sc" horiz-adv-x="286" 
d="M83 628l-35 46l135 123l74 -94zM74 0v594h137v-594h-137z" />
    <glyph glyph-name="Icircumflex.c2sc" horiz-adv-x="286" 
d="M35 629l-47 53l124 100h62l124 -100l-48 -53l-107 61zM74 0v594h138v-594h-138z" />
    <glyph glyph-name="Idieresis.c2sc" horiz-adv-x="286" 
d="M233 644q-26 0 -45 18.5t-18 44.5q0 25 18.5 43t44.5 18t45 -18t19 -43q0 -26 -19 -44.5t-45 -18.5zM53 643q-26 0 -45 18.5t-19 44.5q1 25 19.5 43t44.5 18t44.5 -17.5t19.5 -43.5q0 -26 -19 -44.5t-45 -18.5zM74 0v594h138v-594h-138z" />
    <glyph glyph-name="Igrave.c2sc" horiz-adv-x="286" 
d="M204 628l-175 75l75 95l135 -124zM74 0v594h137v-594h-137z" />
    <glyph glyph-name="J.c2sc" horiz-adv-x="331" 
d="M-3 -166l-22 119q65 4 106 43.5t41 117.5v480h137v-480q0 -127 -73 -200.5t-189 -79.5z" />
    <glyph glyph-name="K.c2sc" horiz-adv-x="604" 
d="M392 363l200 -351v-12h-152l-136 261l-92 -107v-154h-138v594h138v-264l213 264h156v-13z" />
    <glyph glyph-name="L.c2sc" horiz-adv-x="487" 
d="M212 120h260v-120h-398v594h138v-474z" />
    <glyph glyph-name="M.c2sc" horiz-adv-x="803" 
d="M738 0h-133l-11 369l-125 -363h-135l-126 364l-11 -370h-133l22 594h174l141 -419l141 419h175z" />
    <glyph glyph-name="N.c2sc" horiz-adv-x="642" 
d="M430 594h137v-594h-146l-209 340v-340h-138v594h150l206 -351v351z" />
    <glyph glyph-name="Ntilde.c2sc" horiz-adv-x="642" 
d="M273 673q-27 0 -27 -31h-58q0 112 77 112q26 0 58.5 -14.5t45.5 -14.5q30 0 30 31h58q0 -112 -80 -112q-27 0 -60 14.5t-44 14.5zM430 594h137v-594h-146l-209 340v-340h-138v594h150l206 -351v351z" />
    <glyph glyph-name="O.c2sc" horiz-adv-x="654" 
d="M327 -8q-130 0 -208.5 84t-78.5 222q0 137 79 220.5t209 83.5t208.5 -83.5t78.5 -220.5q0 -138 -79 -222t-209 -84zM327 111q69 0 108 49.5t39 137.5q0 87 -38.5 136t-107.5 49q-70 0 -109 -49t-39 -136q0 -88 39 -137.5t108 -49.5z" />
    <glyph glyph-name="Oacute.c2sc" horiz-adv-x="654" 
d="M267 628l-35 46l135 123l75 -94zM327 -8q-130 0 -208.5 84t-78.5 222q0 137 79 220.5t209 83.5t208.5 -83.5t78.5 -220.5q0 -138 -79 -222t-209 -84zM327 111q69 0 108 49.5t39 137.5q0 87 -38.5 136t-107.5 49q-70 0 -109 -49t-39 -136q0 -88 39 -137.5t108 -49.5z" />
    <glyph glyph-name="Ocircumflex.c2sc" horiz-adv-x="654" 
d="M221 629l-49 53l125 100h62l124 -100l-48 -53l-107 61zM327 -8q-130 0 -208.5 84t-78.5 222q0 137 79 220.5t209 83.5t208.5 -83.5t78.5 -220.5q0 -138 -79 -222t-209 -84zM327 111q69 0 108 49.5t39 137.5q0 87 -38.5 136t-107.5 49q-70 0 -109 -49t-39 -136
q0 -88 39 -137.5t108 -49.5z" />
    <glyph glyph-name="Odieresis.c2sc" horiz-adv-x="654" 
d="M418 644q-26 0 -45 18.5t-19 44.5q1 26 19.5 43.5t44.5 17.5t44.5 -18t18.5 -43q0 -26 -18.5 -44.5t-44.5 -18.5zM238 643q-26 0 -45.5 19t-18.5 44q0 25 19 43t45 18t44 -18t19 -43q0 -26 -18.5 -44.5t-44.5 -18.5zM327 -8q-130 0 -208.5 84t-78.5 222q0 137 79 220.5
t209 83.5t208.5 -83.5t78.5 -220.5q0 -138 -79 -222t-209 -84zM327 111q69 0 108 49.5t39 137.5q0 87 -38.5 136t-107.5 49q-70 0 -109 -49t-39 -136q0 -88 39 -137.5t108 -49.5z" />
    <glyph glyph-name="Ograve.c2sc" horiz-adv-x="654" 
d="M389 628l-174 75l74 95l135 -124zM327 -8q-130 0 -208.5 84t-78.5 222q0 137 79 220.5t209 83.5t208.5 -83.5t78.5 -220.5q0 -138 -79 -222t-209 -84zM327 111q69 0 108 49.5t39 137.5q0 87 -38.5 136t-107.5 49q-70 0 -109 -49t-39 -136q0 -88 39 -137.5t108 -49.5z" />
    <glyph glyph-name="Oslash.c2sc" horiz-adv-x="654" 
d="M538 517q77 -83 77 -219q0 -138 -79 -222t-209 -84q-76 0 -138 31l-40 -56l-73 48l43 61q-79 84 -79 222q0 137 79 220.5t209 83.5q78 0 138 -31l40 56l75 -49zM180 298q0 -63 20 -106l194 276q-28 15 -66 15q-70 0 -109 -49t-39 -136zM327 111q69 0 108 49.5t39 137.5
q0 61 -19 102l-194 -274q29 -15 66 -15z" />
    <glyph glyph-name="Otilde.c2sc" horiz-adv-x="654" 
d="M193 642q0 112 78 112q25 0 58 -14.5t46 -14.5q28 0 28 31h59q0 -112 -80 -112q-27 0 -60 14.5t-44 14.5q-27 0 -27 -31h-58zM327 -8q-130 0 -208.5 84t-78.5 222q0 137 79 220.5t209 83.5t208.5 -83.5t78.5 -220.5q0 -138 -79 -222t-209 -84zM327 111q69 0 108 49.5
t39 137.5q0 87 -38.5 136t-107.5 49q-70 0 -109 -49t-39 -136q0 -88 39 -137.5t108 -49.5z" />
    <glyph glyph-name="OE.c2sc" horiz-adv-x="841" 
d="M527 120h277v-120h-440q-153 0 -238.5 76t-85.5 222t85 221t239 75h436l-19 -120h-254v-123h196v-114h-196v-117zM364 107h26v380h-26q-84 1 -131.5 -47.5t-47.5 -141.5q0 -94 47 -142t132 -49z" />
    <glyph glyph-name="P.c2sc" horiz-adv-x="561" 
d="M332 594q93 0 149.5 -54t56.5 -141t-56.5 -141.5t-149.5 -54.5h-120v-203h-138v594h258zM308 317q41 0 65 20.5t24 58.5q0 37 -24.5 57.5t-64.5 20.5h-96v-157h96z" />
    <glyph glyph-name="Thorn.c2sc" horiz-adv-x="570" 
d="M331 490q95 0 150 -53t55 -141q0 -87 -55 -140t-150 -53h-119v-103h-138v594h138v-104h119zM307 222q42 0 65 20t23 54q0 35 -23 55t-65 20h-95v-149h95z" />
    <glyph glyph-name="Q.c2sc" horiz-adv-x="654" 
d="M615 298q0 -93 -37 -163t-103 -107l83 -110l-139 -66l-48 143q-21 -3 -44 -3q-130 0 -208.5 84t-78.5 222q0 137 79 220.5t209 83.5t208.5 -83.5t78.5 -220.5zM181 326q0 -99 45 -157t112 -58q66 0 101 45.5t35 112.5q0 99 -45 156.5t-113 57.5q-63 0 -99 -41.5
t-36 -115.5z" />
    <glyph glyph-name="R.c2sc" horiz-adv-x="590" 
d="M400 231l175 -219v-12h-155l-170 222h-38v-222h-138v594h258q93 0 149.5 -51.5t56.5 -134.5q0 -66 -37 -113t-101 -64zM212 474v-159h96q40 0 64.5 21t24.5 58t-24.5 58.5t-64.5 21.5h-96z" />
    <glyph glyph-name="S.c2sc" horiz-adv-x="517" 
d="M246 -9q-125 0 -214 56l20 114q96 -51 191 -51q100 0 100 54q0 35 -57 59l-103 44q-69 30 -100.5 67t-31.5 94q0 85 62.5 129.5t163.5 44.5q105 0 186 -35l-20 -114q-63 30 -148 30q-103 0 -103 -48q0 -32 53 -51l108 -46q130 -55 132 -167q-1 -83 -66 -131.5t-173 -48.5
z" />
    <glyph glyph-name="T.c2sc" horiz-adv-x="539" 
d="M525 594v-120h-187v-474h-137v474h-186v120h510z" />
    <glyph glyph-name="U.c2sc" horiz-adv-x="631" 
d="M316 -8q-121 0 -184.5 53.5t-63.5 178.5v370h138v-365q0 -118 110 -118q109 0 109 118v365h138v-370q0 -125 -63 -178.5t-184 -53.5z" />
    <glyph glyph-name="Uacute.c2sc" horiz-adv-x="631" 
d="M255 628l-35 46l135 123l75 -94zM316 -8q-121 0 -184.5 53.5t-63.5 178.5v370h138v-365q0 -118 110 -118q109 0 109 118v365h138v-370q0 -125 -63 -178.5t-184 -53.5z" />
    <glyph glyph-name="Ucircumflex.c2sc" horiz-adv-x="631" 
d="M208 629l-48 53l125 100h62l124 -100l-48 -53l-107 61zM316 -8q-121 0 -184.5 53.5t-63.5 178.5v370h138v-365q0 -118 110 -118q109 0 109 118v365h138v-370q0 -125 -63 -178.5t-184 -53.5z" />
    <glyph glyph-name="Udieresis.c2sc" horiz-adv-x="631" 
d="M406 644q-26 0 -45 18.5t-18 44.5q0 25 18.5 43t44.5 18t44.5 -18t18.5 -43q0 -26 -18.5 -44.5t-44.5 -18.5zM226 643q-26 0 -45 18.5t-19 44.5q0 25 19 43t45 18t44 -18t19 -43q0 -26 -18.5 -44.5t-44.5 -18.5zM316 -8q-121 0 -184.5 53.5t-63.5 178.5v370h138v-365
q0 -118 110 -118q109 0 109 118v365h138v-370q0 -125 -63 -178.5t-184 -53.5z" />
    <glyph glyph-name="Ugrave.c2sc" horiz-adv-x="631" 
d="M377 628l-174 75l74 95l135 -124zM316 -8q-121 0 -184.5 53.5t-63.5 178.5v370h138v-365q0 -118 110 -118q109 0 109 118v365h138v-370q0 -125 -63 -178.5t-184 -53.5z" />
    <glyph glyph-name="V.c2sc" horiz-adv-x="583" 
d="M430 594h140l-205 -594h-148l-204 594h140l139 -461z" />
    <glyph glyph-name="W.c2sc" horiz-adv-x="801" 
d="M646 594h136l-156 -594h-132l-94 367l-94 -367h-131l-156 594h136l94 -401l102 393h98l102 -395z" />
    <glyph glyph-name="X.c2sc" horiz-adv-x="561" 
d="M361 309l187 -297v-12h-151l-116 200l-117 -200h-151v12l187 297l-176 272v13h151l106 -176l106 176h150v-13z" />
    <glyph glyph-name="Y.c2sc" horiz-adv-x="587" 
d="M574 594v-13l-211 -343v-238h-138v236l-212 345v13h153l128 -234l127 234h153z" />
    <glyph glyph-name="Yacute.c2sc" horiz-adv-x="587" 
d="M407 703l-174 -75l-35 46l135 123zM574 594v-13l-211 -343v-238h-138v236l-212 345v13h153l128 -234l127 234h153z" />
    <glyph glyph-name="Ydieresis.c2sc" horiz-adv-x="587" 
d="M384 644q-26 0 -45 18.5t-19 44.5q1 26 19.5 43.5t44.5 17.5t44.5 -18t18.5 -43q0 -26 -18.5 -44.5t-44.5 -18.5zM204 643q-26 0 -45.5 19t-18.5 44q0 25 19 43t45 18t44 -18t18 -43q1 -25 -17.5 -44t-44.5 -19zM574 594v-13l-211 -343v-238h-138v236l-212 345v13h153
l128 -234l127 234h153z" />
    <glyph glyph-name="Z.c2sc" horiz-adv-x="541" 
d="M504 516l-279 -396h279v-120h-461l-14 79l276 395h-257v120h442z" />
    <glyph glyph-name="Q.alt.c2sc" horiz-adv-x="654" 
d="M433 9q40 -54 148 -56v-4l-20 -108q-90 0 -158 40.5t-94 110.5q-123 7 -196 90t-73 216q0 137 79 220.5t209 83.5t208.5 -83.5t78.5 -220.5q0 -106 -48.5 -182.5t-133.5 -106.5zM181 326q0 -99 45 -157t112 -58q66 0 101 45.5t35 112.5q0 99 -45 156.5t-113 57.5
q-63 0 -99 -41.5t-36 -115.5z" />
    <glyph glyph-name="dotlessi" horiz-adv-x="279" 
d="M69 0v480l141 20v-500h-141z" />
    <glyph glyph-name="i.loclTRK" horiz-adv-x="279" 
d="M136 578q-29 0 -49.5 20.5t-19.5 48.5q0 28 20 48t49 20t49 -20t20 -48q0 -29 -20.5 -49t-48.5 -20zM69 0v480l141 20v-500h-141z" />
    <glyph glyph-name="ldot" horiz-adv-x="438" 
d="M69 0v700l141 20v-720h-141zM359 225q-36 0 -61.5 23.5t-25.5 59.5q0 35 25.5 59t61.5 24t61 -24t25 -59q0 -36 -25 -59.5t-61 -23.5z" />
    <glyph glyph-name="a.alt" horiz-adv-x="590" 
d="M381 490h141v-490h-124l-12 52q-60 -62 -149 -62q-88 0 -143.5 70t-55.5 185t55.5 185t143.5 70q87 0 144 -57v47zM183 246q0 -65 29 -102.5t76 -37.5q49 0 93 39v200q-43 40 -93 40q-47 0 -76 -37t-29 -102z" />
    <glyph glyph-name="aacute.alt" horiz-adv-x="590" 
d="M406 670l-204 -121l-43 49l157 169zM381 490h141v-490h-124l-12 52q-60 -62 -149 -62q-88 0 -143.5 70t-55.5 185t55.5 185t143.5 70q87 0 144 -57v47zM183 246q0 -65 29 -102.5t76 -37.5q49 0 93 39v200q-43 40 -93 40q-47 0 -76 -37t-29 -102z" />
    <glyph glyph-name="acircumflex.alt" horiz-adv-x="590" 
d="M282 643l-122 -91l-51 56l141 147h65l141 -147l-51 -56zM381 490h141v-490h-124l-12 52q-60 -62 -149 -62q-88 0 -143.5 70t-55.5 185t55.5 185t143.5 70q87 0 144 -57v47zM183 246q0 -65 29 -102.5t76 -37.5q49 0 93 39v200q-43 40 -93 40q-47 0 -76 -37t-29 -102z" />
    <glyph glyph-name="adieresis.alt" horiz-adv-x="590" 
d="M382 571q-29 0 -49.5 20.5t-19.5 49.5q0 28 20.5 48t48.5 20t48.5 -20t20.5 -48q0 -29 -20 -49.5t-49 -20.5zM183 571q-28 0 -48.5 20.5t-20.5 48.5q1 28 21 48t48 20q29 0 49.5 -20t19.5 -48q1 -28 -19.5 -48.5t-49.5 -20.5zM381 490h141v-490h-124l-12 52
q-60 -62 -149 -62q-88 0 -143.5 70t-55.5 185t55.5 185t143.5 70q87 0 144 -57v47zM183 246q0 -65 29 -102.5t76 -37.5q49 0 93 39v200q-43 40 -93 40q-47 0 -76 -37t-29 -102z" />
    <glyph glyph-name="agrave.alt" horiz-adv-x="590" 
d="M406 598l-43 -49l-204 121l90 97zM381 490h141v-490h-124l-12 52q-60 -62 -149 -62q-88 0 -143.5 70t-55.5 185t55.5 185t143.5 70q87 0 144 -57v47zM183 246q0 -65 29 -102.5t76 -37.5q49 0 93 39v200q-43 40 -93 40q-47 0 -76 -37t-29 -102z" />
    <glyph glyph-name="aring.alt" horiz-adv-x="590" 
d="M282 559q-42 0 -72 28.5t-30 70.5q0 41 30 70t72 29q43 0 73 -29t30 -70q0 -42 -30 -70.5t-73 -28.5zM282 704q-19 0 -33 -13.5t-14 -32.5q0 -21 14 -34t33 -13q20 0 34 14t14 33t-14 32.5t-34 13.5zM381 490h141v-490h-124l-12 52q-60 -62 -149 -62q-88 0 -143.5 70
t-55.5 185t55.5 185t143.5 70q87 0 144 -57v47zM183 246q0 -65 29 -102.5t76 -37.5q49 0 93 39v200q-43 40 -93 40q-47 0 -76 -37t-29 -102z" />
    <glyph glyph-name="atilde.alt" horiz-adv-x="590" 
d="M226 625q-30 0 -30 -39h-64q0 127 85 127q29 0 66 -18.5t53 -18.5q32 0 32 39h64q0 -127 -87 -127q-31 0 -68.5 18.5t-50.5 18.5zM381 490h141v-490h-124l-12 52q-60 -62 -149 -62q-88 0 -143.5 70t-55.5 185t55.5 185t143.5 70q87 0 144 -57v47zM183 246
q0 -65 29 -102.5t76 -37.5q49 0 93 39v200q-43 40 -93 40q-47 0 -76 -37t-29 -102z" />
    <glyph glyph-name="g.alt" horiz-adv-x="590" 
d="M381 490h141v-445q0 -125 -69 -192.5t-203 -67.5q-91 0 -175 35l23 110q63 -30 146 -30q69 0 103 34.5t34 95.5v17q-57 -57 -144 -57q-88 0 -143.5 70t-55.5 185t55.5 185t143.5 70q87 0 144 -57v47zM288 106q49 0 93 39v200q-43 40 -93 40q-47 0 -76 -37t-29 -102
t29 -102.5t76 -37.5z" />
    <glyph glyph-name="l.alt" horiz-adv-x="306" 
d="M205 -10q-74 0 -107 38t-33 121v551l141 20v-572q0 -42 38 -42q19 0 31 4l18 -111q-39 -9 -88 -9z" />
    <glyph glyph-name="ldot.alt" horiz-adv-x="438" 
d="M205 -10q-74 0 -107 38t-33 121v551l141 20v-572q0 -42 38 -42q19 0 31 4l18 -111q-39 -9 -88 -9zM354 224q-36 0 -61 24t-25 60q0 34 25.5 58t60.5 24q37 0 62 -23.5t25 -58.5q0 -36 -25 -60t-62 -24z" />
    <glyph glyph-name="y.alt" horiz-adv-x="543" 
d="M377 490h157v-10l-205 -534q-57 -150 -186 -150q-58 0 -110 26l23 103q30 -13 63 -13q48 1 71 60l13 36l-195 472v10h159l110 -342z" />
    <glyph glyph-name="yacute.alt" horiz-adv-x="543" 
d="M398 670l-204 -121l-43 49l157 169zM377 490h157v-10l-205 -534q-57 -150 -186 -150q-58 0 -110 26l23 103q30 -13 63 -13q48 1 71 60l13 36l-195 472v10h159l110 -342z" />
    <glyph glyph-name="ydieresis.alt" horiz-adv-x="543" 
d="M374 571q-29 0 -49.5 20.5t-19.5 49.5q0 28 20.5 48t48.5 20t48.5 -20t20.5 -48q0 -29 -20 -49.5t-49 -20.5zM175 571q-28 0 -48.5 20.5t-20.5 48.5q1 28 21 48t48 20q29 0 49.5 -20t19.5 -48q1 -28 -19.5 -48.5t-49.5 -20.5zM377 490h157v-10l-205 -534
q-57 -150 -186 -150q-58 0 -110 26l23 103q30 -13 63 -13q48 1 71 60l13 36l-195 472v10h159l110 -342z" />
    <glyph glyph-name="germandbls.calt" horiz-adv-x="695" 
d="M483 406q83 -21 130.5 -75.5t47.5 -135.5q0 -93 -63.5 -149t-164.5 -56q-94 0 -156 30l19 111q45 -29 114 -29q53 0 80 27t27 67q0 48 -44 84t-120 50l-7 71l93 187q-31 9 -82 9q-72 0 -109.5 -39.5t-37.5 -109.5v-448h-143v467q0 118 77.5 186t215.5 68q148 0 244 -47
v-24z" />
    <glyph glyph-name="f_b" horiz-adv-x="999" 
d="M99 537q0 50 18.5 87t50 57t65.5 29.5t72 9.5q44 0 100 -14l-18 -112q-26 10 -61 10q-40 0 -63 -18t-23 -66v-30h134v-102h-134v-388h-141v388h-81v102h81v47zM763 500q92 0 145.5 -66t53.5 -184q-2 -118 -72 -189t-192 -71q-103 0 -223 44v666l142 20v-277q67 57 146 57
zM690 106q58 0 92.5 39t34.5 105q0 63 -26.5 99t-71.5 36q-55 0 -102 -44v-223q33 -12 73 -12z" />
    <glyph glyph-name="f_f_b" horiz-adv-x="1366" 
d="M466 537q0 66 33 109t76.5 58.5t95.5 15.5q55 0 107 -15l-18 -111q-26 10 -67 10q-40 0 -63 -18t-23 -66v-30h126v-102h-126v-388h-141v388h-226v-388h-141v388h-81v102h81v47q0 50 18.5 87t50 57t65.5 29.5t72 9.5q82 0 124 -21l-19 -111q-37 16 -77 16q-93 0 -93 -84
v-30h226v47zM1130 500q92 0 145.5 -66t53.5 -184q-2 -118 -72 -189t-192 -71q-103 0 -223 44v666l141 20v-278q66 58 147 58zM1057 106q58 0 92.5 39t34.5 105q0 63 -26.5 99t-71.5 36q-56 0 -103 -45v-222q33 -12 74 -12z" />
    <glyph glyph-name="f_f_h" horiz-adv-x="1358" 
d="M466 537q0 66 33 109t76.5 58.5t95.5 15.5q55 0 107 -15l-18 -111q-26 10 -67 10q-40 0 -63 -18t-23 -66v-30h126v-102h-126v-388h-141v388h-226v-388h-141v388h-81v102h81v47q0 50 18.5 87t50 57t65.5 29.5t72 9.5q82 0 124 -21l-19 -111q-37 16 -77 16q-93 0 -93 -84
v-30h226v47zM1140 500q66 0 110.5 -48.5t44.5 -151.5v-300h-141v284q0 56 -18 78.5t-53 22.5q-47 0 -100 -33v-352h-141v700l141 20v-279q86 59 157 59z" />
    <glyph glyph-name="f_f_j" horiz-adv-x="1004" 
d="M824 490l119 10v-453q0 -124 -69 -187.5t-181 -63.5l-19 114q61 0 94.5 37t33.5 103v338h-189v-388h-141v388h-226v-388h-141v388h-81v102h81v47q0 66 33 109t77 58.5t96 15.5q82 0 124 -21l-19 -111q-37 16 -77 16q-93 0 -93 -84v-30h226v47q0 50 21.5 87.5t56.5 57
t72.5 29t76.5 9.5q90 0 150 -24l-18 -113q-48 21 -115 21q-103 0 -103 -88v-26h211z" />
    <glyph glyph-name="f_f_k" horiz-adv-x="1318" 
d="M466 537q0 66 33 109t76.5 58.5t95.5 15.5q55 0 107 -15l-18 -111q-26 10 -67 10q-40 0 -63 -18t-23 -66v-30h126v-102h-126v-388h-141v388h-226v-388h-141v388h-81v102h81v47q0 50 18.5 87t50 57t65.5 29.5t72 9.5q82 0 124 -21l-19 -111q-37 16 -77 16q-93 0 -93 -84
v-30h226v47zM1115 271l208 -258v-13h-162l-178 228v-228h-141v700l141 20v-421l142 191h159v-12z" />
    <glyph glyph-name="f_h" horiz-adv-x="991" 
d="M99 537q0 50 18.5 87t50 57t65.5 29.5t72 9.5q44 0 100 -14l-18 -112q-26 10 -61 10q-40 0 -63 -18t-23 -66v-30h134v-102h-134v-388h-141v388h-81v102h81v47zM773 500q66 0 111 -48.5t45 -151.5v-300h-142v284q0 56 -18 78.5t-53 22.5q-45 0 -99 -32v-353h-142v700
l142 20v-278q84 58 156 58z" />
    <glyph glyph-name="f_j" horiz-adv-x="632" 
d="M452 490l119 10v-453q0 -124 -69.5 -187.5t-181.5 -63.5l-19 114q61 0 94.5 37t33.5 103v338h-189v-388h-141v388h-81v102h81v47q0 50 21.5 87.5t56.5 57t73 29t77 9.5q89 0 149 -24l-18 -113q-48 21 -114 21q-104 0 -104 -88v-26h212z" />
    <glyph glyph-name="f_k" horiz-adv-x="952" 
d="M99 537q0 50 18.5 87t50 57t65.5 29.5t72 9.5q44 0 100 -14l-18 -112q-26 10 -61 10q-40 0 -63 -18t-23 -66v-30h134v-102h-134v-388h-141v388h-81v102h81v47zM749 271l208 -258v-13h-163l-177 227v-227h-142v700l142 20v-419l141 189h159v-12z" />
    <glyph glyph-name="f_f_l.alt" horiz-adv-x="1082" 
d="M466 537q0 66 33 109t76.5 58.5t95.5 15.5q55 0 107 -15l-18 -111q-26 10 -67 10q-40 0 -63 -18t-23 -66v-30h126v-102h-126v-388h-141v388h-226v-388h-141v388h-81v102h81v47q0 50 18.5 87t50 57t65.5 29.5t72 9.5q82 0 124 -21l-19 -111q-37 16 -77 16q-93 0 -93 -84
v-30h226v47zM1051 110l18 -111q-39 -9 -88 -9q-74 0 -107 38t-33 121v551l141 20v-572q0 -42 38 -42q18 0 31 4z" />
    <glyph glyph-name="fl.alt" horiz-adv-x="716" 
d="M99 537q0 50 18.5 87t50 57t65.5 29.5t72 9.5q44 0 100 -14l-18 -112q-26 10 -61 10q-40 0 -63 -18t-23 -66v-30h134v-102h-134v-388h-141v388h-81v102h81v47zM685 110l18 -111q-39 -9 -88 -9q-74 0 -107 38t-33 121v551l141 20v-572q0 -42 38 -42q18 0 31 4z" />
    <glyph glyph-name="n_d.alt" horiz-adv-x="898" 
d="M724 839l103 13v-539h-91l-8 40q-46 -48 -114 -48q-66 0 -107.5 51t-41.5 137q0 88 50 141.5t132 53.5q43 0 77 -15v166zM175 576v-263h-103v367l92 8l8 -50q64 50 123 50q50 0 83.5 -37.5t33.5 -114.5v-223h-103v213q0 77 -57 77q-34 0 -77 -27zM570 495q0 -49 23 -77
t59 -28q37 0 72 31v168q-30 14 -61 14q-43 0 -68 -28.5t-25 -79.5zM68 178v75h759v-75h-759z" />
    <glyph glyph-name="r_d.alt" horiz-adv-x="792" 
d="M618 843l103 14v-540h-91l-8 42q-49 -49 -114 -49q-66 0 -108 51t-42 137q0 88 50 141t132 53q47 0 78 -15v166zM174 562v-245h-103v368l93 3l10 -71v-1q45 76 101 76q34 0 57 -18l-17 -96l-3 -2q-18 17 -64 17q-41 0 -74 -31zM464 501q0 -49 23 -78t58 -29q37 0 73 32
v170q-31 14 -62 14q-42 0 -67 -28.5t-25 -80.5zM71 178v75h650v-75h-650z" />
    <glyph glyph-name="s_t.alt" horiz-adv-x="733" 
d="M453 457v156h-58v75h62l32 98h67v-98h111v-75h-111v-144q0 -39 12 -55t37 -16q29 0 55 10l14 -79q-35 -16 -95 -16q-54 0 -90 32.5t-36 111.5zM196 391q63 0 63 31q0 19 -31 31l-69 26q-88 34 -88 107q0 54 42.5 82t111.5 28q71 0 125 -23l-15 -73q-49 17 -102 17
q-57 0 -57 -30q0 -21 29 -32l80 -31q80 -32 80 -101q0 -54 -44.5 -82t-114.5 -28q-88 0 -145 33l13 72q62 -27 122 -27zM62 178v75h605v-75h-605z" />
    <glyph glyph-name="t_h.alt" horiz-adv-x="782" 
d="M598 696q50 0 83 -37.5t33 -114.5v-223h-103v213q0 77 -57 77q-32 0 -76 -26v-264h-103v526l103 13v-212q63 48 120 48zM104 457v156h-57v75h61l33 98h67v-98h111v-75h-111v-144q0 -71 48 -71q31 0 55 10l15 -79q-37 -16 -95 -16q-55 0 -91 32.5t-36 111.5zM67 178v75
h647v-75h-647z" />
    <glyph glyph-name="a.smcp" horiz-adv-x="612" 
d="M458 0l-46 142h-211l-46 -142h-143l213 594h162l213 -594h-142zM237 254h139l-69 215z" />
    <glyph glyph-name="aacute.smcp" horiz-adv-x="612" 
d="M430 703l-174 -75l-35 46l135 123zM458 0l-46 142h-211l-46 -142h-143l213 594h162l213 -594h-142zM237 254h139l-69 215z" />
    <glyph glyph-name="acircumflex.smcp" horiz-adv-x="612" 
d="M306 690l-108 -61l-47 53l124 100h62l124 -100l-47 -53zM458 0l-46 142h-211l-46 -142h-143l213 594h162l213 -594h-142zM237 254h139l-69 215z" />
    <glyph glyph-name="adieresis.smcp" horiz-adv-x="612" 
d="M396 644q-26 0 -45 18.5t-19 44.5q1 25 20 43t44 18q26 0 45 -18t19 -43q0 -26 -19 -44.5t-45 -18.5zM216 643q-26 0 -45 18.5t-19 44.5q1 25 19.5 43t44.5 18t44 -17.5t19 -43.5q0 -26 -18.5 -44.5t-44.5 -18.5zM458 0l-46 142h-211l-46 -142h-143l213 594h162l213 -594
h-142zM237 254h139l-69 215z" />
    <glyph glyph-name="agrave.smcp" horiz-adv-x="612" 
d="M387 674l-36 -46l-174 75l74 95zM458 0l-46 142h-211l-46 -142h-143l213 594h162l213 -594h-142zM237 254h139l-69 215z" />
    <glyph glyph-name="q.alt.smcp" horiz-adv-x="654" 
d="M433 9q40 -54 148 -56v-4l-20 -108q-90 0 -158 40.5t-94 110.5q-123 7 -196 90t-73 216q0 137 79 220.5t209 83.5t208.5 -83.5t78.5 -220.5q0 -106 -48.5 -182.5t-133.5 -106.5zM181 326q0 -99 45 -157t112 -58q66 0 101 45.5t35 112.5q0 99 -45 156.5t-113 57.5
q-63 0 -99 -41.5t-36 -115.5z" />
    <glyph glyph-name="aring.smcp" horiz-adv-x="612" 
d="M306 632q-37 0 -63 24.5t-26 59.5t26 59.5t63 24.5t63.5 -24.5t26.5 -59.5t-26 -59.5t-64 -24.5zM306 753q-16 0 -28 -11t-12 -26q0 -17 12 -27t28 -10t28 11t12 26q0 16 -11.5 26.5t-28.5 10.5zM458 0l-46 142h-211l-46 -142h-143l213 594h162l213 -594h-142zM237 254
h139l-69 215z" />
    <glyph glyph-name="atilde.smcp" horiz-adv-x="612" 
d="M256 673q-26 0 -26 -31h-58q0 112 77 112q26 0 58.5 -14.5t46.5 -14.5q28 0 28 31h58q0 -112 -79 -112q-28 0 -61 14.5t-44 14.5zM458 0l-46 142h-211l-46 -142h-143l213 594h162l213 -594h-142zM237 254h139l-69 215z" />
    <glyph glyph-name="ae.smcp" horiz-adv-x="814" 
d="M521 120h256v-120h-394v140h-176l-60 -140h-146l264 594h508l-19 -120h-233v-123h175v-114h-175v-117zM251 244h132v243h-29z" />
    <glyph glyph-name="b.smcp" horiz-adv-x="589" 
d="M426 309q57 -8 92.5 -49t35.5 -95q0 -67 -53.5 -116t-151.5 -49h-275v594h249q93 0 144 -46t51 -110q0 -41 -22 -78t-70 -51zM377 412q0 62 -90 62h-74v-125h76q88 0 88 63zM314 120q98 0 98 65q0 32 -25 49.5t-73 17.5h-101v-132h101z" />
    <glyph glyph-name="c.smcp" horiz-adv-x="550" 
d="M355 -8q-143 0 -229.5 84t-86.5 221t86.5 221t229.5 84q94 0 167 -27l-18 -113q-60 21 -128 21q-89 0 -142.5 -49t-53.5 -137t53.5 -137t142.5 -49q71 0 126 19l20 -111q-73 -27 -167 -27z" />
    <glyph glyph-name="ccedilla.smcp" horiz-adv-x="550" 
d="M522 19q-68 -25 -157 -27l-15 -32q64 -23 64 -62q0 -32 -28.5 -49.5t-70.5 -17.5q-53 0 -87 18l20 47q22 -11 42 -11q28 0 28 17q0 18 -44 34v8l26 52q-120 16 -190.5 97t-70.5 204q0 137 86.5 221t229.5 84q94 0 167 -27l-18 -113q-60 21 -128 21q-89 0 -142.5 -49
t-53.5 -137t53.5 -137t142.5 -49q71 0 126 19z" />
    <glyph glyph-name="d.smcp" horiz-adv-x="620" 
d="M276 594q143 0 223.5 -80.5t80.5 -215.5q0 -136 -80.5 -217t-223.5 -81h-202v594h202zM276 120q80 0 121.5 45.5t41.5 132.5q0 85 -41.5 130.5t-121.5 45.5h-64v-354h64z" />
    <glyph glyph-name="eth.smcp" horiz-adv-x="630" 
d="M286 594q144 0 224 -80.5t80 -215.5q0 -136 -80 -217t-224 -81h-201v249h-61v105h61v240h201zM286 120q81 0 122 45.5t41 132.5q0 85 -41.5 130.5t-121.5 45.5h-63v-120h116v-105h-116v-129h63z" />
    <glyph glyph-name="e.smcp" horiz-adv-x="534" 
d="M212 120h284v-120h-422v594h417l-18 -120h-261v-123h203v-114h-203v-117z" />
    <glyph glyph-name="eacute.smcp" horiz-adv-x="534" 
d="M381 703l-175 -75l-34 46l135 123zM212 120h284v-120h-422v594h417l-18 -120h-261v-123h203v-114h-203v-117z" />
    <glyph glyph-name="ecircumflex.smcp" horiz-adv-x="534" 
d="M268 690l-108 -61l-48 53l125 100h61l125 -100l-48 -53zM212 120h284v-120h-422v594h417l-18 -120h-261v-123h203v-114h-203v-117z" />
    <glyph glyph-name="edieresis.smcp" horiz-adv-x="534" 
d="M358 644q-26 0 -45 18.5t-19 44.5q1 26 19.5 43.5t44.5 17.5t45 -18t19 -43q0 -26 -19 -44.5t-45 -18.5zM178 643q-26 0 -45.5 19t-18.5 44q0 25 19 43t45 18t44.5 -18t18.5 -43q0 -26 -18.5 -44.5t-44.5 -18.5zM212 120h284v-120h-422v594h417l-18 -120h-261v-123h203
v-114h-203v-117z" />
    <glyph glyph-name="egrave.smcp" horiz-adv-x="534" 
d="M364 674l-35 -46l-175 75l75 95zM212 120h284v-120h-422v594h417l-18 -120h-261v-123h203v-114h-203v-117z" />
    <glyph glyph-name="f.smcp" horiz-adv-x="506" 
d="M473 474h-261v-129h209v-119h-209v-226h-138v594h418z" />
    <glyph glyph-name="f_b.smcp" horiz-adv-x="1078" 
d="M74 0v594h418l-19 -120h-261v-129h209v-119h-209v-226h-138zM915 309q57 -8 92.5 -49t35.5 -95q0 -67 -53.5 -116t-151.5 -49h-275v594h249q93 0 144 -46t51 -110q0 -41 -22 -78t-70 -51zM866 412q0 62 -90 62h-74v-125h76q88 0 88 63zM803 120q98 0 98 65q0 32 -25 49.5
t-73 17.5h-101v-132h101z" />
    <glyph glyph-name="f_f.smcp" horiz-adv-x="980" 
d="M74 0v594h418l-19 -120h-261v-129h209v-119h-209v-226h-138zM947 474h-261v-129h209v-119h-209v-226h-138v594h418z" />
    <glyph glyph-name="f_f_b.smcp" horiz-adv-x="1552" 
d="M74 0v594h418l-19 -120h-261v-129h209v-119h-209v-226h-138zM548 0v594h418l-19 -120h-261v-129h209v-119h-209v-226h-138zM1389 309q57 -8 92.5 -49t35.5 -95q0 -67 -53.5 -116t-151.5 -49h-275v594h249q93 0 144 -46t51 -110q0 -41 -22 -78t-70 -51zM1340 412
q0 62 -90 62h-74v-125h76q88 0 88 63zM1277 120q98 0 98 65q0 32 -25 49.5t-73 17.5h-101v-132h101z" />
    <glyph glyph-name="f_f_h.smcp" horiz-adv-x="1604" 
d="M74 0v594h418l-19 -120h-261v-129h209v-119h-209v-226h-138zM548 0v594h418l-19 -120h-261v-129h209v-119h-209v-226h-138zM1393 594h137v-594h-137v242h-217v-242h-138v594h138v-232h217v232z" />
    <glyph glyph-name="f_f_i.smcp" horiz-adv-x="1240" 
d="M74 0v594h418l-19 -120h-261v-129h209v-119h-209v-226h-138zM548 0v594h418l-19 -120h-261v-129h209v-119h-209v-226h-138zM1028 594h138v-594h-138v594z" />
    <glyph glyph-name="f_f_j.smcp" horiz-adv-x="1330" 
d="M74 0v594h418l-19 -120h-261v-129h209v-119h-209v-226h-138zM548 0v594h418l-19 -120h-261v-129h209v-119h-209v-226h-138zM1121 594h137v-480q0 -127 -73 -200.5t-189 -79.5l-22 119q65 4 106 43.5t41 117.5v480z" />
    <glyph glyph-name="f_f_k.smcp" horiz-adv-x="1560" 
d="M74 0v594h418l-19 -120h-261v-129h209v-119h-209v-226h-138zM548 0v594h418l-19 -120h-261v-129h209v-119h-209v-226h-138zM1348 363l200 -351v-12h-152l-136 261l-92 -107v-154h-138v594h138v-264l213 264h156v-13z" />
    <glyph glyph-name="f_f_l.smcp" horiz-adv-x="1441" 
d="M74 0v594h418l-19 -120h-261v-129h209v-119h-209v-226h-138zM548 0v594h418l-19 -120h-261v-129h209v-119h-209v-226h-138zM1166 120h260v-120h-398v594h138v-474z" />
    <glyph glyph-name="f_h.smcp" horiz-adv-x="1130" 
d="M74 0v594h418l-19 -120h-261v-129h209v-119h-209v-226h-138zM919 594h137v-594h-137v242h-217v-242h-138v594h138v-232h217v232z" />
    <glyph glyph-name="f_j.smcp" horiz-adv-x="856" 
d="M74 0v594h418l-19 -120h-261v-129h209v-119h-209v-226h-138zM646 594h137v-480q0 -127 -73 -200.5t-189 -79.5l-22 119q65 4 106 43.5t41 117.5v480z" />
    <glyph glyph-name="f_k.smcp" horiz-adv-x="1086" 
d="M74 0v594h418l-19 -120h-261v-129h209v-119h-209v-226h-138zM874 363l200 -351v-12h-152l-136 261l-92 -107v-154h-138v594h138v-264l213 264h156v-13z" />
    <glyph glyph-name="fi.smcp" horiz-adv-x="766" 
d="M74 0v594h418l-19 -120h-261v-129h209v-119h-209v-226h-138zM553 594h138v-594h-138v594z" />
    <glyph glyph-name="fl.smcp" horiz-adv-x="967" 
d="M74 0v594h418l-19 -120h-261v-129h209v-119h-209v-226h-138zM692 120h260v-120h-398v594h138v-474z" />
    <glyph glyph-name="g.smcp" horiz-adv-x="613" 
d="M335 322h233v-257q-30 -33 -89.5 -53t-127.5 -20q-140 0 -226 84.5t-86 222.5q0 137 85.5 220t228.5 83q108 0 183 -35l-20 -112q-63 27 -144 27q-89 0 -140 -48t-51 -135q0 -88 48 -137.5t127 -49.5q36 0 74 9v103l-112 5z" />
    <glyph glyph-name="h.smcp" horiz-adv-x="640" 
d="M429 594h137v-594h-137v242h-217v-242h-138v594h138v-232h217v232z" />
    <glyph glyph-name="i.smcp" horiz-adv-x="286" 
d="M74 0v594h138v-594h-138z" />
    <glyph glyph-name="iacute.smcp" horiz-adv-x="286" 
d="M83 628l-35 46l135 123l74 -94zM74 0v594h137v-594h-137z" />
    <glyph glyph-name="icircumflex.smcp" horiz-adv-x="286" 
d="M35 629l-47 53l124 100h62l124 -100l-48 -53l-107 61zM74 0v594h138v-594h-138z" />
    <glyph glyph-name="idieresis.smcp" horiz-adv-x="286" 
d="M233 644q-26 0 -45 18.5t-18 44.5q0 25 18.5 43t44.5 18t45 -18t19 -43q0 -26 -19 -44.5t-45 -18.5zM53 643q-26 0 -45 18.5t-19 44.5q1 25 19.5 43t44.5 18t44.5 -17.5t19.5 -43.5q0 -26 -19 -44.5t-45 -18.5zM74 0v594h138v-594h-138z" />
    <glyph glyph-name="i.loclTRK.smcp" horiz-adv-x="286" 
d="M142 644q-25 0 -44 18.5t-18 44.5q0 25 18.5 43t43.5 18q27 0 45.5 -17.5t18.5 -43.5t-18.5 -44.5t-45.5 -18.5zM74 0v594h138v-594h-138z" />
    <glyph glyph-name="igrave.smcp" horiz-adv-x="286" 
d="M204 628l-175 75l75 95l135 -124zM74 0v594h137v-594h-137z" />
    <glyph glyph-name="j.smcp" horiz-adv-x="331" 
d="M-3 -166l-22 119q65 4 106 43.5t41 117.5v480h137v-480q0 -127 -73 -200.5t-189 -79.5z" />
    <glyph glyph-name="k.smcp" horiz-adv-x="604" 
d="M392 363l200 -351v-12h-152l-136 261l-92 -107v-154h-138v594h138v-264l213 264h156v-13z" />
    <glyph glyph-name="l.smcp" horiz-adv-x="487" 
d="M212 120h260v-120h-398v594h138v-474z" />
    <glyph glyph-name="m.smcp" horiz-adv-x="803" 
d="M738 0h-133l-11 369l-125 -363h-135l-126 364l-11 -370h-133l22 594h174l141 -419l141 419h175z" />
    <glyph glyph-name="n.smcp" horiz-adv-x="642" 
d="M430 594h137v-594h-146l-209 340v-340h-138v594h150l206 -351v351z" />
    <glyph glyph-name="ntilde.smcp" horiz-adv-x="642" 
d="M273 673q-27 0 -27 -31h-58q0 112 77 112q26 0 58.5 -14.5t45.5 -14.5q30 0 30 31h58q0 -112 -80 -112q-27 0 -60 14.5t-44 14.5zM430 594h137v-594h-146l-209 340v-340h-138v594h150l206 -351v351z" />
    <glyph glyph-name="o.smcp" horiz-adv-x="654" 
d="M327 -8q-130 0 -208.5 84t-78.5 222q0 137 79 220.5t209 83.5t208.5 -83.5t78.5 -220.5q0 -138 -79 -222t-209 -84zM327 111q69 0 108 49.5t39 137.5q0 87 -38.5 136t-107.5 49q-70 0 -109 -49t-39 -136q0 -88 39 -137.5t108 -49.5z" />
    <glyph glyph-name="oacute.smcp" horiz-adv-x="654" 
d="M267 628l-35 46l135 123l75 -94zM327 -8q-130 0 -208.5 84t-78.5 222q0 137 79 220.5t209 83.5t208.5 -83.5t78.5 -220.5q0 -138 -79 -222t-209 -84zM327 111q69 0 108 49.5t39 137.5q0 87 -38.5 136t-107.5 49q-70 0 -109 -49t-39 -136q0 -88 39 -137.5t108 -49.5z" />
    <glyph glyph-name="ocircumflex.smcp" horiz-adv-x="654" 
d="M221 629l-49 53l125 100h62l124 -100l-48 -53l-107 61zM327 -8q-130 0 -208.5 84t-78.5 222q0 137 79 220.5t209 83.5t208.5 -83.5t78.5 -220.5q0 -138 -79 -222t-209 -84zM327 111q69 0 108 49.5t39 137.5q0 87 -38.5 136t-107.5 49q-70 0 -109 -49t-39 -136
q0 -88 39 -137.5t108 -49.5z" />
    <glyph glyph-name="odieresis.smcp" horiz-adv-x="654" 
d="M418 644q-26 0 -45 18.5t-19 44.5q1 26 19.5 43.5t44.5 17.5t44.5 -18t18.5 -43q0 -26 -18.5 -44.5t-44.5 -18.5zM238 643q-26 0 -45.5 19t-18.5 44q0 25 19 43t45 18t44 -18t19 -43q0 -26 -18.5 -44.5t-44.5 -18.5zM327 -8q-130 0 -208.5 84t-78.5 222q0 137 79 220.5
t209 83.5t208.5 -83.5t78.5 -220.5q0 -138 -79 -222t-209 -84zM327 111q69 0 108 49.5t39 137.5q0 87 -38.5 136t-107.5 49q-70 0 -109 -49t-39 -136q0 -88 39 -137.5t108 -49.5z" />
    <glyph glyph-name="ograve.smcp" horiz-adv-x="654" 
d="M389 628l-174 75l74 95l135 -124zM327 -8q-130 0 -208.5 84t-78.5 222q0 137 79 220.5t209 83.5t208.5 -83.5t78.5 -220.5q0 -138 -79 -222t-209 -84zM327 111q69 0 108 49.5t39 137.5q0 87 -38.5 136t-107.5 49q-70 0 -109 -49t-39 -136q0 -88 39 -137.5t108 -49.5z" />
    <glyph glyph-name="oslash.smcp" horiz-adv-x="654" 
d="M538 517q77 -83 77 -219q0 -138 -79 -222t-209 -84q-76 0 -138 31l-40 -56l-73 48l43 61q-79 84 -79 222q0 137 79 220.5t209 83.5q78 0 138 -31l40 56l75 -49zM180 298q0 -63 20 -106l194 276q-28 15 -66 15q-70 0 -109 -49t-39 -136zM327 111q69 0 108 49.5t39 137.5
q0 61 -19 102l-194 -274q29 -15 66 -15z" />
    <glyph glyph-name="otilde.smcp" horiz-adv-x="654" 
d="M193 642q0 112 78 112q25 0 58 -14.5t46 -14.5q28 0 28 31h59q0 -112 -80 -112q-27 0 -60 14.5t-44 14.5q-27 0 -27 -31h-58zM327 -8q-130 0 -208.5 84t-78.5 222q0 137 79 220.5t209 83.5t208.5 -83.5t78.5 -220.5q0 -138 -79 -222t-209 -84zM327 111q69 0 108 49.5
t39 137.5q0 87 -38.5 136t-107.5 49q-70 0 -109 -49t-39 -136q0 -88 39 -137.5t108 -49.5z" />
    <glyph glyph-name="oe.smcp" horiz-adv-x="841" 
d="M527 120h277v-120h-440q-153 0 -238.5 76t-85.5 222t85 221t239 75h436l-19 -120h-254v-123h196v-114h-196v-117zM364 107h26v380h-26q-84 1 -131.5 -47.5t-47.5 -141.5q0 -94 47 -142t132 -49z" />
    <glyph glyph-name="p.smcp" horiz-adv-x="561" 
d="M332 594q93 0 149.5 -54t56.5 -141t-56.5 -141.5t-149.5 -54.5h-120v-203h-138v594h258zM308 317q41 0 65 20.5t24 58.5q0 37 -24.5 57.5t-64.5 20.5h-96v-157h96z" />
    <glyph glyph-name="thorn.smcp" horiz-adv-x="570" 
d="M331 490q95 0 150 -53t55 -141q0 -87 -55 -140t-150 -53h-119v-103h-138v594h138v-104h119zM307 222q42 0 65 20t23 54q0 35 -23 55t-65 20h-95v-149h95z" />
    <glyph glyph-name="q.smcp" horiz-adv-x="654" 
d="M615 298q0 -93 -37 -163t-103 -107l83 -110l-139 -66l-48 143q-21 -3 -44 -3q-130 0 -208.5 84t-78.5 222q0 137 79 220.5t209 83.5t208.5 -83.5t78.5 -220.5zM181 326q0 -99 45 -157t112 -58q66 0 101 45.5t35 112.5q0 99 -45 156.5t-113 57.5q-63 0 -99 -41.5
t-36 -115.5z" />
    <glyph glyph-name="r.smcp" horiz-adv-x="590" 
d="M400 231l175 -219v-12h-155l-170 222h-38v-222h-138v594h258q93 0 149.5 -51.5t56.5 -134.5q0 -66 -37 -113t-101 -64zM212 474v-159h96q40 0 64.5 21t24.5 58t-24.5 58.5t-64.5 21.5h-96z" />
    <glyph glyph-name="s.smcp" horiz-adv-x="517" 
d="M246 -9q-125 0 -214 56l20 114q96 -51 191 -51q100 0 100 54q0 35 -57 59l-103 44q-69 30 -100.5 67t-31.5 94q0 85 62.5 129.5t163.5 44.5q105 0 186 -35l-20 -114q-63 30 -148 30q-103 0 -103 -48q0 -32 53 -51l108 -46q130 -55 132 -167q-1 -83 -66 -131.5t-173 -48.5
z" />
    <glyph glyph-name="germandbls.smcp" horiz-adv-x="619" 
d="M444 338q70 -17 109 -62t39 -111q0 -79 -56 -126t-145 -47q-82 0 -133 23l18 104q42 -22 91 -22q42 0 64.5 19t22.5 49q0 35 -36.5 63t-99.5 39l-7 64l73 144q-26 8 -61 8q-117 0 -117 -115v-368h-138v389q0 101 68 157.5t191 56.5q130 0 216 -46v-19z" />
    <glyph glyph-name="t.smcp" horiz-adv-x="539" 
d="M525 594v-120h-187v-474h-137v474h-186v120h510z" />
    <glyph glyph-name="u.smcp" horiz-adv-x="631" 
d="M316 -8q-121 0 -184.5 53.5t-63.5 178.5v370h138v-365q0 -118 110 -118q109 0 109 118v365h138v-370q0 -125 -63 -178.5t-184 -53.5z" />
    <glyph glyph-name="uacute.smcp" horiz-adv-x="631" 
d="M255 628l-35 46l135 123l75 -94zM316 -8q-121 0 -184.5 53.5t-63.5 178.5v370h138v-365q0 -118 110 -118q109 0 109 118v365h138v-370q0 -125 -63 -178.5t-184 -53.5z" />
    <glyph glyph-name="ucircumflex.smcp" horiz-adv-x="631" 
d="M208 629l-48 53l125 100h62l124 -100l-48 -53l-107 61zM316 -8q-121 0 -184.5 53.5t-63.5 178.5v370h138v-365q0 -118 110 -118q109 0 109 118v365h138v-370q0 -125 -63 -178.5t-184 -53.5z" />
    <glyph glyph-name="udieresis.smcp" horiz-adv-x="631" 
d="M406 644q-26 0 -45 18.5t-18 44.5q0 25 18.5 43t44.5 18t44.5 -18t18.5 -43q0 -26 -18.5 -44.5t-44.5 -18.5zM226 643q-26 0 -45 18.5t-19 44.5q0 25 19 43t45 18t44 -18t19 -43q0 -26 -18.5 -44.5t-44.5 -18.5zM316 -8q-121 0 -184.5 53.5t-63.5 178.5v370h138v-365
q0 -118 110 -118q109 0 109 118v365h138v-370q0 -125 -63 -178.5t-184 -53.5z" />
    <glyph glyph-name="ugrave.smcp" horiz-adv-x="631" 
d="M377 628l-174 75l74 95l135 -124zM316 -8q-121 0 -184.5 53.5t-63.5 178.5v370h138v-365q0 -118 110 -118q109 0 109 118v365h138v-370q0 -125 -63 -178.5t-184 -53.5z" />
    <glyph glyph-name="v.smcp" horiz-adv-x="583" 
d="M430 594h140l-205 -594h-148l-204 594h140l139 -461z" />
    <glyph glyph-name="w.smcp" horiz-adv-x="801" 
d="M646 594h136l-156 -594h-132l-94 367l-94 -367h-131l-156 594h136l94 -401l102 393h98l102 -395z" />
    <glyph glyph-name="x.smcp" horiz-adv-x="561" 
d="M361 309l187 -297v-12h-151l-116 200l-117 -200h-151v12l187 297l-176 272v13h151l106 -176l106 176h150v-13z" />
    <glyph glyph-name="y.smcp" horiz-adv-x="587" 
d="M574 594v-13l-211 -343v-238h-138v236l-212 345v13h153l128 -234l127 234h153z" />
    <glyph glyph-name="yacute.smcp" horiz-adv-x="587" 
d="M407 703l-174 -75l-35 46l135 123zM574 594v-13l-211 -343v-238h-138v236l-212 345v13h153l128 -234l127 234h153z" />
    <glyph glyph-name="ydieresis.smcp" horiz-adv-x="587" 
d="M384 644q-26 0 -45 18.5t-19 44.5q1 26 19.5 43.5t44.5 17.5t44.5 -18t18.5 -43q0 -26 -18.5 -44.5t-44.5 -18.5zM204 643q-26 0 -45.5 19t-18.5 44q0 25 19 43t45 18t44 -18t18 -43q1 -25 -17.5 -44t-44.5 -19zM574 594v-13l-211 -343v-238h-138v236l-212 345v13h153
l128 -234l127 234h153z" />
    <glyph glyph-name="z.smcp" horiz-adv-x="541" 
d="M504 516l-279 -396h279v-120h-461l-14 79l276 395h-257v120h442z" />
    <glyph glyph-name="uni24EA" horiz-adv-x="809" 
d="M405 -15q-152 1 -259.5 109t-107.5 260t107.5 259.5t259.5 107.5t259.5 -107.5t107.5 -259.5q0 -153 -107.5 -261.5t-259.5 -107.5zM405 40q129 -1 220.5 91.5t91.5 221.5t-91 221t-221 92q-129 0 -220.5 -92t-91.5 -221t91 -220.5t221 -92.5zM404 144q-74 0 -115.5 56
t-41.5 156q0 99 41.5 156t115.5 57q75 0 117 -57t42 -156q0 -100 -42 -156t-117 -56zM404 223q59 0 59 133t-59 133q-57 0 -57 -133t57 -133z" />
    <glyph glyph-name="uni2460" horiz-adv-x="809" 
d="M405 721q152 0 259.5 -107.5t107.5 -259.5q0 -153 -107.5 -261.5t-259.5 -107.5t-259.5 109t-107.5 260t107.5 259.5t259.5 107.5zM405 40q129 -1 220.5 91.5t91.5 221.5t-91 221t-221 92q-129 0 -220.5 -92t-91.5 -221t91 -220.5t221 -92.5zM262 482l162 81h43v-413h-97
v289l-93 -36z" />
    <glyph glyph-name="uni2461" horiz-adv-x="809" 
d="M405 721q152 0 259.5 -107.5t107.5 -259.5q0 -153 -107.5 -261.5t-259.5 -107.5t-259.5 109t-107.5 260t107.5 259.5t259.5 107.5zM405 40q129 -1 220.5 91.5t91.5 221.5t-91 221t-221 92q-129 0 -220.5 -92t-91.5 -221t91 -220.5t221 -92.5zM438 278l-51 -50h168v-80
h-287l-15 63l137 138q31 30 43 47.5t12 40.5q0 24 -17.5 36.5t-45.5 12.5q-54 0 -108 -22l-15 75q56 27 137 27q68 0 108.5 -33t40.5 -86q0 -43 -25 -79.5t-82 -89.5z" />
    <glyph glyph-name="uni2462" horiz-adv-x="809" 
d="M405 721q152 0 259.5 -107.5t107.5 -259.5q0 -153 -107.5 -261.5t-259.5 -107.5t-259.5 109t-107.5 260t107.5 259.5t259.5 107.5zM405 40q129 -1 220.5 91.5t91.5 221.5t-91 221t-221 92q-129 0 -220.5 -92t-91.5 -221t91 -220.5t221 -92.5zM463 366q40 -7 63.5 -35.5
t23.5 -65.5q0 -53 -46 -87t-120 -34q-78 0 -124 24l14 75q36 -20 98 -20q33 0 55.5 14.5t22.5 36.5q0 47 -75 47h-36v70h29q31 0 48.5 14t17.5 37q0 21 -16.5 33.5t-45.5 12.5q-37 0 -86 -15l-12 74q48 21 117 21q65 0 104 -29t39 -78q0 -34 -20.5 -60t-50.5 -35z" />
    <glyph glyph-name="uni2463" horiz-adv-x="809" 
d="M405 721q152 0 259.5 -107.5t107.5 -259.5q0 -153 -107.5 -261.5t-259.5 -107.5t-259.5 109t-107.5 260t107.5 259.5t259.5 107.5zM405 40q129 -1 220.5 91.5t91.5 221.5t-91 221t-221 92q-129 0 -220.5 -92t-91.5 -221t91 -220.5t221 -92.5zM483 562v-245h55v-78h-55
v-89h-98v89h-158l-19 62l194 261h81zM295 317h90v125z" />
    <glyph glyph-name="uni2464" horiz-adv-x="809" 
d="M405 721q152 0 259.5 -107.5t107.5 -259.5q0 -153 -107.5 -261.5t-259.5 -107.5t-259.5 109t-107.5 260t107.5 259.5t259.5 107.5zM405 40q129 -1 220.5 91.5t91.5 221.5t-91 221t-221 92q-129 0 -220.5 -92t-91.5 -221t91 -220.5t221 -92.5zM424 409q60 0 97 -34t37 -89
q0 -64 -48 -102.5t-126 -38.5q-63 0 -132 26l16 78q42 -24 107 -24q82 0 82 58q0 25 -17 40t-47 15q-55 0 -88 -13l-44 34l24 205h245v-80h-168l-10 -82q42 7 72 7z" />
    <glyph glyph-name="uni2465" horiz-adv-x="809" 
d="M405 721q152 0 259.5 -107.5t107.5 -259.5q0 -153 -107.5 -261.5t-259.5 -107.5t-259.5 109t-107.5 260t107.5 259.5t259.5 107.5zM405 40q129 -1 220.5 91.5t91.5 221.5t-91 221t-221 92q-129 0 -220.5 -92t-91.5 -221t91 -220.5t221 -92.5zM406 405q62 0 98.5 -35.5
t36.5 -93.5q0 -60 -41 -96t-109 -36q-74 0 -117 45.5t-43 129.5q0 106 68 173t190 76l12 -76q-130 -11 -161 -97q30 10 66 10zM390 223q25 0 41 17t16 42q0 26 -17.5 41.5t-51.5 15.5q-29 0 -51 -10q-3 -12 -3 -25q0 -40 19 -60.5t47 -20.5z" />
    <glyph glyph-name="uni2466" horiz-adv-x="809" 
d="M405 721q152 0 259.5 -107.5t107.5 -259.5q0 -153 -107.5 -261.5t-259.5 -107.5t-259.5 109t-107.5 260t107.5 259.5t259.5 107.5zM405 40q129 -1 220.5 91.5t91.5 221.5t-91 221t-221 92q-129 0 -220.5 -92t-91.5 -221t91 -220.5t221 -92.5zM253 562h295l10 -49
l-178 -364h-108l173 333h-192v80z" />
    <glyph glyph-name="uni2467" horiz-adv-x="809" 
d="M405 721q152 0 259.5 -107.5t107.5 -259.5q0 -153 -107.5 -261.5t-259.5 -107.5t-259.5 109t-107.5 260t107.5 259.5t259.5 107.5zM405 40q129 -1 220.5 91.5t91.5 221.5t-91 221t-221 92q-129 0 -220.5 -92t-91.5 -221t91 -220.5t221 -92.5zM486 357q74 -39 74 -102
q0 -49 -43 -80t-113 -31q-72 0 -113 31.5t-41 81.5q0 58 72 99q-28 15 -45 41.5t-17 55.5q0 51 41 83t107 32q67 0 105.5 -31t38.5 -81q0 -64 -66 -99zM406 490q-24 0 -37.5 -11t-13.5 -30q0 -29 34 -49l24 -11q42 21 42 56q0 20 -13 32.5t-36 12.5zM407 220q27 0 42.5 12.5
t15.5 31.5q0 30 -39 46l-29 13q-50 -23 -50 -56q0 -19 15 -33t45 -14z" />
    <glyph glyph-name="uni2468" horiz-adv-x="809" 
d="M405 721q152 0 259.5 -107.5t107.5 -259.5q0 -153 -107.5 -261.5t-259.5 -107.5t-259.5 109t-107.5 260t107.5 259.5t259.5 107.5zM405 40q129 -1 220.5 91.5t91.5 221.5t-91 221t-221 92q-129 0 -220.5 -92t-91.5 -221t91 -220.5t221 -92.5zM408 568q75 0 118 -46
t43 -130q0 -106 -68.5 -173t-190.5 -75l-11 76q132 14 160 97q-28 -10 -65 -10q-62 0 -98.5 35.5t-36.5 93.5q0 60 41 96t108 36zM353 431q0 -26 17.5 -42t50.5 -16q25 0 51 10q3 12 3 24q0 40 -19 61t-47 21q-25 0 -40.5 -16t-15.5 -42z" />
    <glyph glyph-name="zero.lf" horiz-adv-x="610" 
d="M304 -10q-121 0 -188.5 93t-67.5 260t67.5 261t188.5 94q122 0 190.5 -94t68.5 -261t-68.5 -260t-190.5 -93zM304 106q55 0 84.5 60.5t29.5 176.5q0 117 -29.5 178t-84.5 61q-53 0 -82 -61t-29 -178q0 -116 29 -176.5t82 -60.5z" />
    <glyph glyph-name="one.lf" horiz-adv-x="425" 
d="M279 688h64v-688h-141v515l-167 -68l-21 114z" />
    <glyph glyph-name="two.lf" horiz-adv-x="567" 
d="M227 116h298v-116h-470l-21 92l237 241q51 51 71.5 82.5t20.5 71.5q0 44 -33 69t-85 25q-91 0 -180 -38l-21 109q95 45 221 45q111 0 177 -54.5t66 -143.5q0 -66 -39 -124t-128 -146z" />
    <glyph glyph-name="three.lf" horiz-adv-x="549" 
d="M356 360q69 -9 109 -57t40 -111q0 -89 -75 -145.5t-197 -56.5q-120 0 -203 40l19 110q67 -34 167 -34q62 0 103 28t41 71q0 44 -37 67t-99 23h-61v103h52q56 0 87 27t31 68q0 40 -30.5 64t-83.5 24q-66 0 -147 -25l-18 107q80 34 193 34q105 0 168 -48t63 -129
q0 -59 -34.5 -102t-87.5 -58z" />
    <glyph glyph-name="four.lf" horiz-adv-x="587" 
d="M555 276v-120h-97v-156h-141v156h-279l-28 90l329 441h119v-411h97zM147 276h170v229z" />
    <glyph glyph-name="five.lf" horiz-adv-x="577" 
d="M318 426q101 0 162 -56.5t61 -148.5q0 -104 -77.5 -167.5t-205.5 -63.5q-111 0 -216 45l23 114q29 -18 80 -30.5t100 -12.5q72 0 111.5 29.5t39.5 81.5q0 46 -32.5 76t-88.5 30q-86 0 -155 -28l-66 51l39 342h401v-116h-288l-18 -158q63 12 130 12z" />
    <glyph glyph-name="six.lf" horiz-adv-x="580" 
d="M326 425q103 0 163.5 -59.5t60.5 -155.5q0 -100 -67.5 -160t-176.5 -60q-123 0 -192 78t-69 215q0 173 109.5 284t306.5 130l18 -111q-223 -23 -275 -182q56 21 122 21zM304 106q48 0 77 30.5t29 79.5q0 50 -31 79.5t-91 29.5q-55 0 -103 -22q-4 -17 -4 -40
q0 -74 34.5 -115.5t88.5 -41.5z" />
    <glyph glyph-name="seven.lf" horiz-adv-x="539" 
d="M510 688l15 -72l-305 -616h-156l297 572h-333v116h482z" />
    <glyph glyph-name="eight.lf" horiz-adv-x="602" 
d="M427 341q128 -55 128 -165q0 -82 -70 -134t-186 -52q-117 0 -185 52.5t-68 136.5q0 49 33 93t88 75q-48 24 -76 67.5t-28 93.5q0 85 66.5 137t175.5 52t173 -51.5t64 -134.5q0 -55 -32 -99t-83 -71zM303 581q-45 0 -71.5 -22t-26.5 -57q0 -58 62 -88l48 -22
q37 15 61 41.5t24 61.5q0 39 -26 62.5t-71 23.5zM304 106q52 0 81 22t29 57q0 60 -68 86l-67 28q-92 -38 -92 -106q0 -38 30 -62.5t87 -24.5z" />
    <glyph glyph-name="nine.lf" horiz-adv-x="580" 
d="M274 697q123 0 192 -78t69 -215q0 -173 -109.5 -284t-306.5 -130l-17 111q226 30 275 182q-58 -21 -123 -21q-103 0 -163.5 59.5t-60.5 155.5q0 100 67.5 160t176.5 60zM170 471q0 -50 31 -79.5t92 -29.5q54 0 102 22q4 17 4 40q0 74 -34.5 115.5t-88.5 41.5
q-48 0 -77 -30.5t-29 -79.5z" />
    <glyph glyph-name="zero.lf.zero" horiz-adv-x="610" 
d="M304 698q122 0 190.5 -94t68.5 -261t-68.5 -260t-190.5 -93q-121 0 -188.5 93t-67.5 260t67.5 261t188.5 94zM304 582q-53 0 -82 -61t-29 -178q0 -65 9 -111l173 312q-29 38 -71 38zM304 106q55 0 84.5 60.5t29.5 176.5q0 65 -9 113l-173 -314q27 -36 68 -36z" />
    <glyph glyph-name="zero.osf" horiz-adv-x="594" 
d="M294 -10q-113 0 -183 72.5t-70 191.5q0 118 70 190.5t183 72.5q116 0 187.5 -72.5t71.5 -190.5q0 -119 -71.5 -191.5t-187.5 -72.5zM294 106q51 0 82.5 40.5t31.5 107.5q0 66 -31.5 107t-82.5 41q-48 0 -78 -41t-30 -107q0 -67 30 -107.5t78 -40.5z" />
    <glyph glyph-name="one.osf" horiz-adv-x="501" 
d="M346 108h135v-108h-410v108h137v245l-160 -62l-18 104l252 112h64v-399z" />
    <glyph glyph-name="two.osf" horiz-adv-x="517" 
d="M253 113h226v-113h-425l-24 71l215 188q68 57 68 93q0 25 -23.5 39.5t-65.5 14.5q-84 0 -158 -26l-20 105q34 14 92.5 23t108.5 9q103 0 157.5 -43.5t54.5 -112.5q0 -44 -28 -83t-93 -95z" />
    <glyph glyph-name="three.osf" horiz-adv-x="513" 
d="M331 186q64 -8 105.5 -54.5t41.5 -110.5q0 -109 -116 -167t-309 -58l-19 108q299 2 299 129q0 42 -37.5 65t-98.5 23h-56v103h47q53 0 85 24.5t32 70.5q0 38 -31.5 60.5t-86.5 22.5q-68 0 -142 -22l-19 107q84 30 191 30q104 0 169 -46t65 -124q0 -57 -34 -101t-86 -60z
" />
    <glyph glyph-name="four.osf" horiz-adv-x="612" 
d="M590 115v-115h-128v-194h-141v194h-279l-28 91l329 416h119v-392h128zM160 115h161v203z" />
    <glyph glyph-name="five.osf" horiz-adv-x="548" 
d="M296 270q101 0 162.5 -55.5t61.5 -145.5q0 -87 -62.5 -149.5t-166 -93t-235.5 -30.5l-19 112q85 1 159 16.5t126.5 51.5t52.5 88q0 45 -33.5 70.5t-94.5 25.5q-76 0 -143 -32l-65 52l55 327h392v-115h-282l-24 -138q55 16 116 16z" />
    <glyph glyph-name="six.osf" horiz-adv-x="575" 
d="M323 425q103 0 163.5 -59.5t60.5 -155.5q0 -100 -67.5 -160t-176.5 -60q-123 0 -192 78t-69 215q0 175 110 290.5t306 133.5l18 -110q-115 -13 -183.5 -65t-92.5 -128q58 21 123 21zM301 106q48 0 77 30.5t29 79.5q0 50 -31 79.5t-91 29.5q-55 0 -103 -22q-4 -17 -4 -40
q0 -74 34.5 -115.5t88.5 -41.5z" />
    <glyph glyph-name="seven.osf" horiz-adv-x="525" 
d="M501 507l15 -71l-304 -630h-157l298 586h-333v115h481z" />
    <glyph glyph-name="eight.osf" horiz-adv-x="596" 
d="M425 351q127 -58 127 -168q0 -85 -70 -139t-186 -54q-117 0 -185 54.5t-68 141.5q0 51 33 95t88 76q-47 24 -75.5 69t-28.5 97q0 88 66.5 142.5t175.5 54.5t173 -54t64 -139q0 -57 -32 -103t-82 -73zM300 604q-44 0 -71 -25t-27 -62q0 -59 62 -91l48 -23q38 15 61.5 43
t23.5 64q0 41 -26 67.5t-71 26.5zM301 106q52 0 81 24.5t29 61.5q0 63 -68 89l-64 27q-95 -40 -95 -107q0 -40 30 -67.5t87 -27.5z" />
    <glyph glyph-name="nine.osf" horiz-adv-x="566" 
d="M267 517q123 0 192 -78t69 -215q0 -175 -110 -292.5t-306 -135.5l-17 111q118 16 185 68t90 128q-58 -21 -123 -21q-103 0 -163.5 59.5t-60.5 155.5q0 100 67.5 160t176.5 60zM163 291q0 -50 31 -79.5t92 -29.5q50 0 102 22q4 17 4 40q0 74 -34.5 116t-88.5 42
q-48 0 -77 -31t-29 -80z" />
    <glyph glyph-name="zero.osf.zero" horiz-adv-x="594" 
d="M294 517q116 0 187.5 -72.5t71.5 -190.5q0 -119 -71.5 -191.5t-187.5 -72.5q-113 0 -183 72.5t-70 191.5q0 118 70 190.5t183 72.5zM294 402q-48 0 -78 -41t-30 -107q0 -59 23 -97l131 235q-23 10 -46 10zM294 106q51 0 82.5 40.5t31.5 107.5q0 49 -19 87l-128 -229
q15 -6 33 -6z" />
    <glyph glyph-name="zero.tf" 
d="M299 -10q-121 0 -188.5 93t-67.5 260t67.5 261t188.5 94q122 0 190.5 -94t68.5 -261t-68.5 -260t-190.5 -93zM299 106q54 0 84 61t30 176q0 116 -30 177.5t-84 61.5q-53 0 -82 -61t-29 -178q0 -116 29 -176.5t82 -60.5z" />
    <glyph glyph-name="one.tf" 
d="M403 112h131v-112h-401v112h129v402l-167 -67l-20 114l265 127h63v-576z" />
    <glyph glyph-name="two.tf" 
d="M244 116h298v-116h-470l-22 92l238 241q51 51 71.5 82.5t20.5 71.5q0 44 -33 69t-85 25q-93 0 -180 -38l-21 109q94 45 221 45q111 0 177 -54.5t66 -143.5q0 -66 -39 -124t-128 -146z" />
    <glyph glyph-name="three.tf" 
d="M382 360q69 -9 109.5 -57t40.5 -111q0 -88 -75 -145t-196 -57q-53 0 -112 11.5t-93 28.5l19 110q24 -14 74.5 -24t93.5 -10q61 0 102 28t41 71q0 44 -36.5 67t-98.5 23h-62v103h52q56 0 87 27t31 68q0 40 -30.5 64t-83.5 24q-66 0 -147 -25l-18 107q80 34 193 34
q105 0 168 -48t63 -129q0 -59 -34.5 -102t-87.5 -58z" />
    <glyph glyph-name="four.tf" 
d="M561 276v-120h-96v-156h-142v156h-279l-27 90l329 441h119v-411h96zM154 276h169v229z" />
    <glyph glyph-name="five.tf" 
d="M330 426q101 0 162 -56.5t61 -148.5q0 -104 -78 -167.5t-206 -63.5q-109 0 -216 45l23 114q29 -18 80.5 -30.5t100.5 -12.5q72 0 111.5 29.5t39.5 81.5q0 46 -32.5 76t-88.5 30q-87 0 -156 -28l-65 51l38 342h402v-116h-289l-18 -158q63 12 131 12z" />
    <glyph glyph-name="six.tf" 
d="M336 425q103 0 163.5 -59.5t60.5 -155.5q0 -100 -67.5 -160t-176.5 -60q-124 0 -193 77.5t-69 215.5q0 173 110 284t307 130l17 -111q-111 -14 -180 -62.5t-94 -119.5q58 21 122 21zM314 106q47 0 76.5 30.5t29.5 79.5q0 50 -31 79.5t-92 29.5q-53 0 -103 -22
q-3 -20 -3 -40q0 -75 34 -116t89 -41z" />
    <glyph glyph-name="seven.tf" 
d="M540 688l15 -72l-304 -616h-157l298 572h-333v116h481z" />
    <glyph glyph-name="eight.tf" 
d="M426 341q128 -55 128 -165q0 -82 -70 -134t-186 -52q-117 0 -185 52.5t-68 136.5q0 49 33 93t88 75q-48 24 -76 67.5t-28 93.5q0 85 66.5 137t175.5 52t172.5 -51.5t63.5 -134.5q0 -55 -32 -99.5t-82 -70.5zM302 581q-45 0 -71.5 -22t-26.5 -57q0 -58 62 -88l48 -22
q37 15 61 41.5t24 61.5q0 39 -26 62.5t-71 23.5zM303 106q52 0 81 22t29 57q0 60 -69 86l-66 28q-92 -38 -92 -106q0 -38 29.5 -62.5t87.5 -24.5z" />
    <glyph glyph-name="nine.tf" 
d="M284 697q124 0 193 -77.5t69 -215.5q0 -173 -110 -284t-307 -130l-17 111q111 14 180 62.5t94 119.5q-58 -21 -122 -21q-103 0 -163.5 59.5t-60.5 155.5q0 100 67.5 160t176.5 60zM180 471q0 -50 31 -79.5t92 -29.5q53 0 103 22q3 20 3 40q0 75 -34 116t-89 41
q-47 0 -76.5 -30.5t-29.5 -79.5z" />
    <glyph glyph-name="zero.tf.zero" 
d="M299 698q122 0 190.5 -94t68.5 -261t-68.5 -260t-190.5 -93q-121 0 -188.5 93t-67.5 260t67.5 261t188.5 94zM299 582q-53 0 -82 -61t-29 -178q0 -65 9 -111l172 313q-28 37 -70 37zM299 106q55 0 84.5 60.5t29.5 176.5q0 65 -9 113l-173 -314q27 -36 68 -36z" />
    <glyph glyph-name="zero.tosf" 
d="M298 -10q-114 0 -184 72.5t-70 191.5q0 118 70 190.5t184 72.5q116 0 187.5 -72.5t71.5 -190.5q0 -119 -71.5 -191.5t-187.5 -72.5zM298 106q51 0 82 40.5t31 107.5q0 66 -31 107t-82 41q-49 0 -78.5 -41t-29.5 -107q0 -67 29.5 -107.5t78.5 -40.5z" />
    <glyph glyph-name="one.tosf" 
d="M395 108h135v-108h-410v108h137v245l-160 -62l-18 104l252 112h64v-399z" />
    <glyph glyph-name="two.tosf" 
d="M295 113h226v-113h-426l-23 71l214 188q69 57 69 93q0 25 -24 39.5t-65 14.5q-85 0 -159 -26l-19 105q34 14 92.5 23t108.5 9q103 0 157 -43.5t54 -112.5q0 -44 -27.5 -83t-92.5 -95z" />
    <glyph glyph-name="three.tosf" 
d="M374 186q65 -8 106.5 -54.5t41.5 -110.5q0 -109 -116.5 -167t-308.5 -58l-19 108q298 2 298 129q0 42 -37 65t-98 23h-56v103h46q53 0 85.5 24.5t32.5 70.5q0 38 -31.5 60.5t-86.5 22.5q-68 0 -142 -22l-19 107q82 30 191 30q104 0 168.5 -46t64.5 -124q0 -57 -34 -101
t-86 -60z" />
    <glyph glyph-name="four.tosf" 
d="M584 115v-115h-128v-194h-141v194h-279l-28 91l329 416h119v-392h128zM154 115h161v203z" />
    <glyph glyph-name="five.tosf" 
d="M321 270q102 0 163.5 -55.5t61.5 -145.5q0 -87 -62.5 -149.5t-166 -93t-235.5 -30.5l-19 112q85 1 159 16.5t126.5 51.5t52.5 88q0 45 -33.5 70.5t-94.5 25.5q-77 0 -143 -32l-66 52l56 327h392v-115h-284l-23 -138q55 16 116 16z" />
    <glyph glyph-name="six.tosf" 
d="M336 425q103 0 163.5 -59.5t60.5 -155.5q0 -100 -67.5 -160t-176.5 -60q-124 0 -193 77.5t-69 215.5q0 174 110.5 290t306.5 134l17 -110q-114 -13 -182.5 -65t-92.5 -128q58 21 123 21zM314 106q47 0 76.5 30.5t29.5 79.5q0 50 -31 79.5t-92 29.5q-53 0 -103 -22
q-3 -20 -3 -40q0 -75 34 -116t89 -41z" />
    <glyph glyph-name="seven.tosf" 
d="M539 507l15 -71l-305 -630h-156l298 586h-334v115h482z" />
    <glyph glyph-name="eight.tosf" 
d="M427 351q127 -58 127 -168q0 -85 -70 -139t-186 -54q-117 0 -185 54.5t-68 141.5q0 51 33 95t88 76q-47 24 -75.5 69t-28.5 97q0 88 66.5 142.5t175.5 54.5q108 0 172 -54t64 -139q0 -57 -31.5 -103t-81.5 -73zM302 604q-44 0 -71 -25t-27 -62q0 -59 62 -91l48 -23
q38 15 61.5 43t23.5 64q0 41 -26 67.5t-71 26.5zM303 106q52 0 81 24.5t29 61.5q0 63 -69 89l-64 27q-94 -41 -94 -107q0 -41 30 -68t87 -27z" />
    <glyph glyph-name="nine.tosf" 
d="M284 517q124 0 193 -77.5t69 -215.5q0 -175 -110.5 -292.5t-306.5 -135.5l-17 111q118 16 185 68t90 128q-58 -21 -123 -21q-103 0 -163.5 59.5t-60.5 155.5q0 100 67.5 160t176.5 60zM180 291q0 -50 31 -79.5t92 -29.5q49 0 103 22q3 19 3 40q0 75 -34 116.5t-89 41.5
q-47 0 -76.5 -31t-29.5 -80z" />
    <glyph glyph-name="zero.tosf.zero" 
d="M298 517q116 0 187.5 -72.5t71.5 -190.5q0 -119 -71.5 -191.5t-187.5 -72.5q-113 0 -183 72.5t-70 191.5q0 118 70 190.5t183 72.5zM298 402q-48 0 -78 -41t-30 -107q0 -58 23 -96l131 234q-23 10 -46 10zM298 106q51 0 82.5 40.5t31.5 107.5q0 49 -19 87l-129 -229
q16 -6 34 -6z" />
    <glyph glyph-name="zero.zero" horiz-adv-x="610" 
d="M304 698q122 0 190.5 -94t68.5 -261t-68.5 -260t-190.5 -93q-121 0 -188.5 93t-67.5 260t67.5 261t188.5 94zM304 582q-53 0 -82 -61t-29 -178q0 -65 9 -111l173 312q-29 38 -71 38zM304 106q55 0 84.5 60.5t29.5 176.5q0 65 -9 113l-173 -314q27 -36 68 -36z" />
    <glyph glyph-name="zero.subs" horiz-adv-x="380" 
d="M190 -200q-74 0 -116 56t-42 156t42 156.5t116 56.5t116 -56.5t42 -156.5t-42 -156t-116 -56zM190 -120q58 0 58 132q0 133 -58 133q-57 0 -57 -133q0 -132 57 -132z" />
    <glyph glyph-name="one.subs" horiz-adv-x="271" 
d="M178 219h43v-413h-97v295l-96 -36l-13 78z" />
    <glyph glyph-name="two.subs" horiz-adv-x="356" 
d="M158 -114h168v-80h-287l-15 63l137 138q31 30 43 48t12 41t-18 36t-45 13q-54 0 -108 -22l-15 74q58 27 137 27q68 0 108.5 -32.5t40.5 -86.5q0 -43 -24.5 -79t-82.5 -90z" />
    <glyph glyph-name="three.subs" horiz-adv-x="343" 
d="M227 23q40 -7 63 -35.5t23 -66.5q0 -53 -46 -87t-120 -34q-76 0 -124 25l13 75q33 -20 99 -20q33 0 55.5 14.5t22.5 36.5q0 46 -75 46h-36v71h29q31 0 48 14t17 36t-16.5 34.5t-45.5 12.5q-36 0 -85 -15l-12 74q45 20 117 20q65 0 103.5 -29t38.5 -78q0 -34 -19.5 -59.5
t-49.5 -34.5z" />
    <glyph glyph-name="four.subs" horiz-adv-x="367" 
d="M343 -26v-78h-55v-90h-98v90h-159l-19 62l194 261h82v-245h55zM99 -26h91v125z" />
    <glyph glyph-name="five.subs" horiz-adv-x="359" 
d="M199 65q60 0 97 -34t37 -89q0 -64 -47.5 -103t-125.5 -39q-63 0 -132 26l16 78q42 -24 106 -24q40 0 61.5 15.5t21.5 42.5q0 25 -17 40.5t-47 15.5q-53 0 -89 -14l-44 35l24 204h246v-80h-168l-10 -81q42 7 71 7z" />
    <glyph glyph-name="six.subs" horiz-adv-x="363" 
d="M204 62q63 0 100 -37t37 -93q0 -60 -41 -96t-109 -36q-74 0 -117 46t-43 130q0 106 68 173t190 76l12 -77q-130 -11 -161 -96q30 10 64 10zM190 -120q25 0 41 17t16 42t-17.5 41t-51.5 16q-27 0 -50 -9q-3 -13 -3 -27q0 -38 19 -59t46 -21z" />
    <glyph glyph-name="seven.subs" horiz-adv-x="343" 
d="M317 219l11 -48l-178 -365h-109l174 333h-192v80h294z" />
    <glyph glyph-name="eight.subs" horiz-adv-x="373" 
d="M268 14q73 -38 73 -102q0 -49 -42.5 -80.5t-113.5 -31.5q-72 0 -113 32t-41 82q0 57 72 99q-27 15 -44.5 41.5t-17.5 55.5q0 51 40.5 82.5t107.5 31.5q66 0 105 -30.5t39 -80.5q0 -65 -65 -99zM188 147q-25 0 -38.5 -11t-13.5 -30q0 -30 35 -49l23 -10q42 18 42 55
q0 20 -13 32.5t-35 12.5zM188 -123q27 0 42.5 12.5t15.5 31.5q0 30 -39 45l-30 13q-48 -22 -48 -55q0 -19 14.5 -33t44.5 -14z" />
    <glyph glyph-name="nine.subs" horiz-adv-x="363" 
d="M172 225q75 0 118 -46t43 -130q0 -106 -68.5 -173t-190.5 -76l-11 76q130 14 161 97q-30 -10 -64 -10q-63 0 -100 37t-37 93q0 60 41 96t108 36zM117 88q0 -25 18 -41.5t50 -16.5q28 0 51 9q3 13 3 26q0 39 -19 59.5t-46 20.5q-25 0 -41 -16t-16 -41z" />
    <glyph glyph-name="zero.dnom" horiz-adv-x="380" 
d="M190 -6q-74 0 -116 56t-42 156t42 156.5t116 56.5t116 -56.5t42 -156.5t-42 -156t-116 -56zM190 74q58 0 58 132q0 133 -58 133q-57 0 -57 -133q0 -132 57 -132z" />
    <glyph glyph-name="one.dnom" horiz-adv-x="271" 
d="M178 413h43v-413h-97v294l-96 -36l-13 78z" />
    <glyph glyph-name="two.dnom" horiz-adv-x="356" 
d="M158 80h168v-80h-287l-15 63l137 138q31 30 43 47.5t12 41.5q0 23 -17.5 35.5t-45.5 12.5q-54 0 -108 -22l-15 75q58 27 137 27q68 0 108.5 -33t40.5 -86q0 -43 -25 -79.5t-82 -89.5z" />
    <glyph glyph-name="three.dnom" horiz-adv-x="343" 
d="M225 216q41 -6 64.5 -35t23.5 -66q0 -53 -46 -87t-120 -34q-79 0 -124 25l13 75q33 -20 99 -20q33 0 55.5 14t22.5 37q0 46 -75 46h-36v70h29q31 0 48 14.5t17 36.5q0 46 -62 46q-40 0 -85 -14l-12 74q50 20 117 20q65 0 103.5 -29t38.5 -78q0 -35 -20 -60.5t-51 -34.5z
" />
    <glyph glyph-name="four.dnom" horiz-adv-x="367" 
d="M343 168v-79h-55v-89h-98v89h-159l-19 63l194 260h82v-244h55zM100 168h90v124z" />
    <glyph glyph-name="five.dnom" horiz-adv-x="359" 
d="M199 258q61 0 97.5 -33.5t36.5 -89.5q0 -64 -47.5 -102.5t-125.5 -38.5q-67 0 -132 26l16 78q42 -24 106 -24q40 0 61.5 15.5t21.5 42.5q0 25 -17 40t-47 15q-55 0 -89 -13l-44 34l24 205h246v-80h-168l-10 -82q42 7 71 7z" />
    <glyph glyph-name="six.dnom" horiz-adv-x="363" 
d="M204 256q63 0 100 -37t37 -93q0 -60 -41 -96t-109 -36q-75 0 -117.5 46t-42.5 130q0 106 68 173t190 76l12 -77q-130 -11 -161 -96q30 10 64 10zM190 74q24 0 40.5 17t16.5 41q0 25 -17.5 41.5t-51.5 16.5q-27 0 -50 -9q-3 -13 -3 -27q0 -39 18.5 -59.5t46.5 -20.5z" />
    <glyph glyph-name="seven.dnom" horiz-adv-x="343" 
d="M317 413l11 -49l-178 -364h-109l174 333h-192v80h294z" />
    <glyph glyph-name="eight.dnom" horiz-adv-x="373" 
d="M267 207q74 -36 74 -102q0 -49 -42.5 -80t-113.5 -31q-72 0 -113 32t-41 82q0 55 71 98q-27 16 -44 42.5t-17 54.5q0 52 40.5 83.5t107.5 31.5t105.5 -31t38.5 -81q0 -62 -66 -99zM188 341q-24 0 -38 -11.5t-14 -29.5q0 -30 35 -49l23 -11q42 21 42 55q0 20 -13 33
t-35 13zM188 71q27 0 42.5 12.5t15.5 31.5q0 30 -39 45l-30 13q-48 -23 -48 -56q0 -18 14.5 -32t44.5 -14z" />
    <glyph glyph-name="nine.dnom" horiz-adv-x="363" 
d="M172 419q75 0 118 -46.5t43 -130.5q0 -106 -68.5 -173t-190.5 -75l-11 76q130 14 161 97q-30 -10 -64 -10q-63 0 -100 37t-37 93q0 60 41 96t108 36zM117 282q0 -25 18 -42t50 -17q25 0 51 10q3 12 3 25q0 39 -19 60t-46 21q-25 0 -41 -16t-16 -41z" />
    <glyph glyph-name="zero.numr" horiz-adv-x="380" 
d="M190 269q-74 0 -116 56t-42 156q0 99 42 156t116 57t116 -57t42 -156q0 -100 -42 -156t-116 -56zM190 348q58 0 58 133q0 132 -58 132q-57 0 -57 -132q0 -133 57 -133z" />
    <glyph glyph-name="one.numr" horiz-adv-x="271" 
d="M178 688h43v-413h-97v294l-96 -36l-13 78z" />
    <glyph glyph-name="two.numr" horiz-adv-x="356" 
d="M158 354h168v-79h-287l-15 62l137 138q31 30 43 48t12 41t-18 36t-45 13q-54 0 -108 -22l-15 75q58 27 137 27q68 0 108.5 -33t40.5 -87q0 -43 -24.5 -79t-82.5 -90z" />
    <glyph glyph-name="three.numr" horiz-adv-x="343" 
d="M226 491q40 -7 63.5 -35.5t23.5 -65.5q0 -53 -46 -87t-120 -34q-78 0 -124 24l13 75q36 -20 99 -20q33 0 55.5 14.5t22.5 36.5q0 47 -75 47h-36v70h29q31 0 48 14.5t17 36.5q0 21 -16.5 33.5t-45.5 12.5q-36 0 -85 -15l-12 74q48 21 117 21q65 0 103.5 -29t38.5 -78
q0 -34 -20 -60t-50 -35z" />
    <glyph glyph-name="four.numr" horiz-adv-x="367" 
d="M343 442v-78h-55v-89h-98v89h-159l-19 62l194 261h82v-245h55zM99 442h91v125z" />
    <glyph glyph-name="five.numr" horiz-adv-x="359" 
d="M199 533q61 0 97.5 -33.5t36.5 -89.5q0 -64 -47.5 -102.5t-125.5 -38.5q-65 0 -132 25l16 78q42 -24 106 -24q83 0 83 59q0 24 -17 39.5t-47 15.5q-53 0 -89 -14l-44 35l24 205h246v-81h-168l-10 -81q42 7 71 7z" />
    <glyph glyph-name="six.numr" horiz-adv-x="363" 
d="M204 530q63 0 99.5 -36.5t36.5 -93.5q0 -60 -41 -95.5t-108 -35.5q-75 0 -118 45.5t-43 129.5q0 106 68.5 173t190.5 76l12 -77q-130 -10 -161 -96q30 10 64 10zM190 348q25 0 41 17t16 42t-18 41t-51 16q-28 0 -51 -9q-3 -13 -3 -27q0 -38 19.5 -59t46.5 -21z" />
    <glyph glyph-name="seven.numr" horiz-adv-x="343" 
d="M317 688l11 -49l-178 -364h-109l173 332h-191v81h294z" />
    <glyph glyph-name="eight.numr" horiz-adv-x="373" 
d="M268 482q73 -38 73 -102q0 -49 -42.5 -80t-113.5 -31q-72 0 -113 31.5t-41 81.5q0 57 72 99q-27 15 -44.5 41.5t-17.5 55.5q0 51 41 83t107 32q67 0 105.5 -31t38.5 -81q0 -65 -65 -99zM188 615q-25 0 -38.5 -11t-13.5 -30q0 -30 35 -49l23 -10q42 18 42 55
q0 20 -13 32.5t-35 12.5zM188 345q27 0 42.5 12.5t15.5 31.5q0 30 -39 46l-29 13q-49 -23 -49 -56q0 -19 14.5 -33t44.5 -14z" />
    <glyph glyph-name="nine.numr" horiz-adv-x="363" 
d="M172 693q75 0 118 -46t43 -130q0 -106 -68 -173t-190 -75l-12 76q133 14 161 97q-28 -10 -64 -10q-63 0 -100 36.5t-37 93.5q0 59 41 95t108 36zM117 556q0 -25 18 -41.5t51 -16.5q24 0 50 10q3 12 3 25q0 39 -19 59.5t-46 20.5q-25 0 -41 -16t-16 -41z" />
    <glyph glyph-name="uni2070" horiz-adv-x="380" 
d="M190 466q-74 0 -116 56t-42 156t42 156.5t116 56.5t116 -56.5t42 -156.5t-42 -156t-116 -56zM190 546q58 0 58 132q0 133 -58 133q-57 0 -57 -133q0 -132 57 -132z" />
    <glyph glyph-name="uni2074" horiz-adv-x="367" 
d="M343 640v-78h-55v-90h-98v90h-159l-19 62l194 261h82v-245h55zM99 640h91v125z" />
    <glyph glyph-name="uni2075" horiz-adv-x="359" 
d="M199 731q61 0 97.5 -34t36.5 -90q0 -64 -47.5 -102.5t-125.5 -38.5q-63 0 -132 26l16 78q42 -24 106 -24q40 0 61.5 15.5t21.5 42.5q0 25 -17 40.5t-47 15.5q-53 0 -89 -14l-44 34l24 205h246v-80h-168l-10 -81q42 7 71 7z" />
    <glyph glyph-name="uni2076" horiz-adv-x="363" 
d="M204 728q63 0 100 -37t37 -93q0 -60 -41 -96t-109 -36q-75 0 -117.5 46t-42.5 130q0 106 68 173t190 76l12 -77q-130 -11 -161 -96q30 10 64 10zM190 546q25 0 41 17t16 42t-17.5 41t-51.5 16q-27 0 -50 -9q-3 -13 -3 -27q0 -39 18.5 -59.5t46.5 -20.5z" />
    <glyph glyph-name="uni2077" horiz-adv-x="343" 
d="M317 885l11 -49l-178 -364h-109l174 333h-192v80h294z" />
    <glyph glyph-name="uni2078" horiz-adv-x="373" 
d="M267 679q74 -36 74 -101q0 -49 -42.5 -80.5t-113.5 -31.5q-72 0 -113 32t-41 82q0 57 72 99q-27 15 -44.5 41.5t-17.5 55.5q0 51 40.5 82.5t107.5 31.5q66 0 105 -30.5t39 -80.5q0 -63 -66 -100zM188 813q-25 0 -38.5 -11t-13.5 -30q0 -30 35 -49l23 -11q42 21 42 55
q0 20 -13 33t-35 13zM188 543q27 0 42.5 12.5t15.5 31.5q0 30 -39 45l-29 13q-49 -23 -49 -55q0 -19 14.5 -33t44.5 -14z" />
    <glyph glyph-name="uni2079" horiz-adv-x="363" 
d="M172 891q75 0 118 -46t43 -130q0 -106 -68.5 -173t-190.5 -76l-11 76q130 14 161 97q-30 -10 -64 -10q-63 0 -100 37t-37 93q0 60 41 96t108 36zM117 754q0 -25 18 -41.5t50 -16.5q28 0 51 9q3 13 3 25q0 40 -19 60.5t-46 20.5q-25 0 -41 -16t-16 -41z" />
    <glyph glyph-name="fraction" horiz-adv-x="141" 
d="M-113 -11l308 708l56 -25l-308 -708z" />
    <glyph glyph-name="zero.subs.zero" horiz-adv-x="380" 
d="M190 225q74 0 116 -56.5t42 -156.5t-42 -156t-116 -56t-116 56t-42 156t42 156.5t116 56.5zM190 145q-57 0 -57 -133q0 -42 6 -69l87 180q-13 22 -36 22zM190 -120q58 0 58 132q0 35 -4 56l-83 -175q12 -13 29 -13z" />
    <glyph glyph-name="zero.dnom.zero" horiz-adv-x="380" 
d="M190 419q74 0 116 -56.5t42 -156.5t-42 -156t-116 -56t-116 56t-42 156t42 156.5t116 56.5zM190 339q-57 0 -57 -133q0 -42 6 -70l87 181q-13 22 -36 22zM190 74q58 0 58 132q0 35 -4 56l-83 -175q12 -13 29 -13z" />
    <glyph glyph-name="zero.numr.zero" horiz-adv-x="380" 
d="M190 694q74 0 116 -57t42 -156q0 -100 -42 -156t-116 -56t-116 56t-42 156q0 99 42 156t116 57zM190 613q-57 0 -57 -132q0 -41 6 -70l87 181q-14 21 -36 21zM190 348q58 0 58 133q0 34 -4 55l-83 -175q12 -13 29 -13z" />
    <glyph glyph-name="uni2070.zero" horiz-adv-x="380" 
d="M190 891q74 0 116 -56.5t42 -156.5t-42 -156t-116 -56t-116 56t-42 156t42 156.5t116 56.5zM190 811q-57 0 -57 -133q0 -42 6 -69l87 180q-13 22 -36 22zM190 546q58 0 58 132q0 35 -4 56l-83 -175q12 -13 29 -13z" />
    <glyph glyph-name="periodcentered.case" horiz-adv-x="283" 
d="M141 270q-36 0 -61 24t-25 60q0 34 25.5 58t60.5 24q37 0 62 -23.5t25 -58.5q0 -36 -25 -60t-62 -24z" />
    <glyph glyph-name="bullet.case" horiz-adv-x="445" 
d="M222 197q-66 0 -111.5 45.5t-45.5 111.5t45.5 111.5t111.5 45.5q67 0 112.5 -45.5t45.5 -111.5t-45.5 -111.5t-112.5 -45.5z" />
    <glyph glyph-name="colon.case" horiz-adv-x="296" 
d="M148 447q-36 0 -61 24t-25 60q0 34 25 58t61 24t61.5 -24t25.5 -58q0 -36 -25.5 -60t-61.5 -24zM148 103q-36 0 -61 24t-25 60q0 34 25 58t61 24t61.5 -24t25.5 -58q0 -36 -25.5 -60t-61.5 -24z" />
    <glyph glyph-name="exclamdown.case" horiz-adv-x="293" 
d="M233 636q0 -34 -25 -58t-61 -24t-61.5 24t-25.5 58q0 36 25.5 60t61.5 24t61 -24t25 -60zM104 489h86l37 -459v-30h-160v30z" />
    <glyph glyph-name="questiondown.case" horiz-adv-x="469" 
d="M297 720q36 0 61 -24t25 -60q0 -34 -25 -58t-61 -24t-61 24t-25 58q0 36 25 60t61 24zM352 489l7 -40q8 -56 -10 -92t-60 -64l-67 -50q-48 -33 -48 -67q0 -31 25.5 -47.5t67.5 -16.5q77 0 148 42l20 -116q-39 -21 -93.5 -34.5t-100.5 -13.5q-94 0 -153 48.5t-59 129.5
q0 45 25 88.5t64 68.5l75 49q29 20 42.5 36t10.5 41l-4 38h110z" />
    <glyph glyph-name="uni207D" horiz-adv-x="206" 
d="M119 353q-87 131 -87 277t87 274l70 -12q-78 -121 -78 -263q2 -147 78 -264z" />
    <glyph glyph-name="uni207E" horiz-adv-x="206" 
d="M87 353l-69 12q76 119 76 264q0 143 -76 263l69 12q88 -130 88 -274q0 -147 -88 -277z" />
    <glyph glyph-name="braceleft.case" horiz-adv-x="343" 
d="M273 727q-61 0 -61 -88q0 -40 7 -84q10 -77 10 -97q0 -81 -62 -104q62 -22 62 -103q0 -19 -10 -96q-7 -44 -7 -85q0 -87 61 -87h40v-91h-66q-148 0 -148 171q0 36 8.5 98.5t8.5 84.5q0 37 -14 53t-46 19l-43 4v66l43 3q32 2 46 18.5t14 54.5q0 22 -8.5 84.5t-8.5 97.5
q0 172 148 172h66v-91h-40z" />
    <glyph glyph-name="braceright.case" horiz-adv-x="343" 
d="M287 391l43 -3v-66l-43 -4q-32 -3 -46 -19t-14 -53q0 -22 8.5 -84.5t8.5 -98.5q0 -171 -148 -171h-65v91h40q61 0 61 87q0 27 -7 85q-10 77 -10 96q0 82 61 103q-61 22 -61 104q0 35 10 97q7 44 7 84q0 88 -61 88h-40v91h65q148 0 148 -172q0 -35 -8.5 -97.5t-8.5 -84.5
q0 -38 14 -54.5t46 -18.5z" />
    <glyph glyph-name="bracketleft.case" horiz-adv-x="346" 
d="M197 729v-743h125l-10 -90h-229v923h229l10 -90h-125z" />
    <glyph glyph-name="bracketright.case" horiz-adv-x="346" 
d="M34 819h229v-923h-229l-10 90h125v743h-125z" />
    <glyph glyph-name="parenleft.case" horiz-adv-x="300" 
d="M187 -108q-67 99 -105.5 220.5t-38.5 242.5q0 120 38 240.5t106 219.5l101 -18q-129 -197 -129 -443q0 -250 129 -444z" />
    <glyph glyph-name="parenright.case" horiz-adv-x="300" 
d="M114 -109l-101 18q128 197 128 444t-128 444l101 18q68 -100 106 -220.5t38 -240.5t-38.5 -241.5t-105.5 -221.5z" />
    <glyph glyph-name="emdash.case" horiz-adv-x="885" 
d="M62 401h760v-96h-760v96z" />
    <glyph glyph-name="endash.case" horiz-adv-x="640" 
d="M62 401h516v-96h-516v96z" />
    <glyph glyph-name="hyphen.case" horiz-adv-x="445" 
d="M62 401h321v-96h-321v96z" />
    <glyph glyph-name="guillemotleft.case" horiz-adv-x="531" 
d="M271 523l-127 -169l128 -168l-95 -26l-134 160v67l133 162zM352 354l128 -168l-95 -26l-134 160v67l133 162l95 -26z" />
    <glyph glyph-name="guillemotright.case" horiz-adv-x="531" 
d="M280 387v-67l-134 -160l-95 26l128 168l-127 169l95 26zM355 549l133 -162v-67l-134 -160l-95 26l128 168l-127 169z" />
    <glyph glyph-name="guilsinglleft.case" horiz-adv-x="323" 
d="M144 354l128 -168l-95 -26l-134 160v67l133 162l95 -26z" />
    <glyph glyph-name="guilsinglright.case" horiz-adv-x="323" 
d="M147 549l133 -162v-67l-134 -160l-95 26l128 168l-127 169z" />
    <glyph glyph-name="colonsuperior" horiz-adv-x="195" 
d="M98 662q-25 0 -42 16t-17 41q0 23 17 39t42 16q24 0 41 -16t17 -39q0 -24 -17 -40.5t-41 -16.5zM98 466q-25 0 -42 16t-17 41q0 23 17 39t42 16q24 0 41 -16t17 -39q0 -24 -17 -40.5t-41 -16.5z" />
    <glyph glyph-name="commasuperior" horiz-adv-x="195" 
d="M97 579q27 0 44 -17.5t17 -53.5q-1 -45 -34.5 -84t-86.5 -60l-23 36q52 25 70 69q-19 5 -31 20t-12 34q0 24 16 40t40 16z" />
    <glyph glyph-name="hyphensuperior" horiz-adv-x="288" 
d="M43 659h202v-67h-202v67z" />
    <glyph glyph-name="periodsuperior" horiz-adv-x="176" 
d="M88 466q-25 0 -41.5 16t-16.5 41q0 23 16.5 39t41.5 16t41.5 -16t16.5 -39q0 -25 -16.5 -41t-41.5 -16z" />
    <glyph glyph-name="semicolonsuperior" horiz-adv-x="203" 
d="M108 662q-25 0 -42 16t-17 41q0 23 17 39t42 16q24 0 41 -16t17 -39q0 -24 -17 -40.5t-41 -16.5zM101 579q27 0 44 -18t17 -54q-1 -45 -34.5 -84t-86.5 -59l-23 36q52 25 70 69q-19 4 -31 19t-12 35q0 24 16 40t40 16z" />
    <glyph glyph-name="colon.dnom" horiz-adv-x="195" 
d="M98 190q-25 0 -42 16t-17 40t17 40t42 16q24 0 41 -16t17 -40t-17 -40t-41 -16zM98 -6q-25 0 -42 16t-17 41q0 23 17 39t42 16q24 0 41 -16t17 -39q0 -24 -17 -40.5t-41 -16.5z" />
    <glyph glyph-name="comma.dnom" horiz-adv-x="195" 
d="M97 107q27 0 44 -18t17 -54q-1 -45 -34.5 -84t-86.5 -59l-23 36q52 25 70 69q-19 4 -31 19t-12 35q0 24 16 40t40 16z" />
    <glyph glyph-name="hyphen.dnom" horiz-adv-x="288" 
d="M43 187h202v-67l-202 -1v68z" />
    <glyph glyph-name="parenleft.dnom" horiz-adv-x="206" 
d="M119 -119q-88 130 -88 276q0 144 88 275l69 -12q-77 -121 -77 -264q0 -144 77 -263z" />
    <glyph glyph-name="parenright.dnom" horiz-adv-x="206" 
d="M88 -119l-70 12q77 116 77 263q0 145 -77 264l70 12q87 -130 87 -275t-87 -276z" />
    <glyph glyph-name="period.dnom" horiz-adv-x="176" 
d="M88 -6q-25 0 -41.5 16t-16.5 41q0 23 16.5 39t41.5 16t41.5 -16t16.5 -39q0 -25 -16.5 -41t-41.5 -16z" />
    <glyph glyph-name="semicolon.dnom" horiz-adv-x="203" 
d="M104 190q-25 0 -41.5 16t-16.5 40t16.5 40t41.5 16t41.5 -16t16.5 -40t-16.5 -40t-41.5 -16zM98 107q27 0 44 -18t17 -54q-1 -45 -34.5 -84t-86.5 -59l-23 36q52 25 70 69q-19 4 -31 19t-12 35q0 24 16 40t40 16z" />
    <glyph glyph-name="colon.numr" horiz-adv-x="195" 
d="M98 464q-25 0 -42 16.5t-17 40.5q0 23 17 39t42 16q24 0 41 -16t17 -39q0 -24 -17 -40.5t-41 -16.5zM98 269q-25 0 -42 16t-17 40q0 23 17 39.5t42 16.5q24 0 41 -16.5t17 -39.5q0 -24 -17 -40t-41 -16z" />
    <glyph glyph-name="comma.numr" horiz-adv-x="195" 
d="M97 382q27 0 44 -18t17 -54q-1 -45 -34.5 -84t-86.5 -60l-23 36q54 26 70 70q-19 4 -31 19t-12 35q0 23 16 39.5t40 16.5z" />
    <glyph glyph-name="hyphen.numr" horiz-adv-x="288" 
d="M43 461h202v-67h-202v67z" />
    <glyph glyph-name="parenleft.numr" horiz-adv-x="206" 
d="M119 155q-87 131 -87 277q0 145 87 275l70 -12q-78 -121 -78 -264q2 -147 78 -264z" />
    <glyph glyph-name="parenright.numr" horiz-adv-x="206" 
d="M87 155l-69 12q76 119 76 264q0 144 -76 264l69 12q88 -131 88 -275q0 -147 -88 -277z" />
    <glyph glyph-name="period.numr" horiz-adv-x="176" 
d="M88 269q-25 0 -41.5 15.5t-16.5 40.5q0 23 16.5 39.5t41.5 16.5t41.5 -16.5t16.5 -39.5q0 -25 -16.5 -40.5t-41.5 -15.5z" />
    <glyph glyph-name="semicolon.numr" horiz-adv-x="203" 
d="M108 464q-25 0 -42 16.5t-17 40.5q0 23 17 39t42 16q24 0 41 -16t17 -39q0 -24 -17 -40.5t-41 -16.5zM101 382q27 0 44 -18t17 -54q-1 -45 -34.5 -84t-86.5 -59l-23 36q52 25 70 69q-19 4 -31 19t-12 35q0 24 16 40t40 16z" />
    <glyph glyph-name="colon.subs" horiz-adv-x="195" 
d="M98 -4q-25 0 -42 16t-17 41q0 23 17 39t42 16q24 0 41 -16t17 -39q0 -24 -17 -40.5t-41 -16.5zM98 -200q-25 0 -42 16t-17 41q0 23 17 39.5t42 16.5q24 0 41 -16.5t17 -39.5q0 -24 -17 -40.5t-41 -16.5z" />
    <glyph glyph-name="comma.subs" horiz-adv-x="195" 
d="M97 -87q27 0 44 -17.5t17 -53.5q-1 -45 -34.5 -84t-86.5 -60l-23 36q52 25 70 69q-19 5 -31 20t-12 34q0 24 16 40t40 16z" />
    <glyph glyph-name="hyphen.subs" horiz-adv-x="288" 
d="M43 -7h202v-67h-202v67z" />
    <glyph glyph-name="parenleft.subs" horiz-adv-x="206" 
d="M119 -313q-87 131 -87 277t87 274l70 -11q-78 -121 -78 -264q2 -147 78 -264z" />
    <glyph glyph-name="parenright.subs" horiz-adv-x="206" 
d="M87 -313l-69 12q76 119 76 264q0 144 -76 264l69 11q88 -130 88 -274q0 -147 -88 -277z" />
    <glyph glyph-name="period.subs" horiz-adv-x="176" 
d="M88 -200q-25 0 -41.5 16t-16.5 41q0 23 16.5 39.5t41.5 16.5t41.5 -16.5t16.5 -39.5q0 -25 -16.5 -41t-41.5 -16z" />
    <glyph glyph-name="semicolon.subs" horiz-adv-x="203" 
d="M108 -4q-25 0 -42 16t-17 41q0 23 17 39t42 16q24 0 41 -16t17 -39q0 -24 -17 -40.5t-41 -16.5zM101 -87q27 0 44 -18t17 -54q-1 -45 -34.5 -84t-86.5 -59l-23 36q52 25 70 69q-19 4 -31 19t-12 35q0 24 16 40t40 16z" />
    <glyph glyph-name="cent.case" horiz-adv-x="505" 
d="M440 240l20 -108q-58 -27 -134 -32v-99h-65v100q-100 12 -160.5 80t-60.5 173q0 106 61.5 175t159.5 79v102h65v-103q94 -10 143 -54l-56 -90q-30 24 -87 29v-277h2q67 0 112 25zM186 357q0 -95 75 -129v257q-75 -29 -75 -128z" />
    <glyph glyph-name="uni207C" horiz-adv-x="390" 
d="M43 724h304v-64h-304v64zM43 606h304v-64h-304v64z" />
    <glyph glyph-name="uni207A" horiz-adv-x="353" 
d="M329 651v-63h-120v-117h-64v117h-120v63h120v116h64v-116h120z" />
    <glyph glyph-name="arrowup" horiz-adv-x="555" 
d="M512 473v-14h-198v-571h-73v571h-198v15l234 234z" />
    <glyph glyph-name="uni2197" horiz-adv-x="726" 
d="M322 546l332 -1v-330l-10 -10l-139 138l-404 -404l-52 52l404 403l-141 141z" />
    <glyph glyph-name="arrowright" horiz-adv-x="925" 
d="M642 485l234 -234l-235 -236h-14v199h-571v73h572v198h14z" />
    <glyph glyph-name="uni2198" horiz-adv-x="723" 
d="M646 296l10 -10l-1 -333h-330l-10 10l139 139l-405 405l52 51l404 -403z" />
    <glyph glyph-name="arrowdown" horiz-adv-x="555" 
d="M313 130h200v-14l-236 -235l-234 233v15h197v571h73v-570z" />
    <glyph glyph-name="uni2199" horiz-adv-x="723" 
d="M674 509l-404 -404l141 -140l-10 -10l-333 1v330l11 10l139 -138l404 403z" />
    <glyph glyph-name="arrowleft" horiz-adv-x="925" 
d="M869 288v-73h-571v-200h-14l-235 236l234 234h14v-197h572z" />
    <glyph glyph-name="uni2196" horiz-adv-x="728" 
d="M678 -13l-52 -52l-404 404l-140 -141l-10 10v333h331l10 -11l-139 -139z" />
    <glyph glyph-name="triagup" horiz-adv-x="670" 
d="M26 112l309 535l310 -536z" />
    <glyph glyph-name="uni25B6" horiz-adv-x="655" 
d="M77 673l535 -309l-536 -311z" />
    <glyph glyph-name="triagdn" horiz-adv-x="664" 
d="M23 646l619 1l-310 -536z" />
    <glyph glyph-name="uni25C0" horiz-adv-x="655" 
d="M578 673l1 -620l-536 311z" />
    <glyph glyph-name="uni2605" horiz-adv-x="803" 
d="M546 250l90 -275l-235 170l-234 -170l89 275l-234 171h290l89 276l90 -276h290z" />
    <glyph glyph-name="uni2611" horiz-adv-x="711" 
d="M737 737l-86 -151v-586h-591v591h458l113 204zM580 71v391l-204 -358l-195 272l89 80l97 -136l111 200h-347v-449h449z" />
    <glyph glyph-name="uni261C" horiz-adv-x="1041" 
d="M191 393l78 -4q-18 -20 -18 -39q0 -10 6 -24q-16 -8 -26.5 -24.5t-10.5 -34.5q0 -17 11 -28q-25 -23 -25 -49q0 -42 49.5 -66t96.5 -24q52 0 71 29l212 49q23 7 41.5 -3.5t36.5 -25t37 -14.5q62 191 -2 386l-28 -11v-39l-224 82q-16 7 -40.5 -2.5t-40.5 -31.5l-261 8
q-124 7 -124 -65q0 -12 4.5 -21t15 -15.5t20 -10.5t27 -7.5t29 -5.5t33.5 -4.5t32 -4.5zM779 124h157q62 183 0 407h-157q36 -63 35 -202.5t-35 -204.5zM430 173q40 5 40 56q29 6 40.5 19t19.5 43q65 -1 130 25l-8 17l-9 -2q-40 -9 -67 -9q-53 0 -90 43l45 56l-11 15
l-55 -42q-44 -38 -75 -38q-16 0 -31 8t-15 22q0 8 8.5 16.5t32.5 32t48 53.5q17 24 33 34t39 1l218 -87q16 -25 17.5 -61.5t-10.5 -70.5t-38.5 -61.5t-61.5 -36.5l-200 -50v17zM173 424q-107 10 -107 36q0 7 1.5 12.5t5.5 9.5t7.5 7t10 4.5t11.5 2.5t13 1h13h14.5h13.5
l245 -7q-4 -10 -10 -19t-17 -18t-17 -13.5t-21 -15t-19 -12.5q-24 0 -78 5.5t-66 6.5zM388 332q18 0 39 7t23 7q16 0 33 -17.5t17 -32.5q0 -16 -12 -26t-29 -10q-12 0 -51.5 14.5t-58.5 23.5q-64 26 -64 55q0 16 16 25q37 -46 87 -46zM281 298q5 0 15.5 -4.5t11.5 -4.5
q51 -29 107 -46q1 0 8 -2.5t11 -5.5t4 -7q0 -32 -31 -32q-43 0 -107 25q-17 6 -30.5 19.5t-13.5 30.5q0 10 7.5 18.5t17.5 8.5zM257 214q6 0 28 -11l27 -12l27 -10q6 -1 21.5 -5t23.5 -6q18 -2 18 -16q0 -31 -51 -31q-29 0 -70 18t-41 44q0 6 6 17.5t11 11.5z" />
    <glyph glyph-name="uni261E" horiz-adv-x="1041" 
d="M849 393q10 2 32 4.5t33.5 4.5t29 5.5t27 7.5t20 10.5t15 15.5t4.5 21q0 72 -124 65l-261 -8q-16 22 -40.5 31.5t-40.5 2.5l-224 -82v39l-28 11q-64 -195 -2 -386q19 0 37 14.5t36.5 25t41.5 3.5l212 -49q19 -29 71 -29q47 0 96.5 24t49.5 66q0 26 -25 49q11 11 11 28
q0 18 -10.5 34.5t-26.5 24.5q6 14 6 24q0 19 -18 39zM261 124q-34 65 -35 204.5t35 202.5h-157q-62 -224 0 -407h157zM610 173v-17l-200 50q-35 9 -61.5 36.5t-38.5 61.5t-10.5 70.5t17.5 61.5l218 87q23 9 39 -1t33 -34q24 -30 48 -53.5t32.5 -32t8.5 -16.5q0 -14 -15 -22
t-31 -8q-31 0 -75 38l-55 42l-11 -15l45 -56q-37 -43 -90 -43q-27 0 -67 9l-9 2l-8 -17q65 -26 130 -25q8 -30 19.5 -43t40.5 -19q0 -51 40 -56zM867 424q-12 -1 -66 -6.5t-78 -5.5q-4 2 -19 12.5t-21 15t-17 13.5t-17 18t-10 19l245 7h13.5h14.5h13t13 -1t11.5 -2.5
t10 -4.5t7.5 -7t5.5 -9.5t1.5 -12.5q0 -26 -107 -36zM652 332q50 0 87 46q16 -9 16 -25q0 -29 -64 -55q-19 -9 -58.5 -23.5t-51.5 -14.5q-17 0 -29 10t-12 26q0 15 17 32.5t33 17.5q2 0 23 -7t39 -7zM759 298q10 0 17.5 -8.5t7.5 -18.5q0 -17 -13.5 -30.5t-30.5 -19.5
q-64 -25 -107 -25q-31 0 -31 32q0 4 4 7t11 5.5t8 2.5q56 17 107 46q1 0 11.5 4.5t15.5 4.5zM783 214q5 0 11 -11.5t6 -17.5q0 -26 -41 -44t-70 -18q-51 0 -51 31q0 14 18 16q8 2 23.5 6t21.5 5l27 10l27 12q22 11 28 11z" />
    <glyph glyph-name="uni267C" horiz-adv-x="790" 
d="M749 354q0 146 -103.5 250t-250.5 104q-146 0 -250 -104t-104 -250q0 -147 104 -250.5t250 -103.5q147 0 250.5 103.5t103.5 250.5zM402 445l39 24l-41 69q-5 12 -15 2l-71 -125l-114 65l57 98q13 30 56 34l162 -1q32 -2 49 -32l28 -46l42 25l-63 -112zM469 295v-46l81 1
q6 -1 8.5 2.5t0.5 8.5l-72 126l113 64l57 -97q18 -27 0 -66l-81 -140q-19 -26 -52 -27l-54 -1v-49l-65 112zM305 312l-40 23l-40 -71q-7 -12 6 -14h144l1 -130h-113q-32 -3 -58 32l-81 140q-13 29 3 59l26 47l-42 24l128 1z" />
    <glyph glyph-name="uni2713" horiz-adv-x="711" 
d="M529 795l106 -58l-360 -633l-195 272l89 80l96 -136z" />
    <glyph glyph-name="uniF8FF" horiz-adv-x="921" 
d="M50 0v700h821v-700h-821zM491 367q12 0 16 7h1l2 -6h8v73h-11v-19q0 -5 1 -9h-1q-5 8 -15 8t-16 -7q-5 -8 -5 -20t5 -20q6 -7 15 -7zM643 434q0 -3 1 -5q1 -1 5 -1t5 1q1 2 1 5t-1 5q-1 1 -5 1t-5 -1q-1 -2 -1 -5zM171 368l20 57h1q0 -4 -1 -10v-47h11v69h-16l-20 -55
l-19 55h-16v-69h10v33q0 16 -1 25h1l20 -58h10zM351 376q-4 0 -5 2q-2 1 -2 6v28h15v8h-15v12h-7l-4 -11l-8 -4v-5h8v-29q0 -16 15 -16h6q1 0 2.5 0.5t2.5 1.5v8q-2 -1 -8 -1zM268 394q0 11 -7 20q-6 7 -18 7t-19 -7q-6 -7 -6 -20q0 -8 3 -14q3 -7 9 -10q4 -3 13 -3
q12 0 18 7q7 9 7 20zM318 383q0 2 -2 6q-1 2 -4 5q-7 3 -10 4l-4 2t-3.5 2t-2.5 1q-2 2 -2 4q0 5 9 5q5 0 14 -3l4 8q-8 4 -18 4t-15 -4q-5 -3 -5 -10q0 -6 3 -9q3 -4 12 -7l8 -4q3 0 3 -2q2 -2 2 -4q0 -6 -11 -6q-5 0 -17 4v-9q6 -3 17 -3t16 4q6 5 6 12zM412 368v35
q0 10 -5 14q-4 4 -15 4q-6 0 -9 -1q-6 -2 -10 -4l4 -8q3 3 7 3q3 1 8 1q6 0 7 -2q2 -2 2 -8v-2l-9 -1q-13 0 -18 -4q-6 -5 -6 -12q0 -8 4 -12t12 -4t10 1q3 2 8 7l3 -7h7zM457 421q-6 0 -9 -3q-6 -4 -7 -7h-1l-1 9h-9v-52h11v27q0 5 4 11q5 5 11 5q3 0 5 -1l1 11h-5z
M559 367h10l8 3v9l-9 -3q-1 0 -3.5 -0.5t-4.5 -0.5q-8 0 -11 5q-4 3 -4 11h35v6q0 12 -6 18t-17 6t-17 -7q-7 -7 -7 -21q0 -12 7 -19t19 -7zM629 383q0 4 -1 6t-4 5q-7 3 -10 4l-10 5q-2 2 -2 4q0 5 9 5q5 0 14 -3l4 8q-8 4 -18 4t-15 -4q-5 -3 -5 -10q0 -6 3 -9q3 -4 12 -7
q1 0 2.5 -1l3 -2t2.5 -1q3 0 3 -2q1 -1 1 -4q0 -6 -10 -6q-5 0 -17 4v-9q6 -3 17 -3t16 4t5 12zM699 420h-1q-2 1 -3 1h-5q-10 0 -15 -5q-6 -4 -6 -13q0 -6 3 -9q3 -5 7 -6q-1 0 -5 -4q-2 -2 -2 -5l1 -4q1 -3 4 -3q-4 -1 -8 -5q-3 -3 -3 -8q0 -7 5 -11q8 -4 17 -4q13 0 21 5
q7 4 7 14q0 7 -4 11q-4 3 -14 3h-9q-2 0 -4 1h-2q-2 2 -2 3q0 3 4 5h5q10 0 15 4q6 4 6 13q0 1 -1 3v2l-2 4l9 2v6h-18zM775 402q0 19 -19 19q-4 0 -10 -2q-4 -1 -7 -6l-2 7h-9v-52h12v26q0 10 3 14t10 4q5 0 8 -3q2 -2 2 -9v-32h12v34zM655 420h-12v-52h12v52zM680 403
q0 5 3 8q1 3 7 3t7 -3q3 -3 3 -8q0 -10 -10 -10q-3 0 -7 2q-3 3 -3 8zM557 413q4 0 8 -4t4 -10h-24q0 7 4 10q4 4 8 4zM229 394q0 9 4 13q3 5 10 5q13 0 13 -18t-13 -18q-14 0 -14 18zM494 376q-6 0 -9 4t-3 14q0 8 3 13t9 5q7 0 10 -4q4 -4 4 -14v-2q0 -9 -4 -12
q-3 -4 -10 -4zM388 375q-4 0 -6 2q-2 1 -2 6q0 4 3 7q6 2 12 2l6 1v-5q0 -6 -3 -9q-4 -4 -10 -4zM676 359q0 5 2 7q4 2 8 2h8q7 0 9 -2q3 -2 3 -5q0 -4 -5 -6q-5 -3 -13 -3q-5 0 -9 2q-3 2 -3 5zM649 250q10 0 15 8h1l2 -7h8v74h-11v-19q0 -1 0.5 -4t0.5 -5q-6 7 -16 7
t-16 -7q-5 -8 -5 -20t5 -20q6 -7 16 -7zM155 311h21v9h-52v-9h20v-60h11v60zM401 280h26v9h-26v22h28v9h-39v-69h11v29zM200 251l-2 -5q-3 -9 -11 -9h-6v-8q3 -1 7 -1q15 0 21 16l22 60h-12q-2 -8 -4.5 -14.5t-4 -10.5t-2.5 -7t-1 -4q-1 -2 -1 -6h-1q0 6 -3 12l-11 30h-12z
M268 250q8 0 15 7q6 7 6 20q0 14 -6 20q-4 7 -15 7t-16 -8l-2 8h-9v-76h11v29q6 -7 16 -7zM327 250q6 0 9 1q5 0 8 3v9q-4 -3 -8 -3q-3 -1 -9 -1q-7 0 -11 4q-4 6 -4 12h35v6q0 11 -6 17t-16 6q-12 0 -18 -7t-6 -20t6 -20q7 -7 20 -7zM489 277q0 13 -7 20q-6 7 -18 7t-18 -7
q-7 -6 -7 -20q0 -8 3 -14q3 -5 9 -10q6 -3 13 -3q11 0 18 7t7 20zM549 251v53h-11v-27q0 -9 -3 -14q-4 -4 -10 -4q-5 0 -8 3t-3 9v33h-11v-35q0 -9 5 -14t14 -5q4 0 10 2q5 4 7 6l2 -7h8zM613 285q0 19 -18 19q-7 0 -10 -2q-3 -1 -7 -5l-2 7h-9v-53h11v26q0 8 4 14q3 4 10 4
q5 0 8 -3q2 -4 2 -9v-32h11v34zM720 304q-6 0 -9 -2t-7 -8l-2 10h-9v-53h11v27q0 7 5 12q3 4 10 4h5l1 10h-5zM750 251l-2 -5q-3 -9 -11 -9h-6v-8q3 -1 7 -1q15 0 21 16l22 60h-12q-2 -8 -4.5 -14.5t-4 -10.5t-2.5 -7t-1 -4q-1 -2 -1 -6h-1q0 6 -3 12l-11 30h-12zM325 296
q5 0 8 -3q3 -5 3 -10h-24q2 6 4 10q3 3 9 3zM265 295q6 0 9 -4q3 -5 3 -14t-3 -13q-3 -5 -9 -5q-7 0 -10 5q-3 3 -3 13v2q0 9 3 12q3 4 10 4zM451 277q0 9 3 14q3 4 10 4q13 0 13 -18t-13 -18t-13 18zM652 259q-7 0 -10 5q-3 4 -3 13q0 8 3 14q4 4 9 4q7 0 11 -4q3 -5 3 -14
v-1q0 -8 -3 -13q-4 -4 -10 -4z" />
    <glyph glyph-name="uni2117" horiz-adv-x="797" 
d="M399 710q148 0 252.5 -104.5t104.5 -252.5t-104.5 -253t-252.5 -105q-149 0 -253.5 104.5t-104.5 253.5q0 148 105 252.5t253 104.5zM399 52q124 0 212 88t88 213q0 124 -88 212t-212 88q-125 0 -213.5 -88t-88.5 -212q0 -125 88.5 -213t213.5 -88zM435 553
q60 0 95.5 -33.5t35.5 -89.5t-37 -89t-99 -33h-69v-146h-86v391h160zM420 371q58 0 58 58q0 56 -58 56h-59v-114h59z" />
    <glyph glyph-name="uni2113" horiz-adv-x="426" 
d="M372 113l40 -72q-27 -23 -68 -37t-79 -14q-78 0 -118.5 48t-51.5 118q-21 -12 -60 -24l-26 51q52 35 82 60v250q0 101 46 164t121 63q62 0 100 -44.5t38 -116.5q0 -78 -55 -168.5t-149 -174.5v-10q1 -57 26.5 -91.5t67.5 -34.5q56 0 86 33zM253 642q-27 0 -44 -37
t-17 -96v-182q114 122 114 230q0 38 -14.5 61.5t-38.5 23.5z" />
    <glyph glyph-name="estimated" horiz-adv-x="629" 
d="M322 577q124 0 198.5 -84.5t74.5 -206.5h-429v-193q66 -63 152 -63q76 0 123 33t87 94l31 -19q-44 -68 -99 -104.5t-142 -36.5q-119 0 -195 84.5t-76 205.5q0 123 75 206.5t200 83.5zM322 544q-96 0 -156 -62v-163h309v163q-68 62 -153 62z" />
    <glyph glyph-name="uni2116" horiz-adv-x="1088" 
d="M877 375q-77 0 -123 45.5t-46 124.5t46 124.5t123 45.5q79 0 124.5 -45t45.5 -125t-45.5 -125t-124.5 -45zM498 250v460h142v-710h-152l-263 448v-448h-142v710h155zM877 638q-36 0 -57 -25.5t-21 -67.5t21 -67.5t57 -25.5q37 0 58.5 25.5t21.5 67.5t-21.5 67.5
t-58.5 25.5zM713 238v78h327v-77z" />
    <glyph glyph-name="uni2B24" horiz-adv-x="680" 
d="M637 353q0 -123 -87 -210t-210 -87t-210 87t-87 210t87 210t210 87t210 -87t87 -210z" />
    <glyph glyph-name="uni2120" horiz-adv-x="863" 
d="M245 539q83 -37 83 -110q0 -115 -142 -115q-80 0 -135 33l20 62q53 -30 108 -30q69 0 69 46q0 29 -35 46l-67 29q-83 37 -83 111q0 50 37 77.5t104 27.5q62 0 111 -23l-20 -59q-46 18 -86 18q-28 0 -46 -11.5t-18 -29.5q0 -29 34 -43zM797 320h-78l-7 265l-82 -261h-78
l-82 263l-6 -267h-79l14 390h104l89 -294l88 294h105z" />
    <glyph glyph-name="at.case" horiz-adv-x="909" 
d="M477 742q177 0 284.5 -104.5t107.5 -277.5q0 -122 -56 -200t-151 -78q-51 0 -87.5 22t-50.5 62q-56 -37 -116 -37q-59 0 -97.5 35.5t-38.5 89.5q0 57 43.5 89.5t120.5 32.5q42 0 80 -9q-5 89 -88 89q-68 0 -114 -37l-12 85q25 18 68.5 31t86.5 13q80 0 125.5 -46.5
t45.5 -127.5v-153q2 -74 52 -74q52 0 85.5 59t33.5 150q0 146 -88.5 233t-234.5 87q-163 0 -263 -101.5t-100 -266.5q0 -155 94.5 -250t245.5 -95q109 0 183 30l12 -63q-91 -33 -201 -33q-179 0 -291.5 114t-112.5 297q0 194 119.5 314t314.5 120zM386 258q0 -23 15 -36.5
t44 -13.5q33 0 71 19v76q-25 6 -56 6q-74 0 -74 -51z" />
    <glyph glyph-name="centsuperior" horiz-adv-x="310" 
d="M267 559l14 -74q-25 -12 -68 -17v-63h-47v62q-64 5 -104 46.5t-40 106.5q0 66 40 108t104 46v62h47v-65q50 -8 75 -30l-38 -62q-13 9 -37 14v-147q35 2 54 13zM122 623q0 -51 44 -70v138q-44 -15 -44 -68z" />
    <glyph glyph-name="dollarsuperior" horiz-adv-x="343" 
d="M322 605q0 -48 -32 -79t-85 -40v-65h-55v62q-71 3 -122 36l12 78q64 -34 117 -34q69 0 69 38q0 24 -32 37l-71 29q-47 19 -69.5 44.5t-22.5 65.5q0 47 33 75t86 34v55h55v-54q59 -5 96 -21l-13 -77q-48 23 -99 23q-57 0 -57 -33q0 -23 30 -37l71 -30q89 -37 89 -107z" />
    <glyph glyph-name="eurosuperior" horiz-adv-x="411" 
d="M364 567l25 -78q-46 -23 -104 -23q-83 0 -135 42t-66 117h-65l16 37h44v16q0 13 1 20h-59l17 36h46q14 74 65.5 115.5t131.5 41.5q61 0 105 -19l-30 -75q-30 11 -61 11q-82 0 -107 -74h138l-17 -36h-128q-1 -6 -1 -20q0 -11 1 -16h115l-16 -37h-93q23 -75 112 -75
q35 0 65 17z" />
    <glyph glyph-name="sterlingsuperior" horiz-adv-x="359" 
d="M174 552h157v-80h-307v80h52q19 35 19 78q0 11 -1 16h-53v47h47q-9 61 -9 80q0 53 38.5 86.5t108.5 33.5q49 0 95 -18l-13 -75q-33 13 -66 13q-30 0 -46.5 -14.5t-16.5 -38.5q0 -18 7 -67h93v-47h-87q1 -5 1 -16q0 -45 -19 -78z" />
    <glyph glyph-name="multiplysuperior" horiz-adv-x="363" 
d="M335 732l-108 -108l108 -108l-46 -45l-107 108l-108 -108l-45 45l108 108l-108 108l45 45l108 -107l107 107z" />
    <glyph glyph-name="dividesuperior" horiz-adv-x="360" 
d="M181 692q-20 0 -33 12.5t-13 31.5q0 18 13.5 31t32.5 13t32.5 -13t13.5 -31q0 -19 -13.5 -31.5t-32.5 -12.5zM28 598v53h304v-53h-304zM181 466q-20 0 -33 13t-13 32q0 18 13.5 31t32.5 13t32.5 -13t13.5 -31q0 -19 -13.5 -32t-32.5 -13z" />
    <glyph glyph-name="plusminussuperior" horiz-adv-x="380" 
d="M223 690h119v-59h-119v-72h-64v72h-121v59h121v73h64v-73zM38 471v56h304v-56h-304z" />
    <glyph glyph-name="yensuperior" horiz-adv-x="385" 
d="M370 876l-129 -214v-27h69v-40h-69v-24h69v-40h-69v-59h-97v59h-69v40h69v24h-69v40h69v27l-129 214v8h105l73 -143l72 143h105v-8z" />
    <glyph glyph-name="cent.dnom" horiz-adv-x="310" 
d="M267 86l14 -73q-25 -12 -68 -17v-63h-47v62q-64 5 -104 46.5t-40 106.5t40 107.5t104 46.5v62h47v-65q49 -8 75 -31l-38 -61q-11 7 -37 13v-146q34 2 54 12zM122 150q0 -52 44 -69v137q-44 -15 -44 -68z" />
    <glyph glyph-name="dollar.dnom" horiz-adv-x="343" 
d="M321 132q0 -48 -32 -78.5t-85 -39.5v-65h-54v62q-72 3 -123 36l12 78q62 -34 117 -34q69 0 69 38q0 23 -32 37l-71 28q-47 19 -69.5 44.5t-22.5 66.5q0 47 33 75t87 34v54h54v-53q59 -5 96 -21l-13 -77q-48 23 -99 23q-57 0 -57 -34q0 -23 31 -36l70 -30q89 -37 89 -108z
" />
    <glyph glyph-name="Euro.dnom" horiz-adv-x="411" 
d="M363 94l25 -78q-47 -22 -104 -22q-82 0 -134 42t-66 117h-66l17 37h44v16q0 13 1 19h-60l17 37h47q14 74 65.5 115.5t131.5 41.5q59 0 104 -20l-30 -75q-30 11 -60 11q-82 0 -107 -73h137l-17 -37h-128q-1 -6 -1 -19q0 -11 1 -16h116l-17 -37h-93q24 -75 113 -75
q35 0 64 16z" />
    <glyph glyph-name="plus.dnom" horiz-adv-x="353" 
d="M329 178v-63h-120v-116h-64v116h-120v63h120v117h64v-117h120z" />
    <glyph glyph-name="multiply.dnom" horiz-adv-x="363" 
d="M335 260l-108 -108l108 -108l-46 -45l-107 108l-108 -108l-45 45l108 108l-108 108l45 45l108 -108l107 108z" />
    <glyph glyph-name="divide.dnom" horiz-adv-x="360" 
d="M181 220q-20 0 -33 12.5t-13 31.5q0 18 13.5 31t32.5 13t32.5 -13t13.5 -31q0 -19 -13.5 -31.5t-32.5 -12.5zM28 126v53h304v-53h-304zM181 -6q-20 0 -33 13t-13 32q0 18 13.5 31t32.5 13t32.5 -13t13.5 -31q0 -19 -13.5 -32t-32.5 -13z" />
    <glyph glyph-name="equal.dnom" horiz-adv-x="390" 
d="M43 252h304v-64h-304v64zM43 133h304v-63h-304v63z" />
    <glyph glyph-name="plusminus.dnom" horiz-adv-x="380" 
d="M223 218h119v-59h-119v-73h-64v73h-121v59h121v73h64v-73zM38 -1v55h304v-55h-304z" />
    <glyph glyph-name="sterling.dnom" horiz-adv-x="359" 
d="M174 80h157v-80h-307v80h52q19 35 19 78q0 10 -1 15h-53v48h47q-9 59 -9 79q0 54 38.5 87.5t108.5 33.5q49 0 95 -18l-13 -75q-33 13 -66 13q-30 0 -46.5 -14.5t-16.5 -38.5q0 -18 7 -67h93v-48h-86v-15q0 -45 -19 -78z" />
    <glyph glyph-name="yen.dnom" horiz-adv-x="385" 
d="M370 403l-129 -214v-26h69v-40h-69v-24h69v-40h-69v-59h-97v59h-69v40h69v24h-69v40h69v26l-129 214v9h105l73 -143l72 143h105v-9z" />
    <glyph glyph-name="cent.numr" horiz-adv-x="310" 
d="M267 361l13 -73q-24 -14 -67 -17v-64h-47v63q-65 5 -104.5 46.5t-39.5 106.5t40 107t104 46v62h47v-65q49 -8 74 -30l-37 -61q-13 8 -37 13v-146q35 2 54 12zM122 425q0 -52 44 -69v138q-44 -15 -44 -69z" />
    <glyph glyph-name="dollar.numr" horiz-adv-x="343" 
d="M321 407q0 -48 -32 -78.5t-85 -39.5v-66h-54v63q-70 3 -123 36l13 77q64 -34 117 -34q28 0 48 10t20 28q0 24 -32 37l-70 29q-47 19 -69.5 44.5t-22.5 65.5q0 47 33 75t86 35v54h54v-53q51 -3 96 -22l-12 -76q-50 22 -100 22q-57 0 -57 -33q0 -23 31 -36l71 -30
q88 -38 88 -108z" />
    <glyph glyph-name="Euro.numr" horiz-adv-x="411" 
d="M364 369l25 -78q-47 -22 -104 -22q-83 0 -135 42t-66 117h-65l16 36h44v17q0 13 1 19h-59l17 36h46q14 75 65.5 116.5t131.5 41.5q59 0 105 -20l-30 -75q-30 11 -61 11q-82 0 -107 -74h138l-17 -36h-128q-1 -6 -1 -19q0 -12 1 -17h115l-16 -36h-93q23 -76 112 -76
q35 0 65 17z" />
    <glyph glyph-name="plus.numr" horiz-adv-x="353" 
d="M329 453v-63h-120v-116h-64v116h-120v63h120v117h64v-117h120z" />
    <glyph glyph-name="multiply.numr" horiz-adv-x="363" 
d="M335 534l-108 -108l108 -108l-46 -45l-107 108l-108 -108l-45 45l108 108l-108 108l45 45l108 -107l107 107z" />
    <glyph glyph-name="divide.numr" horiz-adv-x="360" 
d="M181 494q-20 0 -33 12.5t-13 31.5t13 31.5t33 12.5q19 0 32.5 -12.5t13.5 -31.5t-13.5 -31.5t-32.5 -12.5zM28 401v53h304v-53h-304zM181 269q-20 0 -33 12.5t-13 32.5q0 18 13.5 30.5t32.5 12.5t32.5 -12.5t13.5 -30.5q0 -20 -13.5 -32.5t-32.5 -12.5z" />
    <glyph glyph-name="equal.numr" horiz-adv-x="390" 
d="M43 526h304v-64h-304v64zM43 408h304v-64h-304v64z" />
    <glyph glyph-name="plusminus.numr" horiz-adv-x="380" 
d="M223 492h119v-58h-119v-73h-64v73h-121v58h121v74h64v-74zM38 274v55h304v-55h-304z" />
    <glyph glyph-name="sterling.numr" horiz-adv-x="359" 
d="M174 354h157v-79h-307v79h52q19 35 19 79q0 10 -1 15h-53v47h47q-9 59 -9 80q0 53 38.5 86.5t108.5 33.5q47 0 95 -17l-13 -76q-33 13 -66 13q-30 0 -46.5 -14.5t-16.5 -38.5q0 -18 7 -67h93v-47h-87q1 -5 1 -16q0 -45 -19 -78z" />
    <glyph glyph-name="yen.numr" horiz-adv-x="385" 
d="M370 678l-129 -214v-27h69v-40h-69v-23h69v-40h-69v-59h-97v59h-69v40h69v23h-69v40h69v27l-129 214v9h105l73 -144l72 144h105v-9z" />
    <glyph glyph-name="cent.subs" horiz-adv-x="310" 
d="M267 -107l14 -74q-25 -12 -68 -17v-63h-47v62q-65 5 -104.5 47t-39.5 107t40 107t104 46v62h47v-65q50 -8 75 -30l-38 -62q-13 9 -37 14v-146q37 2 54 12zM122 -43q0 -52 44 -69v137q-44 -15 -44 -68z" />
    <glyph glyph-name="dollar.subs" horiz-adv-x="343" 
d="M321 -61q0 -48 -32 -79t-85 -40v-65h-54v62q-72 3 -123 36l12 78q66 -34 117 -34q29 0 49 10t20 28q0 24 -32 37l-71 29q-47 19 -69.5 44.5t-22.5 65.5q0 47 33 75t87 34v55h54v-54q59 -5 96 -21l-13 -77q-48 23 -99 23q-57 0 -57 -33q0 -24 31 -36l70 -30
q89 -37 89 -108z" />
    <glyph glyph-name="Euro.subs" horiz-adv-x="411" 
d="M363 -99l25 -78q-46 -23 -104 -23q-83 0 -135 42.5t-66 117.5h-65l17 36h44v16q0 13 1 20h-60l17 36h47q14 74 65.5 115.5t131.5 41.5q62 0 104 -19l-30 -75q-30 11 -60 11q-82 0 -107 -74h137l-17 -36h-128q-1 -6 -1 -20q0 -11 1 -16h116l-17 -36h-93q23 -76 113 -76
q36 0 64 17z" />
    <glyph glyph-name="plus.subs" horiz-adv-x="353" 
d="M329 -15v-63h-120v-116h-64v116h-120v63h120v116h64v-116h120z" />
    <glyph glyph-name="multiply.subs" horiz-adv-x="363" 
d="M335 66l-108 -108l108 -108l-46 -45l-107 107l-108 -107l-45 45l108 108l-108 108l45 45l108 -107l107 107z" />
    <glyph glyph-name="divide.subs" horiz-adv-x="360" 
d="M181 26q-20 0 -33 12.5t-13 31.5t13 31.5t33 12.5q19 0 32.5 -12.5t13.5 -31.5t-13.5 -31.5t-32.5 -12.5zM28 -68v54h304v-54h-304zM181 -200q-20 0 -33 13t-13 32q0 18 13.5 31t32.5 13t32.5 -13t13.5 -31q0 -19 -13.5 -32t-32.5 -13z" />
    <glyph glyph-name="equal.subs" horiz-adv-x="390" 
d="M43 58h304v-64h-304v64zM43 -60h304v-64h-304v64z" />
    <glyph glyph-name="plusminus.subs" horiz-adv-x="380" 
d="M223 24h119v-58h-119v-73h-64v73h-121v58h121v73h64v-73zM38 -194v55h304v-55h-304z" />
    <glyph glyph-name="sterling.subs" horiz-adv-x="359" 
d="M174 -114h157v-80h-307v80h52q19 35 19 78q0 11 -1 16h-53v47h47q-9 61 -9 80q0 53 38.5 86.5t108.5 33.5q47 0 95 -17l-13 -76q-33 13 -66 13q-30 0 -46.5 -14.5t-16.5 -38.5q0 -18 7 -67h93v-47h-87q1 -5 1 -16q0 -45 -19 -78z" />
    <glyph glyph-name="yen.subs" horiz-adv-x="385" 
d="M370 210l-129 -214v-27h69v-40h-69v-23h69v-41h-69v-59h-97v59h-69v41h69v23h-69v40h69v27l-129 214v8h105l73 -143l72 143h105v-8z" />
    </font>
</defs>
</svg>
